G04 EAGLE Gerber RS-274X export*
G75*
%MOMM*%
%FSLAX34Y34*%
%LPD*%
%INTop Copper*%
%IPPOS*%
%AMOC8*
5,1,8,0,0,1.08239X$1,22.5*%
G01*
%ADD10C,0.000000*%
%ADD11C,0.130000*%
%ADD12C,0.101600*%
%ADD13R,1.500000X1.300000*%
%ADD14C,2.540000*%
%ADD15P,1.649562X8X22.500000*%
%ADD16R,1.000000X1.100000*%
%ADD17R,1.270000X0.558800*%
%ADD18R,1.100000X1.000000*%
%ADD19C,0.756400*%
%ADD20C,0.508000*%
%ADD21C,0.609600*%
%ADD22C,0.406400*%
%ADD23C,0.254000*%

G36*
X139098Y10164D02*
X139098Y10164D01*
X139117Y10162D01*
X139219Y10184D01*
X139321Y10200D01*
X139338Y10210D01*
X139358Y10214D01*
X139447Y10267D01*
X139538Y10316D01*
X139552Y10330D01*
X139569Y10340D01*
X139636Y10419D01*
X139708Y10494D01*
X139716Y10512D01*
X139729Y10527D01*
X139768Y10623D01*
X139811Y10717D01*
X139813Y10737D01*
X139821Y10755D01*
X139839Y10922D01*
X139839Y220078D01*
X139836Y220098D01*
X139838Y220117D01*
X139816Y220219D01*
X139800Y220321D01*
X139790Y220338D01*
X139786Y220358D01*
X139733Y220447D01*
X139684Y220538D01*
X139670Y220552D01*
X139660Y220569D01*
X139581Y220636D01*
X139506Y220708D01*
X139488Y220716D01*
X139473Y220729D01*
X139377Y220768D01*
X139283Y220811D01*
X139263Y220813D01*
X139245Y220821D01*
X139078Y220839D01*
X10922Y220839D01*
X10902Y220836D01*
X10883Y220838D01*
X10781Y220816D01*
X10679Y220800D01*
X10662Y220790D01*
X10642Y220786D01*
X10553Y220733D01*
X10462Y220684D01*
X10448Y220670D01*
X10431Y220660D01*
X10364Y220581D01*
X10292Y220506D01*
X10284Y220488D01*
X10271Y220473D01*
X10232Y220377D01*
X10189Y220283D01*
X10187Y220263D01*
X10179Y220245D01*
X10161Y220078D01*
X10161Y10922D01*
X10164Y10902D01*
X10162Y10883D01*
X10184Y10781D01*
X10200Y10679D01*
X10210Y10662D01*
X10214Y10642D01*
X10267Y10553D01*
X10316Y10462D01*
X10330Y10448D01*
X10340Y10431D01*
X10419Y10364D01*
X10494Y10292D01*
X10512Y10284D01*
X10527Y10271D01*
X10623Y10232D01*
X10717Y10189D01*
X10737Y10187D01*
X10755Y10179D01*
X10922Y10161D01*
X139078Y10161D01*
X139098Y10164D01*
G37*
%LPC*%
G36*
X53362Y16255D02*
X53362Y16255D01*
X48005Y21612D01*
X48005Y29188D01*
X52862Y34045D01*
X52915Y34119D01*
X52975Y34188D01*
X52987Y34218D01*
X53006Y34245D01*
X53033Y34332D01*
X53067Y34416D01*
X53071Y34457D01*
X53078Y34480D01*
X53077Y34512D01*
X53085Y34583D01*
X53085Y41934D01*
X67484Y56333D01*
X67496Y56349D01*
X67512Y56361D01*
X67568Y56449D01*
X67628Y56533D01*
X67634Y56551D01*
X67645Y56568D01*
X67670Y56669D01*
X67700Y56768D01*
X67700Y56788D01*
X67705Y56807D01*
X67697Y56910D01*
X67694Y57013D01*
X67687Y57032D01*
X67686Y57052D01*
X67645Y57147D01*
X67609Y57244D01*
X67597Y57260D01*
X67589Y57278D01*
X67525Y57358D01*
X67525Y69632D01*
X68418Y70525D01*
X69224Y70525D01*
X69244Y70528D01*
X69263Y70526D01*
X69365Y70548D01*
X69467Y70564D01*
X69484Y70574D01*
X69504Y70578D01*
X69593Y70631D01*
X69684Y70680D01*
X69698Y70694D01*
X69715Y70704D01*
X69782Y70783D01*
X69854Y70858D01*
X69862Y70876D01*
X69875Y70891D01*
X69914Y70987D01*
X69957Y71081D01*
X69959Y71101D01*
X69967Y71119D01*
X69985Y71286D01*
X69985Y79907D01*
X69971Y79997D01*
X69963Y80088D01*
X69951Y80118D01*
X69946Y80150D01*
X69903Y80230D01*
X69867Y80314D01*
X69841Y80346D01*
X69830Y80367D01*
X69807Y80389D01*
X69762Y80445D01*
X56197Y94010D01*
X56123Y94063D01*
X56054Y94123D01*
X56024Y94135D01*
X55998Y94154D01*
X55911Y94181D01*
X55826Y94215D01*
X55785Y94219D01*
X55762Y94226D01*
X55730Y94225D01*
X55659Y94233D01*
X50422Y94233D01*
X49529Y95126D01*
X49529Y101978D01*
X50264Y102713D01*
X50276Y102729D01*
X50292Y102741D01*
X50348Y102829D01*
X50408Y102912D01*
X50414Y102931D01*
X50425Y102948D01*
X50450Y103049D01*
X50480Y103148D01*
X50480Y103167D01*
X50485Y103187D01*
X50477Y103290D01*
X50474Y103393D01*
X50467Y103412D01*
X50466Y103432D01*
X50425Y103527D01*
X50390Y103624D01*
X50377Y103640D01*
X50369Y103658D01*
X50264Y103789D01*
X49529Y104524D01*
X49529Y111376D01*
X49546Y111392D01*
X49558Y111408D01*
X49573Y111421D01*
X49629Y111508D01*
X49690Y111592D01*
X49695Y111611D01*
X49706Y111628D01*
X49731Y111728D01*
X49762Y111827D01*
X49761Y111847D01*
X49766Y111866D01*
X49758Y111969D01*
X49756Y112073D01*
X49749Y112092D01*
X49747Y112112D01*
X49707Y112207D01*
X49671Y112304D01*
X49659Y112320D01*
X49651Y112338D01*
X49546Y112469D01*
X49021Y112994D01*
X48686Y113573D01*
X48513Y114220D01*
X48513Y115952D01*
X56769Y115952D01*
X56788Y115955D01*
X56808Y115953D01*
X56910Y115975D01*
X57012Y115991D01*
X57029Y116001D01*
X57049Y116005D01*
X57138Y116058D01*
X57229Y116107D01*
X57243Y116121D01*
X57260Y116131D01*
X57327Y116210D01*
X57398Y116285D01*
X57406Y116302D01*
X57433Y116253D01*
X57447Y116239D01*
X57457Y116222D01*
X57536Y116155D01*
X57611Y116083D01*
X57629Y116075D01*
X57644Y116062D01*
X57741Y116023D01*
X57834Y115980D01*
X57854Y115978D01*
X57872Y115970D01*
X58039Y115952D01*
X66295Y115952D01*
X66295Y114220D01*
X66097Y113481D01*
X66085Y113362D01*
X66072Y113245D01*
X66073Y113240D01*
X66072Y113236D01*
X66099Y113121D01*
X66124Y113004D01*
X66126Y113001D01*
X66127Y112997D01*
X66189Y112895D01*
X66250Y112793D01*
X66254Y112790D01*
X66256Y112787D01*
X66346Y112711D01*
X66437Y112633D01*
X66441Y112632D01*
X66444Y112629D01*
X66553Y112586D01*
X66665Y112541D01*
X66670Y112541D01*
X66673Y112539D01*
X66687Y112539D01*
X66832Y112523D01*
X73114Y112523D01*
X73134Y112526D01*
X73153Y112524D01*
X73255Y112546D01*
X73357Y112562D01*
X73374Y112572D01*
X73394Y112576D01*
X73483Y112629D01*
X73574Y112678D01*
X73588Y112692D01*
X73605Y112702D01*
X73672Y112781D01*
X73744Y112856D01*
X73752Y112874D01*
X73765Y112889D01*
X73804Y112985D01*
X73847Y113079D01*
X73849Y113099D01*
X73857Y113117D01*
X73875Y113284D01*
X73875Y114582D01*
X74768Y115475D01*
X91032Y115475D01*
X91925Y114582D01*
X91925Y112784D01*
X91928Y112764D01*
X91926Y112745D01*
X91948Y112643D01*
X91964Y112541D01*
X91974Y112524D01*
X91978Y112504D01*
X92031Y112415D01*
X92080Y112324D01*
X92094Y112310D01*
X92104Y112293D01*
X92183Y112226D01*
X92258Y112154D01*
X92276Y112146D01*
X92291Y112133D01*
X92387Y112094D01*
X92481Y112051D01*
X92501Y112049D01*
X92519Y112041D01*
X92686Y112023D01*
X97514Y112023D01*
X97534Y112026D01*
X97553Y112024D01*
X97655Y112046D01*
X97757Y112062D01*
X97774Y112072D01*
X97794Y112076D01*
X97883Y112129D01*
X97974Y112178D01*
X97988Y112192D01*
X98005Y112202D01*
X98072Y112281D01*
X98144Y112356D01*
X98152Y112374D01*
X98165Y112389D01*
X98204Y112485D01*
X98247Y112579D01*
X98249Y112599D01*
X98257Y112617D01*
X98275Y112784D01*
X98275Y114582D01*
X99168Y115475D01*
X115432Y115475D01*
X116325Y114582D01*
X116325Y110334D01*
X116328Y110314D01*
X116326Y110295D01*
X116348Y110193D01*
X116364Y110091D01*
X116374Y110074D01*
X116378Y110054D01*
X116431Y109965D01*
X116480Y109874D01*
X116494Y109860D01*
X116504Y109843D01*
X116583Y109776D01*
X116658Y109704D01*
X116676Y109696D01*
X116691Y109683D01*
X116787Y109644D01*
X116881Y109601D01*
X116901Y109599D01*
X116919Y109591D01*
X117086Y109573D01*
X124244Y109573D01*
X127146Y106671D01*
X127478Y106339D01*
X127536Y106297D01*
X127588Y106248D01*
X127635Y106226D01*
X127677Y106196D01*
X127746Y106174D01*
X127811Y106144D01*
X127863Y106139D01*
X127913Y106123D01*
X127984Y106125D01*
X128055Y106117D01*
X128106Y106128D01*
X128158Y106130D01*
X128226Y106154D01*
X128296Y106169D01*
X128341Y106196D01*
X128389Y106214D01*
X128445Y106259D01*
X128507Y106296D01*
X128541Y106335D01*
X128581Y106368D01*
X128620Y106428D01*
X128667Y106482D01*
X128686Y106531D01*
X128714Y106575D01*
X128732Y106644D01*
X128759Y106711D01*
X128767Y106782D01*
X128775Y106813D01*
X128773Y106836D01*
X128777Y106877D01*
X128777Y152441D01*
X128763Y152531D01*
X128755Y152622D01*
X128743Y152651D01*
X128738Y152683D01*
X128695Y152764D01*
X128659Y152848D01*
X128633Y152880D01*
X128622Y152901D01*
X128599Y152923D01*
X128554Y152979D01*
X118681Y162852D01*
X118607Y162905D01*
X118537Y162965D01*
X118507Y162977D01*
X118481Y162996D01*
X118394Y163023D01*
X118309Y163057D01*
X118268Y163061D01*
X118246Y163068D01*
X118214Y163067D01*
X118143Y163075D01*
X116171Y163075D01*
X110942Y165241D01*
X106941Y169242D01*
X104775Y174471D01*
X104775Y205529D01*
X106941Y210758D01*
X110942Y214759D01*
X116171Y216925D01*
X121829Y216925D01*
X127058Y214759D01*
X131059Y210758D01*
X133225Y205529D01*
X133225Y174471D01*
X131059Y169242D01*
X128680Y166863D01*
X128668Y166847D01*
X128653Y166835D01*
X128597Y166747D01*
X128537Y166664D01*
X128531Y166645D01*
X128520Y166628D01*
X128495Y166527D01*
X128464Y166428D01*
X128465Y166409D01*
X128460Y166389D01*
X128468Y166286D01*
X128471Y166183D01*
X128477Y166164D01*
X128479Y166144D01*
X128519Y166049D01*
X128555Y165952D01*
X128568Y165936D01*
X128575Y165918D01*
X128680Y165787D01*
X137923Y156544D01*
X137923Y88456D01*
X112746Y63279D01*
X112693Y63205D01*
X112633Y63135D01*
X112621Y63105D01*
X112602Y63079D01*
X112575Y62992D01*
X112541Y62907D01*
X112537Y62866D01*
X112530Y62844D01*
X112531Y62812D01*
X112523Y62741D01*
X112523Y34075D01*
X112537Y33985D01*
X112545Y33894D01*
X112557Y33864D01*
X112562Y33832D01*
X112605Y33752D01*
X112641Y33668D01*
X112667Y33636D01*
X112678Y33615D01*
X112701Y33593D01*
X112746Y33537D01*
X117095Y29188D01*
X117095Y21612D01*
X111738Y16255D01*
X104162Y16255D01*
X98805Y21612D01*
X98805Y29188D01*
X103154Y33537D01*
X103207Y33611D01*
X103267Y33680D01*
X103279Y33710D01*
X103298Y33737D01*
X103325Y33824D01*
X103359Y33908D01*
X103363Y33949D01*
X103370Y33972D01*
X103369Y34004D01*
X103377Y34075D01*
X103377Y62841D01*
X103363Y62931D01*
X103355Y63022D01*
X103343Y63051D01*
X103338Y63083D01*
X103295Y63164D01*
X103259Y63248D01*
X103233Y63280D01*
X103222Y63301D01*
X103199Y63323D01*
X103154Y63379D01*
X98874Y67659D01*
X98816Y67701D01*
X98764Y67750D01*
X98717Y67772D01*
X98675Y67802D01*
X98606Y67824D01*
X98541Y67854D01*
X98489Y67860D01*
X98439Y67875D01*
X98368Y67873D01*
X98297Y67881D01*
X98246Y67870D01*
X98194Y67868D01*
X98126Y67844D01*
X98056Y67829D01*
X98012Y67802D01*
X97963Y67784D01*
X97907Y67739D01*
X97845Y67702D01*
X97811Y67663D01*
X97771Y67630D01*
X97732Y67570D01*
X97685Y67516D01*
X97666Y67467D01*
X97638Y67423D01*
X97620Y67354D01*
X97593Y67287D01*
X97585Y67216D01*
X97577Y67185D01*
X97579Y67162D01*
X97575Y67121D01*
X97575Y57368D01*
X96682Y56475D01*
X85418Y56475D01*
X84525Y57368D01*
X84525Y69632D01*
X85418Y70525D01*
X85716Y70525D01*
X85736Y70528D01*
X85755Y70526D01*
X85857Y70548D01*
X85959Y70564D01*
X85976Y70574D01*
X85996Y70578D01*
X86085Y70631D01*
X86176Y70680D01*
X86190Y70694D01*
X86207Y70704D01*
X86274Y70783D01*
X86346Y70858D01*
X86354Y70876D01*
X86367Y70891D01*
X86406Y70987D01*
X86449Y71081D01*
X86451Y71101D01*
X86459Y71119D01*
X86477Y71286D01*
X86477Y72741D01*
X86463Y72831D01*
X86455Y72922D01*
X86443Y72951D01*
X86438Y72983D01*
X86395Y73064D01*
X86359Y73148D01*
X86333Y73180D01*
X86322Y73201D01*
X86299Y73223D01*
X86254Y73279D01*
X86063Y73470D01*
X85989Y73523D01*
X85919Y73583D01*
X85889Y73595D01*
X85863Y73614D01*
X85776Y73641D01*
X85691Y73675D01*
X85650Y73679D01*
X85628Y73686D01*
X85596Y73685D01*
X85525Y73693D01*
X84802Y73693D01*
X81693Y76802D01*
X81693Y81198D01*
X84802Y84307D01*
X89198Y84307D01*
X89709Y83796D01*
X89783Y83743D01*
X89853Y83683D01*
X89883Y83671D01*
X89909Y83652D01*
X89996Y83625D01*
X90081Y83591D01*
X90122Y83587D01*
X90144Y83580D01*
X90176Y83581D01*
X90247Y83573D01*
X95894Y83573D01*
X107462Y72005D01*
X107478Y71993D01*
X107490Y71978D01*
X107578Y71922D01*
X107661Y71862D01*
X107680Y71856D01*
X107697Y71845D01*
X107798Y71820D01*
X107897Y71789D01*
X107916Y71790D01*
X107936Y71785D01*
X108039Y71793D01*
X108142Y71796D01*
X108161Y71802D01*
X108181Y71804D01*
X108276Y71844D01*
X108373Y71880D01*
X108389Y71893D01*
X108407Y71900D01*
X108538Y72005D01*
X128170Y91637D01*
X128181Y91653D01*
X128197Y91665D01*
X128253Y91753D01*
X128313Y91836D01*
X128319Y91855D01*
X128330Y91872D01*
X128355Y91973D01*
X128386Y92072D01*
X128385Y92091D01*
X128390Y92111D01*
X128382Y92214D01*
X128379Y92317D01*
X128373Y92336D01*
X128371Y92356D01*
X128331Y92451D01*
X128295Y92548D01*
X128282Y92564D01*
X128275Y92582D01*
X128170Y92713D01*
X120679Y100204D01*
X120605Y100257D01*
X120535Y100317D01*
X120505Y100329D01*
X120479Y100348D01*
X120392Y100375D01*
X120307Y100409D01*
X120266Y100413D01*
X120244Y100420D01*
X120212Y100419D01*
X120141Y100427D01*
X116749Y100427D01*
X116659Y100413D01*
X116568Y100405D01*
X116538Y100393D01*
X116506Y100388D01*
X116425Y100345D01*
X116342Y100309D01*
X116309Y100283D01*
X116289Y100272D01*
X116267Y100249D01*
X116211Y100204D01*
X115432Y99425D01*
X99168Y99425D01*
X98275Y100318D01*
X98275Y102116D01*
X98272Y102136D01*
X98274Y102155D01*
X98252Y102257D01*
X98236Y102359D01*
X98226Y102376D01*
X98222Y102396D01*
X98169Y102485D01*
X98120Y102576D01*
X98106Y102590D01*
X98096Y102607D01*
X98017Y102674D01*
X97942Y102746D01*
X97924Y102754D01*
X97909Y102767D01*
X97813Y102806D01*
X97719Y102849D01*
X97699Y102851D01*
X97681Y102859D01*
X97514Y102877D01*
X92686Y102877D01*
X92666Y102874D01*
X92647Y102876D01*
X92545Y102854D01*
X92443Y102838D01*
X92426Y102828D01*
X92406Y102824D01*
X92317Y102771D01*
X92226Y102722D01*
X92212Y102708D01*
X92195Y102698D01*
X92128Y102619D01*
X92056Y102544D01*
X92048Y102526D01*
X92035Y102511D01*
X91996Y102415D01*
X91953Y102321D01*
X91951Y102301D01*
X91943Y102283D01*
X91925Y102116D01*
X91925Y100318D01*
X91032Y99425D01*
X74768Y99425D01*
X73875Y100318D01*
X73875Y102616D01*
X73872Y102636D01*
X73874Y102655D01*
X73852Y102757D01*
X73836Y102859D01*
X73826Y102876D01*
X73822Y102896D01*
X73769Y102985D01*
X73720Y103076D01*
X73706Y103090D01*
X73696Y103107D01*
X73617Y103174D01*
X73542Y103246D01*
X73524Y103254D01*
X73509Y103267D01*
X73413Y103306D01*
X73319Y103349D01*
X73299Y103351D01*
X73281Y103359D01*
X73114Y103377D01*
X65717Y103377D01*
X65646Y103366D01*
X65574Y103364D01*
X65525Y103346D01*
X65474Y103338D01*
X65411Y103304D01*
X65343Y103279D01*
X65303Y103247D01*
X65257Y103222D01*
X65207Y103171D01*
X65151Y103126D01*
X65123Y103082D01*
X65087Y103044D01*
X65057Y102979D01*
X65018Y102919D01*
X65006Y102868D01*
X64984Y102821D01*
X64976Y102750D01*
X64958Y102680D01*
X64962Y102628D01*
X64957Y102577D01*
X64972Y102506D01*
X64977Y102435D01*
X64998Y102387D01*
X65009Y102336D01*
X65046Y102275D01*
X65074Y102209D01*
X65119Y102153D01*
X65135Y102125D01*
X65153Y102110D01*
X65179Y102078D01*
X65279Y101978D01*
X65279Y96741D01*
X65293Y96651D01*
X65301Y96560D01*
X65313Y96530D01*
X65318Y96498D01*
X65361Y96418D01*
X65397Y96334D01*
X65423Y96302D01*
X65434Y96281D01*
X65457Y96259D01*
X65502Y96203D01*
X78115Y83590D01*
X78115Y71286D01*
X78118Y71266D01*
X78116Y71247D01*
X78138Y71145D01*
X78154Y71043D01*
X78164Y71026D01*
X78168Y71006D01*
X78221Y70917D01*
X78270Y70826D01*
X78284Y70812D01*
X78294Y70795D01*
X78373Y70728D01*
X78448Y70656D01*
X78466Y70648D01*
X78481Y70635D01*
X78577Y70596D01*
X78671Y70553D01*
X78691Y70551D01*
X78709Y70543D01*
X78876Y70525D01*
X79682Y70525D01*
X80575Y69632D01*
X80575Y57368D01*
X79682Y56475D01*
X78876Y56475D01*
X78856Y56472D01*
X78837Y56474D01*
X78735Y56452D01*
X78633Y56436D01*
X78616Y56426D01*
X78596Y56422D01*
X78507Y56369D01*
X78416Y56320D01*
X78402Y56306D01*
X78385Y56296D01*
X78318Y56217D01*
X78246Y56142D01*
X78238Y56124D01*
X78225Y56109D01*
X78186Y56013D01*
X78143Y55919D01*
X78141Y55899D01*
X78133Y55881D01*
X78115Y55714D01*
X78115Y55466D01*
X61438Y38789D01*
X61385Y38715D01*
X61325Y38646D01*
X61313Y38616D01*
X61294Y38590D01*
X61267Y38503D01*
X61233Y38418D01*
X61229Y38377D01*
X61222Y38354D01*
X61223Y38322D01*
X61215Y38251D01*
X61215Y34583D01*
X61229Y34493D01*
X61237Y34402D01*
X61249Y34372D01*
X61254Y34340D01*
X61297Y34260D01*
X61333Y34176D01*
X61359Y34144D01*
X61370Y34123D01*
X61393Y34101D01*
X61438Y34045D01*
X66295Y29188D01*
X66295Y21612D01*
X60938Y16255D01*
X53362Y16255D01*
G37*
%LPD*%
%LPC*%
G36*
X53668Y139025D02*
X53668Y139025D01*
X52775Y139918D01*
X52775Y152182D01*
X53668Y153075D01*
X54982Y153075D01*
X55002Y153078D01*
X55021Y153076D01*
X55123Y153098D01*
X55225Y153114D01*
X55242Y153124D01*
X55262Y153128D01*
X55351Y153181D01*
X55442Y153230D01*
X55456Y153244D01*
X55473Y153254D01*
X55540Y153333D01*
X55612Y153408D01*
X55620Y153426D01*
X55633Y153441D01*
X55672Y153537D01*
X55715Y153631D01*
X55717Y153651D01*
X55725Y153669D01*
X55743Y153836D01*
X55743Y157989D01*
X55729Y158079D01*
X55721Y158170D01*
X55709Y158200D01*
X55704Y158232D01*
X55661Y158312D01*
X55625Y158396D01*
X55599Y158428D01*
X55588Y158449D01*
X55565Y158471D01*
X55520Y158527D01*
X45971Y168077D01*
X45954Y168089D01*
X45942Y168104D01*
X45855Y168160D01*
X45771Y168221D01*
X45752Y168227D01*
X45735Y168237D01*
X45635Y168263D01*
X45536Y168293D01*
X45516Y168293D01*
X45496Y168297D01*
X45393Y168289D01*
X45290Y168287D01*
X45271Y168280D01*
X45251Y168278D01*
X45156Y168238D01*
X45059Y168202D01*
X45043Y168190D01*
X45025Y168182D01*
X44894Y168077D01*
X43058Y166241D01*
X37829Y164075D01*
X32171Y164075D01*
X26942Y166241D01*
X22941Y170242D01*
X20775Y175471D01*
X20775Y206529D01*
X22941Y211758D01*
X26942Y215759D01*
X32171Y217925D01*
X37829Y217925D01*
X43058Y215759D01*
X47059Y211758D01*
X49225Y206529D01*
X49225Y175471D01*
X48616Y174001D01*
X48589Y173887D01*
X48561Y173774D01*
X48561Y173768D01*
X48560Y173761D01*
X48571Y173645D01*
X48580Y173529D01*
X48582Y173523D01*
X48583Y173517D01*
X48631Y173409D01*
X48676Y173302D01*
X48681Y173296D01*
X48683Y173292D01*
X48696Y173278D01*
X48781Y173171D01*
X62095Y159858D01*
X62095Y159251D01*
X62109Y159160D01*
X62117Y159070D01*
X62129Y159040D01*
X62134Y159008D01*
X62177Y158927D01*
X62213Y158843D01*
X62239Y158811D01*
X62250Y158790D01*
X62273Y158768D01*
X62318Y158712D01*
X62857Y158173D01*
X62857Y153836D01*
X62860Y153816D01*
X62858Y153797D01*
X62880Y153695D01*
X62896Y153593D01*
X62906Y153576D01*
X62910Y153556D01*
X62963Y153467D01*
X63012Y153376D01*
X63026Y153362D01*
X63036Y153345D01*
X63115Y153278D01*
X63190Y153206D01*
X63208Y153198D01*
X63223Y153185D01*
X63319Y153146D01*
X63413Y153103D01*
X63433Y153101D01*
X63451Y153093D01*
X63618Y153075D01*
X64932Y153075D01*
X65825Y152182D01*
X65825Y139918D01*
X64932Y139025D01*
X53668Y139025D01*
G37*
%LPD*%
%LPC*%
G36*
X27962Y16255D02*
X27962Y16255D01*
X22605Y21612D01*
X22605Y29188D01*
X27462Y34045D01*
X27515Y34119D01*
X27575Y34188D01*
X27587Y34218D01*
X27606Y34245D01*
X27633Y34332D01*
X27667Y34416D01*
X27671Y34457D01*
X27678Y34480D01*
X27677Y34512D01*
X27685Y34583D01*
X27685Y54634D01*
X29202Y56151D01*
X29255Y56225D01*
X29315Y56294D01*
X29327Y56324D01*
X29346Y56350D01*
X29373Y56437D01*
X29407Y56522D01*
X29411Y56563D01*
X29418Y56586D01*
X29417Y56618D01*
X29425Y56689D01*
X29425Y57611D01*
X29411Y57701D01*
X29403Y57792D01*
X29391Y57822D01*
X29386Y57854D01*
X29343Y57934D01*
X29307Y58018D01*
X29281Y58050D01*
X29270Y58071D01*
X29247Y58093D01*
X29202Y58149D01*
X25535Y61816D01*
X25535Y89432D01*
X27208Y91105D01*
X27255Y91169D01*
X27271Y91186D01*
X27274Y91194D01*
X27321Y91248D01*
X27333Y91278D01*
X27352Y91304D01*
X27379Y91391D01*
X27413Y91476D01*
X27417Y91517D01*
X27424Y91540D01*
X27423Y91572D01*
X27431Y91643D01*
X27431Y93472D01*
X27428Y93492D01*
X27430Y93511D01*
X27408Y93613D01*
X27392Y93715D01*
X27382Y93732D01*
X27378Y93752D01*
X27325Y93841D01*
X27276Y93932D01*
X27262Y93946D01*
X27252Y93963D01*
X27173Y94030D01*
X27098Y94102D01*
X27080Y94110D01*
X27065Y94123D01*
X26969Y94162D01*
X26875Y94205D01*
X26855Y94207D01*
X26837Y94215D01*
X26670Y94233D01*
X24514Y94233D01*
X23621Y95126D01*
X23621Y101978D01*
X23638Y101994D01*
X23650Y102010D01*
X23665Y102023D01*
X23721Y102110D01*
X23782Y102194D01*
X23787Y102213D01*
X23798Y102230D01*
X23823Y102330D01*
X23854Y102429D01*
X23853Y102449D01*
X23858Y102468D01*
X23850Y102571D01*
X23848Y102675D01*
X23841Y102694D01*
X23839Y102714D01*
X23799Y102809D01*
X23763Y102906D01*
X23751Y102922D01*
X23743Y102940D01*
X23638Y103071D01*
X23113Y103596D01*
X22778Y104175D01*
X22605Y104822D01*
X22605Y106554D01*
X30861Y106554D01*
X30880Y106557D01*
X30900Y106555D01*
X31002Y106577D01*
X31104Y106593D01*
X31121Y106603D01*
X31141Y106607D01*
X31230Y106660D01*
X31321Y106709D01*
X31335Y106723D01*
X31352Y106733D01*
X31419Y106812D01*
X31490Y106887D01*
X31498Y106904D01*
X31525Y106855D01*
X31539Y106841D01*
X31549Y106824D01*
X31628Y106757D01*
X31703Y106685D01*
X31721Y106677D01*
X31736Y106664D01*
X31833Y106625D01*
X31926Y106582D01*
X31946Y106580D01*
X31964Y106572D01*
X32131Y106554D01*
X40387Y106554D01*
X40387Y104822D01*
X40214Y104175D01*
X39879Y103596D01*
X39354Y103071D01*
X39342Y103055D01*
X39327Y103042D01*
X39271Y102955D01*
X39210Y102871D01*
X39205Y102852D01*
X39194Y102835D01*
X39169Y102735D01*
X39138Y102636D01*
X39139Y102616D01*
X39134Y102597D01*
X39142Y102494D01*
X39144Y102390D01*
X39151Y102371D01*
X39153Y102352D01*
X39193Y102256D01*
X39229Y102159D01*
X39241Y102144D01*
X39249Y102125D01*
X39354Y101994D01*
X39371Y101978D01*
X39371Y95126D01*
X38478Y94233D01*
X36322Y94233D01*
X36302Y94230D01*
X36283Y94232D01*
X36181Y94210D01*
X36079Y94194D01*
X36062Y94184D01*
X36042Y94180D01*
X35953Y94127D01*
X35862Y94078D01*
X35848Y94064D01*
X35831Y94054D01*
X35764Y93975D01*
X35692Y93900D01*
X35684Y93882D01*
X35671Y93867D01*
X35632Y93771D01*
X35589Y93677D01*
X35587Y93657D01*
X35579Y93639D01*
X35561Y93472D01*
X35561Y87960D01*
X33888Y86287D01*
X33835Y86213D01*
X33775Y86144D01*
X33763Y86114D01*
X33744Y86088D01*
X33717Y86001D01*
X33683Y85916D01*
X33679Y85875D01*
X33672Y85852D01*
X33673Y85820D01*
X33665Y85749D01*
X33665Y65499D01*
X33679Y65409D01*
X33687Y65318D01*
X33699Y65288D01*
X33704Y65256D01*
X33747Y65176D01*
X33783Y65092D01*
X33809Y65060D01*
X33820Y65039D01*
X33843Y65017D01*
X33888Y64961D01*
X34451Y64398D01*
X34525Y64345D01*
X34594Y64285D01*
X34624Y64273D01*
X34650Y64254D01*
X34737Y64227D01*
X34822Y64193D01*
X34863Y64189D01*
X34886Y64182D01*
X34918Y64183D01*
X34989Y64175D01*
X41582Y64175D01*
X42475Y63282D01*
X42475Y51018D01*
X41582Y50125D01*
X36576Y50125D01*
X36556Y50122D01*
X36537Y50124D01*
X36435Y50102D01*
X36333Y50086D01*
X36316Y50076D01*
X36296Y50072D01*
X36207Y50019D01*
X36116Y49970D01*
X36102Y49956D01*
X36085Y49946D01*
X36018Y49867D01*
X35946Y49792D01*
X35938Y49774D01*
X35925Y49759D01*
X35886Y49663D01*
X35843Y49569D01*
X35841Y49549D01*
X35833Y49531D01*
X35815Y49364D01*
X35815Y34583D01*
X35829Y34493D01*
X35837Y34402D01*
X35849Y34372D01*
X35854Y34340D01*
X35897Y34260D01*
X35933Y34176D01*
X35959Y34144D01*
X35970Y34123D01*
X35993Y34101D01*
X36038Y34045D01*
X40895Y29188D01*
X40895Y21612D01*
X35538Y16255D01*
X27962Y16255D01*
G37*
%LPD*%
%LPC*%
G36*
X31467Y109045D02*
X31467Y109045D01*
X31453Y109059D01*
X31443Y109076D01*
X31364Y109143D01*
X31289Y109215D01*
X31271Y109223D01*
X31256Y109236D01*
X31159Y109275D01*
X31066Y109318D01*
X31046Y109320D01*
X31028Y109328D01*
X30861Y109346D01*
X22605Y109346D01*
X22605Y111078D01*
X22778Y111725D01*
X23113Y112304D01*
X23638Y112829D01*
X23650Y112845D01*
X23665Y112858D01*
X23721Y112945D01*
X23782Y113029D01*
X23787Y113048D01*
X23798Y113065D01*
X23823Y113165D01*
X23854Y113264D01*
X23853Y113284D01*
X23858Y113303D01*
X23850Y113406D01*
X23848Y113510D01*
X23841Y113529D01*
X23839Y113548D01*
X23799Y113643D01*
X23763Y113741D01*
X23751Y113757D01*
X23743Y113775D01*
X23638Y113906D01*
X23621Y113922D01*
X23621Y120774D01*
X24514Y121667D01*
X30469Y121667D01*
X30560Y121681D01*
X30650Y121689D01*
X30680Y121701D01*
X30712Y121706D01*
X30793Y121749D01*
X30877Y121785D01*
X30909Y121811D01*
X30930Y121822D01*
X30952Y121845D01*
X31008Y121890D01*
X38520Y129402D01*
X38573Y129476D01*
X38633Y129546D01*
X38645Y129576D01*
X38664Y129602D01*
X38691Y129689D01*
X38725Y129774D01*
X38729Y129815D01*
X38736Y129837D01*
X38735Y129869D01*
X38743Y129941D01*
X38743Y138264D01*
X38740Y138284D01*
X38742Y138303D01*
X38720Y138405D01*
X38704Y138507D01*
X38694Y138524D01*
X38690Y138544D01*
X38637Y138633D01*
X38588Y138724D01*
X38574Y138738D01*
X38564Y138755D01*
X38485Y138822D01*
X38410Y138894D01*
X38392Y138902D01*
X38377Y138915D01*
X38281Y138954D01*
X38187Y138997D01*
X38167Y138999D01*
X38149Y139007D01*
X37982Y139025D01*
X36668Y139025D01*
X35775Y139918D01*
X35775Y147229D01*
X35761Y147320D01*
X35753Y147410D01*
X35741Y147440D01*
X35736Y147472D01*
X35693Y147553D01*
X35657Y147637D01*
X35631Y147669D01*
X35620Y147690D01*
X35597Y147712D01*
X35552Y147768D01*
X33724Y149596D01*
X33666Y149638D01*
X33614Y149687D01*
X33567Y149709D01*
X33525Y149739D01*
X33456Y149760D01*
X33391Y149791D01*
X33339Y149796D01*
X33289Y149812D01*
X33218Y149810D01*
X33147Y149818D01*
X33096Y149807D01*
X33044Y149805D01*
X32976Y149781D01*
X32906Y149765D01*
X32861Y149739D01*
X32813Y149721D01*
X32757Y149676D01*
X32695Y149639D01*
X32661Y149600D01*
X32621Y149567D01*
X32582Y149507D01*
X32535Y149452D01*
X32516Y149404D01*
X32488Y149360D01*
X32470Y149291D01*
X32443Y149224D01*
X32435Y149153D01*
X32427Y149122D01*
X32429Y149098D01*
X32425Y149057D01*
X32425Y148918D01*
X31532Y148025D01*
X19268Y148025D01*
X18375Y148918D01*
X18375Y160182D01*
X19268Y161075D01*
X31532Y161075D01*
X32425Y160182D01*
X32425Y158868D01*
X32428Y158848D01*
X32426Y158829D01*
X32448Y158727D01*
X32464Y158625D01*
X32474Y158608D01*
X32478Y158588D01*
X32531Y158499D01*
X32580Y158408D01*
X32594Y158394D01*
X32604Y158377D01*
X32683Y158310D01*
X32758Y158238D01*
X32776Y158230D01*
X32791Y158217D01*
X32887Y158178D01*
X32981Y158135D01*
X33001Y158133D01*
X33019Y158125D01*
X33186Y158107D01*
X35273Y158107D01*
X40082Y153298D01*
X40156Y153245D01*
X40226Y153185D01*
X40256Y153173D01*
X40282Y153154D01*
X40369Y153127D01*
X40454Y153093D01*
X40495Y153089D01*
X40517Y153082D01*
X40549Y153083D01*
X40621Y153075D01*
X47932Y153075D01*
X48825Y152182D01*
X48825Y139918D01*
X47932Y139025D01*
X46618Y139025D01*
X46598Y139022D01*
X46579Y139024D01*
X46477Y139002D01*
X46375Y138986D01*
X46358Y138976D01*
X46338Y138972D01*
X46249Y138919D01*
X46158Y138870D01*
X46144Y138856D01*
X46127Y138846D01*
X46060Y138767D01*
X45988Y138692D01*
X45980Y138674D01*
X45967Y138659D01*
X45928Y138563D01*
X45885Y138469D01*
X45883Y138449D01*
X45875Y138431D01*
X45857Y138264D01*
X45857Y126679D01*
X39594Y120416D01*
X39541Y120342D01*
X39481Y120272D01*
X39469Y120242D01*
X39450Y120216D01*
X39423Y120129D01*
X39389Y120044D01*
X39385Y120003D01*
X39378Y119981D01*
X39379Y119949D01*
X39371Y119877D01*
X39371Y113922D01*
X39354Y113906D01*
X39342Y113890D01*
X39327Y113877D01*
X39271Y113790D01*
X39210Y113706D01*
X39205Y113687D01*
X39194Y113670D01*
X39169Y113570D01*
X39138Y113471D01*
X39139Y113451D01*
X39134Y113432D01*
X39142Y113329D01*
X39144Y113225D01*
X39151Y113206D01*
X39153Y113186D01*
X39193Y113091D01*
X39229Y112994D01*
X39241Y112978D01*
X39249Y112960D01*
X39354Y112829D01*
X39879Y112304D01*
X40214Y111725D01*
X40387Y111078D01*
X40387Y109346D01*
X32131Y109346D01*
X32112Y109343D01*
X32092Y109345D01*
X31990Y109323D01*
X31888Y109307D01*
X31871Y109297D01*
X31851Y109293D01*
X31762Y109240D01*
X31671Y109191D01*
X31657Y109177D01*
X31640Y109167D01*
X31573Y109088D01*
X31502Y109013D01*
X31494Y108995D01*
X31467Y109045D01*
G37*
%LPD*%
%LPC*%
G36*
X47318Y50125D02*
X47318Y50125D01*
X46425Y51018D01*
X46425Y63282D01*
X47318Y64175D01*
X48124Y64175D01*
X48144Y64178D01*
X48163Y64176D01*
X48265Y64198D01*
X48367Y64214D01*
X48384Y64224D01*
X48404Y64228D01*
X48493Y64281D01*
X48584Y64330D01*
X48598Y64344D01*
X48615Y64354D01*
X48682Y64433D01*
X48754Y64508D01*
X48762Y64526D01*
X48775Y64541D01*
X48814Y64637D01*
X48857Y64731D01*
X48859Y64751D01*
X48867Y64769D01*
X48885Y64936D01*
X48885Y76034D01*
X51620Y78769D01*
X51673Y78843D01*
X51733Y78912D01*
X51745Y78942D01*
X51764Y78968D01*
X51791Y79055D01*
X51825Y79140D01*
X51829Y79181D01*
X51836Y79204D01*
X51835Y79236D01*
X51843Y79307D01*
X51843Y80748D01*
X54952Y83857D01*
X59348Y83857D01*
X62457Y80748D01*
X62457Y76352D01*
X59348Y73243D01*
X57907Y73243D01*
X57817Y73229D01*
X57726Y73221D01*
X57696Y73209D01*
X57664Y73204D01*
X57584Y73161D01*
X57500Y73125D01*
X57468Y73099D01*
X57447Y73088D01*
X57425Y73065D01*
X57369Y73020D01*
X57238Y72889D01*
X57185Y72815D01*
X57125Y72746D01*
X57113Y72716D01*
X57094Y72690D01*
X57067Y72603D01*
X57033Y72518D01*
X57029Y72477D01*
X57022Y72454D01*
X57023Y72422D01*
X57015Y72351D01*
X57015Y64936D01*
X57018Y64916D01*
X57016Y64897D01*
X57038Y64795D01*
X57054Y64693D01*
X57064Y64676D01*
X57068Y64656D01*
X57121Y64567D01*
X57170Y64476D01*
X57184Y64462D01*
X57194Y64445D01*
X57273Y64378D01*
X57348Y64306D01*
X57366Y64298D01*
X57381Y64285D01*
X57477Y64246D01*
X57571Y64203D01*
X57591Y64201D01*
X57609Y64193D01*
X57776Y64175D01*
X58582Y64175D01*
X59475Y63282D01*
X59475Y51018D01*
X58582Y50125D01*
X47318Y50125D01*
G37*
%LPD*%
%LPC*%
G36*
X79523Y191523D02*
X79523Y191523D01*
X79523Y217889D01*
X81569Y217565D01*
X83850Y216824D01*
X85988Y215735D01*
X87929Y214325D01*
X89625Y212629D01*
X91035Y210688D01*
X92124Y208550D01*
X92865Y206269D01*
X93241Y203899D01*
X93241Y191523D01*
X79523Y191523D01*
G37*
%LPD*%
%LPC*%
G36*
X79523Y188477D02*
X79523Y188477D01*
X93241Y188477D01*
X93241Y176101D01*
X92865Y173731D01*
X92124Y171450D01*
X91035Y169312D01*
X89625Y167371D01*
X87929Y165675D01*
X85988Y164265D01*
X83850Y163176D01*
X81569Y162435D01*
X79523Y162111D01*
X79523Y188477D01*
G37*
%LPD*%
%LPC*%
G36*
X62759Y191523D02*
X62759Y191523D01*
X62759Y203899D01*
X63135Y206269D01*
X63876Y208550D01*
X64965Y210688D01*
X66375Y212629D01*
X68071Y214325D01*
X70012Y215735D01*
X72150Y216824D01*
X74431Y217565D01*
X76477Y217889D01*
X76477Y191523D01*
X62759Y191523D01*
G37*
%LPD*%
%LPC*%
G36*
X74431Y162435D02*
X74431Y162435D01*
X72150Y163176D01*
X70012Y164265D01*
X68071Y165675D01*
X66375Y167371D01*
X64965Y169312D01*
X63876Y171450D01*
X63135Y173731D01*
X62759Y176101D01*
X62759Y188477D01*
X76477Y188477D01*
X76477Y162111D01*
X74431Y162435D01*
G37*
%LPD*%
%LPC*%
G36*
X84423Y127973D02*
X84423Y127973D01*
X84423Y135491D01*
X90734Y135491D01*
X91381Y135318D01*
X91960Y134983D01*
X92433Y134510D01*
X92768Y133931D01*
X92941Y133284D01*
X92941Y127973D01*
X84423Y127973D01*
G37*
%LPD*%
%LPC*%
G36*
X108823Y127973D02*
X108823Y127973D01*
X108823Y135491D01*
X115134Y135491D01*
X115781Y135318D01*
X116360Y134983D01*
X116833Y134510D01*
X117168Y133931D01*
X117341Y133284D01*
X117341Y127973D01*
X108823Y127973D01*
G37*
%LPD*%
%LPC*%
G36*
X72859Y127973D02*
X72859Y127973D01*
X72859Y133284D01*
X73032Y133931D01*
X73367Y134510D01*
X73840Y134983D01*
X74419Y135318D01*
X75066Y135491D01*
X81377Y135491D01*
X81377Y127973D01*
X72859Y127973D01*
G37*
%LPD*%
%LPC*%
G36*
X97259Y127973D02*
X97259Y127973D01*
X97259Y133284D01*
X97432Y133931D01*
X97767Y134510D01*
X98240Y134983D01*
X98819Y135318D01*
X99466Y135491D01*
X105777Y135491D01*
X105777Y127973D01*
X97259Y127973D01*
G37*
%LPD*%
%LPC*%
G36*
X108823Y117409D02*
X108823Y117409D01*
X108823Y124927D01*
X117341Y124927D01*
X117341Y119616D01*
X117168Y118969D01*
X116833Y118390D01*
X116360Y117917D01*
X115781Y117582D01*
X115134Y117409D01*
X108823Y117409D01*
G37*
%LPD*%
%LPC*%
G36*
X84423Y117409D02*
X84423Y117409D01*
X84423Y124927D01*
X92941Y124927D01*
X92941Y119616D01*
X92768Y118969D01*
X92433Y118390D01*
X91960Y117917D01*
X91381Y117582D01*
X90734Y117409D01*
X84423Y117409D01*
G37*
%LPD*%
%LPC*%
G36*
X75066Y117409D02*
X75066Y117409D01*
X74419Y117582D01*
X73840Y117917D01*
X73367Y118390D01*
X73032Y118969D01*
X72859Y119616D01*
X72859Y124927D01*
X81377Y124927D01*
X81377Y117409D01*
X75066Y117409D01*
G37*
%LPD*%
%LPC*%
G36*
X99466Y117409D02*
X99466Y117409D01*
X98819Y117582D01*
X98240Y117917D01*
X97767Y118390D01*
X97432Y118969D01*
X97259Y119616D01*
X97259Y124927D01*
X105777Y124927D01*
X105777Y117409D01*
X99466Y117409D01*
G37*
%LPD*%
%LPC*%
G36*
X84073Y26923D02*
X84073Y26923D01*
X84073Y35561D01*
X86759Y35561D01*
X92711Y29609D01*
X92711Y26923D01*
X84073Y26923D01*
G37*
%LPD*%
%LPC*%
G36*
X72389Y26923D02*
X72389Y26923D01*
X72389Y29609D01*
X78341Y35561D01*
X81027Y35561D01*
X81027Y26923D01*
X72389Y26923D01*
G37*
%LPD*%
%LPC*%
G36*
X84073Y15239D02*
X84073Y15239D01*
X84073Y23877D01*
X92711Y23877D01*
X92711Y21191D01*
X86759Y15239D01*
X84073Y15239D01*
G37*
%LPD*%
%LPC*%
G36*
X78341Y15239D02*
X78341Y15239D01*
X72389Y21191D01*
X72389Y23877D01*
X81027Y23877D01*
X81027Y15239D01*
X78341Y15239D01*
G37*
%LPD*%
%LPC*%
G36*
X26923Y139073D02*
X26923Y139073D01*
X26923Y145091D01*
X31234Y145091D01*
X31881Y144918D01*
X32460Y144583D01*
X32933Y144110D01*
X33268Y143531D01*
X33441Y142884D01*
X33441Y139073D01*
X26923Y139073D01*
G37*
%LPD*%
%LPC*%
G36*
X17359Y139073D02*
X17359Y139073D01*
X17359Y142884D01*
X17532Y143531D01*
X17867Y144110D01*
X18340Y144583D01*
X18919Y144918D01*
X19566Y145091D01*
X23877Y145091D01*
X23877Y139073D01*
X17359Y139073D01*
G37*
%LPD*%
%LPC*%
G36*
X26923Y130009D02*
X26923Y130009D01*
X26923Y136027D01*
X33441Y136027D01*
X33441Y132216D01*
X33268Y131569D01*
X32933Y130990D01*
X32460Y130517D01*
X31881Y130182D01*
X31234Y130009D01*
X26923Y130009D01*
G37*
%LPD*%
%LPC*%
G36*
X19566Y130009D02*
X19566Y130009D01*
X18919Y130182D01*
X18340Y130517D01*
X17867Y130990D01*
X17532Y131569D01*
X17359Y132216D01*
X17359Y136027D01*
X23877Y136027D01*
X23877Y130009D01*
X19566Y130009D01*
G37*
%LPD*%
%LPC*%
G36*
X58800Y118744D02*
X58800Y118744D01*
X58800Y122683D01*
X64088Y122683D01*
X64735Y122510D01*
X65314Y122175D01*
X65787Y121702D01*
X66122Y121123D01*
X66295Y120476D01*
X66295Y118744D01*
X58800Y118744D01*
G37*
%LPD*%
%LPC*%
G36*
X48513Y118744D02*
X48513Y118744D01*
X48513Y120476D01*
X48686Y121123D01*
X49021Y121702D01*
X49494Y122175D01*
X50073Y122510D01*
X50720Y122683D01*
X56008Y122683D01*
X56008Y118744D01*
X48513Y118744D01*
G37*
%LPD*%
%LPC*%
G36*
X82549Y25399D02*
X82549Y25399D01*
X82549Y25401D01*
X82551Y25401D01*
X82551Y25399D01*
X82549Y25399D01*
G37*
%LPD*%
%LPC*%
G36*
X77999Y189999D02*
X77999Y189999D01*
X77999Y190001D01*
X78001Y190001D01*
X78001Y189999D01*
X77999Y189999D01*
G37*
%LPD*%
%LPC*%
G36*
X82899Y126449D02*
X82899Y126449D01*
X82899Y126451D01*
X82901Y126451D01*
X82901Y126449D01*
X82899Y126449D01*
G37*
%LPD*%
%LPC*%
G36*
X107299Y126449D02*
X107299Y126449D01*
X107299Y126451D01*
X107301Y126451D01*
X107301Y126449D01*
X107299Y126449D01*
G37*
%LPD*%
%LPC*%
G36*
X25399Y137549D02*
X25399Y137549D01*
X25399Y137551D01*
X25401Y137551D01*
X25401Y137549D01*
X25399Y137549D01*
G37*
%LPD*%
D10*
X0Y0D02*
X150000Y0D01*
X150000Y231000D01*
X0Y231000D01*
X0Y0D01*
D11*
X-6000Y0D02*
X-56500Y0D01*
X-56500Y231000D02*
X-6000Y231000D01*
X-37000Y230350D02*
X-37000Y650D01*
X-40192Y26000D01*
X-33808Y26000D01*
X-37000Y650D01*
X-38300Y26000D01*
X-35700Y26000D02*
X-37000Y650D01*
X-39600Y26000D01*
X-34400Y26000D02*
X-37000Y650D01*
X-40192Y205000D02*
X-37000Y230350D01*
X-40192Y205000D02*
X-33808Y205000D01*
X-37000Y230350D01*
X-38300Y205000D01*
X-35700Y205000D02*
X-37000Y230350D01*
X-39600Y205000D01*
X-34400Y205000D02*
X-37000Y230350D01*
D12*
X-50746Y99738D02*
X-50853Y99736D01*
X-50959Y99730D01*
X-51065Y99720D01*
X-51171Y99707D01*
X-51277Y99689D01*
X-51381Y99668D01*
X-51485Y99643D01*
X-51588Y99614D01*
X-51689Y99582D01*
X-51789Y99545D01*
X-51888Y99505D01*
X-51986Y99462D01*
X-52082Y99415D01*
X-52176Y99364D01*
X-52268Y99310D01*
X-52358Y99253D01*
X-52446Y99193D01*
X-52531Y99129D01*
X-52614Y99062D01*
X-52695Y98992D01*
X-52773Y98920D01*
X-52849Y98844D01*
X-52921Y98766D01*
X-52991Y98685D01*
X-53058Y98602D01*
X-53122Y98517D01*
X-53182Y98429D01*
X-53239Y98339D01*
X-53293Y98247D01*
X-53344Y98153D01*
X-53391Y98057D01*
X-53434Y97959D01*
X-53474Y97860D01*
X-53511Y97760D01*
X-53543Y97659D01*
X-53572Y97556D01*
X-53597Y97452D01*
X-53618Y97348D01*
X-53636Y97242D01*
X-53649Y97136D01*
X-53659Y97030D01*
X-53665Y96924D01*
X-53667Y96817D01*
X-53665Y96696D01*
X-53659Y96575D01*
X-53649Y96455D01*
X-53636Y96334D01*
X-53618Y96215D01*
X-53597Y96095D01*
X-53572Y95977D01*
X-53543Y95860D01*
X-53510Y95743D01*
X-53474Y95628D01*
X-53433Y95514D01*
X-53390Y95401D01*
X-53342Y95289D01*
X-53291Y95180D01*
X-53236Y95072D01*
X-53178Y94965D01*
X-53117Y94861D01*
X-53052Y94759D01*
X-52984Y94659D01*
X-52913Y94561D01*
X-52839Y94465D01*
X-52762Y94372D01*
X-52681Y94282D01*
X-52598Y94194D01*
X-52512Y94109D01*
X-52423Y94026D01*
X-52332Y93947D01*
X-52238Y93870D01*
X-52142Y93797D01*
X-52044Y93727D01*
X-51943Y93660D01*
X-51840Y93596D01*
X-51735Y93536D01*
X-51628Y93479D01*
X-51520Y93425D01*
X-51410Y93375D01*
X-51298Y93329D01*
X-51185Y93286D01*
X-51070Y93247D01*
X-48474Y98765D02*
X-48551Y98844D01*
X-48632Y98920D01*
X-48715Y98993D01*
X-48800Y99063D01*
X-48888Y99130D01*
X-48978Y99194D01*
X-49070Y99254D01*
X-49165Y99311D01*
X-49261Y99365D01*
X-49359Y99416D01*
X-49459Y99463D01*
X-49561Y99507D01*
X-49664Y99547D01*
X-49768Y99583D01*
X-49874Y99615D01*
X-49980Y99644D01*
X-50088Y99669D01*
X-50196Y99691D01*
X-50306Y99708D01*
X-50415Y99722D01*
X-50525Y99731D01*
X-50636Y99737D01*
X-50746Y99739D01*
X-48474Y98764D02*
X-41983Y93247D01*
X-41983Y99738D01*
X-41983Y104677D02*
X-41983Y107923D01*
X-41985Y108036D01*
X-41991Y108149D01*
X-42001Y108262D01*
X-42015Y108375D01*
X-42032Y108487D01*
X-42054Y108598D01*
X-42079Y108708D01*
X-42109Y108818D01*
X-42142Y108926D01*
X-42179Y109033D01*
X-42219Y109139D01*
X-42264Y109243D01*
X-42312Y109346D01*
X-42363Y109447D01*
X-42418Y109546D01*
X-42476Y109643D01*
X-42538Y109738D01*
X-42603Y109831D01*
X-42671Y109921D01*
X-42742Y110009D01*
X-42817Y110095D01*
X-42894Y110178D01*
X-42974Y110258D01*
X-43057Y110335D01*
X-43143Y110410D01*
X-43231Y110481D01*
X-43321Y110549D01*
X-43414Y110614D01*
X-43509Y110676D01*
X-43606Y110734D01*
X-43705Y110789D01*
X-43806Y110840D01*
X-43909Y110888D01*
X-44013Y110933D01*
X-44119Y110973D01*
X-44226Y111010D01*
X-44334Y111043D01*
X-44444Y111073D01*
X-44554Y111098D01*
X-44665Y111120D01*
X-44777Y111137D01*
X-44890Y111151D01*
X-45003Y111161D01*
X-45116Y111167D01*
X-45229Y111169D01*
X-45342Y111167D01*
X-45455Y111161D01*
X-45568Y111151D01*
X-45681Y111137D01*
X-45793Y111120D01*
X-45904Y111098D01*
X-46014Y111073D01*
X-46124Y111043D01*
X-46232Y111010D01*
X-46339Y110973D01*
X-46445Y110933D01*
X-46549Y110888D01*
X-46652Y110840D01*
X-46753Y110789D01*
X-46852Y110734D01*
X-46949Y110676D01*
X-47044Y110614D01*
X-47137Y110549D01*
X-47227Y110481D01*
X-47315Y110410D01*
X-47401Y110335D01*
X-47484Y110258D01*
X-47564Y110178D01*
X-47641Y110095D01*
X-47716Y110009D01*
X-47787Y109921D01*
X-47855Y109831D01*
X-47920Y109738D01*
X-47982Y109643D01*
X-48040Y109546D01*
X-48095Y109447D01*
X-48146Y109346D01*
X-48194Y109243D01*
X-48239Y109139D01*
X-48279Y109033D01*
X-48316Y108926D01*
X-48349Y108818D01*
X-48379Y108708D01*
X-48404Y108598D01*
X-48426Y108487D01*
X-48443Y108375D01*
X-48457Y108262D01*
X-48467Y108149D01*
X-48473Y108036D01*
X-48475Y107923D01*
X-53667Y108572D02*
X-53667Y104677D01*
X-53667Y108572D02*
X-53665Y108673D01*
X-53659Y108773D01*
X-53649Y108873D01*
X-53636Y108973D01*
X-53618Y109072D01*
X-53597Y109171D01*
X-53572Y109268D01*
X-53543Y109365D01*
X-53510Y109460D01*
X-53474Y109554D01*
X-53434Y109646D01*
X-53391Y109737D01*
X-53344Y109826D01*
X-53294Y109913D01*
X-53240Y109999D01*
X-53183Y110082D01*
X-53123Y110162D01*
X-53060Y110241D01*
X-52993Y110317D01*
X-52924Y110390D01*
X-52852Y110460D01*
X-52778Y110528D01*
X-52701Y110593D01*
X-52621Y110654D01*
X-52539Y110713D01*
X-52455Y110768D01*
X-52369Y110820D01*
X-52281Y110869D01*
X-52191Y110914D01*
X-52099Y110956D01*
X-52006Y110994D01*
X-51911Y111028D01*
X-51816Y111059D01*
X-51719Y111086D01*
X-51621Y111109D01*
X-51522Y111129D01*
X-51422Y111144D01*
X-51322Y111156D01*
X-51222Y111164D01*
X-51121Y111168D01*
X-51021Y111168D01*
X-50920Y111164D01*
X-50820Y111156D01*
X-50720Y111144D01*
X-50620Y111129D01*
X-50521Y111109D01*
X-50423Y111086D01*
X-50326Y111059D01*
X-50231Y111028D01*
X-50136Y110994D01*
X-50043Y110956D01*
X-49951Y110914D01*
X-49861Y110869D01*
X-49773Y110820D01*
X-49687Y110768D01*
X-49603Y110713D01*
X-49521Y110654D01*
X-49441Y110593D01*
X-49364Y110528D01*
X-49290Y110460D01*
X-49218Y110390D01*
X-49149Y110317D01*
X-49082Y110241D01*
X-49019Y110162D01*
X-48959Y110082D01*
X-48902Y109999D01*
X-48848Y109913D01*
X-48798Y109826D01*
X-48751Y109737D01*
X-48708Y109646D01*
X-48668Y109554D01*
X-48632Y109460D01*
X-48599Y109365D01*
X-48570Y109268D01*
X-48545Y109171D01*
X-48524Y109072D01*
X-48506Y108973D01*
X-48493Y108873D01*
X-48483Y108773D01*
X-48477Y108673D01*
X-48475Y108572D01*
X-48474Y108572D02*
X-48474Y105975D01*
X-42632Y115599D02*
X-41983Y115599D01*
X-42632Y115599D02*
X-42632Y116248D01*
X-41983Y116248D01*
X-41983Y115599D01*
X-51071Y120679D02*
X-53667Y123924D01*
X-41983Y123924D01*
X-41983Y120679D02*
X-41983Y127170D01*
X-47825Y132109D02*
X-48055Y132112D01*
X-48285Y132120D01*
X-48514Y132134D01*
X-48743Y132153D01*
X-48972Y132178D01*
X-49199Y132208D01*
X-49427Y132243D01*
X-49653Y132284D01*
X-49878Y132330D01*
X-50102Y132382D01*
X-50324Y132439D01*
X-50546Y132501D01*
X-50765Y132569D01*
X-50983Y132642D01*
X-51200Y132720D01*
X-51414Y132803D01*
X-51626Y132891D01*
X-51836Y132984D01*
X-52044Y133083D01*
X-52044Y133082D02*
X-52134Y133115D01*
X-52223Y133151D01*
X-52311Y133191D01*
X-52396Y133235D01*
X-52480Y133282D01*
X-52562Y133332D01*
X-52642Y133386D01*
X-52719Y133442D01*
X-52795Y133502D01*
X-52868Y133565D01*
X-52938Y133630D01*
X-53006Y133699D01*
X-53070Y133770D01*
X-53132Y133843D01*
X-53191Y133919D01*
X-53247Y133997D01*
X-53300Y134078D01*
X-53349Y134160D01*
X-53395Y134244D01*
X-53438Y134331D01*
X-53477Y134418D01*
X-53513Y134508D01*
X-53545Y134598D01*
X-53573Y134690D01*
X-53598Y134783D01*
X-53619Y134877D01*
X-53636Y134971D01*
X-53650Y135066D01*
X-53659Y135162D01*
X-53665Y135258D01*
X-53667Y135354D01*
X-53665Y135450D01*
X-53659Y135546D01*
X-53650Y135642D01*
X-53636Y135737D01*
X-53619Y135831D01*
X-53598Y135925D01*
X-53573Y136018D01*
X-53545Y136110D01*
X-53513Y136200D01*
X-53477Y136290D01*
X-53438Y136377D01*
X-53395Y136464D01*
X-53349Y136548D01*
X-53300Y136630D01*
X-53247Y136711D01*
X-53191Y136789D01*
X-53132Y136865D01*
X-53070Y136938D01*
X-53006Y137009D01*
X-52938Y137078D01*
X-52868Y137143D01*
X-52795Y137206D01*
X-52719Y137266D01*
X-52642Y137322D01*
X-52562Y137376D01*
X-52480Y137426D01*
X-52396Y137473D01*
X-52311Y137517D01*
X-52223Y137557D01*
X-52134Y137593D01*
X-52044Y137626D01*
X-52044Y137627D02*
X-51837Y137726D01*
X-51627Y137819D01*
X-51414Y137907D01*
X-51200Y137990D01*
X-50984Y138068D01*
X-50766Y138141D01*
X-50546Y138209D01*
X-50325Y138271D01*
X-50102Y138328D01*
X-49878Y138380D01*
X-49653Y138426D01*
X-49427Y138467D01*
X-49200Y138502D01*
X-48972Y138532D01*
X-48743Y138557D01*
X-48514Y138576D01*
X-48285Y138590D01*
X-48055Y138598D01*
X-47825Y138601D01*
X-47825Y132109D02*
X-47595Y132112D01*
X-47365Y132120D01*
X-47136Y132134D01*
X-46907Y132153D01*
X-46678Y132178D01*
X-46450Y132208D01*
X-46223Y132243D01*
X-45997Y132284D01*
X-45772Y132330D01*
X-45548Y132382D01*
X-45325Y132439D01*
X-45104Y132501D01*
X-44884Y132569D01*
X-44666Y132642D01*
X-44450Y132720D01*
X-44236Y132803D01*
X-44024Y132891D01*
X-43813Y132984D01*
X-43606Y133083D01*
X-43606Y133082D02*
X-43516Y133115D01*
X-43427Y133151D01*
X-43339Y133192D01*
X-43254Y133235D01*
X-43170Y133282D01*
X-43088Y133332D01*
X-43008Y133386D01*
X-42931Y133442D01*
X-42855Y133502D01*
X-42782Y133565D01*
X-42712Y133630D01*
X-42644Y133699D01*
X-42580Y133770D01*
X-42518Y133843D01*
X-42459Y133919D01*
X-42403Y133997D01*
X-42350Y134078D01*
X-42301Y134160D01*
X-42255Y134244D01*
X-42212Y134331D01*
X-42173Y134418D01*
X-42137Y134508D01*
X-42105Y134598D01*
X-42077Y134690D01*
X-42052Y134783D01*
X-42031Y134877D01*
X-42014Y134971D01*
X-42000Y135066D01*
X-41991Y135162D01*
X-41985Y135258D01*
X-41983Y135354D01*
X-43606Y137626D02*
X-43813Y137725D01*
X-44024Y137818D01*
X-44236Y137906D01*
X-44450Y137989D01*
X-44666Y138067D01*
X-44884Y138140D01*
X-45104Y138208D01*
X-45325Y138270D01*
X-45548Y138327D01*
X-45772Y138379D01*
X-45997Y138425D01*
X-46223Y138466D01*
X-46450Y138501D01*
X-46678Y138531D01*
X-46907Y138556D01*
X-47136Y138575D01*
X-47365Y138589D01*
X-47595Y138597D01*
X-47825Y138600D01*
X-43606Y137626D02*
X-43516Y137593D01*
X-43427Y137557D01*
X-43339Y137517D01*
X-43254Y137473D01*
X-43170Y137426D01*
X-43088Y137376D01*
X-43008Y137322D01*
X-42931Y137266D01*
X-42855Y137206D01*
X-42782Y137143D01*
X-42712Y137078D01*
X-42644Y137009D01*
X-42580Y136938D01*
X-42518Y136865D01*
X-42459Y136789D01*
X-42403Y136711D01*
X-42350Y136630D01*
X-42301Y136548D01*
X-42255Y136464D01*
X-42212Y136377D01*
X-42173Y136290D01*
X-42137Y136200D01*
X-42105Y136110D01*
X-42077Y136018D01*
X-42052Y135925D01*
X-42031Y135831D01*
X-42014Y135737D01*
X-42000Y135642D01*
X-41991Y135546D01*
X-41985Y135450D01*
X-41983Y135354D01*
X-44579Y132758D02*
X-51071Y137951D01*
D11*
X0Y-5000D02*
X0Y-62500D01*
X150000Y-62500D02*
X150000Y-5000D01*
X149350Y-43000D02*
X650Y-43000D01*
X26000Y-39808D01*
X26000Y-46192D01*
X650Y-43000D01*
X26000Y-41700D01*
X26000Y-44300D02*
X650Y-43000D01*
X26000Y-40400D01*
X26000Y-45600D02*
X650Y-43000D01*
X124000Y-39808D02*
X149350Y-43000D01*
X124000Y-39808D02*
X124000Y-46192D01*
X149350Y-43000D01*
X124000Y-41700D01*
X124000Y-44300D02*
X149350Y-43000D01*
X124000Y-40400D01*
X124000Y-45600D02*
X149350Y-43000D01*
D12*
X55993Y-26333D02*
X52747Y-28929D01*
X55993Y-26333D02*
X55993Y-38017D01*
X59238Y-38017D02*
X52747Y-38017D01*
X64177Y-38017D02*
X68072Y-38017D01*
X68171Y-38015D01*
X68271Y-38009D01*
X68370Y-38000D01*
X68468Y-37987D01*
X68566Y-37970D01*
X68664Y-37949D01*
X68760Y-37924D01*
X68855Y-37896D01*
X68949Y-37864D01*
X69042Y-37829D01*
X69134Y-37790D01*
X69224Y-37747D01*
X69312Y-37702D01*
X69399Y-37652D01*
X69483Y-37600D01*
X69566Y-37544D01*
X69646Y-37486D01*
X69724Y-37424D01*
X69799Y-37359D01*
X69872Y-37291D01*
X69942Y-37221D01*
X70010Y-37148D01*
X70075Y-37073D01*
X70137Y-36995D01*
X70195Y-36915D01*
X70251Y-36832D01*
X70303Y-36748D01*
X70353Y-36661D01*
X70398Y-36573D01*
X70441Y-36483D01*
X70480Y-36391D01*
X70515Y-36298D01*
X70547Y-36204D01*
X70575Y-36109D01*
X70600Y-36013D01*
X70621Y-35915D01*
X70638Y-35817D01*
X70651Y-35719D01*
X70660Y-35620D01*
X70666Y-35520D01*
X70668Y-35421D01*
X70668Y-34122D01*
X70666Y-34023D01*
X70660Y-33923D01*
X70651Y-33824D01*
X70638Y-33726D01*
X70621Y-33628D01*
X70600Y-33530D01*
X70575Y-33434D01*
X70547Y-33339D01*
X70515Y-33245D01*
X70480Y-33152D01*
X70441Y-33060D01*
X70398Y-32970D01*
X70353Y-32882D01*
X70303Y-32795D01*
X70251Y-32711D01*
X70195Y-32628D01*
X70137Y-32548D01*
X70075Y-32470D01*
X70010Y-32395D01*
X69942Y-32322D01*
X69872Y-32252D01*
X69799Y-32184D01*
X69724Y-32119D01*
X69646Y-32057D01*
X69566Y-31999D01*
X69483Y-31943D01*
X69399Y-31891D01*
X69312Y-31841D01*
X69224Y-31796D01*
X69134Y-31753D01*
X69042Y-31714D01*
X68949Y-31679D01*
X68855Y-31647D01*
X68760Y-31619D01*
X68664Y-31594D01*
X68566Y-31573D01*
X68468Y-31556D01*
X68370Y-31543D01*
X68271Y-31534D01*
X68171Y-31528D01*
X68072Y-31526D01*
X64177Y-31526D01*
X64177Y-26333D01*
X70668Y-26333D01*
X75099Y-37368D02*
X75099Y-38017D01*
X75099Y-37368D02*
X75748Y-37368D01*
X75748Y-38017D01*
X75099Y-38017D01*
X80179Y-32175D02*
X80182Y-31945D01*
X80190Y-31715D01*
X80204Y-31486D01*
X80223Y-31257D01*
X80248Y-31028D01*
X80278Y-30800D01*
X80313Y-30573D01*
X80354Y-30347D01*
X80400Y-30122D01*
X80452Y-29898D01*
X80509Y-29675D01*
X80571Y-29454D01*
X80639Y-29234D01*
X80712Y-29016D01*
X80790Y-28800D01*
X80873Y-28586D01*
X80961Y-28374D01*
X81054Y-28163D01*
X81153Y-27956D01*
X81152Y-27956D02*
X81185Y-27866D01*
X81221Y-27777D01*
X81261Y-27689D01*
X81305Y-27604D01*
X81352Y-27520D01*
X81402Y-27438D01*
X81456Y-27358D01*
X81512Y-27281D01*
X81572Y-27205D01*
X81635Y-27132D01*
X81700Y-27062D01*
X81769Y-26994D01*
X81840Y-26930D01*
X81913Y-26868D01*
X81989Y-26809D01*
X82067Y-26753D01*
X82148Y-26700D01*
X82230Y-26651D01*
X82314Y-26605D01*
X82401Y-26562D01*
X82488Y-26523D01*
X82578Y-26487D01*
X82668Y-26455D01*
X82760Y-26427D01*
X82853Y-26402D01*
X82947Y-26381D01*
X83041Y-26364D01*
X83136Y-26350D01*
X83232Y-26341D01*
X83328Y-26335D01*
X83424Y-26333D01*
X83520Y-26335D01*
X83616Y-26341D01*
X83712Y-26350D01*
X83807Y-26364D01*
X83901Y-26381D01*
X83995Y-26402D01*
X84088Y-26427D01*
X84180Y-26455D01*
X84270Y-26487D01*
X84360Y-26523D01*
X84448Y-26562D01*
X84534Y-26605D01*
X84618Y-26651D01*
X84700Y-26700D01*
X84781Y-26753D01*
X84859Y-26809D01*
X84935Y-26868D01*
X85008Y-26930D01*
X85079Y-26994D01*
X85148Y-27062D01*
X85213Y-27132D01*
X85276Y-27205D01*
X85336Y-27281D01*
X85392Y-27358D01*
X85446Y-27438D01*
X85496Y-27520D01*
X85543Y-27604D01*
X85587Y-27689D01*
X85627Y-27777D01*
X85663Y-27866D01*
X85696Y-27956D01*
X85795Y-28163D01*
X85888Y-28374D01*
X85976Y-28586D01*
X86059Y-28800D01*
X86137Y-29016D01*
X86210Y-29234D01*
X86278Y-29454D01*
X86340Y-29675D01*
X86397Y-29898D01*
X86449Y-30122D01*
X86495Y-30347D01*
X86536Y-30573D01*
X86571Y-30800D01*
X86601Y-31028D01*
X86626Y-31257D01*
X86645Y-31486D01*
X86659Y-31715D01*
X86667Y-31945D01*
X86670Y-32175D01*
X80179Y-32175D02*
X80182Y-32405D01*
X80190Y-32635D01*
X80204Y-32864D01*
X80223Y-33093D01*
X80248Y-33322D01*
X80278Y-33550D01*
X80313Y-33777D01*
X80354Y-34003D01*
X80400Y-34228D01*
X80452Y-34452D01*
X80509Y-34675D01*
X80571Y-34896D01*
X80639Y-35116D01*
X80712Y-35334D01*
X80790Y-35550D01*
X80873Y-35764D01*
X80961Y-35976D01*
X81054Y-36187D01*
X81153Y-36394D01*
X81152Y-36394D02*
X81185Y-36484D01*
X81221Y-36573D01*
X81262Y-36661D01*
X81305Y-36746D01*
X81352Y-36830D01*
X81402Y-36912D01*
X81456Y-36992D01*
X81512Y-37069D01*
X81572Y-37145D01*
X81635Y-37218D01*
X81700Y-37288D01*
X81769Y-37356D01*
X81840Y-37420D01*
X81913Y-37482D01*
X81989Y-37541D01*
X82067Y-37597D01*
X82148Y-37650D01*
X82230Y-37699D01*
X82314Y-37745D01*
X82401Y-37788D01*
X82488Y-37827D01*
X82578Y-37863D01*
X82668Y-37895D01*
X82760Y-37923D01*
X82853Y-37948D01*
X82947Y-37969D01*
X83041Y-37986D01*
X83136Y-38000D01*
X83232Y-38009D01*
X83328Y-38015D01*
X83424Y-38017D01*
X85696Y-36394D02*
X85795Y-36187D01*
X85888Y-35976D01*
X85976Y-35764D01*
X86059Y-35550D01*
X86137Y-35334D01*
X86210Y-35116D01*
X86278Y-34896D01*
X86340Y-34675D01*
X86397Y-34452D01*
X86449Y-34228D01*
X86495Y-34003D01*
X86536Y-33777D01*
X86571Y-33550D01*
X86601Y-33322D01*
X86626Y-33093D01*
X86645Y-32864D01*
X86659Y-32635D01*
X86667Y-32405D01*
X86670Y-32175D01*
X85696Y-36394D02*
X85663Y-36484D01*
X85627Y-36573D01*
X85587Y-36661D01*
X85543Y-36746D01*
X85496Y-36830D01*
X85446Y-36912D01*
X85392Y-36992D01*
X85336Y-37069D01*
X85276Y-37145D01*
X85213Y-37218D01*
X85148Y-37288D01*
X85079Y-37356D01*
X85008Y-37420D01*
X84935Y-37482D01*
X84859Y-37541D01*
X84781Y-37597D01*
X84700Y-37650D01*
X84618Y-37699D01*
X84534Y-37745D01*
X84447Y-37788D01*
X84360Y-37827D01*
X84270Y-37863D01*
X84180Y-37895D01*
X84088Y-37923D01*
X83995Y-37948D01*
X83901Y-37969D01*
X83807Y-37986D01*
X83712Y-38000D01*
X83616Y-38009D01*
X83520Y-38015D01*
X83424Y-38017D01*
X80828Y-35421D02*
X86021Y-28929D01*
X91609Y-32175D02*
X91612Y-31945D01*
X91620Y-31715D01*
X91634Y-31486D01*
X91653Y-31257D01*
X91678Y-31028D01*
X91708Y-30800D01*
X91743Y-30573D01*
X91784Y-30347D01*
X91830Y-30122D01*
X91882Y-29898D01*
X91939Y-29675D01*
X92001Y-29454D01*
X92069Y-29234D01*
X92142Y-29016D01*
X92220Y-28800D01*
X92303Y-28586D01*
X92391Y-28374D01*
X92484Y-28163D01*
X92583Y-27956D01*
X92582Y-27956D02*
X92615Y-27866D01*
X92651Y-27777D01*
X92691Y-27689D01*
X92735Y-27604D01*
X92782Y-27520D01*
X92832Y-27438D01*
X92886Y-27358D01*
X92942Y-27281D01*
X93002Y-27205D01*
X93065Y-27132D01*
X93130Y-27062D01*
X93199Y-26994D01*
X93270Y-26930D01*
X93343Y-26868D01*
X93419Y-26809D01*
X93497Y-26753D01*
X93578Y-26700D01*
X93660Y-26651D01*
X93744Y-26605D01*
X93831Y-26562D01*
X93918Y-26523D01*
X94008Y-26487D01*
X94098Y-26455D01*
X94190Y-26427D01*
X94283Y-26402D01*
X94377Y-26381D01*
X94471Y-26364D01*
X94566Y-26350D01*
X94662Y-26341D01*
X94758Y-26335D01*
X94854Y-26333D01*
X94950Y-26335D01*
X95046Y-26341D01*
X95142Y-26350D01*
X95237Y-26364D01*
X95331Y-26381D01*
X95425Y-26402D01*
X95518Y-26427D01*
X95610Y-26455D01*
X95700Y-26487D01*
X95790Y-26523D01*
X95878Y-26562D01*
X95964Y-26605D01*
X96048Y-26651D01*
X96130Y-26700D01*
X96211Y-26753D01*
X96289Y-26809D01*
X96365Y-26868D01*
X96438Y-26930D01*
X96509Y-26994D01*
X96578Y-27062D01*
X96643Y-27132D01*
X96706Y-27205D01*
X96766Y-27281D01*
X96822Y-27358D01*
X96876Y-27438D01*
X96926Y-27520D01*
X96973Y-27604D01*
X97017Y-27689D01*
X97057Y-27777D01*
X97093Y-27866D01*
X97126Y-27956D01*
X97225Y-28163D01*
X97318Y-28374D01*
X97406Y-28586D01*
X97489Y-28800D01*
X97567Y-29016D01*
X97640Y-29234D01*
X97708Y-29454D01*
X97770Y-29675D01*
X97827Y-29898D01*
X97879Y-30122D01*
X97925Y-30347D01*
X97966Y-30573D01*
X98001Y-30800D01*
X98031Y-31028D01*
X98056Y-31257D01*
X98075Y-31486D01*
X98089Y-31715D01*
X98097Y-31945D01*
X98100Y-32175D01*
X91609Y-32175D02*
X91612Y-32405D01*
X91620Y-32635D01*
X91634Y-32864D01*
X91653Y-33093D01*
X91678Y-33322D01*
X91708Y-33550D01*
X91743Y-33777D01*
X91784Y-34003D01*
X91830Y-34228D01*
X91882Y-34452D01*
X91939Y-34675D01*
X92001Y-34896D01*
X92069Y-35116D01*
X92142Y-35334D01*
X92220Y-35550D01*
X92303Y-35764D01*
X92391Y-35976D01*
X92484Y-36187D01*
X92583Y-36394D01*
X92582Y-36394D02*
X92615Y-36484D01*
X92651Y-36573D01*
X92692Y-36661D01*
X92735Y-36746D01*
X92782Y-36830D01*
X92832Y-36912D01*
X92886Y-36992D01*
X92942Y-37069D01*
X93002Y-37145D01*
X93065Y-37218D01*
X93130Y-37288D01*
X93199Y-37356D01*
X93270Y-37420D01*
X93343Y-37482D01*
X93419Y-37541D01*
X93497Y-37597D01*
X93578Y-37650D01*
X93660Y-37699D01*
X93744Y-37745D01*
X93831Y-37788D01*
X93918Y-37827D01*
X94008Y-37863D01*
X94098Y-37895D01*
X94190Y-37923D01*
X94283Y-37948D01*
X94377Y-37969D01*
X94471Y-37986D01*
X94566Y-38000D01*
X94662Y-38009D01*
X94758Y-38015D01*
X94854Y-38017D01*
X97126Y-36394D02*
X97225Y-36187D01*
X97318Y-35976D01*
X97406Y-35764D01*
X97489Y-35550D01*
X97567Y-35334D01*
X97640Y-35116D01*
X97708Y-34896D01*
X97770Y-34675D01*
X97827Y-34452D01*
X97879Y-34228D01*
X97925Y-34003D01*
X97966Y-33777D01*
X98001Y-33550D01*
X98031Y-33322D01*
X98056Y-33093D01*
X98075Y-32864D01*
X98089Y-32635D01*
X98097Y-32405D01*
X98100Y-32175D01*
X97126Y-36394D02*
X97093Y-36484D01*
X97057Y-36573D01*
X97017Y-36661D01*
X96973Y-36746D01*
X96926Y-36830D01*
X96876Y-36912D01*
X96822Y-36992D01*
X96766Y-37069D01*
X96706Y-37145D01*
X96643Y-37218D01*
X96578Y-37288D01*
X96509Y-37356D01*
X96438Y-37420D01*
X96365Y-37482D01*
X96289Y-37541D01*
X96211Y-37597D01*
X96130Y-37650D01*
X96048Y-37699D01*
X95964Y-37745D01*
X95877Y-37788D01*
X95790Y-37827D01*
X95700Y-37863D01*
X95610Y-37895D01*
X95518Y-37923D01*
X95425Y-37948D01*
X95331Y-37969D01*
X95237Y-37986D01*
X95142Y-38000D01*
X95046Y-38009D01*
X94950Y-38015D01*
X94854Y-38017D01*
X92258Y-35421D02*
X97451Y-28929D01*
D13*
X107300Y107450D03*
X107300Y126450D03*
X82900Y107450D03*
X82900Y126450D03*
D14*
X35000Y178300D02*
X35000Y203700D01*
X119000Y202700D02*
X119000Y177300D01*
X78000Y177300D02*
X78000Y202700D01*
D15*
X57150Y25400D03*
X31750Y25400D03*
X107950Y25400D03*
X82550Y25400D03*
D16*
X52950Y57150D03*
X35950Y57150D03*
X91050Y63500D03*
X74050Y63500D03*
D17*
X31496Y117348D03*
X31496Y107950D03*
X31496Y98552D03*
X57404Y98552D03*
X57404Y107950D03*
X57404Y117348D03*
D16*
X42300Y146050D03*
X59300Y146050D03*
D18*
X25400Y137550D03*
X25400Y154550D03*
D19*
X44450Y82550D03*
X78000Y144000D03*
X90000Y144000D03*
X102000Y144000D03*
X127000Y25400D03*
X19050Y120650D03*
X113000Y144000D03*
X66000Y128000D03*
X56000Y128000D03*
X45000Y108000D03*
X18050Y110650D03*
X17050Y99650D03*
D20*
X74050Y81906D02*
X74050Y63500D01*
X74050Y81906D02*
X57404Y98552D01*
X57150Y40250D02*
X57150Y25400D01*
X74050Y57150D02*
X74050Y63500D01*
X74050Y57150D02*
X57150Y40250D01*
X31750Y52950D02*
X31750Y25400D01*
X31750Y52950D02*
X35950Y57150D01*
X29600Y63500D01*
X29600Y87748D01*
X31496Y89644D02*
X31496Y98552D01*
X31496Y89644D02*
X29600Y87748D01*
X91050Y63500D02*
X91050Y61350D01*
D19*
X57150Y78550D03*
D20*
X52950Y74350D01*
X52950Y57150D01*
D21*
X119000Y169000D02*
X119000Y190000D01*
X119000Y169000D02*
X133350Y154650D01*
D19*
X87000Y79000D03*
D21*
X91050Y74950D01*
X91050Y61350D01*
X94000Y79000D02*
X87000Y79000D01*
X107950Y65050D02*
X107950Y25400D01*
X107950Y65050D02*
X94000Y79000D01*
X133350Y94000D02*
X133350Y154650D01*
X133350Y94000D02*
X133350Y90350D01*
X108050Y65050D02*
X107950Y65050D01*
X108050Y65050D02*
X133350Y90350D01*
X133350Y94000D02*
X122350Y105000D01*
X109750Y105000D02*
X107300Y107450D01*
X109750Y105000D02*
X122350Y105000D01*
X107300Y107450D02*
X82900Y107450D01*
X82400Y107950D02*
X57404Y107950D01*
X82400Y107950D02*
X82900Y107450D01*
D22*
X59300Y146050D02*
X59300Y156700D01*
D23*
X59300Y158700D01*
X35000Y183000D02*
X35000Y191000D01*
X35000Y183000D02*
X59300Y158700D01*
D22*
X33800Y154550D02*
X25400Y154550D01*
X33800Y154550D02*
X42300Y146050D01*
X42300Y128152D01*
X31496Y117348D01*
M02*
