M48
;GenerationSoftware,Autodesk,EAGLE,9.6.2*%
;CreationDate,2025-07-07T13:25:02Z*%
FMAT,2
ICI,OFF
METRIC,TZ,000.000
T9C0.300
T8C0.350
T7C0.610
T6C0.800
T5C0.813
T4C1.000
T3C1.016
T2C1.300
T1C1.750
%
G90
M71
T1
X7630Y12446
X7630Y17046
T2
X84073Y25400
X64072Y25400
T3
X42323Y77026
X44863Y77026
X44799Y6001
X47339Y6001
X49879Y6001
X44767Y3492
X47307Y3492
X49847Y3492
X47434Y74359
X44894Y74359
X42355Y74359
X47403Y77026
T4
X86395Y43715
X71120Y5398
X86395Y51715
X6627Y44292
X6627Y39893
X86678Y5398
X84138Y5398
X81598Y5398
X86678Y10478
X84138Y10478
X81598Y10478
X18098Y75883
X20638Y75883
X23177Y75883
X18098Y70803
X20638Y70803
X23177Y70803
X6350Y72549
X6350Y75089
X6350Y77629
X11430Y72549
X11430Y75089
X11430Y77629
X61214Y5398
X58674Y5398
X56134Y5398
X61214Y10478
X58674Y10478
X56134Y10478
X76200Y5398
X73660Y5398
X38100Y61690
X68580Y5398
X66040Y5398
X76200Y10478
X73660Y10478
X71120Y10478
X68580Y10478
X66040Y10478
X40640Y61690
X38100Y59150
X40640Y59150
X38100Y56610
X60960Y43910
X58420Y43910
X60960Y46450
X58420Y46450
X60960Y48990
X58420Y48990
X60960Y51530
X58420Y51530
X60960Y54070
X58420Y54070
X60960Y56610
X58420Y56610
X60960Y59150
X58420Y59150
X58420Y61690
X60960Y61690
X40640Y43910
X38100Y43910
X40640Y46450
X38100Y46450
X40640Y48990
X38100Y48990
X40640Y51530
X38100Y51530
X40640Y54070
X38100Y54070
X40640Y56610
T5
X5118Y50185
X13652Y50185
T6
X4360Y30432
X32115Y77873
X4360Y32432
X30115Y77873
T7
X43878Y15852
X41339Y15852
X38799Y15852
T8
X46672Y42545
X48260Y44450
X15557Y57150
X14922Y62230
X23177Y64135
X24447Y64135
X25400Y63817
X17780Y55562
X11112Y52387
X14765Y56592
X10478Y53657
X9208Y53340
X21590Y50165
X2223Y68263
X1346Y66675
X1346Y64725
X1346Y62774
X1346Y60824
X1346Y58874
X1346Y56923
X1346Y54973
X1346Y53022
X11643Y38922
X12278Y40510
X17963Y40410
X26787Y8425
X31432Y8255
X31273Y9465
X32708Y7861
X33772Y7841
X42979Y7523
X44249Y7841
X52187Y14508
X51234Y14508
X50496Y15929
X56211Y19421
X56211Y20691
X56981Y21326
X56329Y22161
X50814Y25771
X54332Y25275
X69850Y43815
X77153Y42228
X78423Y40958
X77470Y39370
X88768Y45448
X86043Y39370
X83820Y40958
X88768Y59834
X86043Y58102
X80033Y78128
X78763Y72413
X80033Y72413
X81620Y72413
X35243Y17145
X36195Y17145
X46355Y15875
X45720Y14605
X46037Y13335
X39928Y31297
X39063Y30332
X38893Y31332
X37783Y30162
X37783Y31432
X43932Y28175
X45402Y24447
X45402Y23177
X16192Y54292
X16192Y53022
X16192Y51435
X18415Y49212
X75613Y26575
X72713Y23775
X72813Y22775
X56787Y15608
X55687Y15708
X57087Y14308
X57087Y12808
X47237Y12735
X61362Y79795
X63662Y79795
X62512Y79795
X55562Y79804
X53884Y79804
X52206Y79804
X51562Y70045
X50162Y70045
X48862Y70145
X36463Y66745
X36463Y65745
X36463Y64545
X35163Y65745
X36463Y63245
X31162Y53945
X32362Y53945
X32662Y55045
X34063Y54945
X33663Y53545
X33263Y52045
X32262Y52745
X26182Y46712
X26092Y50995
X24492Y49495
X23392Y48195
X22552Y33440
X22552Y32440
X21653Y32640
X21653Y31840
X33858Y39020
X15542Y16820
X14042Y16820
X12742Y16720
X12742Y18020
X14142Y18020
X15542Y18120
X81180Y15727
X88768Y38255
X68845Y62430
X64145Y60130
X64045Y61330
X67545Y62430
X66445Y62430
X78063Y55015
X78063Y56215
X62862Y46715
X62862Y47915
X38200Y13300
X39400Y13300
X41800Y11400
X19808Y25092
X20808Y24992
X21308Y25992
X21808Y24992
X22407Y25992
X12307Y26592
X11307Y27392
X11207Y26192
X11107Y24992
X10053Y27540
X9753Y26340
X58632Y32520
X58532Y33520
X62732Y31820
X58832Y31420
X57632Y32320
X48960Y51150
X48960Y49450
X24947Y35965
X49060Y46450
X48260Y43150
X46960Y44150
X50460Y39350
X72373Y33608
X71573Y34408
X68133Y29220
X19568Y15927
X19168Y15327
X18568Y15227
X19868Y15227
X2063Y23875
X2063Y22025
X2063Y20175
X2063Y18325
X2063Y16475
X2063Y14625
X2063Y12775
X2063Y10925
X2063Y9075
X26862Y-175
X29453Y-175
X32044Y-175
X34635Y-175
X37226Y-175
X39817Y-175
X42408Y-175
X44999Y-175
X47590Y-175
X50181Y-175
X52772Y-175
X55362Y-175
X88768Y40652
X88768Y43050
X88768Y47845
X88768Y50243
X88768Y52641
X88768Y55039
X88768Y57436
X88768Y62232
X88768Y64629
X88768Y67027
X88768Y69425
X88768Y35857
X88768Y33459
X88768Y31061
X88768Y28664
X88768Y26266
X88768Y23868
X88768Y21470
X88768Y19073
X88768Y16675
X35425Y79804
X37103Y79804
X38781Y79804
X40459Y79804
X42138Y79804
X43816Y79804
X45494Y79804
X47172Y79804
X48850Y79804
X50528Y79804
X13965Y59092
X52705Y74613
X52705Y71755
X52500Y42300
X52340Y39053
X80963Y47625
X78740Y47625
X54610Y62865
X56832Y63182
X67628Y56515
X70803Y56197
X69215Y47307
X73364Y47921
X54610Y65087
X56982Y65405
X66040Y51117
X73660Y51117
X41500Y38900
X41700Y35900
X65087Y66675
X63182Y66993
X77170Y31115
X77153Y28575
X61595Y37148
X64770Y37148
X54100Y42300
X54100Y39100
X44132Y39053
X44632Y36313
X62800Y27200
X65200Y29500
X47100Y38700
X61600Y41100
X64700Y41100
X49530Y54292
X37465Y68898
X43815Y67628
X61600Y39900
X64700Y39900
X49530Y58420
X27805Y37870
X29075Y32155
X23995Y30567
X17453Y31040
X22407Y38188
X16057Y44220
X14605Y68263
X19368Y66358
X60960Y74613
X60325Y77788
X9073Y62952
X9073Y65810
X31115Y68263
X49212Y20001
X48577Y21907
X45720Y31750
X46355Y25717
X36400Y36300
X38700Y34000
X61595Y38418
X64770Y38418
X55500Y42400
X55515Y39053
X47700Y61800
X47700Y64300
X69850Y24765
X42900Y39100
X43200Y36200
X65157Y23247
X61600Y42100
X64700Y42100
X70000Y42100
X73600Y29200
X74520Y28110
X70550Y33755
X71173Y33608
X67093Y36125
X66393Y33895
X77788Y4445
X79058Y5715
X86678Y8255
X88900Y705
X79375Y387
X81099Y12946
X81102Y14410
X81280Y16828
X82550Y17163
X25517Y6520
X22977Y6520
X21073Y6520
X19485Y7155
X19168Y8743
X18533Y10013
X17263Y10330
X18668Y15927
X56832Y33020
X80963Y56515
X82550Y58737
X80645Y62230
X83820Y56197
X78740Y46037
X77470Y45402
X73343Y43815
X68263Y18415
X67523Y19233
X68510Y17150
X67310Y20320
X43198Y28040
X23452Y33040
X23452Y34040
X17953Y29540
X12595Y37652
X10183Y35850
X48960Y48050
X12247Y60730
X25582Y36600
X26217Y35965
X25582Y35330
X23328Y58444
X23011Y54634
X17230Y59857
X19698Y65111
X30892Y48895
X30892Y46895
X30892Y44895
X6865Y50317
X3277Y52222
X2912Y49540
X3047Y50905
X6412Y48675
X4413Y48675
X88127Y77763
X88445Y75763
X88445Y73763
X87810Y72398
X78763Y78445
X81398Y78128
X83398Y78128
X82445Y77398
X86445Y78763
X84445Y78763
X83398Y72668
X84763Y72350
X86128Y72350
X82445Y73398
X22842Y17720
X25382Y17720
X24112Y17720
X28557Y17720
X26970Y17720
X8120Y62000
X7167Y62000
X20185Y41680
X20185Y44855
X19233Y44855
X24312Y44537
X23360Y44537
X30075Y43268
X28305Y43268
X28091Y50824
X29392Y47395
X27487Y47395
X25582Y47712
X20208Y25992
X10660Y62952
X10660Y63905
X19201Y55904
X20153Y58126
X9453Y25040
T9
X21337Y56476
X21330Y57243
X19668Y13370
X19168Y12870
X19668Y12370
X18668Y13370
X18668Y12370
X22143Y57241
X22143Y56473
X12247Y59790
X12247Y61670
M30