G04 EAGLE Gerber RS-274X export*
G75*
%MOMM*%
%FSLAX34Y34*%
%LPD*%
%INSilkscreen Bottom*%
%IPPOS*%
%AMOC8*
5,1,8,0,0,1.08239X$1,22.5*%
G01*
%ADD10C,0.000000*%
%ADD11C,0.130000*%
%ADD12C,0.101600*%
%ADD13C,0.152400*%


D10*
X0Y0D02*
X150000Y0D01*
X150000Y231000D01*
X0Y231000D01*
X0Y0D01*
D11*
X-6000Y0D02*
X-56500Y0D01*
X-56500Y231000D02*
X-6000Y231000D01*
X-37000Y230350D02*
X-37000Y650D01*
X-40192Y26000D01*
X-33808Y26000D01*
X-37000Y650D01*
X-38300Y26000D01*
X-35700Y26000D02*
X-37000Y650D01*
X-39600Y26000D01*
X-34400Y26000D02*
X-37000Y650D01*
X-40192Y205000D02*
X-37000Y230350D01*
X-40192Y205000D02*
X-33808Y205000D01*
X-37000Y230350D01*
X-38300Y205000D01*
X-35700Y205000D02*
X-37000Y230350D01*
X-39600Y205000D01*
X-34400Y205000D02*
X-37000Y230350D01*
D12*
X-50746Y99738D02*
X-50853Y99736D01*
X-50959Y99730D01*
X-51065Y99720D01*
X-51171Y99707D01*
X-51277Y99689D01*
X-51381Y99668D01*
X-51485Y99643D01*
X-51588Y99614D01*
X-51689Y99582D01*
X-51789Y99545D01*
X-51888Y99505D01*
X-51986Y99462D01*
X-52082Y99415D01*
X-52176Y99364D01*
X-52268Y99310D01*
X-52358Y99253D01*
X-52446Y99193D01*
X-52531Y99129D01*
X-52614Y99062D01*
X-52695Y98992D01*
X-52773Y98920D01*
X-52849Y98844D01*
X-52921Y98766D01*
X-52991Y98685D01*
X-53058Y98602D01*
X-53122Y98517D01*
X-53182Y98429D01*
X-53239Y98339D01*
X-53293Y98247D01*
X-53344Y98153D01*
X-53391Y98057D01*
X-53434Y97959D01*
X-53474Y97860D01*
X-53511Y97760D01*
X-53543Y97659D01*
X-53572Y97556D01*
X-53597Y97452D01*
X-53618Y97348D01*
X-53636Y97242D01*
X-53649Y97136D01*
X-53659Y97030D01*
X-53665Y96924D01*
X-53667Y96817D01*
X-53665Y96696D01*
X-53659Y96575D01*
X-53649Y96455D01*
X-53636Y96334D01*
X-53618Y96215D01*
X-53597Y96095D01*
X-53572Y95977D01*
X-53543Y95860D01*
X-53510Y95743D01*
X-53474Y95628D01*
X-53433Y95514D01*
X-53390Y95401D01*
X-53342Y95289D01*
X-53291Y95180D01*
X-53236Y95072D01*
X-53178Y94965D01*
X-53117Y94861D01*
X-53052Y94759D01*
X-52984Y94659D01*
X-52913Y94561D01*
X-52839Y94465D01*
X-52762Y94372D01*
X-52681Y94282D01*
X-52598Y94194D01*
X-52512Y94109D01*
X-52423Y94026D01*
X-52332Y93947D01*
X-52238Y93870D01*
X-52142Y93797D01*
X-52044Y93727D01*
X-51943Y93660D01*
X-51840Y93596D01*
X-51735Y93536D01*
X-51628Y93479D01*
X-51520Y93425D01*
X-51410Y93375D01*
X-51298Y93329D01*
X-51185Y93286D01*
X-51070Y93247D01*
X-48474Y98765D02*
X-48551Y98844D01*
X-48632Y98920D01*
X-48715Y98993D01*
X-48800Y99063D01*
X-48888Y99130D01*
X-48978Y99194D01*
X-49070Y99254D01*
X-49165Y99311D01*
X-49261Y99365D01*
X-49359Y99416D01*
X-49459Y99463D01*
X-49561Y99507D01*
X-49664Y99547D01*
X-49768Y99583D01*
X-49874Y99615D01*
X-49980Y99644D01*
X-50088Y99669D01*
X-50196Y99691D01*
X-50306Y99708D01*
X-50415Y99722D01*
X-50525Y99731D01*
X-50636Y99737D01*
X-50746Y99739D01*
X-48474Y98764D02*
X-41983Y93247D01*
X-41983Y99738D01*
X-41983Y104677D02*
X-41983Y107923D01*
X-41985Y108036D01*
X-41991Y108149D01*
X-42001Y108262D01*
X-42015Y108375D01*
X-42032Y108487D01*
X-42054Y108598D01*
X-42079Y108708D01*
X-42109Y108818D01*
X-42142Y108926D01*
X-42179Y109033D01*
X-42219Y109139D01*
X-42264Y109243D01*
X-42312Y109346D01*
X-42363Y109447D01*
X-42418Y109546D01*
X-42476Y109643D01*
X-42538Y109738D01*
X-42603Y109831D01*
X-42671Y109921D01*
X-42742Y110009D01*
X-42817Y110095D01*
X-42894Y110178D01*
X-42974Y110258D01*
X-43057Y110335D01*
X-43143Y110410D01*
X-43231Y110481D01*
X-43321Y110549D01*
X-43414Y110614D01*
X-43509Y110676D01*
X-43606Y110734D01*
X-43705Y110789D01*
X-43806Y110840D01*
X-43909Y110888D01*
X-44013Y110933D01*
X-44119Y110973D01*
X-44226Y111010D01*
X-44334Y111043D01*
X-44444Y111073D01*
X-44554Y111098D01*
X-44665Y111120D01*
X-44777Y111137D01*
X-44890Y111151D01*
X-45003Y111161D01*
X-45116Y111167D01*
X-45229Y111169D01*
X-45342Y111167D01*
X-45455Y111161D01*
X-45568Y111151D01*
X-45681Y111137D01*
X-45793Y111120D01*
X-45904Y111098D01*
X-46014Y111073D01*
X-46124Y111043D01*
X-46232Y111010D01*
X-46339Y110973D01*
X-46445Y110933D01*
X-46549Y110888D01*
X-46652Y110840D01*
X-46753Y110789D01*
X-46852Y110734D01*
X-46949Y110676D01*
X-47044Y110614D01*
X-47137Y110549D01*
X-47227Y110481D01*
X-47315Y110410D01*
X-47401Y110335D01*
X-47484Y110258D01*
X-47564Y110178D01*
X-47641Y110095D01*
X-47716Y110009D01*
X-47787Y109921D01*
X-47855Y109831D01*
X-47920Y109738D01*
X-47982Y109643D01*
X-48040Y109546D01*
X-48095Y109447D01*
X-48146Y109346D01*
X-48194Y109243D01*
X-48239Y109139D01*
X-48279Y109033D01*
X-48316Y108926D01*
X-48349Y108818D01*
X-48379Y108708D01*
X-48404Y108598D01*
X-48426Y108487D01*
X-48443Y108375D01*
X-48457Y108262D01*
X-48467Y108149D01*
X-48473Y108036D01*
X-48475Y107923D01*
X-53667Y108572D02*
X-53667Y104677D01*
X-53667Y108572D02*
X-53665Y108673D01*
X-53659Y108773D01*
X-53649Y108873D01*
X-53636Y108973D01*
X-53618Y109072D01*
X-53597Y109171D01*
X-53572Y109268D01*
X-53543Y109365D01*
X-53510Y109460D01*
X-53474Y109554D01*
X-53434Y109646D01*
X-53391Y109737D01*
X-53344Y109826D01*
X-53294Y109913D01*
X-53240Y109999D01*
X-53183Y110082D01*
X-53123Y110162D01*
X-53060Y110241D01*
X-52993Y110317D01*
X-52924Y110390D01*
X-52852Y110460D01*
X-52778Y110528D01*
X-52701Y110593D01*
X-52621Y110654D01*
X-52539Y110713D01*
X-52455Y110768D01*
X-52369Y110820D01*
X-52281Y110869D01*
X-52191Y110914D01*
X-52099Y110956D01*
X-52006Y110994D01*
X-51911Y111028D01*
X-51816Y111059D01*
X-51719Y111086D01*
X-51621Y111109D01*
X-51522Y111129D01*
X-51422Y111144D01*
X-51322Y111156D01*
X-51222Y111164D01*
X-51121Y111168D01*
X-51021Y111168D01*
X-50920Y111164D01*
X-50820Y111156D01*
X-50720Y111144D01*
X-50620Y111129D01*
X-50521Y111109D01*
X-50423Y111086D01*
X-50326Y111059D01*
X-50231Y111028D01*
X-50136Y110994D01*
X-50043Y110956D01*
X-49951Y110914D01*
X-49861Y110869D01*
X-49773Y110820D01*
X-49687Y110768D01*
X-49603Y110713D01*
X-49521Y110654D01*
X-49441Y110593D01*
X-49364Y110528D01*
X-49290Y110460D01*
X-49218Y110390D01*
X-49149Y110317D01*
X-49082Y110241D01*
X-49019Y110162D01*
X-48959Y110082D01*
X-48902Y109999D01*
X-48848Y109913D01*
X-48798Y109826D01*
X-48751Y109737D01*
X-48708Y109646D01*
X-48668Y109554D01*
X-48632Y109460D01*
X-48599Y109365D01*
X-48570Y109268D01*
X-48545Y109171D01*
X-48524Y109072D01*
X-48506Y108973D01*
X-48493Y108873D01*
X-48483Y108773D01*
X-48477Y108673D01*
X-48475Y108572D01*
X-48474Y108572D02*
X-48474Y105975D01*
X-42632Y115599D02*
X-41983Y115599D01*
X-42632Y115599D02*
X-42632Y116248D01*
X-41983Y116248D01*
X-41983Y115599D01*
X-51071Y120679D02*
X-53667Y123924D01*
X-41983Y123924D01*
X-41983Y120679D02*
X-41983Y127170D01*
X-47825Y132109D02*
X-48055Y132112D01*
X-48285Y132120D01*
X-48514Y132134D01*
X-48743Y132153D01*
X-48972Y132178D01*
X-49199Y132208D01*
X-49427Y132243D01*
X-49653Y132284D01*
X-49878Y132330D01*
X-50102Y132382D01*
X-50324Y132439D01*
X-50546Y132501D01*
X-50765Y132569D01*
X-50983Y132642D01*
X-51200Y132720D01*
X-51414Y132803D01*
X-51626Y132891D01*
X-51836Y132984D01*
X-52044Y133083D01*
X-52044Y133082D02*
X-52134Y133115D01*
X-52223Y133151D01*
X-52311Y133191D01*
X-52396Y133235D01*
X-52480Y133282D01*
X-52562Y133332D01*
X-52642Y133386D01*
X-52719Y133442D01*
X-52795Y133502D01*
X-52868Y133565D01*
X-52938Y133630D01*
X-53006Y133699D01*
X-53070Y133770D01*
X-53132Y133843D01*
X-53191Y133919D01*
X-53247Y133997D01*
X-53300Y134078D01*
X-53349Y134160D01*
X-53395Y134244D01*
X-53438Y134331D01*
X-53477Y134418D01*
X-53513Y134508D01*
X-53545Y134598D01*
X-53573Y134690D01*
X-53598Y134783D01*
X-53619Y134877D01*
X-53636Y134971D01*
X-53650Y135066D01*
X-53659Y135162D01*
X-53665Y135258D01*
X-53667Y135354D01*
X-53665Y135450D01*
X-53659Y135546D01*
X-53650Y135642D01*
X-53636Y135737D01*
X-53619Y135831D01*
X-53598Y135925D01*
X-53573Y136018D01*
X-53545Y136110D01*
X-53513Y136200D01*
X-53477Y136290D01*
X-53438Y136377D01*
X-53395Y136464D01*
X-53349Y136548D01*
X-53300Y136630D01*
X-53247Y136711D01*
X-53191Y136789D01*
X-53132Y136865D01*
X-53070Y136938D01*
X-53006Y137009D01*
X-52938Y137078D01*
X-52868Y137143D01*
X-52795Y137206D01*
X-52719Y137266D01*
X-52642Y137322D01*
X-52562Y137376D01*
X-52480Y137426D01*
X-52396Y137473D01*
X-52311Y137517D01*
X-52223Y137557D01*
X-52134Y137593D01*
X-52044Y137626D01*
X-52044Y137627D02*
X-51837Y137726D01*
X-51627Y137819D01*
X-51414Y137907D01*
X-51200Y137990D01*
X-50984Y138068D01*
X-50766Y138141D01*
X-50546Y138209D01*
X-50325Y138271D01*
X-50102Y138328D01*
X-49878Y138380D01*
X-49653Y138426D01*
X-49427Y138467D01*
X-49200Y138502D01*
X-48972Y138532D01*
X-48743Y138557D01*
X-48514Y138576D01*
X-48285Y138590D01*
X-48055Y138598D01*
X-47825Y138601D01*
X-47825Y132109D02*
X-47595Y132112D01*
X-47365Y132120D01*
X-47136Y132134D01*
X-46907Y132153D01*
X-46678Y132178D01*
X-46450Y132208D01*
X-46223Y132243D01*
X-45997Y132284D01*
X-45772Y132330D01*
X-45548Y132382D01*
X-45325Y132439D01*
X-45104Y132501D01*
X-44884Y132569D01*
X-44666Y132642D01*
X-44450Y132720D01*
X-44236Y132803D01*
X-44024Y132891D01*
X-43813Y132984D01*
X-43606Y133083D01*
X-43606Y133082D02*
X-43516Y133115D01*
X-43427Y133151D01*
X-43339Y133192D01*
X-43254Y133235D01*
X-43170Y133282D01*
X-43088Y133332D01*
X-43008Y133386D01*
X-42931Y133442D01*
X-42855Y133502D01*
X-42782Y133565D01*
X-42712Y133630D01*
X-42644Y133699D01*
X-42580Y133770D01*
X-42518Y133843D01*
X-42459Y133919D01*
X-42403Y133997D01*
X-42350Y134078D01*
X-42301Y134160D01*
X-42255Y134244D01*
X-42212Y134331D01*
X-42173Y134418D01*
X-42137Y134508D01*
X-42105Y134598D01*
X-42077Y134690D01*
X-42052Y134783D01*
X-42031Y134877D01*
X-42014Y134971D01*
X-42000Y135066D01*
X-41991Y135162D01*
X-41985Y135258D01*
X-41983Y135354D01*
X-43606Y137626D02*
X-43813Y137725D01*
X-44024Y137818D01*
X-44236Y137906D01*
X-44450Y137989D01*
X-44666Y138067D01*
X-44884Y138140D01*
X-45104Y138208D01*
X-45325Y138270D01*
X-45548Y138327D01*
X-45772Y138379D01*
X-45997Y138425D01*
X-46223Y138466D01*
X-46450Y138501D01*
X-46678Y138531D01*
X-46907Y138556D01*
X-47136Y138575D01*
X-47365Y138589D01*
X-47595Y138597D01*
X-47825Y138600D01*
X-43606Y137626D02*
X-43516Y137593D01*
X-43427Y137557D01*
X-43339Y137517D01*
X-43254Y137473D01*
X-43170Y137426D01*
X-43088Y137376D01*
X-43008Y137322D01*
X-42931Y137266D01*
X-42855Y137206D01*
X-42782Y137143D01*
X-42712Y137078D01*
X-42644Y137009D01*
X-42580Y136938D01*
X-42518Y136865D01*
X-42459Y136789D01*
X-42403Y136711D01*
X-42350Y136630D01*
X-42301Y136548D01*
X-42255Y136464D01*
X-42212Y136377D01*
X-42173Y136290D01*
X-42137Y136200D01*
X-42105Y136110D01*
X-42077Y136018D01*
X-42052Y135925D01*
X-42031Y135831D01*
X-42014Y135737D01*
X-42000Y135642D01*
X-41991Y135546D01*
X-41985Y135450D01*
X-41983Y135354D01*
X-44579Y132758D02*
X-51071Y137951D01*
D11*
X0Y-5000D02*
X0Y-62500D01*
X150000Y-62500D02*
X150000Y-5000D01*
X149350Y-43000D02*
X650Y-43000D01*
X26000Y-39808D01*
X26000Y-46192D01*
X650Y-43000D01*
X26000Y-41700D01*
X26000Y-44300D02*
X650Y-43000D01*
X26000Y-40400D01*
X26000Y-45600D02*
X650Y-43000D01*
X124000Y-39808D02*
X149350Y-43000D01*
X124000Y-39808D02*
X124000Y-46192D01*
X149350Y-43000D01*
X124000Y-41700D01*
X124000Y-44300D02*
X149350Y-43000D01*
X124000Y-40400D01*
X124000Y-45600D02*
X149350Y-43000D01*
D12*
X55993Y-26333D02*
X52747Y-28929D01*
X55993Y-26333D02*
X55993Y-38017D01*
X59238Y-38017D02*
X52747Y-38017D01*
X64177Y-38017D02*
X68072Y-38017D01*
X68171Y-38015D01*
X68271Y-38009D01*
X68370Y-38000D01*
X68468Y-37987D01*
X68566Y-37970D01*
X68664Y-37949D01*
X68760Y-37924D01*
X68855Y-37896D01*
X68949Y-37864D01*
X69042Y-37829D01*
X69134Y-37790D01*
X69224Y-37747D01*
X69312Y-37702D01*
X69399Y-37652D01*
X69483Y-37600D01*
X69566Y-37544D01*
X69646Y-37486D01*
X69724Y-37424D01*
X69799Y-37359D01*
X69872Y-37291D01*
X69942Y-37221D01*
X70010Y-37148D01*
X70075Y-37073D01*
X70137Y-36995D01*
X70195Y-36915D01*
X70251Y-36832D01*
X70303Y-36748D01*
X70353Y-36661D01*
X70398Y-36573D01*
X70441Y-36483D01*
X70480Y-36391D01*
X70515Y-36298D01*
X70547Y-36204D01*
X70575Y-36109D01*
X70600Y-36013D01*
X70621Y-35915D01*
X70638Y-35817D01*
X70651Y-35719D01*
X70660Y-35620D01*
X70666Y-35520D01*
X70668Y-35421D01*
X70668Y-34122D01*
X70666Y-34023D01*
X70660Y-33923D01*
X70651Y-33824D01*
X70638Y-33726D01*
X70621Y-33628D01*
X70600Y-33530D01*
X70575Y-33434D01*
X70547Y-33339D01*
X70515Y-33245D01*
X70480Y-33152D01*
X70441Y-33060D01*
X70398Y-32970D01*
X70353Y-32882D01*
X70303Y-32795D01*
X70251Y-32711D01*
X70195Y-32628D01*
X70137Y-32548D01*
X70075Y-32470D01*
X70010Y-32395D01*
X69942Y-32322D01*
X69872Y-32252D01*
X69799Y-32184D01*
X69724Y-32119D01*
X69646Y-32057D01*
X69566Y-31999D01*
X69483Y-31943D01*
X69399Y-31891D01*
X69312Y-31841D01*
X69224Y-31796D01*
X69134Y-31753D01*
X69042Y-31714D01*
X68949Y-31679D01*
X68855Y-31647D01*
X68760Y-31619D01*
X68664Y-31594D01*
X68566Y-31573D01*
X68468Y-31556D01*
X68370Y-31543D01*
X68271Y-31534D01*
X68171Y-31528D01*
X68072Y-31526D01*
X64177Y-31526D01*
X64177Y-26333D01*
X70668Y-26333D01*
X75099Y-37368D02*
X75099Y-38017D01*
X75099Y-37368D02*
X75748Y-37368D01*
X75748Y-38017D01*
X75099Y-38017D01*
X80179Y-32175D02*
X80182Y-31945D01*
X80190Y-31715D01*
X80204Y-31486D01*
X80223Y-31257D01*
X80248Y-31028D01*
X80278Y-30800D01*
X80313Y-30573D01*
X80354Y-30347D01*
X80400Y-30122D01*
X80452Y-29898D01*
X80509Y-29675D01*
X80571Y-29454D01*
X80639Y-29234D01*
X80712Y-29016D01*
X80790Y-28800D01*
X80873Y-28586D01*
X80961Y-28374D01*
X81054Y-28163D01*
X81153Y-27956D01*
X81152Y-27956D02*
X81185Y-27866D01*
X81221Y-27777D01*
X81261Y-27689D01*
X81305Y-27604D01*
X81352Y-27520D01*
X81402Y-27438D01*
X81456Y-27358D01*
X81512Y-27281D01*
X81572Y-27205D01*
X81635Y-27132D01*
X81700Y-27062D01*
X81769Y-26994D01*
X81840Y-26930D01*
X81913Y-26868D01*
X81989Y-26809D01*
X82067Y-26753D01*
X82148Y-26700D01*
X82230Y-26651D01*
X82314Y-26605D01*
X82401Y-26562D01*
X82488Y-26523D01*
X82578Y-26487D01*
X82668Y-26455D01*
X82760Y-26427D01*
X82853Y-26402D01*
X82947Y-26381D01*
X83041Y-26364D01*
X83136Y-26350D01*
X83232Y-26341D01*
X83328Y-26335D01*
X83424Y-26333D01*
X83520Y-26335D01*
X83616Y-26341D01*
X83712Y-26350D01*
X83807Y-26364D01*
X83901Y-26381D01*
X83995Y-26402D01*
X84088Y-26427D01*
X84180Y-26455D01*
X84270Y-26487D01*
X84360Y-26523D01*
X84448Y-26562D01*
X84534Y-26605D01*
X84618Y-26651D01*
X84700Y-26700D01*
X84781Y-26753D01*
X84859Y-26809D01*
X84935Y-26868D01*
X85008Y-26930D01*
X85079Y-26994D01*
X85148Y-27062D01*
X85213Y-27132D01*
X85276Y-27205D01*
X85336Y-27281D01*
X85392Y-27358D01*
X85446Y-27438D01*
X85496Y-27520D01*
X85543Y-27604D01*
X85587Y-27689D01*
X85627Y-27777D01*
X85663Y-27866D01*
X85696Y-27956D01*
X85795Y-28163D01*
X85888Y-28374D01*
X85976Y-28586D01*
X86059Y-28800D01*
X86137Y-29016D01*
X86210Y-29234D01*
X86278Y-29454D01*
X86340Y-29675D01*
X86397Y-29898D01*
X86449Y-30122D01*
X86495Y-30347D01*
X86536Y-30573D01*
X86571Y-30800D01*
X86601Y-31028D01*
X86626Y-31257D01*
X86645Y-31486D01*
X86659Y-31715D01*
X86667Y-31945D01*
X86670Y-32175D01*
X80179Y-32175D02*
X80182Y-32405D01*
X80190Y-32635D01*
X80204Y-32864D01*
X80223Y-33093D01*
X80248Y-33322D01*
X80278Y-33550D01*
X80313Y-33777D01*
X80354Y-34003D01*
X80400Y-34228D01*
X80452Y-34452D01*
X80509Y-34675D01*
X80571Y-34896D01*
X80639Y-35116D01*
X80712Y-35334D01*
X80790Y-35550D01*
X80873Y-35764D01*
X80961Y-35976D01*
X81054Y-36187D01*
X81153Y-36394D01*
X81152Y-36394D02*
X81185Y-36484D01*
X81221Y-36573D01*
X81262Y-36661D01*
X81305Y-36746D01*
X81352Y-36830D01*
X81402Y-36912D01*
X81456Y-36992D01*
X81512Y-37069D01*
X81572Y-37145D01*
X81635Y-37218D01*
X81700Y-37288D01*
X81769Y-37356D01*
X81840Y-37420D01*
X81913Y-37482D01*
X81989Y-37541D01*
X82067Y-37597D01*
X82148Y-37650D01*
X82230Y-37699D01*
X82314Y-37745D01*
X82401Y-37788D01*
X82488Y-37827D01*
X82578Y-37863D01*
X82668Y-37895D01*
X82760Y-37923D01*
X82853Y-37948D01*
X82947Y-37969D01*
X83041Y-37986D01*
X83136Y-38000D01*
X83232Y-38009D01*
X83328Y-38015D01*
X83424Y-38017D01*
X85696Y-36394D02*
X85795Y-36187D01*
X85888Y-35976D01*
X85976Y-35764D01*
X86059Y-35550D01*
X86137Y-35334D01*
X86210Y-35116D01*
X86278Y-34896D01*
X86340Y-34675D01*
X86397Y-34452D01*
X86449Y-34228D01*
X86495Y-34003D01*
X86536Y-33777D01*
X86571Y-33550D01*
X86601Y-33322D01*
X86626Y-33093D01*
X86645Y-32864D01*
X86659Y-32635D01*
X86667Y-32405D01*
X86670Y-32175D01*
X85696Y-36394D02*
X85663Y-36484D01*
X85627Y-36573D01*
X85587Y-36661D01*
X85543Y-36746D01*
X85496Y-36830D01*
X85446Y-36912D01*
X85392Y-36992D01*
X85336Y-37069D01*
X85276Y-37145D01*
X85213Y-37218D01*
X85148Y-37288D01*
X85079Y-37356D01*
X85008Y-37420D01*
X84935Y-37482D01*
X84859Y-37541D01*
X84781Y-37597D01*
X84700Y-37650D01*
X84618Y-37699D01*
X84534Y-37745D01*
X84447Y-37788D01*
X84360Y-37827D01*
X84270Y-37863D01*
X84180Y-37895D01*
X84088Y-37923D01*
X83995Y-37948D01*
X83901Y-37969D01*
X83807Y-37986D01*
X83712Y-38000D01*
X83616Y-38009D01*
X83520Y-38015D01*
X83424Y-38017D01*
X80828Y-35421D02*
X86021Y-28929D01*
X91609Y-32175D02*
X91612Y-31945D01*
X91620Y-31715D01*
X91634Y-31486D01*
X91653Y-31257D01*
X91678Y-31028D01*
X91708Y-30800D01*
X91743Y-30573D01*
X91784Y-30347D01*
X91830Y-30122D01*
X91882Y-29898D01*
X91939Y-29675D01*
X92001Y-29454D01*
X92069Y-29234D01*
X92142Y-29016D01*
X92220Y-28800D01*
X92303Y-28586D01*
X92391Y-28374D01*
X92484Y-28163D01*
X92583Y-27956D01*
X92582Y-27956D02*
X92615Y-27866D01*
X92651Y-27777D01*
X92691Y-27689D01*
X92735Y-27604D01*
X92782Y-27520D01*
X92832Y-27438D01*
X92886Y-27358D01*
X92942Y-27281D01*
X93002Y-27205D01*
X93065Y-27132D01*
X93130Y-27062D01*
X93199Y-26994D01*
X93270Y-26930D01*
X93343Y-26868D01*
X93419Y-26809D01*
X93497Y-26753D01*
X93578Y-26700D01*
X93660Y-26651D01*
X93744Y-26605D01*
X93831Y-26562D01*
X93918Y-26523D01*
X94008Y-26487D01*
X94098Y-26455D01*
X94190Y-26427D01*
X94283Y-26402D01*
X94377Y-26381D01*
X94471Y-26364D01*
X94566Y-26350D01*
X94662Y-26341D01*
X94758Y-26335D01*
X94854Y-26333D01*
X94950Y-26335D01*
X95046Y-26341D01*
X95142Y-26350D01*
X95237Y-26364D01*
X95331Y-26381D01*
X95425Y-26402D01*
X95518Y-26427D01*
X95610Y-26455D01*
X95700Y-26487D01*
X95790Y-26523D01*
X95878Y-26562D01*
X95964Y-26605D01*
X96048Y-26651D01*
X96130Y-26700D01*
X96211Y-26753D01*
X96289Y-26809D01*
X96365Y-26868D01*
X96438Y-26930D01*
X96509Y-26994D01*
X96578Y-27062D01*
X96643Y-27132D01*
X96706Y-27205D01*
X96766Y-27281D01*
X96822Y-27358D01*
X96876Y-27438D01*
X96926Y-27520D01*
X96973Y-27604D01*
X97017Y-27689D01*
X97057Y-27777D01*
X97093Y-27866D01*
X97126Y-27956D01*
X97225Y-28163D01*
X97318Y-28374D01*
X97406Y-28586D01*
X97489Y-28800D01*
X97567Y-29016D01*
X97640Y-29234D01*
X97708Y-29454D01*
X97770Y-29675D01*
X97827Y-29898D01*
X97879Y-30122D01*
X97925Y-30347D01*
X97966Y-30573D01*
X98001Y-30800D01*
X98031Y-31028D01*
X98056Y-31257D01*
X98075Y-31486D01*
X98089Y-31715D01*
X98097Y-31945D01*
X98100Y-32175D01*
X91609Y-32175D02*
X91612Y-32405D01*
X91620Y-32635D01*
X91634Y-32864D01*
X91653Y-33093D01*
X91678Y-33322D01*
X91708Y-33550D01*
X91743Y-33777D01*
X91784Y-34003D01*
X91830Y-34228D01*
X91882Y-34452D01*
X91939Y-34675D01*
X92001Y-34896D01*
X92069Y-35116D01*
X92142Y-35334D01*
X92220Y-35550D01*
X92303Y-35764D01*
X92391Y-35976D01*
X92484Y-36187D01*
X92583Y-36394D01*
X92582Y-36394D02*
X92615Y-36484D01*
X92651Y-36573D01*
X92692Y-36661D01*
X92735Y-36746D01*
X92782Y-36830D01*
X92832Y-36912D01*
X92886Y-36992D01*
X92942Y-37069D01*
X93002Y-37145D01*
X93065Y-37218D01*
X93130Y-37288D01*
X93199Y-37356D01*
X93270Y-37420D01*
X93343Y-37482D01*
X93419Y-37541D01*
X93497Y-37597D01*
X93578Y-37650D01*
X93660Y-37699D01*
X93744Y-37745D01*
X93831Y-37788D01*
X93918Y-37827D01*
X94008Y-37863D01*
X94098Y-37895D01*
X94190Y-37923D01*
X94283Y-37948D01*
X94377Y-37969D01*
X94471Y-37986D01*
X94566Y-38000D01*
X94662Y-38009D01*
X94758Y-38015D01*
X94854Y-38017D01*
X97126Y-36394D02*
X97225Y-36187D01*
X97318Y-35976D01*
X97406Y-35764D01*
X97489Y-35550D01*
X97567Y-35334D01*
X97640Y-35116D01*
X97708Y-34896D01*
X97770Y-34675D01*
X97827Y-34452D01*
X97879Y-34228D01*
X97925Y-34003D01*
X97966Y-33777D01*
X98001Y-33550D01*
X98031Y-33322D01*
X98056Y-33093D01*
X98075Y-32864D01*
X98089Y-32635D01*
X98097Y-32405D01*
X98100Y-32175D01*
X97126Y-36394D02*
X97093Y-36484D01*
X97057Y-36573D01*
X97017Y-36661D01*
X96973Y-36746D01*
X96926Y-36830D01*
X96876Y-36912D01*
X96822Y-36992D01*
X96766Y-37069D01*
X96706Y-37145D01*
X96643Y-37218D01*
X96578Y-37288D01*
X96509Y-37356D01*
X96438Y-37420D01*
X96365Y-37482D01*
X96289Y-37541D01*
X96211Y-37597D01*
X96130Y-37650D01*
X96048Y-37699D01*
X95964Y-37745D01*
X95877Y-37788D01*
X95790Y-37827D01*
X95700Y-37863D01*
X95610Y-37895D01*
X95518Y-37923D01*
X95425Y-37948D01*
X95331Y-37969D01*
X95237Y-37986D01*
X95142Y-38000D01*
X95046Y-38009D01*
X94950Y-38015D01*
X94854Y-38017D01*
X92258Y-35421D02*
X97451Y-28929D01*
D13*
X122762Y47704D02*
X131238Y47704D01*
X122762Y46762D02*
X122762Y48646D01*
X131238Y48646D02*
X131238Y46762D01*
X131238Y55139D02*
X131236Y55229D01*
X131230Y55319D01*
X131221Y55408D01*
X131208Y55497D01*
X131190Y55585D01*
X131170Y55673D01*
X131145Y55759D01*
X131117Y55845D01*
X131085Y55929D01*
X131050Y56012D01*
X131011Y56093D01*
X130969Y56172D01*
X130923Y56250D01*
X130875Y56326D01*
X130823Y56399D01*
X130768Y56470D01*
X130710Y56539D01*
X130649Y56605D01*
X130585Y56669D01*
X130519Y56730D01*
X130450Y56788D01*
X130379Y56843D01*
X130306Y56895D01*
X130230Y56943D01*
X130152Y56989D01*
X130073Y57031D01*
X129992Y57070D01*
X129909Y57105D01*
X129825Y57137D01*
X129739Y57165D01*
X129653Y57190D01*
X129565Y57210D01*
X129477Y57228D01*
X129388Y57241D01*
X129299Y57250D01*
X129209Y57256D01*
X129119Y57258D01*
X131238Y55139D02*
X131236Y55035D01*
X131230Y54932D01*
X131220Y54828D01*
X131206Y54726D01*
X131189Y54623D01*
X131167Y54522D01*
X131142Y54421D01*
X131112Y54322D01*
X131079Y54224D01*
X131043Y54127D01*
X131002Y54031D01*
X130958Y53937D01*
X130911Y53845D01*
X130860Y53755D01*
X130805Y53666D01*
X130747Y53580D01*
X130686Y53496D01*
X130622Y53415D01*
X130555Y53336D01*
X130485Y53259D01*
X130412Y53186D01*
X130336Y53115D01*
X130258Y53047D01*
X130177Y52982D01*
X130093Y52921D01*
X130008Y52862D01*
X129920Y52807D01*
X129830Y52755D01*
X129738Y52707D01*
X129645Y52662D01*
X129549Y52621D01*
X129453Y52583D01*
X129355Y52549D01*
X127471Y56552D02*
X127536Y56617D01*
X127603Y56680D01*
X127673Y56740D01*
X127746Y56797D01*
X127820Y56851D01*
X127897Y56902D01*
X127976Y56950D01*
X128056Y56995D01*
X128139Y57036D01*
X128222Y57074D01*
X128308Y57109D01*
X128395Y57140D01*
X128483Y57167D01*
X128572Y57191D01*
X128661Y57212D01*
X128752Y57228D01*
X128843Y57241D01*
X128935Y57251D01*
X129027Y57256D01*
X129119Y57258D01*
X127471Y56552D02*
X122762Y52549D01*
X122762Y57258D01*
X122762Y63395D02*
X122762Y65278D01*
X122762Y63395D02*
X122764Y63310D01*
X122770Y63226D01*
X122779Y63142D01*
X122792Y63059D01*
X122809Y62976D01*
X122830Y62894D01*
X122854Y62813D01*
X122882Y62733D01*
X122914Y62655D01*
X122949Y62578D01*
X122987Y62502D01*
X123029Y62429D01*
X123074Y62357D01*
X123122Y62288D01*
X123173Y62220D01*
X123227Y62155D01*
X123284Y62093D01*
X123344Y62033D01*
X123406Y61976D01*
X123471Y61922D01*
X123539Y61871D01*
X123608Y61823D01*
X123680Y61778D01*
X123753Y61736D01*
X123829Y61698D01*
X123906Y61663D01*
X123984Y61631D01*
X124064Y61603D01*
X124145Y61579D01*
X124227Y61558D01*
X124310Y61541D01*
X124393Y61528D01*
X124477Y61519D01*
X124561Y61513D01*
X124646Y61511D01*
X129354Y61511D01*
X129439Y61513D01*
X129523Y61519D01*
X129607Y61528D01*
X129690Y61541D01*
X129773Y61558D01*
X129855Y61579D01*
X129936Y61603D01*
X130016Y61631D01*
X130094Y61663D01*
X130171Y61698D01*
X130247Y61736D01*
X130320Y61778D01*
X130392Y61823D01*
X130461Y61871D01*
X130529Y61922D01*
X130594Y61976D01*
X130656Y62033D01*
X130716Y62093D01*
X130773Y62155D01*
X130827Y62220D01*
X130878Y62288D01*
X130926Y62357D01*
X130971Y62429D01*
X131013Y62502D01*
X131051Y62578D01*
X131086Y62655D01*
X131118Y62733D01*
X131146Y62813D01*
X131170Y62894D01*
X131191Y62976D01*
X131208Y63059D01*
X131221Y63142D01*
X131230Y63226D01*
X131236Y63310D01*
X131238Y63395D01*
X131238Y65278D01*
X131238Y74149D02*
X122762Y74149D01*
X131238Y74149D02*
X131238Y76504D01*
X131236Y76599D01*
X131230Y76693D01*
X131221Y76788D01*
X131208Y76882D01*
X131190Y76975D01*
X131170Y77067D01*
X131145Y77159D01*
X131117Y77249D01*
X131085Y77339D01*
X131050Y77427D01*
X131011Y77513D01*
X130968Y77598D01*
X130923Y77681D01*
X130874Y77762D01*
X130821Y77841D01*
X130766Y77918D01*
X130707Y77993D01*
X130646Y78065D01*
X130582Y78135D01*
X130515Y78202D01*
X130445Y78266D01*
X130373Y78327D01*
X130298Y78386D01*
X130221Y78441D01*
X130142Y78494D01*
X130061Y78543D01*
X129978Y78588D01*
X129893Y78631D01*
X129807Y78670D01*
X129719Y78705D01*
X129629Y78737D01*
X129539Y78765D01*
X129447Y78790D01*
X129355Y78810D01*
X129262Y78828D01*
X129168Y78841D01*
X129073Y78850D01*
X128979Y78856D01*
X128884Y78858D01*
X125116Y78858D01*
X125021Y78856D01*
X124927Y78850D01*
X124832Y78841D01*
X124738Y78828D01*
X124645Y78810D01*
X124553Y78790D01*
X124461Y78765D01*
X124371Y78737D01*
X124281Y78705D01*
X124193Y78670D01*
X124107Y78631D01*
X124022Y78588D01*
X123939Y78543D01*
X123858Y78494D01*
X123779Y78441D01*
X123702Y78386D01*
X123627Y78327D01*
X123555Y78266D01*
X123485Y78202D01*
X123418Y78135D01*
X123354Y78065D01*
X123293Y77993D01*
X123234Y77918D01*
X123179Y77841D01*
X123126Y77762D01*
X123077Y77681D01*
X123032Y77598D01*
X122989Y77513D01*
X122950Y77427D01*
X122915Y77339D01*
X122883Y77249D01*
X122855Y77159D01*
X122830Y77067D01*
X122810Y76975D01*
X122792Y76882D01*
X122779Y76788D01*
X122770Y76693D01*
X122764Y76599D01*
X122762Y76504D01*
X122762Y74149D01*
X122762Y83775D02*
X122762Y87542D01*
X122762Y83775D02*
X131238Y83775D01*
X131238Y87542D01*
X127471Y86600D02*
X127471Y83775D01*
X131238Y91549D02*
X122762Y91549D01*
X122762Y96258D02*
X131238Y91549D01*
X131238Y96258D02*
X122762Y96258D01*
X122762Y101149D02*
X131238Y101149D01*
X131238Y103504D01*
X131236Y103599D01*
X131230Y103693D01*
X131221Y103788D01*
X131208Y103882D01*
X131190Y103975D01*
X131170Y104067D01*
X131145Y104159D01*
X131117Y104249D01*
X131085Y104339D01*
X131050Y104427D01*
X131011Y104513D01*
X130968Y104598D01*
X130923Y104681D01*
X130874Y104762D01*
X130821Y104841D01*
X130766Y104918D01*
X130707Y104993D01*
X130646Y105065D01*
X130582Y105135D01*
X130515Y105202D01*
X130445Y105266D01*
X130373Y105327D01*
X130298Y105386D01*
X130221Y105441D01*
X130142Y105494D01*
X130061Y105543D01*
X129978Y105588D01*
X129893Y105631D01*
X129807Y105670D01*
X129719Y105705D01*
X129629Y105737D01*
X129539Y105765D01*
X129447Y105790D01*
X129355Y105810D01*
X129262Y105828D01*
X129168Y105841D01*
X129073Y105850D01*
X128979Y105856D01*
X128884Y105858D01*
X125116Y105858D01*
X125021Y105856D01*
X124927Y105850D01*
X124832Y105841D01*
X124738Y105828D01*
X124645Y105810D01*
X124553Y105790D01*
X124461Y105765D01*
X124371Y105737D01*
X124281Y105705D01*
X124193Y105670D01*
X124107Y105631D01*
X124022Y105588D01*
X123939Y105543D01*
X123858Y105494D01*
X123779Y105441D01*
X123702Y105386D01*
X123627Y105327D01*
X123555Y105266D01*
X123485Y105202D01*
X123418Y105135D01*
X123354Y105065D01*
X123293Y104993D01*
X123234Y104918D01*
X123179Y104841D01*
X123126Y104762D01*
X123077Y104681D01*
X123032Y104598D01*
X122989Y104513D01*
X122950Y104427D01*
X122915Y104339D01*
X122883Y104249D01*
X122855Y104159D01*
X122830Y104067D01*
X122810Y103975D01*
X122792Y103882D01*
X122779Y103788D01*
X122770Y103693D01*
X122764Y103599D01*
X122762Y103504D01*
X122762Y101149D01*
X122762Y110833D02*
X131238Y110833D01*
X131238Y113188D01*
X131236Y113284D01*
X131230Y113380D01*
X131220Y113475D01*
X131207Y113570D01*
X131189Y113665D01*
X131168Y113759D01*
X131143Y113851D01*
X131114Y113943D01*
X131081Y114033D01*
X131045Y114122D01*
X131005Y114209D01*
X130961Y114295D01*
X130915Y114379D01*
X130864Y114461D01*
X130811Y114540D01*
X130754Y114618D01*
X130694Y114693D01*
X130631Y114766D01*
X130565Y114835D01*
X130497Y114903D01*
X130426Y114967D01*
X130352Y115028D01*
X130275Y115087D01*
X130197Y115142D01*
X130116Y115194D01*
X130033Y115242D01*
X129948Y115288D01*
X129862Y115329D01*
X129774Y115367D01*
X129684Y115402D01*
X129593Y115433D01*
X129501Y115460D01*
X129408Y115483D01*
X129314Y115502D01*
X129219Y115518D01*
X129124Y115530D01*
X129028Y115538D01*
X128932Y115542D01*
X128836Y115542D01*
X128740Y115538D01*
X128644Y115530D01*
X128549Y115518D01*
X128454Y115502D01*
X128360Y115483D01*
X128267Y115460D01*
X128175Y115433D01*
X128084Y115402D01*
X127994Y115367D01*
X127906Y115329D01*
X127820Y115288D01*
X127735Y115242D01*
X127652Y115194D01*
X127571Y115142D01*
X127493Y115087D01*
X127416Y115028D01*
X127342Y114967D01*
X127271Y114903D01*
X127203Y114835D01*
X127137Y114766D01*
X127074Y114693D01*
X127014Y114618D01*
X126957Y114540D01*
X126904Y114461D01*
X126853Y114379D01*
X126807Y114295D01*
X126763Y114209D01*
X126723Y114122D01*
X126687Y114033D01*
X126654Y113943D01*
X126625Y113851D01*
X126600Y113759D01*
X126579Y113665D01*
X126561Y113570D01*
X126548Y113475D01*
X126538Y113380D01*
X126532Y113284D01*
X126530Y113188D01*
X126529Y113188D02*
X126529Y110833D01*
X126529Y113659D02*
X122762Y115542D01*
X125116Y119749D02*
X128884Y119749D01*
X128884Y119750D02*
X128980Y119752D01*
X129076Y119758D01*
X129171Y119768D01*
X129266Y119781D01*
X129361Y119799D01*
X129455Y119820D01*
X129547Y119845D01*
X129639Y119874D01*
X129729Y119907D01*
X129818Y119943D01*
X129905Y119983D01*
X129991Y120027D01*
X130075Y120073D01*
X130157Y120124D01*
X130236Y120177D01*
X130314Y120234D01*
X130389Y120294D01*
X130462Y120357D01*
X130531Y120423D01*
X130599Y120491D01*
X130663Y120562D01*
X130724Y120636D01*
X130783Y120713D01*
X130838Y120791D01*
X130890Y120872D01*
X130938Y120955D01*
X130984Y121040D01*
X131025Y121126D01*
X131063Y121214D01*
X131098Y121304D01*
X131129Y121395D01*
X131156Y121487D01*
X131179Y121580D01*
X131198Y121674D01*
X131214Y121769D01*
X131226Y121864D01*
X131234Y121960D01*
X131238Y122056D01*
X131238Y122152D01*
X131234Y122248D01*
X131226Y122344D01*
X131214Y122439D01*
X131198Y122534D01*
X131179Y122628D01*
X131156Y122721D01*
X131129Y122813D01*
X131098Y122904D01*
X131063Y122994D01*
X131025Y123082D01*
X130984Y123168D01*
X130938Y123253D01*
X130890Y123336D01*
X130838Y123417D01*
X130783Y123495D01*
X130724Y123572D01*
X130663Y123646D01*
X130599Y123717D01*
X130531Y123785D01*
X130462Y123851D01*
X130389Y123914D01*
X130314Y123974D01*
X130236Y124031D01*
X130157Y124084D01*
X130075Y124135D01*
X129991Y124181D01*
X129905Y124225D01*
X129818Y124265D01*
X129729Y124301D01*
X129639Y124334D01*
X129547Y124363D01*
X129455Y124388D01*
X129361Y124409D01*
X129266Y124427D01*
X129171Y124440D01*
X129076Y124450D01*
X128980Y124456D01*
X128884Y124458D01*
X125116Y124458D01*
X125020Y124456D01*
X124924Y124450D01*
X124829Y124440D01*
X124734Y124427D01*
X124639Y124409D01*
X124545Y124388D01*
X124453Y124363D01*
X124361Y124334D01*
X124271Y124301D01*
X124182Y124265D01*
X124095Y124225D01*
X124009Y124181D01*
X123925Y124135D01*
X123843Y124084D01*
X123764Y124031D01*
X123686Y123974D01*
X123611Y123914D01*
X123538Y123851D01*
X123469Y123785D01*
X123401Y123717D01*
X123337Y123646D01*
X123276Y123572D01*
X123217Y123495D01*
X123162Y123417D01*
X123110Y123336D01*
X123062Y123253D01*
X123016Y123168D01*
X122975Y123082D01*
X122937Y122994D01*
X122902Y122904D01*
X122871Y122813D01*
X122844Y122721D01*
X122821Y122628D01*
X122802Y122534D01*
X122786Y122439D01*
X122774Y122344D01*
X122766Y122248D01*
X122762Y122152D01*
X122762Y122056D01*
X122766Y121960D01*
X122774Y121864D01*
X122786Y121769D01*
X122802Y121674D01*
X122821Y121580D01*
X122844Y121487D01*
X122871Y121395D01*
X122902Y121304D01*
X122937Y121214D01*
X122975Y121126D01*
X123016Y121040D01*
X123062Y120955D01*
X123110Y120872D01*
X123162Y120791D01*
X123217Y120713D01*
X123276Y120636D01*
X123337Y120562D01*
X123401Y120491D01*
X123469Y120423D01*
X123538Y120357D01*
X123611Y120294D01*
X123686Y120234D01*
X123764Y120177D01*
X123843Y120124D01*
X123925Y120073D01*
X124009Y120027D01*
X124095Y119983D01*
X124182Y119943D01*
X124271Y119907D01*
X124361Y119874D01*
X124453Y119845D01*
X124545Y119820D01*
X124639Y119799D01*
X124734Y119781D01*
X124829Y119768D01*
X124924Y119758D01*
X125020Y119752D01*
X125116Y119750D01*
X131238Y133078D02*
X122762Y135904D01*
X131238Y138729D01*
X122762Y142549D02*
X122762Y144904D01*
X122764Y145000D01*
X122770Y145096D01*
X122780Y145191D01*
X122793Y145286D01*
X122811Y145381D01*
X122832Y145475D01*
X122857Y145567D01*
X122886Y145659D01*
X122919Y145749D01*
X122955Y145838D01*
X122995Y145925D01*
X123039Y146011D01*
X123085Y146095D01*
X123136Y146177D01*
X123189Y146256D01*
X123246Y146334D01*
X123306Y146409D01*
X123369Y146482D01*
X123435Y146551D01*
X123503Y146619D01*
X123574Y146683D01*
X123648Y146744D01*
X123725Y146803D01*
X123803Y146858D01*
X123884Y146910D01*
X123967Y146958D01*
X124052Y147004D01*
X124138Y147045D01*
X124226Y147083D01*
X124316Y147118D01*
X124407Y147149D01*
X124499Y147176D01*
X124592Y147199D01*
X124686Y147218D01*
X124781Y147234D01*
X124876Y147246D01*
X124972Y147254D01*
X125068Y147258D01*
X125164Y147258D01*
X125260Y147254D01*
X125356Y147246D01*
X125451Y147234D01*
X125546Y147218D01*
X125640Y147199D01*
X125733Y147176D01*
X125825Y147149D01*
X125916Y147118D01*
X126006Y147083D01*
X126094Y147045D01*
X126180Y147004D01*
X126265Y146958D01*
X126348Y146910D01*
X126429Y146858D01*
X126507Y146803D01*
X126584Y146744D01*
X126658Y146683D01*
X126729Y146619D01*
X126797Y146551D01*
X126863Y146482D01*
X126926Y146409D01*
X126986Y146334D01*
X127043Y146256D01*
X127096Y146177D01*
X127147Y146095D01*
X127193Y146011D01*
X127237Y145925D01*
X127277Y145838D01*
X127313Y145749D01*
X127346Y145659D01*
X127375Y145567D01*
X127400Y145475D01*
X127421Y145381D01*
X127439Y145286D01*
X127452Y145191D01*
X127462Y145096D01*
X127468Y145000D01*
X127470Y144904D01*
X131238Y145374D02*
X131238Y142549D01*
X131238Y145374D02*
X131236Y145460D01*
X131230Y145545D01*
X131220Y145631D01*
X131207Y145715D01*
X131189Y145799D01*
X131168Y145882D01*
X131143Y145964D01*
X131114Y146045D01*
X131082Y146125D01*
X131046Y146202D01*
X131007Y146279D01*
X130964Y146353D01*
X130918Y146425D01*
X130868Y146495D01*
X130815Y146563D01*
X130760Y146628D01*
X130701Y146691D01*
X130640Y146751D01*
X130576Y146808D01*
X130509Y146862D01*
X130440Y146913D01*
X130369Y146961D01*
X130296Y147006D01*
X130221Y147047D01*
X130144Y147084D01*
X130065Y147119D01*
X129985Y147149D01*
X129903Y147176D01*
X129821Y147199D01*
X129737Y147219D01*
X129653Y147234D01*
X129568Y147246D01*
X129483Y147254D01*
X129397Y147258D01*
X129311Y147258D01*
X129225Y147254D01*
X129140Y147246D01*
X129055Y147234D01*
X128971Y147219D01*
X128887Y147199D01*
X128805Y147176D01*
X128723Y147149D01*
X128643Y147119D01*
X128564Y147084D01*
X128487Y147047D01*
X128412Y147006D01*
X128339Y146961D01*
X128268Y146913D01*
X128199Y146862D01*
X128132Y146808D01*
X128068Y146751D01*
X128007Y146691D01*
X127948Y146628D01*
X127893Y146563D01*
X127840Y146495D01*
X127790Y146425D01*
X127744Y146353D01*
X127701Y146279D01*
X127662Y146202D01*
X127626Y146125D01*
X127594Y146045D01*
X127565Y145964D01*
X127540Y145882D01*
X127519Y145799D01*
X127501Y145715D01*
X127488Y145631D01*
X127478Y145545D01*
X127472Y145460D01*
X127470Y145374D01*
X127471Y145374D02*
X127471Y143491D01*
X138646Y15471D02*
X138561Y15469D01*
X138477Y15463D01*
X138393Y15454D01*
X138310Y15441D01*
X138227Y15424D01*
X138145Y15403D01*
X138064Y15379D01*
X137984Y15351D01*
X137906Y15319D01*
X137829Y15284D01*
X137753Y15246D01*
X137680Y15204D01*
X137608Y15159D01*
X137539Y15111D01*
X137471Y15060D01*
X137406Y15006D01*
X137344Y14949D01*
X137284Y14889D01*
X137227Y14827D01*
X137173Y14762D01*
X137122Y14694D01*
X137074Y14625D01*
X137029Y14553D01*
X136987Y14480D01*
X136949Y14404D01*
X136914Y14327D01*
X136882Y14249D01*
X136854Y14169D01*
X136830Y14088D01*
X136809Y14006D01*
X136792Y13923D01*
X136779Y13840D01*
X136770Y13756D01*
X136764Y13672D01*
X136762Y13587D01*
X136764Y13466D01*
X136769Y13345D01*
X136779Y13225D01*
X136791Y13105D01*
X136808Y12985D01*
X136828Y12866D01*
X136852Y12747D01*
X136879Y12630D01*
X136910Y12513D01*
X136944Y12397D01*
X136982Y12282D01*
X137023Y12169D01*
X137068Y12057D01*
X137116Y11946D01*
X137168Y11836D01*
X137223Y11729D01*
X137281Y11623D01*
X137342Y11519D01*
X137406Y11416D01*
X137474Y11316D01*
X137544Y11218D01*
X137618Y11122D01*
X137694Y11028D01*
X137773Y10937D01*
X137855Y10848D01*
X137939Y10762D01*
X143354Y10997D02*
X143439Y10999D01*
X143523Y11005D01*
X143607Y11014D01*
X143690Y11027D01*
X143773Y11044D01*
X143855Y11065D01*
X143936Y11089D01*
X144016Y11117D01*
X144094Y11149D01*
X144171Y11184D01*
X144247Y11222D01*
X144320Y11264D01*
X144392Y11309D01*
X144461Y11357D01*
X144529Y11408D01*
X144594Y11462D01*
X144656Y11519D01*
X144716Y11579D01*
X144773Y11641D01*
X144827Y11706D01*
X144878Y11774D01*
X144926Y11843D01*
X144971Y11915D01*
X145013Y11988D01*
X145051Y12064D01*
X145086Y12141D01*
X145118Y12219D01*
X145146Y12299D01*
X145170Y12380D01*
X145191Y12462D01*
X145208Y12545D01*
X145221Y12628D01*
X145230Y12712D01*
X145236Y12796D01*
X145238Y12881D01*
X145236Y12995D01*
X145231Y13108D01*
X145222Y13221D01*
X145209Y13334D01*
X145192Y13447D01*
X145172Y13559D01*
X145149Y13670D01*
X145122Y13780D01*
X145091Y13890D01*
X145057Y13998D01*
X145019Y14105D01*
X144978Y14211D01*
X144934Y14316D01*
X144886Y14419D01*
X144835Y14520D01*
X144780Y14620D01*
X144723Y14718D01*
X144662Y14814D01*
X144598Y14908D01*
X144532Y15000D01*
X141706Y11939D02*
X141751Y11865D01*
X141800Y11794D01*
X141852Y11725D01*
X141907Y11659D01*
X141965Y11595D01*
X142026Y11533D01*
X142089Y11475D01*
X142155Y11419D01*
X142224Y11367D01*
X142295Y11317D01*
X142368Y11271D01*
X142443Y11228D01*
X142519Y11189D01*
X142598Y11153D01*
X142678Y11120D01*
X142759Y11092D01*
X142842Y11067D01*
X142926Y11046D01*
X143010Y11028D01*
X143096Y11015D01*
X143182Y11005D01*
X143268Y10999D01*
X143354Y10997D01*
X140294Y14529D02*
X140249Y14603D01*
X140200Y14674D01*
X140148Y14743D01*
X140093Y14809D01*
X140035Y14873D01*
X139974Y14935D01*
X139911Y14993D01*
X139845Y15049D01*
X139776Y15102D01*
X139705Y15151D01*
X139632Y15197D01*
X139557Y15240D01*
X139481Y15279D01*
X139402Y15315D01*
X139322Y15348D01*
X139240Y15376D01*
X139158Y15401D01*
X139074Y15422D01*
X138990Y15440D01*
X138904Y15453D01*
X138818Y15463D01*
X138732Y15469D01*
X138646Y15471D01*
X140294Y14529D02*
X141706Y11939D01*
X145238Y21216D02*
X136762Y21216D01*
X145238Y18862D02*
X145238Y23571D01*
X136762Y27588D02*
X136762Y31355D01*
X136762Y27588D02*
X145238Y27588D01*
X145238Y31355D01*
X141471Y30413D02*
X141471Y27588D01*
X145238Y35388D02*
X136762Y35388D01*
X136762Y39155D01*
X136762Y43188D02*
X145238Y43188D01*
X136762Y43188D02*
X136762Y46955D01*
X136762Y50988D02*
X136762Y54755D01*
X136762Y50988D02*
X145238Y50988D01*
X145238Y54755D01*
X141471Y53813D02*
X141471Y50988D01*
X145238Y58762D02*
X136762Y58762D01*
X136762Y63471D02*
X145238Y58762D01*
X145238Y63471D02*
X136762Y63471D01*
X141471Y68556D02*
X141471Y70910D01*
X141470Y70910D02*
X141468Y71006D01*
X141462Y71102D01*
X141452Y71197D01*
X141439Y71292D01*
X141421Y71387D01*
X141400Y71481D01*
X141375Y71573D01*
X141346Y71665D01*
X141313Y71755D01*
X141277Y71844D01*
X141237Y71931D01*
X141193Y72017D01*
X141147Y72101D01*
X141096Y72183D01*
X141043Y72262D01*
X140986Y72340D01*
X140926Y72415D01*
X140863Y72488D01*
X140797Y72557D01*
X140729Y72625D01*
X140658Y72689D01*
X140584Y72750D01*
X140507Y72809D01*
X140429Y72864D01*
X140348Y72916D01*
X140265Y72964D01*
X140180Y73010D01*
X140094Y73051D01*
X140006Y73089D01*
X139916Y73124D01*
X139825Y73155D01*
X139733Y73182D01*
X139640Y73205D01*
X139546Y73224D01*
X139451Y73240D01*
X139356Y73252D01*
X139260Y73260D01*
X139164Y73264D01*
X139068Y73264D01*
X138972Y73260D01*
X138876Y73252D01*
X138781Y73240D01*
X138686Y73224D01*
X138592Y73205D01*
X138499Y73182D01*
X138407Y73155D01*
X138316Y73124D01*
X138226Y73089D01*
X138138Y73051D01*
X138052Y73010D01*
X137967Y72964D01*
X137884Y72916D01*
X137803Y72864D01*
X137725Y72809D01*
X137648Y72750D01*
X137574Y72689D01*
X137503Y72625D01*
X137435Y72557D01*
X137369Y72488D01*
X137306Y72415D01*
X137246Y72340D01*
X137189Y72262D01*
X137136Y72183D01*
X137085Y72101D01*
X137039Y72017D01*
X136995Y71931D01*
X136955Y71844D01*
X136919Y71755D01*
X136886Y71665D01*
X136857Y71573D01*
X136832Y71481D01*
X136811Y71387D01*
X136793Y71292D01*
X136780Y71197D01*
X136770Y71102D01*
X136764Y71006D01*
X136762Y70910D01*
X136762Y68556D01*
X145238Y68556D01*
X145238Y70910D01*
X145236Y70996D01*
X145230Y71081D01*
X145220Y71167D01*
X145207Y71251D01*
X145189Y71335D01*
X145168Y71418D01*
X145143Y71500D01*
X145114Y71581D01*
X145082Y71661D01*
X145046Y71738D01*
X145007Y71815D01*
X144964Y71889D01*
X144918Y71961D01*
X144868Y72031D01*
X144815Y72099D01*
X144760Y72164D01*
X144701Y72227D01*
X144640Y72287D01*
X144576Y72344D01*
X144509Y72398D01*
X144440Y72449D01*
X144369Y72497D01*
X144296Y72542D01*
X144221Y72583D01*
X144144Y72620D01*
X144065Y72655D01*
X143985Y72685D01*
X143903Y72712D01*
X143821Y72735D01*
X143737Y72755D01*
X143653Y72770D01*
X143568Y72782D01*
X143483Y72790D01*
X143397Y72794D01*
X143311Y72794D01*
X143225Y72790D01*
X143140Y72782D01*
X143055Y72770D01*
X142971Y72755D01*
X142887Y72735D01*
X142805Y72712D01*
X142723Y72685D01*
X142643Y72655D01*
X142564Y72620D01*
X142487Y72583D01*
X142412Y72542D01*
X142339Y72497D01*
X142268Y72449D01*
X142199Y72398D01*
X142132Y72344D01*
X142068Y72287D01*
X142007Y72227D01*
X141948Y72164D01*
X141893Y72099D01*
X141840Y72031D01*
X141790Y71961D01*
X141744Y71889D01*
X141701Y71815D01*
X141662Y71738D01*
X141626Y71661D01*
X141594Y71581D01*
X141565Y71500D01*
X141540Y71418D01*
X141519Y71335D01*
X141501Y71251D01*
X141488Y71167D01*
X141478Y71081D01*
X141472Y70996D01*
X141470Y70910D01*
X142884Y77062D02*
X139116Y77062D01*
X142884Y77062D02*
X142980Y77064D01*
X143076Y77070D01*
X143171Y77080D01*
X143266Y77093D01*
X143361Y77111D01*
X143455Y77132D01*
X143547Y77157D01*
X143639Y77186D01*
X143729Y77219D01*
X143818Y77255D01*
X143905Y77295D01*
X143991Y77339D01*
X144075Y77385D01*
X144157Y77436D01*
X144236Y77489D01*
X144314Y77546D01*
X144389Y77606D01*
X144462Y77669D01*
X144531Y77735D01*
X144599Y77803D01*
X144663Y77874D01*
X144724Y77948D01*
X144783Y78025D01*
X144838Y78103D01*
X144890Y78184D01*
X144938Y78267D01*
X144984Y78352D01*
X145025Y78438D01*
X145063Y78526D01*
X145098Y78616D01*
X145129Y78707D01*
X145156Y78799D01*
X145179Y78892D01*
X145198Y78986D01*
X145214Y79081D01*
X145226Y79176D01*
X145234Y79272D01*
X145238Y79368D01*
X145238Y79464D01*
X145234Y79560D01*
X145226Y79656D01*
X145214Y79751D01*
X145198Y79846D01*
X145179Y79940D01*
X145156Y80033D01*
X145129Y80125D01*
X145098Y80216D01*
X145063Y80306D01*
X145025Y80394D01*
X144984Y80480D01*
X144938Y80565D01*
X144890Y80648D01*
X144838Y80729D01*
X144783Y80807D01*
X144724Y80884D01*
X144663Y80958D01*
X144599Y81029D01*
X144531Y81097D01*
X144462Y81163D01*
X144389Y81226D01*
X144314Y81286D01*
X144236Y81343D01*
X144157Y81396D01*
X144075Y81447D01*
X143991Y81493D01*
X143905Y81537D01*
X143818Y81577D01*
X143729Y81613D01*
X143639Y81646D01*
X143547Y81675D01*
X143455Y81700D01*
X143361Y81721D01*
X143266Y81739D01*
X143171Y81752D01*
X143076Y81762D01*
X142980Y81768D01*
X142884Y81770D01*
X142884Y81771D02*
X139116Y81771D01*
X139116Y81770D02*
X139020Y81768D01*
X138924Y81762D01*
X138829Y81752D01*
X138734Y81739D01*
X138639Y81721D01*
X138545Y81700D01*
X138453Y81675D01*
X138361Y81646D01*
X138271Y81613D01*
X138182Y81577D01*
X138095Y81537D01*
X138009Y81493D01*
X137925Y81447D01*
X137843Y81396D01*
X137764Y81343D01*
X137686Y81286D01*
X137611Y81226D01*
X137538Y81163D01*
X137469Y81097D01*
X137401Y81029D01*
X137337Y80958D01*
X137276Y80884D01*
X137217Y80807D01*
X137162Y80729D01*
X137110Y80648D01*
X137062Y80565D01*
X137016Y80480D01*
X136975Y80394D01*
X136937Y80306D01*
X136902Y80216D01*
X136871Y80125D01*
X136844Y80033D01*
X136821Y79940D01*
X136802Y79846D01*
X136786Y79751D01*
X136774Y79656D01*
X136766Y79560D01*
X136762Y79464D01*
X136762Y79368D01*
X136766Y79272D01*
X136774Y79176D01*
X136786Y79081D01*
X136802Y78986D01*
X136821Y78892D01*
X136844Y78799D01*
X136871Y78707D01*
X136902Y78616D01*
X136937Y78526D01*
X136975Y78438D01*
X137016Y78352D01*
X137062Y78267D01*
X137110Y78184D01*
X137162Y78103D01*
X137217Y78025D01*
X137276Y77948D01*
X137337Y77874D01*
X137401Y77803D01*
X137469Y77735D01*
X137538Y77669D01*
X137611Y77606D01*
X137686Y77546D01*
X137764Y77489D01*
X137843Y77436D01*
X137925Y77385D01*
X138009Y77339D01*
X138095Y77295D01*
X138182Y77255D01*
X138271Y77219D01*
X138361Y77186D01*
X138453Y77157D01*
X138545Y77132D01*
X138639Y77111D01*
X138734Y77093D01*
X138829Y77080D01*
X138924Y77070D01*
X139020Y77064D01*
X139116Y77062D01*
X136762Y88587D02*
X136764Y88672D01*
X136770Y88756D01*
X136779Y88840D01*
X136792Y88923D01*
X136809Y89006D01*
X136830Y89088D01*
X136854Y89169D01*
X136882Y89249D01*
X136914Y89327D01*
X136949Y89404D01*
X136987Y89480D01*
X137029Y89553D01*
X137074Y89625D01*
X137122Y89694D01*
X137173Y89762D01*
X137227Y89827D01*
X137284Y89889D01*
X137344Y89949D01*
X137406Y90006D01*
X137471Y90060D01*
X137539Y90111D01*
X137608Y90159D01*
X137680Y90204D01*
X137753Y90246D01*
X137829Y90284D01*
X137906Y90319D01*
X137984Y90351D01*
X138064Y90379D01*
X138145Y90403D01*
X138227Y90424D01*
X138310Y90441D01*
X138393Y90454D01*
X138477Y90463D01*
X138561Y90469D01*
X138646Y90471D01*
X136762Y88587D02*
X136764Y88466D01*
X136769Y88345D01*
X136779Y88225D01*
X136791Y88105D01*
X136808Y87985D01*
X136828Y87866D01*
X136852Y87747D01*
X136879Y87630D01*
X136910Y87513D01*
X136944Y87397D01*
X136982Y87282D01*
X137023Y87169D01*
X137068Y87057D01*
X137116Y86946D01*
X137168Y86836D01*
X137223Y86729D01*
X137281Y86623D01*
X137342Y86519D01*
X137406Y86416D01*
X137474Y86316D01*
X137544Y86218D01*
X137618Y86122D01*
X137694Y86028D01*
X137773Y85937D01*
X137855Y85848D01*
X137939Y85762D01*
X143354Y85997D02*
X143439Y85999D01*
X143523Y86005D01*
X143607Y86014D01*
X143690Y86027D01*
X143773Y86044D01*
X143855Y86065D01*
X143936Y86089D01*
X144016Y86117D01*
X144094Y86149D01*
X144171Y86184D01*
X144247Y86222D01*
X144320Y86264D01*
X144392Y86309D01*
X144461Y86357D01*
X144529Y86408D01*
X144594Y86462D01*
X144656Y86519D01*
X144716Y86579D01*
X144773Y86641D01*
X144827Y86706D01*
X144878Y86774D01*
X144926Y86843D01*
X144971Y86915D01*
X145013Y86988D01*
X145051Y87064D01*
X145086Y87141D01*
X145118Y87219D01*
X145146Y87299D01*
X145170Y87380D01*
X145191Y87462D01*
X145208Y87545D01*
X145221Y87628D01*
X145230Y87712D01*
X145236Y87796D01*
X145238Y87881D01*
X145236Y87995D01*
X145231Y88108D01*
X145222Y88221D01*
X145209Y88334D01*
X145192Y88447D01*
X145172Y88559D01*
X145149Y88670D01*
X145122Y88780D01*
X145091Y88890D01*
X145057Y88998D01*
X145019Y89105D01*
X144978Y89211D01*
X144934Y89316D01*
X144886Y89419D01*
X144835Y89520D01*
X144780Y89620D01*
X144723Y89718D01*
X144662Y89814D01*
X144598Y89908D01*
X144532Y90000D01*
X141706Y86939D02*
X141751Y86865D01*
X141800Y86794D01*
X141852Y86725D01*
X141907Y86659D01*
X141965Y86595D01*
X142026Y86533D01*
X142089Y86475D01*
X142155Y86419D01*
X142224Y86367D01*
X142295Y86317D01*
X142368Y86271D01*
X142443Y86228D01*
X142519Y86189D01*
X142598Y86153D01*
X142678Y86120D01*
X142759Y86092D01*
X142842Y86067D01*
X142926Y86046D01*
X143010Y86028D01*
X143096Y86015D01*
X143182Y86005D01*
X143268Y85999D01*
X143354Y85997D01*
X140294Y89529D02*
X140249Y89603D01*
X140200Y89674D01*
X140148Y89743D01*
X140093Y89809D01*
X140035Y89873D01*
X139974Y89935D01*
X139911Y89993D01*
X139845Y90049D01*
X139776Y90102D01*
X139705Y90151D01*
X139632Y90197D01*
X139557Y90240D01*
X139481Y90279D01*
X139402Y90315D01*
X139322Y90348D01*
X139240Y90376D01*
X139158Y90401D01*
X139074Y90422D01*
X138990Y90440D01*
X138904Y90453D01*
X138818Y90463D01*
X138732Y90469D01*
X138646Y90471D01*
X140294Y89529D02*
X141706Y86939D01*
X136762Y96307D02*
X136762Y98191D01*
X136762Y96307D02*
X136764Y96222D01*
X136770Y96138D01*
X136779Y96054D01*
X136792Y95971D01*
X136809Y95888D01*
X136830Y95806D01*
X136854Y95725D01*
X136882Y95645D01*
X136914Y95567D01*
X136949Y95490D01*
X136987Y95414D01*
X137029Y95341D01*
X137074Y95269D01*
X137122Y95200D01*
X137173Y95132D01*
X137227Y95067D01*
X137284Y95005D01*
X137344Y94945D01*
X137406Y94888D01*
X137471Y94834D01*
X137539Y94783D01*
X137608Y94735D01*
X137680Y94690D01*
X137753Y94648D01*
X137829Y94610D01*
X137906Y94575D01*
X137984Y94543D01*
X138064Y94515D01*
X138145Y94491D01*
X138227Y94470D01*
X138310Y94453D01*
X138393Y94440D01*
X138477Y94431D01*
X138561Y94425D01*
X138646Y94423D01*
X138646Y94424D02*
X143354Y94424D01*
X143354Y94423D02*
X143439Y94425D01*
X143523Y94431D01*
X143607Y94440D01*
X143690Y94453D01*
X143773Y94470D01*
X143855Y94491D01*
X143936Y94515D01*
X144016Y94543D01*
X144094Y94575D01*
X144171Y94610D01*
X144247Y94648D01*
X144320Y94690D01*
X144392Y94735D01*
X144461Y94783D01*
X144529Y94834D01*
X144594Y94888D01*
X144656Y94945D01*
X144716Y95005D01*
X144773Y95067D01*
X144827Y95132D01*
X144878Y95200D01*
X144926Y95269D01*
X144971Y95341D01*
X145013Y95414D01*
X145051Y95490D01*
X145086Y95567D01*
X145118Y95645D01*
X145146Y95725D01*
X145170Y95806D01*
X145191Y95888D01*
X145208Y95971D01*
X145221Y96054D01*
X145230Y96138D01*
X145236Y96222D01*
X145238Y96307D01*
X145238Y98191D01*
X145238Y102262D02*
X136762Y102262D01*
X141471Y102262D02*
X141471Y106971D01*
X145238Y106971D02*
X136762Y106971D01*
X139116Y116662D02*
X145238Y116662D01*
X139116Y116662D02*
X139020Y116664D01*
X138924Y116670D01*
X138829Y116680D01*
X138734Y116693D01*
X138639Y116711D01*
X138545Y116732D01*
X138453Y116757D01*
X138361Y116786D01*
X138271Y116819D01*
X138182Y116855D01*
X138095Y116895D01*
X138009Y116939D01*
X137925Y116985D01*
X137843Y117036D01*
X137764Y117089D01*
X137686Y117146D01*
X137611Y117206D01*
X137538Y117269D01*
X137469Y117335D01*
X137401Y117403D01*
X137337Y117474D01*
X137276Y117548D01*
X137217Y117625D01*
X137162Y117703D01*
X137110Y117784D01*
X137062Y117867D01*
X137016Y117952D01*
X136975Y118038D01*
X136937Y118126D01*
X136902Y118216D01*
X136871Y118307D01*
X136844Y118399D01*
X136821Y118492D01*
X136802Y118586D01*
X136786Y118681D01*
X136774Y118776D01*
X136766Y118872D01*
X136762Y118968D01*
X136762Y119064D01*
X136766Y119160D01*
X136774Y119256D01*
X136786Y119351D01*
X136802Y119446D01*
X136821Y119540D01*
X136844Y119633D01*
X136871Y119725D01*
X136902Y119816D01*
X136937Y119906D01*
X136975Y119994D01*
X137016Y120080D01*
X137062Y120165D01*
X137110Y120248D01*
X137162Y120329D01*
X137217Y120407D01*
X137276Y120484D01*
X137337Y120558D01*
X137401Y120629D01*
X137469Y120697D01*
X137538Y120763D01*
X137611Y120826D01*
X137686Y120886D01*
X137764Y120943D01*
X137843Y120996D01*
X137925Y121047D01*
X138009Y121093D01*
X138095Y121137D01*
X138182Y121177D01*
X138271Y121213D01*
X138361Y121246D01*
X138453Y121275D01*
X138545Y121300D01*
X138639Y121321D01*
X138734Y121339D01*
X138829Y121352D01*
X138924Y121362D01*
X139020Y121368D01*
X139116Y121370D01*
X139116Y121371D02*
X145238Y121371D01*
X145238Y126262D02*
X136762Y126262D01*
X136762Y130971D02*
X145238Y126262D01*
X145238Y130971D02*
X136762Y130971D01*
X136762Y136116D02*
X145238Y136116D01*
X136762Y135174D02*
X136762Y137058D01*
X145238Y137058D02*
X145238Y135174D01*
X145238Y140491D02*
X136762Y143316D01*
X145238Y146142D01*
X136762Y150288D02*
X136762Y154055D01*
X136762Y150288D02*
X145238Y150288D01*
X145238Y154055D01*
X141471Y153113D02*
X141471Y150288D01*
X145238Y158146D02*
X136762Y158146D01*
X145238Y158146D02*
X145238Y160500D01*
X145236Y160596D01*
X145230Y160692D01*
X145220Y160787D01*
X145207Y160882D01*
X145189Y160977D01*
X145168Y161071D01*
X145143Y161163D01*
X145114Y161255D01*
X145081Y161345D01*
X145045Y161434D01*
X145005Y161521D01*
X144961Y161607D01*
X144915Y161691D01*
X144864Y161773D01*
X144811Y161852D01*
X144754Y161930D01*
X144694Y162005D01*
X144631Y162078D01*
X144565Y162147D01*
X144497Y162215D01*
X144426Y162279D01*
X144352Y162340D01*
X144275Y162399D01*
X144197Y162454D01*
X144116Y162506D01*
X144033Y162554D01*
X143948Y162600D01*
X143862Y162641D01*
X143774Y162679D01*
X143684Y162714D01*
X143593Y162745D01*
X143501Y162772D01*
X143408Y162795D01*
X143314Y162814D01*
X143219Y162830D01*
X143124Y162842D01*
X143028Y162850D01*
X142932Y162854D01*
X142836Y162854D01*
X142740Y162850D01*
X142644Y162842D01*
X142549Y162830D01*
X142454Y162814D01*
X142360Y162795D01*
X142267Y162772D01*
X142175Y162745D01*
X142084Y162714D01*
X141994Y162679D01*
X141906Y162641D01*
X141820Y162600D01*
X141735Y162554D01*
X141652Y162506D01*
X141571Y162454D01*
X141493Y162399D01*
X141416Y162340D01*
X141342Y162279D01*
X141271Y162215D01*
X141203Y162147D01*
X141137Y162078D01*
X141074Y162005D01*
X141014Y161930D01*
X140957Y161852D01*
X140904Y161773D01*
X140853Y161691D01*
X140807Y161607D01*
X140763Y161521D01*
X140723Y161434D01*
X140687Y161345D01*
X140654Y161255D01*
X140625Y161163D01*
X140600Y161071D01*
X140579Y160977D01*
X140561Y160882D01*
X140548Y160787D01*
X140538Y160692D01*
X140532Y160596D01*
X140530Y160500D01*
X140529Y160500D02*
X140529Y158146D01*
X140529Y160971D02*
X136762Y162855D01*
X136762Y169587D02*
X136764Y169672D01*
X136770Y169756D01*
X136779Y169840D01*
X136792Y169923D01*
X136809Y170006D01*
X136830Y170088D01*
X136854Y170169D01*
X136882Y170249D01*
X136914Y170327D01*
X136949Y170404D01*
X136987Y170480D01*
X137029Y170553D01*
X137074Y170625D01*
X137122Y170694D01*
X137173Y170762D01*
X137227Y170827D01*
X137284Y170889D01*
X137344Y170949D01*
X137406Y171006D01*
X137471Y171060D01*
X137539Y171111D01*
X137608Y171159D01*
X137680Y171204D01*
X137753Y171246D01*
X137829Y171284D01*
X137906Y171319D01*
X137984Y171351D01*
X138064Y171379D01*
X138145Y171403D01*
X138227Y171424D01*
X138310Y171441D01*
X138393Y171454D01*
X138477Y171463D01*
X138561Y171469D01*
X138646Y171471D01*
X136762Y169587D02*
X136764Y169466D01*
X136769Y169345D01*
X136779Y169225D01*
X136791Y169105D01*
X136808Y168985D01*
X136828Y168866D01*
X136852Y168747D01*
X136879Y168630D01*
X136910Y168513D01*
X136944Y168397D01*
X136982Y168282D01*
X137023Y168169D01*
X137068Y168057D01*
X137116Y167946D01*
X137168Y167836D01*
X137223Y167729D01*
X137281Y167623D01*
X137342Y167519D01*
X137406Y167416D01*
X137474Y167316D01*
X137544Y167218D01*
X137618Y167122D01*
X137694Y167028D01*
X137773Y166937D01*
X137855Y166848D01*
X137939Y166762D01*
X143354Y166997D02*
X143439Y166999D01*
X143523Y167005D01*
X143607Y167014D01*
X143690Y167027D01*
X143773Y167044D01*
X143855Y167065D01*
X143936Y167089D01*
X144016Y167117D01*
X144094Y167149D01*
X144171Y167184D01*
X144247Y167222D01*
X144320Y167264D01*
X144392Y167309D01*
X144461Y167357D01*
X144529Y167408D01*
X144594Y167462D01*
X144656Y167519D01*
X144716Y167579D01*
X144773Y167641D01*
X144827Y167706D01*
X144878Y167774D01*
X144926Y167843D01*
X144971Y167915D01*
X145013Y167988D01*
X145051Y168064D01*
X145086Y168141D01*
X145118Y168219D01*
X145146Y168299D01*
X145170Y168380D01*
X145191Y168462D01*
X145208Y168545D01*
X145221Y168628D01*
X145230Y168712D01*
X145236Y168796D01*
X145238Y168881D01*
X145236Y168995D01*
X145231Y169108D01*
X145222Y169221D01*
X145209Y169334D01*
X145192Y169447D01*
X145172Y169559D01*
X145149Y169670D01*
X145122Y169780D01*
X145091Y169890D01*
X145057Y169998D01*
X145019Y170105D01*
X144978Y170211D01*
X144934Y170316D01*
X144886Y170419D01*
X144835Y170520D01*
X144780Y170620D01*
X144723Y170718D01*
X144662Y170814D01*
X144598Y170908D01*
X144532Y171000D01*
X141706Y167939D02*
X141751Y167865D01*
X141800Y167794D01*
X141852Y167725D01*
X141907Y167659D01*
X141965Y167595D01*
X142026Y167533D01*
X142089Y167475D01*
X142155Y167419D01*
X142224Y167367D01*
X142295Y167317D01*
X142368Y167271D01*
X142443Y167228D01*
X142519Y167189D01*
X142598Y167153D01*
X142678Y167120D01*
X142759Y167092D01*
X142842Y167067D01*
X142926Y167046D01*
X143010Y167028D01*
X143096Y167015D01*
X143182Y167005D01*
X143268Y166999D01*
X143354Y166997D01*
X140294Y170529D02*
X140249Y170603D01*
X140200Y170674D01*
X140148Y170743D01*
X140093Y170809D01*
X140035Y170873D01*
X139974Y170935D01*
X139911Y170993D01*
X139845Y171049D01*
X139776Y171102D01*
X139705Y171151D01*
X139632Y171197D01*
X139557Y171240D01*
X139481Y171279D01*
X139402Y171315D01*
X139322Y171348D01*
X139240Y171376D01*
X139158Y171401D01*
X139074Y171422D01*
X138990Y171440D01*
X138904Y171453D01*
X138818Y171463D01*
X138732Y171469D01*
X138646Y171471D01*
X140294Y170529D02*
X141706Y167939D01*
X145238Y176016D02*
X136762Y176016D01*
X136762Y175074D02*
X136762Y176958D01*
X145238Y176958D02*
X145238Y175074D01*
X145238Y182616D02*
X136762Y182616D01*
X145238Y180262D02*
X145238Y184971D01*
X145238Y188191D02*
X141235Y191016D01*
X145238Y193841D01*
X141235Y191016D02*
X136762Y191016D01*
M02*
