G04 EAGLE Gerber RS-274X export*
G75*
%MOMM*%
%FSLAX34Y34*%
%LPD*%
%INSoldermask Top*%
%IPPOS*%
%AMOC8*
5,1,8,0,0,1.08239X$1,22.5*%
G01*
%ADD10C,0.000000*%
%ADD11C,0.130000*%
%ADD12C,0.101600*%
%ADD13R,1.703200X1.503200*%
%ADD14C,2.743200*%
%ADD15P,1.869504X8X22.500000*%
%ADD16R,1.203200X1.303200*%
%ADD17R,1.473200X0.762000*%
%ADD18R,1.303200X1.203200*%
%ADD19C,0.959600*%


D10*
X0Y0D02*
X150000Y0D01*
X150000Y231000D01*
X0Y231000D01*
X0Y0D01*
D11*
X-6000Y0D02*
X-56500Y0D01*
X-56500Y231000D02*
X-6000Y231000D01*
X-37000Y230350D02*
X-37000Y650D01*
X-40192Y26000D01*
X-33808Y26000D01*
X-37000Y650D01*
X-38300Y26000D01*
X-35700Y26000D02*
X-37000Y650D01*
X-39600Y26000D01*
X-34400Y26000D02*
X-37000Y650D01*
X-40192Y205000D02*
X-37000Y230350D01*
X-40192Y205000D02*
X-33808Y205000D01*
X-37000Y230350D01*
X-38300Y205000D01*
X-35700Y205000D02*
X-37000Y230350D01*
X-39600Y205000D01*
X-34400Y205000D02*
X-37000Y230350D01*
D12*
X-50746Y99738D02*
X-50853Y99736D01*
X-50959Y99730D01*
X-51065Y99720D01*
X-51171Y99707D01*
X-51277Y99689D01*
X-51381Y99668D01*
X-51485Y99643D01*
X-51588Y99614D01*
X-51689Y99582D01*
X-51789Y99545D01*
X-51888Y99505D01*
X-51986Y99462D01*
X-52082Y99415D01*
X-52176Y99364D01*
X-52268Y99310D01*
X-52358Y99253D01*
X-52446Y99193D01*
X-52531Y99129D01*
X-52614Y99062D01*
X-52695Y98992D01*
X-52773Y98920D01*
X-52849Y98844D01*
X-52921Y98766D01*
X-52991Y98685D01*
X-53058Y98602D01*
X-53122Y98517D01*
X-53182Y98429D01*
X-53239Y98339D01*
X-53293Y98247D01*
X-53344Y98153D01*
X-53391Y98057D01*
X-53434Y97959D01*
X-53474Y97860D01*
X-53511Y97760D01*
X-53543Y97659D01*
X-53572Y97556D01*
X-53597Y97452D01*
X-53618Y97348D01*
X-53636Y97242D01*
X-53649Y97136D01*
X-53659Y97030D01*
X-53665Y96924D01*
X-53667Y96817D01*
X-53665Y96696D01*
X-53659Y96575D01*
X-53649Y96455D01*
X-53636Y96334D01*
X-53618Y96215D01*
X-53597Y96095D01*
X-53572Y95977D01*
X-53543Y95860D01*
X-53510Y95743D01*
X-53474Y95628D01*
X-53433Y95514D01*
X-53390Y95401D01*
X-53342Y95289D01*
X-53291Y95180D01*
X-53236Y95072D01*
X-53178Y94965D01*
X-53117Y94861D01*
X-53052Y94759D01*
X-52984Y94659D01*
X-52913Y94561D01*
X-52839Y94465D01*
X-52762Y94372D01*
X-52681Y94282D01*
X-52598Y94194D01*
X-52512Y94109D01*
X-52423Y94026D01*
X-52332Y93947D01*
X-52238Y93870D01*
X-52142Y93797D01*
X-52044Y93727D01*
X-51943Y93660D01*
X-51840Y93596D01*
X-51735Y93536D01*
X-51628Y93479D01*
X-51520Y93425D01*
X-51410Y93375D01*
X-51298Y93329D01*
X-51185Y93286D01*
X-51070Y93247D01*
X-48474Y98765D02*
X-48551Y98844D01*
X-48632Y98920D01*
X-48715Y98993D01*
X-48800Y99063D01*
X-48888Y99130D01*
X-48978Y99194D01*
X-49070Y99254D01*
X-49165Y99311D01*
X-49261Y99365D01*
X-49359Y99416D01*
X-49459Y99463D01*
X-49561Y99507D01*
X-49664Y99547D01*
X-49768Y99583D01*
X-49874Y99615D01*
X-49980Y99644D01*
X-50088Y99669D01*
X-50196Y99691D01*
X-50306Y99708D01*
X-50415Y99722D01*
X-50525Y99731D01*
X-50636Y99737D01*
X-50746Y99739D01*
X-48474Y98764D02*
X-41983Y93247D01*
X-41983Y99738D01*
X-41983Y104677D02*
X-41983Y107923D01*
X-41985Y108036D01*
X-41991Y108149D01*
X-42001Y108262D01*
X-42015Y108375D01*
X-42032Y108487D01*
X-42054Y108598D01*
X-42079Y108708D01*
X-42109Y108818D01*
X-42142Y108926D01*
X-42179Y109033D01*
X-42219Y109139D01*
X-42264Y109243D01*
X-42312Y109346D01*
X-42363Y109447D01*
X-42418Y109546D01*
X-42476Y109643D01*
X-42538Y109738D01*
X-42603Y109831D01*
X-42671Y109921D01*
X-42742Y110009D01*
X-42817Y110095D01*
X-42894Y110178D01*
X-42974Y110258D01*
X-43057Y110335D01*
X-43143Y110410D01*
X-43231Y110481D01*
X-43321Y110549D01*
X-43414Y110614D01*
X-43509Y110676D01*
X-43606Y110734D01*
X-43705Y110789D01*
X-43806Y110840D01*
X-43909Y110888D01*
X-44013Y110933D01*
X-44119Y110973D01*
X-44226Y111010D01*
X-44334Y111043D01*
X-44444Y111073D01*
X-44554Y111098D01*
X-44665Y111120D01*
X-44777Y111137D01*
X-44890Y111151D01*
X-45003Y111161D01*
X-45116Y111167D01*
X-45229Y111169D01*
X-45342Y111167D01*
X-45455Y111161D01*
X-45568Y111151D01*
X-45681Y111137D01*
X-45793Y111120D01*
X-45904Y111098D01*
X-46014Y111073D01*
X-46124Y111043D01*
X-46232Y111010D01*
X-46339Y110973D01*
X-46445Y110933D01*
X-46549Y110888D01*
X-46652Y110840D01*
X-46753Y110789D01*
X-46852Y110734D01*
X-46949Y110676D01*
X-47044Y110614D01*
X-47137Y110549D01*
X-47227Y110481D01*
X-47315Y110410D01*
X-47401Y110335D01*
X-47484Y110258D01*
X-47564Y110178D01*
X-47641Y110095D01*
X-47716Y110009D01*
X-47787Y109921D01*
X-47855Y109831D01*
X-47920Y109738D01*
X-47982Y109643D01*
X-48040Y109546D01*
X-48095Y109447D01*
X-48146Y109346D01*
X-48194Y109243D01*
X-48239Y109139D01*
X-48279Y109033D01*
X-48316Y108926D01*
X-48349Y108818D01*
X-48379Y108708D01*
X-48404Y108598D01*
X-48426Y108487D01*
X-48443Y108375D01*
X-48457Y108262D01*
X-48467Y108149D01*
X-48473Y108036D01*
X-48475Y107923D01*
X-53667Y108572D02*
X-53667Y104677D01*
X-53667Y108572D02*
X-53665Y108673D01*
X-53659Y108773D01*
X-53649Y108873D01*
X-53636Y108973D01*
X-53618Y109072D01*
X-53597Y109171D01*
X-53572Y109268D01*
X-53543Y109365D01*
X-53510Y109460D01*
X-53474Y109554D01*
X-53434Y109646D01*
X-53391Y109737D01*
X-53344Y109826D01*
X-53294Y109913D01*
X-53240Y109999D01*
X-53183Y110082D01*
X-53123Y110162D01*
X-53060Y110241D01*
X-52993Y110317D01*
X-52924Y110390D01*
X-52852Y110460D01*
X-52778Y110528D01*
X-52701Y110593D01*
X-52621Y110654D01*
X-52539Y110713D01*
X-52455Y110768D01*
X-52369Y110820D01*
X-52281Y110869D01*
X-52191Y110914D01*
X-52099Y110956D01*
X-52006Y110994D01*
X-51911Y111028D01*
X-51816Y111059D01*
X-51719Y111086D01*
X-51621Y111109D01*
X-51522Y111129D01*
X-51422Y111144D01*
X-51322Y111156D01*
X-51222Y111164D01*
X-51121Y111168D01*
X-51021Y111168D01*
X-50920Y111164D01*
X-50820Y111156D01*
X-50720Y111144D01*
X-50620Y111129D01*
X-50521Y111109D01*
X-50423Y111086D01*
X-50326Y111059D01*
X-50231Y111028D01*
X-50136Y110994D01*
X-50043Y110956D01*
X-49951Y110914D01*
X-49861Y110869D01*
X-49773Y110820D01*
X-49687Y110768D01*
X-49603Y110713D01*
X-49521Y110654D01*
X-49441Y110593D01*
X-49364Y110528D01*
X-49290Y110460D01*
X-49218Y110390D01*
X-49149Y110317D01*
X-49082Y110241D01*
X-49019Y110162D01*
X-48959Y110082D01*
X-48902Y109999D01*
X-48848Y109913D01*
X-48798Y109826D01*
X-48751Y109737D01*
X-48708Y109646D01*
X-48668Y109554D01*
X-48632Y109460D01*
X-48599Y109365D01*
X-48570Y109268D01*
X-48545Y109171D01*
X-48524Y109072D01*
X-48506Y108973D01*
X-48493Y108873D01*
X-48483Y108773D01*
X-48477Y108673D01*
X-48475Y108572D01*
X-48474Y108572D02*
X-48474Y105975D01*
X-42632Y115599D02*
X-41983Y115599D01*
X-42632Y115599D02*
X-42632Y116248D01*
X-41983Y116248D01*
X-41983Y115599D01*
X-51071Y120679D02*
X-53667Y123924D01*
X-41983Y123924D01*
X-41983Y120679D02*
X-41983Y127170D01*
X-47825Y132109D02*
X-48055Y132112D01*
X-48285Y132120D01*
X-48514Y132134D01*
X-48743Y132153D01*
X-48972Y132178D01*
X-49199Y132208D01*
X-49427Y132243D01*
X-49653Y132284D01*
X-49878Y132330D01*
X-50102Y132382D01*
X-50324Y132439D01*
X-50546Y132501D01*
X-50765Y132569D01*
X-50983Y132642D01*
X-51200Y132720D01*
X-51414Y132803D01*
X-51626Y132891D01*
X-51836Y132984D01*
X-52044Y133083D01*
X-52044Y133082D02*
X-52134Y133115D01*
X-52223Y133151D01*
X-52311Y133191D01*
X-52396Y133235D01*
X-52480Y133282D01*
X-52562Y133332D01*
X-52642Y133386D01*
X-52719Y133442D01*
X-52795Y133502D01*
X-52868Y133565D01*
X-52938Y133630D01*
X-53006Y133699D01*
X-53070Y133770D01*
X-53132Y133843D01*
X-53191Y133919D01*
X-53247Y133997D01*
X-53300Y134078D01*
X-53349Y134160D01*
X-53395Y134244D01*
X-53438Y134331D01*
X-53477Y134418D01*
X-53513Y134508D01*
X-53545Y134598D01*
X-53573Y134690D01*
X-53598Y134783D01*
X-53619Y134877D01*
X-53636Y134971D01*
X-53650Y135066D01*
X-53659Y135162D01*
X-53665Y135258D01*
X-53667Y135354D01*
X-53665Y135450D01*
X-53659Y135546D01*
X-53650Y135642D01*
X-53636Y135737D01*
X-53619Y135831D01*
X-53598Y135925D01*
X-53573Y136018D01*
X-53545Y136110D01*
X-53513Y136200D01*
X-53477Y136290D01*
X-53438Y136377D01*
X-53395Y136464D01*
X-53349Y136548D01*
X-53300Y136630D01*
X-53247Y136711D01*
X-53191Y136789D01*
X-53132Y136865D01*
X-53070Y136938D01*
X-53006Y137009D01*
X-52938Y137078D01*
X-52868Y137143D01*
X-52795Y137206D01*
X-52719Y137266D01*
X-52642Y137322D01*
X-52562Y137376D01*
X-52480Y137426D01*
X-52396Y137473D01*
X-52311Y137517D01*
X-52223Y137557D01*
X-52134Y137593D01*
X-52044Y137626D01*
X-52044Y137627D02*
X-51837Y137726D01*
X-51627Y137819D01*
X-51414Y137907D01*
X-51200Y137990D01*
X-50984Y138068D01*
X-50766Y138141D01*
X-50546Y138209D01*
X-50325Y138271D01*
X-50102Y138328D01*
X-49878Y138380D01*
X-49653Y138426D01*
X-49427Y138467D01*
X-49200Y138502D01*
X-48972Y138532D01*
X-48743Y138557D01*
X-48514Y138576D01*
X-48285Y138590D01*
X-48055Y138598D01*
X-47825Y138601D01*
X-47825Y132109D02*
X-47595Y132112D01*
X-47365Y132120D01*
X-47136Y132134D01*
X-46907Y132153D01*
X-46678Y132178D01*
X-46450Y132208D01*
X-46223Y132243D01*
X-45997Y132284D01*
X-45772Y132330D01*
X-45548Y132382D01*
X-45325Y132439D01*
X-45104Y132501D01*
X-44884Y132569D01*
X-44666Y132642D01*
X-44450Y132720D01*
X-44236Y132803D01*
X-44024Y132891D01*
X-43813Y132984D01*
X-43606Y133083D01*
X-43606Y133082D02*
X-43516Y133115D01*
X-43427Y133151D01*
X-43339Y133192D01*
X-43254Y133235D01*
X-43170Y133282D01*
X-43088Y133332D01*
X-43008Y133386D01*
X-42931Y133442D01*
X-42855Y133502D01*
X-42782Y133565D01*
X-42712Y133630D01*
X-42644Y133699D01*
X-42580Y133770D01*
X-42518Y133843D01*
X-42459Y133919D01*
X-42403Y133997D01*
X-42350Y134078D01*
X-42301Y134160D01*
X-42255Y134244D01*
X-42212Y134331D01*
X-42173Y134418D01*
X-42137Y134508D01*
X-42105Y134598D01*
X-42077Y134690D01*
X-42052Y134783D01*
X-42031Y134877D01*
X-42014Y134971D01*
X-42000Y135066D01*
X-41991Y135162D01*
X-41985Y135258D01*
X-41983Y135354D01*
X-43606Y137626D02*
X-43813Y137725D01*
X-44024Y137818D01*
X-44236Y137906D01*
X-44450Y137989D01*
X-44666Y138067D01*
X-44884Y138140D01*
X-45104Y138208D01*
X-45325Y138270D01*
X-45548Y138327D01*
X-45772Y138379D01*
X-45997Y138425D01*
X-46223Y138466D01*
X-46450Y138501D01*
X-46678Y138531D01*
X-46907Y138556D01*
X-47136Y138575D01*
X-47365Y138589D01*
X-47595Y138597D01*
X-47825Y138600D01*
X-43606Y137626D02*
X-43516Y137593D01*
X-43427Y137557D01*
X-43339Y137517D01*
X-43254Y137473D01*
X-43170Y137426D01*
X-43088Y137376D01*
X-43008Y137322D01*
X-42931Y137266D01*
X-42855Y137206D01*
X-42782Y137143D01*
X-42712Y137078D01*
X-42644Y137009D01*
X-42580Y136938D01*
X-42518Y136865D01*
X-42459Y136789D01*
X-42403Y136711D01*
X-42350Y136630D01*
X-42301Y136548D01*
X-42255Y136464D01*
X-42212Y136377D01*
X-42173Y136290D01*
X-42137Y136200D01*
X-42105Y136110D01*
X-42077Y136018D01*
X-42052Y135925D01*
X-42031Y135831D01*
X-42014Y135737D01*
X-42000Y135642D01*
X-41991Y135546D01*
X-41985Y135450D01*
X-41983Y135354D01*
X-44579Y132758D02*
X-51071Y137951D01*
D11*
X0Y-5000D02*
X0Y-62500D01*
X150000Y-62500D02*
X150000Y-5000D01*
X149350Y-43000D02*
X650Y-43000D01*
X26000Y-39808D01*
X26000Y-46192D01*
X650Y-43000D01*
X26000Y-41700D01*
X26000Y-44300D02*
X650Y-43000D01*
X26000Y-40400D01*
X26000Y-45600D02*
X650Y-43000D01*
X124000Y-39808D02*
X149350Y-43000D01*
X124000Y-39808D02*
X124000Y-46192D01*
X149350Y-43000D01*
X124000Y-41700D01*
X124000Y-44300D02*
X149350Y-43000D01*
X124000Y-40400D01*
X124000Y-45600D02*
X149350Y-43000D01*
D12*
X55993Y-26333D02*
X52747Y-28929D01*
X55993Y-26333D02*
X55993Y-38017D01*
X59238Y-38017D02*
X52747Y-38017D01*
X64177Y-38017D02*
X68072Y-38017D01*
X68171Y-38015D01*
X68271Y-38009D01*
X68370Y-38000D01*
X68468Y-37987D01*
X68566Y-37970D01*
X68664Y-37949D01*
X68760Y-37924D01*
X68855Y-37896D01*
X68949Y-37864D01*
X69042Y-37829D01*
X69134Y-37790D01*
X69224Y-37747D01*
X69312Y-37702D01*
X69399Y-37652D01*
X69483Y-37600D01*
X69566Y-37544D01*
X69646Y-37486D01*
X69724Y-37424D01*
X69799Y-37359D01*
X69872Y-37291D01*
X69942Y-37221D01*
X70010Y-37148D01*
X70075Y-37073D01*
X70137Y-36995D01*
X70195Y-36915D01*
X70251Y-36832D01*
X70303Y-36748D01*
X70353Y-36661D01*
X70398Y-36573D01*
X70441Y-36483D01*
X70480Y-36391D01*
X70515Y-36298D01*
X70547Y-36204D01*
X70575Y-36109D01*
X70600Y-36013D01*
X70621Y-35915D01*
X70638Y-35817D01*
X70651Y-35719D01*
X70660Y-35620D01*
X70666Y-35520D01*
X70668Y-35421D01*
X70668Y-34122D01*
X70666Y-34023D01*
X70660Y-33923D01*
X70651Y-33824D01*
X70638Y-33726D01*
X70621Y-33628D01*
X70600Y-33530D01*
X70575Y-33434D01*
X70547Y-33339D01*
X70515Y-33245D01*
X70480Y-33152D01*
X70441Y-33060D01*
X70398Y-32970D01*
X70353Y-32882D01*
X70303Y-32795D01*
X70251Y-32711D01*
X70195Y-32628D01*
X70137Y-32548D01*
X70075Y-32470D01*
X70010Y-32395D01*
X69942Y-32322D01*
X69872Y-32252D01*
X69799Y-32184D01*
X69724Y-32119D01*
X69646Y-32057D01*
X69566Y-31999D01*
X69483Y-31943D01*
X69399Y-31891D01*
X69312Y-31841D01*
X69224Y-31796D01*
X69134Y-31753D01*
X69042Y-31714D01*
X68949Y-31679D01*
X68855Y-31647D01*
X68760Y-31619D01*
X68664Y-31594D01*
X68566Y-31573D01*
X68468Y-31556D01*
X68370Y-31543D01*
X68271Y-31534D01*
X68171Y-31528D01*
X68072Y-31526D01*
X64177Y-31526D01*
X64177Y-26333D01*
X70668Y-26333D01*
X75099Y-37368D02*
X75099Y-38017D01*
X75099Y-37368D02*
X75748Y-37368D01*
X75748Y-38017D01*
X75099Y-38017D01*
X80179Y-32175D02*
X80182Y-31945D01*
X80190Y-31715D01*
X80204Y-31486D01*
X80223Y-31257D01*
X80248Y-31028D01*
X80278Y-30800D01*
X80313Y-30573D01*
X80354Y-30347D01*
X80400Y-30122D01*
X80452Y-29898D01*
X80509Y-29675D01*
X80571Y-29454D01*
X80639Y-29234D01*
X80712Y-29016D01*
X80790Y-28800D01*
X80873Y-28586D01*
X80961Y-28374D01*
X81054Y-28163D01*
X81153Y-27956D01*
X81152Y-27956D02*
X81185Y-27866D01*
X81221Y-27777D01*
X81261Y-27689D01*
X81305Y-27604D01*
X81352Y-27520D01*
X81402Y-27438D01*
X81456Y-27358D01*
X81512Y-27281D01*
X81572Y-27205D01*
X81635Y-27132D01*
X81700Y-27062D01*
X81769Y-26994D01*
X81840Y-26930D01*
X81913Y-26868D01*
X81989Y-26809D01*
X82067Y-26753D01*
X82148Y-26700D01*
X82230Y-26651D01*
X82314Y-26605D01*
X82401Y-26562D01*
X82488Y-26523D01*
X82578Y-26487D01*
X82668Y-26455D01*
X82760Y-26427D01*
X82853Y-26402D01*
X82947Y-26381D01*
X83041Y-26364D01*
X83136Y-26350D01*
X83232Y-26341D01*
X83328Y-26335D01*
X83424Y-26333D01*
X83520Y-26335D01*
X83616Y-26341D01*
X83712Y-26350D01*
X83807Y-26364D01*
X83901Y-26381D01*
X83995Y-26402D01*
X84088Y-26427D01*
X84180Y-26455D01*
X84270Y-26487D01*
X84360Y-26523D01*
X84448Y-26562D01*
X84534Y-26605D01*
X84618Y-26651D01*
X84700Y-26700D01*
X84781Y-26753D01*
X84859Y-26809D01*
X84935Y-26868D01*
X85008Y-26930D01*
X85079Y-26994D01*
X85148Y-27062D01*
X85213Y-27132D01*
X85276Y-27205D01*
X85336Y-27281D01*
X85392Y-27358D01*
X85446Y-27438D01*
X85496Y-27520D01*
X85543Y-27604D01*
X85587Y-27689D01*
X85627Y-27777D01*
X85663Y-27866D01*
X85696Y-27956D01*
X85795Y-28163D01*
X85888Y-28374D01*
X85976Y-28586D01*
X86059Y-28800D01*
X86137Y-29016D01*
X86210Y-29234D01*
X86278Y-29454D01*
X86340Y-29675D01*
X86397Y-29898D01*
X86449Y-30122D01*
X86495Y-30347D01*
X86536Y-30573D01*
X86571Y-30800D01*
X86601Y-31028D01*
X86626Y-31257D01*
X86645Y-31486D01*
X86659Y-31715D01*
X86667Y-31945D01*
X86670Y-32175D01*
X80179Y-32175D02*
X80182Y-32405D01*
X80190Y-32635D01*
X80204Y-32864D01*
X80223Y-33093D01*
X80248Y-33322D01*
X80278Y-33550D01*
X80313Y-33777D01*
X80354Y-34003D01*
X80400Y-34228D01*
X80452Y-34452D01*
X80509Y-34675D01*
X80571Y-34896D01*
X80639Y-35116D01*
X80712Y-35334D01*
X80790Y-35550D01*
X80873Y-35764D01*
X80961Y-35976D01*
X81054Y-36187D01*
X81153Y-36394D01*
X81152Y-36394D02*
X81185Y-36484D01*
X81221Y-36573D01*
X81262Y-36661D01*
X81305Y-36746D01*
X81352Y-36830D01*
X81402Y-36912D01*
X81456Y-36992D01*
X81512Y-37069D01*
X81572Y-37145D01*
X81635Y-37218D01*
X81700Y-37288D01*
X81769Y-37356D01*
X81840Y-37420D01*
X81913Y-37482D01*
X81989Y-37541D01*
X82067Y-37597D01*
X82148Y-37650D01*
X82230Y-37699D01*
X82314Y-37745D01*
X82401Y-37788D01*
X82488Y-37827D01*
X82578Y-37863D01*
X82668Y-37895D01*
X82760Y-37923D01*
X82853Y-37948D01*
X82947Y-37969D01*
X83041Y-37986D01*
X83136Y-38000D01*
X83232Y-38009D01*
X83328Y-38015D01*
X83424Y-38017D01*
X85696Y-36394D02*
X85795Y-36187D01*
X85888Y-35976D01*
X85976Y-35764D01*
X86059Y-35550D01*
X86137Y-35334D01*
X86210Y-35116D01*
X86278Y-34896D01*
X86340Y-34675D01*
X86397Y-34452D01*
X86449Y-34228D01*
X86495Y-34003D01*
X86536Y-33777D01*
X86571Y-33550D01*
X86601Y-33322D01*
X86626Y-33093D01*
X86645Y-32864D01*
X86659Y-32635D01*
X86667Y-32405D01*
X86670Y-32175D01*
X85696Y-36394D02*
X85663Y-36484D01*
X85627Y-36573D01*
X85587Y-36661D01*
X85543Y-36746D01*
X85496Y-36830D01*
X85446Y-36912D01*
X85392Y-36992D01*
X85336Y-37069D01*
X85276Y-37145D01*
X85213Y-37218D01*
X85148Y-37288D01*
X85079Y-37356D01*
X85008Y-37420D01*
X84935Y-37482D01*
X84859Y-37541D01*
X84781Y-37597D01*
X84700Y-37650D01*
X84618Y-37699D01*
X84534Y-37745D01*
X84447Y-37788D01*
X84360Y-37827D01*
X84270Y-37863D01*
X84180Y-37895D01*
X84088Y-37923D01*
X83995Y-37948D01*
X83901Y-37969D01*
X83807Y-37986D01*
X83712Y-38000D01*
X83616Y-38009D01*
X83520Y-38015D01*
X83424Y-38017D01*
X80828Y-35421D02*
X86021Y-28929D01*
X91609Y-32175D02*
X91612Y-31945D01*
X91620Y-31715D01*
X91634Y-31486D01*
X91653Y-31257D01*
X91678Y-31028D01*
X91708Y-30800D01*
X91743Y-30573D01*
X91784Y-30347D01*
X91830Y-30122D01*
X91882Y-29898D01*
X91939Y-29675D01*
X92001Y-29454D01*
X92069Y-29234D01*
X92142Y-29016D01*
X92220Y-28800D01*
X92303Y-28586D01*
X92391Y-28374D01*
X92484Y-28163D01*
X92583Y-27956D01*
X92582Y-27956D02*
X92615Y-27866D01*
X92651Y-27777D01*
X92691Y-27689D01*
X92735Y-27604D01*
X92782Y-27520D01*
X92832Y-27438D01*
X92886Y-27358D01*
X92942Y-27281D01*
X93002Y-27205D01*
X93065Y-27132D01*
X93130Y-27062D01*
X93199Y-26994D01*
X93270Y-26930D01*
X93343Y-26868D01*
X93419Y-26809D01*
X93497Y-26753D01*
X93578Y-26700D01*
X93660Y-26651D01*
X93744Y-26605D01*
X93831Y-26562D01*
X93918Y-26523D01*
X94008Y-26487D01*
X94098Y-26455D01*
X94190Y-26427D01*
X94283Y-26402D01*
X94377Y-26381D01*
X94471Y-26364D01*
X94566Y-26350D01*
X94662Y-26341D01*
X94758Y-26335D01*
X94854Y-26333D01*
X94950Y-26335D01*
X95046Y-26341D01*
X95142Y-26350D01*
X95237Y-26364D01*
X95331Y-26381D01*
X95425Y-26402D01*
X95518Y-26427D01*
X95610Y-26455D01*
X95700Y-26487D01*
X95790Y-26523D01*
X95878Y-26562D01*
X95964Y-26605D01*
X96048Y-26651D01*
X96130Y-26700D01*
X96211Y-26753D01*
X96289Y-26809D01*
X96365Y-26868D01*
X96438Y-26930D01*
X96509Y-26994D01*
X96578Y-27062D01*
X96643Y-27132D01*
X96706Y-27205D01*
X96766Y-27281D01*
X96822Y-27358D01*
X96876Y-27438D01*
X96926Y-27520D01*
X96973Y-27604D01*
X97017Y-27689D01*
X97057Y-27777D01*
X97093Y-27866D01*
X97126Y-27956D01*
X97225Y-28163D01*
X97318Y-28374D01*
X97406Y-28586D01*
X97489Y-28800D01*
X97567Y-29016D01*
X97640Y-29234D01*
X97708Y-29454D01*
X97770Y-29675D01*
X97827Y-29898D01*
X97879Y-30122D01*
X97925Y-30347D01*
X97966Y-30573D01*
X98001Y-30800D01*
X98031Y-31028D01*
X98056Y-31257D01*
X98075Y-31486D01*
X98089Y-31715D01*
X98097Y-31945D01*
X98100Y-32175D01*
X91609Y-32175D02*
X91612Y-32405D01*
X91620Y-32635D01*
X91634Y-32864D01*
X91653Y-33093D01*
X91678Y-33322D01*
X91708Y-33550D01*
X91743Y-33777D01*
X91784Y-34003D01*
X91830Y-34228D01*
X91882Y-34452D01*
X91939Y-34675D01*
X92001Y-34896D01*
X92069Y-35116D01*
X92142Y-35334D01*
X92220Y-35550D01*
X92303Y-35764D01*
X92391Y-35976D01*
X92484Y-36187D01*
X92583Y-36394D01*
X92582Y-36394D02*
X92615Y-36484D01*
X92651Y-36573D01*
X92692Y-36661D01*
X92735Y-36746D01*
X92782Y-36830D01*
X92832Y-36912D01*
X92886Y-36992D01*
X92942Y-37069D01*
X93002Y-37145D01*
X93065Y-37218D01*
X93130Y-37288D01*
X93199Y-37356D01*
X93270Y-37420D01*
X93343Y-37482D01*
X93419Y-37541D01*
X93497Y-37597D01*
X93578Y-37650D01*
X93660Y-37699D01*
X93744Y-37745D01*
X93831Y-37788D01*
X93918Y-37827D01*
X94008Y-37863D01*
X94098Y-37895D01*
X94190Y-37923D01*
X94283Y-37948D01*
X94377Y-37969D01*
X94471Y-37986D01*
X94566Y-38000D01*
X94662Y-38009D01*
X94758Y-38015D01*
X94854Y-38017D01*
X97126Y-36394D02*
X97225Y-36187D01*
X97318Y-35976D01*
X97406Y-35764D01*
X97489Y-35550D01*
X97567Y-35334D01*
X97640Y-35116D01*
X97708Y-34896D01*
X97770Y-34675D01*
X97827Y-34452D01*
X97879Y-34228D01*
X97925Y-34003D01*
X97966Y-33777D01*
X98001Y-33550D01*
X98031Y-33322D01*
X98056Y-33093D01*
X98075Y-32864D01*
X98089Y-32635D01*
X98097Y-32405D01*
X98100Y-32175D01*
X97126Y-36394D02*
X97093Y-36484D01*
X97057Y-36573D01*
X97017Y-36661D01*
X96973Y-36746D01*
X96926Y-36830D01*
X96876Y-36912D01*
X96822Y-36992D01*
X96766Y-37069D01*
X96706Y-37145D01*
X96643Y-37218D01*
X96578Y-37288D01*
X96509Y-37356D01*
X96438Y-37420D01*
X96365Y-37482D01*
X96289Y-37541D01*
X96211Y-37597D01*
X96130Y-37650D01*
X96048Y-37699D01*
X95964Y-37745D01*
X95877Y-37788D01*
X95790Y-37827D01*
X95700Y-37863D01*
X95610Y-37895D01*
X95518Y-37923D01*
X95425Y-37948D01*
X95331Y-37969D01*
X95237Y-37986D01*
X95142Y-38000D01*
X95046Y-38009D01*
X94950Y-38015D01*
X94854Y-38017D01*
X92258Y-35421D02*
X97451Y-28929D01*
D13*
X107300Y107450D03*
X107300Y126450D03*
X82900Y107450D03*
X82900Y126450D03*
D14*
X35000Y178300D02*
X35000Y203700D01*
X119000Y202700D02*
X119000Y177300D01*
X78000Y177300D02*
X78000Y202700D01*
D15*
X57150Y25400D03*
X31750Y25400D03*
X107950Y25400D03*
X82550Y25400D03*
D16*
X52950Y57150D03*
X35950Y57150D03*
X91050Y63500D03*
X74050Y63500D03*
D17*
X31496Y117348D03*
X31496Y107950D03*
X31496Y98552D03*
X57404Y98552D03*
X57404Y107950D03*
X57404Y117348D03*
D16*
X42300Y146050D03*
X59300Y146050D03*
D18*
X25400Y137550D03*
X25400Y154550D03*
D19*
X44450Y82550D03*
X78000Y144000D03*
X90000Y144000D03*
X102000Y144000D03*
X127000Y25400D03*
X19050Y120650D03*
X113000Y144000D03*
X66000Y128000D03*
X56000Y128000D03*
X45000Y108000D03*
X18050Y110650D03*
X17050Y99650D03*
X57150Y78550D03*
X87000Y79000D03*
M02*
