G04 EAGLE Gerber RS-274X export*
G75*
%MOMM*%
%FSLAX34Y34*%
%LPD*%
%INTop Copper*%
%IPPOS*%
%AMOC8*
5,1,8,0,0,1.08239X$1,22.5*%
G01*
%ADD10C,0.000000*%
%ADD11C,0.130000*%
%ADD12C,0.101600*%
%ADD13R,1.500000X1.300000*%
%ADD14P,1.948302X8X22.500000*%
%ADD15P,1.649562X8X22.500000*%
%ADD16R,1.000000X1.100000*%
%ADD17R,1.270000X0.558800*%
%ADD18R,1.100000X1.000000*%
%ADD19C,0.756400*%
%ADD20C,0.508000*%
%ADD21C,0.406400*%

G36*
X139098Y10164D02*
X139098Y10164D01*
X139117Y10162D01*
X139219Y10184D01*
X139321Y10200D01*
X139338Y10210D01*
X139358Y10214D01*
X139447Y10267D01*
X139538Y10316D01*
X139552Y10330D01*
X139569Y10340D01*
X139636Y10419D01*
X139708Y10494D01*
X139716Y10512D01*
X139729Y10527D01*
X139768Y10623D01*
X139811Y10717D01*
X139813Y10737D01*
X139821Y10755D01*
X139839Y10922D01*
X139839Y189078D01*
X139838Y189088D01*
X139838Y189094D01*
X139837Y189102D01*
X139838Y189117D01*
X139816Y189219D01*
X139800Y189321D01*
X139790Y189338D01*
X139786Y189358D01*
X139733Y189447D01*
X139684Y189538D01*
X139670Y189552D01*
X139660Y189569D01*
X139581Y189636D01*
X139506Y189708D01*
X139488Y189716D01*
X139473Y189729D01*
X139377Y189768D01*
X139283Y189811D01*
X139263Y189813D01*
X139245Y189821D01*
X139078Y189839D01*
X10922Y189839D01*
X10902Y189836D01*
X10883Y189838D01*
X10781Y189816D01*
X10679Y189800D01*
X10662Y189790D01*
X10642Y189786D01*
X10553Y189733D01*
X10462Y189684D01*
X10448Y189670D01*
X10431Y189660D01*
X10364Y189581D01*
X10292Y189506D01*
X10284Y189488D01*
X10271Y189473D01*
X10232Y189377D01*
X10189Y189283D01*
X10187Y189263D01*
X10179Y189245D01*
X10161Y189078D01*
X10161Y10922D01*
X10164Y10902D01*
X10162Y10883D01*
X10184Y10781D01*
X10200Y10679D01*
X10210Y10662D01*
X10214Y10642D01*
X10267Y10553D01*
X10316Y10462D01*
X10330Y10448D01*
X10340Y10431D01*
X10419Y10364D01*
X10494Y10292D01*
X10512Y10284D01*
X10527Y10271D01*
X10623Y10232D01*
X10717Y10189D01*
X10737Y10187D01*
X10755Y10179D01*
X10922Y10161D01*
X139078Y10161D01*
X139098Y10164D01*
G37*
%LPC*%
G36*
X53362Y16255D02*
X53362Y16255D01*
X48005Y21612D01*
X48005Y29188D01*
X52862Y34045D01*
X52915Y34119D01*
X52975Y34188D01*
X52987Y34218D01*
X53006Y34245D01*
X53033Y34332D01*
X53067Y34416D01*
X53071Y34457D01*
X53078Y34480D01*
X53077Y34512D01*
X53085Y34583D01*
X53085Y41934D01*
X67484Y56333D01*
X67496Y56349D01*
X67512Y56361D01*
X67568Y56449D01*
X67628Y56533D01*
X67634Y56551D01*
X67645Y56568D01*
X67670Y56669D01*
X67700Y56768D01*
X67700Y56788D01*
X67705Y56807D01*
X67697Y56910D01*
X67694Y57013D01*
X67687Y57032D01*
X67686Y57052D01*
X67645Y57147D01*
X67609Y57244D01*
X67597Y57260D01*
X67589Y57278D01*
X67525Y57358D01*
X67525Y69632D01*
X68418Y70525D01*
X69224Y70525D01*
X69244Y70528D01*
X69263Y70526D01*
X69365Y70548D01*
X69467Y70564D01*
X69484Y70574D01*
X69504Y70578D01*
X69593Y70631D01*
X69684Y70680D01*
X69698Y70694D01*
X69715Y70704D01*
X69782Y70783D01*
X69854Y70858D01*
X69862Y70876D01*
X69875Y70891D01*
X69914Y70987D01*
X69957Y71081D01*
X69959Y71101D01*
X69967Y71119D01*
X69985Y71286D01*
X69985Y79907D01*
X69971Y79997D01*
X69963Y80088D01*
X69951Y80118D01*
X69946Y80150D01*
X69903Y80230D01*
X69867Y80314D01*
X69841Y80346D01*
X69830Y80367D01*
X69807Y80389D01*
X69762Y80445D01*
X56197Y94010D01*
X56123Y94063D01*
X56054Y94123D01*
X56024Y94135D01*
X55998Y94154D01*
X55911Y94181D01*
X55826Y94215D01*
X55785Y94219D01*
X55762Y94226D01*
X55730Y94225D01*
X55659Y94233D01*
X50422Y94233D01*
X49529Y95126D01*
X49529Y101978D01*
X50264Y102713D01*
X50276Y102729D01*
X50292Y102741D01*
X50348Y102829D01*
X50408Y102912D01*
X50414Y102931D01*
X50425Y102948D01*
X50450Y103049D01*
X50480Y103148D01*
X50480Y103167D01*
X50485Y103187D01*
X50477Y103290D01*
X50474Y103393D01*
X50467Y103412D01*
X50466Y103432D01*
X50425Y103527D01*
X50390Y103624D01*
X50377Y103640D01*
X50369Y103658D01*
X50264Y103789D01*
X49529Y104524D01*
X49529Y111376D01*
X49546Y111392D01*
X49558Y111408D01*
X49573Y111421D01*
X49629Y111508D01*
X49690Y111592D01*
X49695Y111611D01*
X49706Y111628D01*
X49731Y111728D01*
X49762Y111827D01*
X49761Y111847D01*
X49766Y111866D01*
X49758Y111969D01*
X49756Y112073D01*
X49749Y112092D01*
X49747Y112112D01*
X49707Y112207D01*
X49671Y112304D01*
X49659Y112320D01*
X49651Y112338D01*
X49546Y112469D01*
X49021Y112994D01*
X48686Y113573D01*
X48513Y114220D01*
X48513Y115952D01*
X56769Y115952D01*
X56788Y115955D01*
X56808Y115953D01*
X56910Y115975D01*
X57012Y115991D01*
X57029Y116001D01*
X57049Y116005D01*
X57138Y116058D01*
X57229Y116107D01*
X57243Y116121D01*
X57260Y116131D01*
X57327Y116210D01*
X57398Y116285D01*
X57406Y116302D01*
X57433Y116253D01*
X57447Y116239D01*
X57457Y116222D01*
X57536Y116155D01*
X57611Y116083D01*
X57629Y116075D01*
X57644Y116062D01*
X57741Y116023D01*
X57834Y115980D01*
X57854Y115978D01*
X57872Y115970D01*
X58039Y115952D01*
X66295Y115952D01*
X66295Y114220D01*
X66122Y113573D01*
X65787Y112994D01*
X65607Y112814D01*
X65566Y112756D01*
X65516Y112704D01*
X65494Y112657D01*
X65464Y112615D01*
X65443Y112546D01*
X65413Y112481D01*
X65407Y112429D01*
X65391Y112379D01*
X65393Y112308D01*
X65385Y112237D01*
X65397Y112186D01*
X65398Y112134D01*
X65422Y112066D01*
X65438Y111996D01*
X65464Y111951D01*
X65482Y111903D01*
X65527Y111847D01*
X65564Y111785D01*
X65603Y111751D01*
X65636Y111711D01*
X65696Y111672D01*
X65751Y111625D01*
X65799Y111606D01*
X65843Y111578D01*
X65912Y111560D01*
X65979Y111533D01*
X66050Y111525D01*
X66081Y111517D01*
X66105Y111519D01*
X66146Y111515D01*
X73114Y111515D01*
X73134Y111518D01*
X73153Y111516D01*
X73255Y111538D01*
X73357Y111554D01*
X73374Y111564D01*
X73394Y111568D01*
X73483Y111621D01*
X73574Y111670D01*
X73588Y111684D01*
X73605Y111694D01*
X73672Y111773D01*
X73744Y111848D01*
X73752Y111866D01*
X73765Y111881D01*
X73804Y111977D01*
X73847Y112071D01*
X73849Y112091D01*
X73857Y112109D01*
X73875Y112276D01*
X73875Y114582D01*
X74768Y115475D01*
X91032Y115475D01*
X91925Y114582D01*
X91925Y112276D01*
X91928Y112256D01*
X91926Y112237D01*
X91948Y112135D01*
X91964Y112033D01*
X91974Y112016D01*
X91978Y111996D01*
X92031Y111907D01*
X92080Y111816D01*
X92094Y111802D01*
X92104Y111785D01*
X92183Y111718D01*
X92258Y111646D01*
X92276Y111638D01*
X92291Y111625D01*
X92387Y111586D01*
X92481Y111543D01*
X92501Y111541D01*
X92519Y111533D01*
X92686Y111515D01*
X97514Y111515D01*
X97534Y111518D01*
X97553Y111516D01*
X97655Y111538D01*
X97757Y111554D01*
X97774Y111564D01*
X97794Y111568D01*
X97883Y111621D01*
X97974Y111670D01*
X97988Y111684D01*
X98005Y111694D01*
X98072Y111773D01*
X98144Y111848D01*
X98152Y111866D01*
X98165Y111881D01*
X98204Y111977D01*
X98247Y112071D01*
X98249Y112091D01*
X98257Y112109D01*
X98275Y112276D01*
X98275Y114582D01*
X99168Y115475D01*
X115432Y115475D01*
X116325Y114582D01*
X116325Y112276D01*
X116328Y112256D01*
X116326Y112237D01*
X116348Y112135D01*
X116364Y112033D01*
X116374Y112016D01*
X116378Y111996D01*
X116431Y111907D01*
X116480Y111816D01*
X116494Y111802D01*
X116504Y111785D01*
X116583Y111718D01*
X116658Y111646D01*
X116676Y111638D01*
X116691Y111625D01*
X116787Y111586D01*
X116881Y111543D01*
X116901Y111541D01*
X116919Y111533D01*
X117086Y111515D01*
X128524Y111515D01*
X128544Y111518D01*
X128563Y111516D01*
X128665Y111538D01*
X128767Y111554D01*
X128784Y111564D01*
X128804Y111568D01*
X128893Y111621D01*
X128984Y111670D01*
X128998Y111684D01*
X129015Y111694D01*
X129082Y111773D01*
X129154Y111848D01*
X129162Y111866D01*
X129175Y111881D01*
X129214Y111977D01*
X129257Y112071D01*
X129259Y112091D01*
X129267Y112109D01*
X129285Y112276D01*
X129285Y144051D01*
X129271Y144141D01*
X129263Y144232D01*
X129251Y144262D01*
X129246Y144294D01*
X129203Y144374D01*
X129167Y144458D01*
X129141Y144490D01*
X129130Y144511D01*
X129107Y144533D01*
X129062Y144589D01*
X107806Y165845D01*
X107790Y165857D01*
X107778Y165873D01*
X107690Y165929D01*
X107606Y165989D01*
X107588Y165995D01*
X107571Y166006D01*
X107470Y166031D01*
X107371Y166061D01*
X107351Y166061D01*
X107332Y166066D01*
X107229Y166058D01*
X107126Y166055D01*
X107107Y166048D01*
X107087Y166047D01*
X106992Y166006D01*
X106894Y165971D01*
X106879Y165958D01*
X106861Y165950D01*
X106730Y165845D01*
X106359Y165475D01*
X97641Y165475D01*
X91475Y171641D01*
X91475Y180359D01*
X97641Y186525D01*
X106359Y186525D01*
X112525Y180359D01*
X112525Y172939D01*
X112539Y172849D01*
X112547Y172758D01*
X112559Y172728D01*
X112564Y172696D01*
X112607Y172616D01*
X112643Y172532D01*
X112669Y172500D01*
X112680Y172479D01*
X112703Y172457D01*
X112748Y172401D01*
X137415Y147734D01*
X137415Y68166D01*
X134811Y65562D01*
X112238Y42989D01*
X112185Y42915D01*
X112125Y42846D01*
X112113Y42816D01*
X112094Y42790D01*
X112067Y42703D01*
X112033Y42618D01*
X112029Y42577D01*
X112022Y42555D01*
X112023Y42522D01*
X112015Y42451D01*
X112015Y34583D01*
X112029Y34493D01*
X112037Y34402D01*
X112049Y34372D01*
X112054Y34340D01*
X112097Y34260D01*
X112133Y34176D01*
X112159Y34144D01*
X112170Y34123D01*
X112193Y34101D01*
X112238Y34045D01*
X117095Y29188D01*
X117095Y21612D01*
X111738Y16255D01*
X104162Y16255D01*
X98805Y21612D01*
X98805Y29188D01*
X103662Y34045D01*
X103715Y34119D01*
X103775Y34188D01*
X103787Y34218D01*
X103806Y34245D01*
X103833Y34332D01*
X103867Y34416D01*
X103871Y34457D01*
X103878Y34480D01*
X103877Y34512D01*
X103885Y34583D01*
X103885Y39001D01*
X103871Y39091D01*
X103863Y39182D01*
X103851Y39212D01*
X103846Y39244D01*
X103803Y39324D01*
X103767Y39408D01*
X103741Y39441D01*
X103730Y39461D01*
X103707Y39483D01*
X103662Y39539D01*
X103039Y40162D01*
X102965Y40216D01*
X102896Y40275D01*
X102866Y40287D01*
X102840Y40306D01*
X102752Y40333D01*
X102668Y40367D01*
X102627Y40371D01*
X102604Y40378D01*
X102572Y40377D01*
X102501Y40385D01*
X86305Y40385D01*
X86215Y40371D01*
X86124Y40363D01*
X86095Y40351D01*
X86063Y40346D01*
X85982Y40303D01*
X85898Y40267D01*
X85866Y40241D01*
X85845Y40230D01*
X85823Y40207D01*
X85767Y40162D01*
X84748Y39143D01*
X80352Y39143D01*
X77243Y42252D01*
X77243Y46648D01*
X80352Y49757D01*
X84748Y49757D01*
X85767Y48738D01*
X85841Y48685D01*
X85911Y48625D01*
X85941Y48613D01*
X85967Y48594D01*
X86054Y48567D01*
X86139Y48533D01*
X86180Y48529D01*
X86202Y48522D01*
X86234Y48523D01*
X86305Y48515D01*
X96299Y48515D01*
X96370Y48526D01*
X96442Y48528D01*
X96490Y48546D01*
X96542Y48554D01*
X96605Y48588D01*
X96673Y48613D01*
X96713Y48645D01*
X96759Y48670D01*
X96809Y48722D01*
X96865Y48766D01*
X96893Y48810D01*
X96929Y48848D01*
X96959Y48913D01*
X96998Y48973D01*
X97010Y49024D01*
X97032Y49071D01*
X97040Y49142D01*
X97058Y49212D01*
X97054Y49264D01*
X97059Y49315D01*
X97044Y49386D01*
X97038Y49457D01*
X97018Y49505D01*
X97007Y49556D01*
X96970Y49617D01*
X96942Y49683D01*
X96897Y49739D01*
X96881Y49767D01*
X96863Y49782D01*
X96837Y49814D01*
X90399Y56252D01*
X90325Y56305D01*
X90256Y56365D01*
X90226Y56377D01*
X90200Y56396D01*
X90113Y56423D01*
X90028Y56457D01*
X89987Y56461D01*
X89964Y56468D01*
X89932Y56467D01*
X89861Y56475D01*
X85418Y56475D01*
X84525Y57368D01*
X84525Y69632D01*
X85418Y70525D01*
X96682Y70525D01*
X97575Y69632D01*
X97575Y60889D01*
X97589Y60799D01*
X97597Y60708D01*
X97609Y60678D01*
X97614Y60646D01*
X97657Y60566D01*
X97693Y60482D01*
X97719Y60450D01*
X97730Y60429D01*
X97753Y60407D01*
X97798Y60351D01*
X107412Y50737D01*
X107428Y50725D01*
X107440Y50709D01*
X107528Y50653D01*
X107611Y50593D01*
X107630Y50587D01*
X107647Y50576D01*
X107748Y50551D01*
X107847Y50521D01*
X107866Y50521D01*
X107886Y50516D01*
X107989Y50524D01*
X108092Y50527D01*
X108111Y50534D01*
X108131Y50536D01*
X108226Y50576D01*
X108323Y50612D01*
X108339Y50624D01*
X108357Y50632D01*
X108488Y50737D01*
X129062Y71311D01*
X129108Y71375D01*
X129127Y71394D01*
X129130Y71402D01*
X129175Y71454D01*
X129187Y71484D01*
X129206Y71510D01*
X129233Y71597D01*
X129267Y71682D01*
X129271Y71723D01*
X129278Y71745D01*
X129277Y71778D01*
X129285Y71849D01*
X129285Y100001D01*
X129283Y100016D01*
X129284Y100028D01*
X129271Y100090D01*
X129271Y100091D01*
X129263Y100182D01*
X129251Y100212D01*
X129246Y100244D01*
X129203Y100324D01*
X129167Y100408D01*
X129141Y100440D01*
X129130Y100461D01*
X129107Y100483D01*
X129062Y100539D01*
X126439Y103162D01*
X126365Y103215D01*
X126296Y103275D01*
X126266Y103287D01*
X126240Y103306D01*
X126153Y103333D01*
X126068Y103367D01*
X126027Y103371D01*
X126004Y103378D01*
X125972Y103377D01*
X125901Y103385D01*
X117086Y103385D01*
X117066Y103382D01*
X117047Y103384D01*
X116945Y103362D01*
X116843Y103346D01*
X116826Y103336D01*
X116806Y103332D01*
X116717Y103279D01*
X116626Y103230D01*
X116612Y103216D01*
X116595Y103206D01*
X116528Y103127D01*
X116456Y103052D01*
X116448Y103034D01*
X116435Y103019D01*
X116396Y102923D01*
X116353Y102829D01*
X116351Y102809D01*
X116343Y102791D01*
X116325Y102624D01*
X116325Y100318D01*
X115432Y99425D01*
X99168Y99425D01*
X98275Y100318D01*
X98275Y102624D01*
X98272Y102644D01*
X98274Y102663D01*
X98252Y102765D01*
X98236Y102867D01*
X98226Y102884D01*
X98222Y102904D01*
X98169Y102993D01*
X98120Y103084D01*
X98106Y103098D01*
X98096Y103115D01*
X98017Y103182D01*
X97942Y103254D01*
X97924Y103262D01*
X97909Y103275D01*
X97813Y103314D01*
X97719Y103357D01*
X97699Y103359D01*
X97681Y103367D01*
X97514Y103385D01*
X92686Y103385D01*
X92666Y103382D01*
X92647Y103384D01*
X92545Y103362D01*
X92443Y103346D01*
X92426Y103336D01*
X92406Y103332D01*
X92317Y103279D01*
X92226Y103230D01*
X92212Y103216D01*
X92195Y103206D01*
X92128Y103127D01*
X92056Y103052D01*
X92048Y103034D01*
X92035Y103019D01*
X91996Y102923D01*
X91953Y102829D01*
X91951Y102809D01*
X91943Y102791D01*
X91925Y102624D01*
X91925Y100318D01*
X91032Y99425D01*
X74768Y99425D01*
X73875Y100318D01*
X73875Y102624D01*
X73872Y102644D01*
X73874Y102663D01*
X73852Y102765D01*
X73836Y102867D01*
X73826Y102884D01*
X73822Y102904D01*
X73769Y102993D01*
X73720Y103084D01*
X73706Y103098D01*
X73696Y103115D01*
X73617Y103182D01*
X73542Y103254D01*
X73524Y103262D01*
X73509Y103275D01*
X73413Y103314D01*
X73319Y103357D01*
X73299Y103359D01*
X73281Y103367D01*
X73114Y103385D01*
X65709Y103385D01*
X65638Y103374D01*
X65566Y103372D01*
X65517Y103354D01*
X65466Y103346D01*
X65403Y103312D01*
X65335Y103287D01*
X65295Y103255D01*
X65249Y103230D01*
X65199Y103179D01*
X65143Y103134D01*
X65115Y103090D01*
X65079Y103052D01*
X65049Y102987D01*
X65010Y102927D01*
X64998Y102876D01*
X64976Y102829D01*
X64968Y102758D01*
X64950Y102688D01*
X64954Y102636D01*
X64949Y102585D01*
X64964Y102514D01*
X64969Y102443D01*
X64990Y102395D01*
X65001Y102344D01*
X65038Y102283D01*
X65066Y102217D01*
X65111Y102161D01*
X65127Y102133D01*
X65145Y102118D01*
X65171Y102086D01*
X65279Y101978D01*
X65279Y96741D01*
X65293Y96651D01*
X65301Y96560D01*
X65313Y96530D01*
X65318Y96498D01*
X65361Y96418D01*
X65397Y96334D01*
X65423Y96302D01*
X65434Y96281D01*
X65457Y96259D01*
X65502Y96203D01*
X78115Y83590D01*
X78115Y71286D01*
X78118Y71266D01*
X78116Y71247D01*
X78138Y71145D01*
X78154Y71043D01*
X78164Y71026D01*
X78168Y71006D01*
X78221Y70917D01*
X78270Y70826D01*
X78284Y70812D01*
X78294Y70795D01*
X78373Y70728D01*
X78448Y70656D01*
X78466Y70648D01*
X78481Y70635D01*
X78577Y70596D01*
X78671Y70553D01*
X78691Y70551D01*
X78709Y70543D01*
X78876Y70525D01*
X79682Y70525D01*
X80575Y69632D01*
X80575Y57368D01*
X79682Y56475D01*
X78876Y56475D01*
X78856Y56472D01*
X78837Y56474D01*
X78735Y56452D01*
X78633Y56436D01*
X78616Y56426D01*
X78596Y56422D01*
X78507Y56369D01*
X78416Y56320D01*
X78402Y56306D01*
X78385Y56296D01*
X78318Y56217D01*
X78246Y56142D01*
X78238Y56124D01*
X78225Y56109D01*
X78186Y56013D01*
X78143Y55919D01*
X78141Y55899D01*
X78133Y55881D01*
X78115Y55714D01*
X78115Y55466D01*
X61438Y38789D01*
X61385Y38715D01*
X61325Y38646D01*
X61313Y38616D01*
X61294Y38590D01*
X61267Y38503D01*
X61233Y38418D01*
X61229Y38377D01*
X61222Y38354D01*
X61223Y38322D01*
X61215Y38251D01*
X61215Y34583D01*
X61229Y34493D01*
X61237Y34402D01*
X61249Y34372D01*
X61254Y34340D01*
X61297Y34260D01*
X61333Y34176D01*
X61359Y34144D01*
X61370Y34123D01*
X61393Y34101D01*
X61438Y34045D01*
X66295Y29188D01*
X66295Y21612D01*
X60938Y16255D01*
X53362Y16255D01*
G37*
%LPD*%
%LPC*%
G36*
X27962Y16255D02*
X27962Y16255D01*
X22605Y21612D01*
X22605Y29188D01*
X27462Y34045D01*
X27515Y34119D01*
X27575Y34188D01*
X27587Y34218D01*
X27606Y34245D01*
X27633Y34332D01*
X27667Y34416D01*
X27671Y34457D01*
X27678Y34480D01*
X27677Y34512D01*
X27685Y34583D01*
X27685Y54634D01*
X29202Y56151D01*
X29255Y56225D01*
X29315Y56294D01*
X29327Y56324D01*
X29346Y56350D01*
X29373Y56437D01*
X29407Y56522D01*
X29411Y56563D01*
X29418Y56586D01*
X29417Y56618D01*
X29425Y56689D01*
X29425Y57611D01*
X29411Y57701D01*
X29403Y57792D01*
X29391Y57822D01*
X29386Y57854D01*
X29343Y57934D01*
X29307Y58018D01*
X29281Y58050D01*
X29270Y58071D01*
X29247Y58093D01*
X29202Y58149D01*
X25535Y61816D01*
X25535Y89432D01*
X27208Y91105D01*
X27255Y91169D01*
X27271Y91186D01*
X27274Y91194D01*
X27321Y91248D01*
X27333Y91278D01*
X27352Y91304D01*
X27379Y91391D01*
X27413Y91476D01*
X27417Y91517D01*
X27424Y91540D01*
X27423Y91572D01*
X27431Y91643D01*
X27431Y93472D01*
X27428Y93492D01*
X27430Y93511D01*
X27408Y93613D01*
X27392Y93715D01*
X27382Y93732D01*
X27378Y93752D01*
X27325Y93841D01*
X27276Y93932D01*
X27262Y93946D01*
X27252Y93963D01*
X27173Y94030D01*
X27098Y94102D01*
X27080Y94110D01*
X27065Y94123D01*
X26969Y94162D01*
X26875Y94205D01*
X26855Y94207D01*
X26837Y94215D01*
X26670Y94233D01*
X24514Y94233D01*
X23621Y95126D01*
X23621Y101978D01*
X23638Y101994D01*
X23650Y102010D01*
X23665Y102023D01*
X23721Y102110D01*
X23782Y102194D01*
X23787Y102213D01*
X23798Y102230D01*
X23823Y102330D01*
X23854Y102429D01*
X23853Y102449D01*
X23858Y102468D01*
X23850Y102571D01*
X23848Y102675D01*
X23841Y102694D01*
X23839Y102714D01*
X23799Y102809D01*
X23763Y102906D01*
X23751Y102922D01*
X23743Y102940D01*
X23638Y103071D01*
X23113Y103596D01*
X22778Y104175D01*
X22605Y104822D01*
X22605Y106554D01*
X30861Y106554D01*
X30880Y106557D01*
X30900Y106555D01*
X31002Y106577D01*
X31104Y106593D01*
X31121Y106603D01*
X31141Y106607D01*
X31230Y106660D01*
X31321Y106709D01*
X31335Y106723D01*
X31352Y106733D01*
X31419Y106812D01*
X31490Y106887D01*
X31498Y106904D01*
X31525Y106855D01*
X31539Y106841D01*
X31549Y106824D01*
X31628Y106757D01*
X31703Y106685D01*
X31721Y106677D01*
X31736Y106664D01*
X31833Y106625D01*
X31926Y106582D01*
X31946Y106580D01*
X31964Y106572D01*
X32131Y106554D01*
X40387Y106554D01*
X40387Y104822D01*
X40214Y104175D01*
X39879Y103596D01*
X39354Y103071D01*
X39342Y103055D01*
X39327Y103042D01*
X39271Y102955D01*
X39210Y102871D01*
X39205Y102852D01*
X39194Y102835D01*
X39169Y102735D01*
X39138Y102636D01*
X39139Y102616D01*
X39134Y102597D01*
X39142Y102494D01*
X39144Y102390D01*
X39151Y102371D01*
X39153Y102352D01*
X39193Y102256D01*
X39229Y102159D01*
X39241Y102144D01*
X39249Y102125D01*
X39354Y101994D01*
X39371Y101978D01*
X39371Y95126D01*
X38478Y94233D01*
X36322Y94233D01*
X36302Y94230D01*
X36283Y94232D01*
X36181Y94210D01*
X36079Y94194D01*
X36062Y94184D01*
X36042Y94180D01*
X35953Y94127D01*
X35862Y94078D01*
X35848Y94064D01*
X35831Y94054D01*
X35764Y93975D01*
X35692Y93900D01*
X35684Y93882D01*
X35671Y93867D01*
X35632Y93771D01*
X35589Y93677D01*
X35587Y93657D01*
X35579Y93639D01*
X35561Y93472D01*
X35561Y87960D01*
X33888Y86287D01*
X33835Y86213D01*
X33775Y86144D01*
X33763Y86114D01*
X33744Y86088D01*
X33717Y86001D01*
X33683Y85916D01*
X33679Y85875D01*
X33672Y85852D01*
X33673Y85820D01*
X33665Y85749D01*
X33665Y65499D01*
X33679Y65409D01*
X33687Y65318D01*
X33699Y65288D01*
X33704Y65256D01*
X33747Y65176D01*
X33783Y65092D01*
X33809Y65060D01*
X33820Y65039D01*
X33843Y65017D01*
X33888Y64961D01*
X34451Y64398D01*
X34525Y64345D01*
X34594Y64285D01*
X34624Y64273D01*
X34650Y64254D01*
X34737Y64227D01*
X34822Y64193D01*
X34863Y64189D01*
X34886Y64182D01*
X34918Y64183D01*
X34989Y64175D01*
X41582Y64175D01*
X42475Y63282D01*
X42475Y51018D01*
X41582Y50125D01*
X36576Y50125D01*
X36556Y50122D01*
X36537Y50124D01*
X36435Y50102D01*
X36333Y50086D01*
X36316Y50076D01*
X36296Y50072D01*
X36207Y50019D01*
X36116Y49970D01*
X36102Y49956D01*
X36085Y49946D01*
X36018Y49867D01*
X35946Y49792D01*
X35938Y49774D01*
X35925Y49759D01*
X35886Y49663D01*
X35843Y49569D01*
X35841Y49549D01*
X35833Y49531D01*
X35815Y49364D01*
X35815Y34583D01*
X35829Y34493D01*
X35837Y34402D01*
X35849Y34372D01*
X35854Y34340D01*
X35897Y34260D01*
X35933Y34176D01*
X35959Y34144D01*
X35970Y34123D01*
X35993Y34101D01*
X36038Y34045D01*
X40895Y29188D01*
X40895Y21612D01*
X35538Y16255D01*
X27962Y16255D01*
G37*
%LPD*%
%LPC*%
G36*
X31467Y109045D02*
X31467Y109045D01*
X31453Y109059D01*
X31443Y109076D01*
X31364Y109143D01*
X31289Y109215D01*
X31271Y109223D01*
X31256Y109236D01*
X31159Y109275D01*
X31066Y109318D01*
X31046Y109320D01*
X31028Y109328D01*
X30861Y109346D01*
X22605Y109346D01*
X22605Y111078D01*
X22778Y111725D01*
X23113Y112304D01*
X23638Y112829D01*
X23650Y112845D01*
X23665Y112858D01*
X23721Y112945D01*
X23782Y113029D01*
X23787Y113048D01*
X23798Y113065D01*
X23823Y113165D01*
X23854Y113264D01*
X23853Y113284D01*
X23858Y113303D01*
X23850Y113406D01*
X23848Y113510D01*
X23841Y113529D01*
X23839Y113548D01*
X23799Y113643D01*
X23763Y113741D01*
X23751Y113757D01*
X23743Y113775D01*
X23638Y113906D01*
X23621Y113922D01*
X23621Y120774D01*
X24514Y121667D01*
X30469Y121667D01*
X30560Y121681D01*
X30650Y121689D01*
X30680Y121701D01*
X30712Y121706D01*
X30793Y121749D01*
X30877Y121785D01*
X30909Y121811D01*
X30930Y121822D01*
X30952Y121845D01*
X31008Y121890D01*
X38520Y129402D01*
X38573Y129476D01*
X38633Y129546D01*
X38645Y129576D01*
X38664Y129602D01*
X38691Y129689D01*
X38725Y129774D01*
X38729Y129815D01*
X38736Y129837D01*
X38735Y129869D01*
X38743Y129941D01*
X38743Y138264D01*
X38740Y138284D01*
X38742Y138303D01*
X38720Y138405D01*
X38704Y138507D01*
X38694Y138524D01*
X38690Y138544D01*
X38637Y138633D01*
X38588Y138724D01*
X38574Y138738D01*
X38564Y138755D01*
X38485Y138822D01*
X38410Y138894D01*
X38392Y138902D01*
X38377Y138915D01*
X38281Y138954D01*
X38187Y138997D01*
X38167Y138999D01*
X38149Y139007D01*
X37982Y139025D01*
X36668Y139025D01*
X35775Y139918D01*
X35775Y147229D01*
X35761Y147320D01*
X35753Y147410D01*
X35741Y147440D01*
X35736Y147472D01*
X35693Y147553D01*
X35657Y147637D01*
X35631Y147669D01*
X35620Y147690D01*
X35597Y147712D01*
X35552Y147768D01*
X33724Y149596D01*
X33666Y149638D01*
X33614Y149687D01*
X33567Y149709D01*
X33525Y149739D01*
X33456Y149760D01*
X33391Y149791D01*
X33339Y149796D01*
X33289Y149812D01*
X33218Y149810D01*
X33147Y149818D01*
X33096Y149807D01*
X33044Y149805D01*
X32976Y149781D01*
X32906Y149765D01*
X32861Y149739D01*
X32813Y149721D01*
X32757Y149676D01*
X32695Y149639D01*
X32661Y149600D01*
X32621Y149567D01*
X32582Y149507D01*
X32535Y149452D01*
X32516Y149404D01*
X32488Y149360D01*
X32470Y149291D01*
X32443Y149224D01*
X32435Y149153D01*
X32427Y149122D01*
X32429Y149098D01*
X32425Y149057D01*
X32425Y148918D01*
X31532Y148025D01*
X19268Y148025D01*
X18375Y148918D01*
X18375Y160182D01*
X19268Y161075D01*
X31532Y161075D01*
X32425Y160182D01*
X32425Y158868D01*
X32428Y158848D01*
X32426Y158829D01*
X32448Y158727D01*
X32464Y158625D01*
X32474Y158608D01*
X32478Y158588D01*
X32531Y158499D01*
X32580Y158408D01*
X32594Y158394D01*
X32604Y158377D01*
X32683Y158310D01*
X32758Y158238D01*
X32776Y158230D01*
X32791Y158217D01*
X32887Y158178D01*
X32981Y158135D01*
X33001Y158133D01*
X33019Y158125D01*
X33186Y158107D01*
X35273Y158107D01*
X40082Y153298D01*
X40156Y153245D01*
X40226Y153185D01*
X40256Y153173D01*
X40282Y153154D01*
X40369Y153127D01*
X40454Y153093D01*
X40495Y153089D01*
X40517Y153082D01*
X40549Y153083D01*
X40621Y153075D01*
X47932Y153075D01*
X48825Y152182D01*
X48825Y139918D01*
X47932Y139025D01*
X46618Y139025D01*
X46598Y139022D01*
X46579Y139024D01*
X46477Y139002D01*
X46375Y138986D01*
X46358Y138976D01*
X46338Y138972D01*
X46249Y138919D01*
X46158Y138870D01*
X46144Y138856D01*
X46127Y138846D01*
X46060Y138767D01*
X45988Y138692D01*
X45980Y138674D01*
X45967Y138659D01*
X45928Y138563D01*
X45885Y138469D01*
X45883Y138449D01*
X45875Y138431D01*
X45857Y138264D01*
X45857Y126679D01*
X39594Y120416D01*
X39541Y120342D01*
X39481Y120272D01*
X39469Y120242D01*
X39450Y120216D01*
X39423Y120129D01*
X39389Y120044D01*
X39385Y120003D01*
X39378Y119981D01*
X39379Y119949D01*
X39371Y119877D01*
X39371Y113922D01*
X39354Y113906D01*
X39342Y113890D01*
X39327Y113877D01*
X39271Y113790D01*
X39210Y113706D01*
X39205Y113687D01*
X39194Y113670D01*
X39169Y113570D01*
X39138Y113471D01*
X39139Y113451D01*
X39134Y113432D01*
X39142Y113329D01*
X39144Y113225D01*
X39151Y113206D01*
X39153Y113186D01*
X39193Y113091D01*
X39229Y112994D01*
X39241Y112978D01*
X39249Y112960D01*
X39354Y112829D01*
X39879Y112304D01*
X40214Y111725D01*
X40387Y111078D01*
X40387Y109346D01*
X32131Y109346D01*
X32112Y109343D01*
X32092Y109345D01*
X31990Y109323D01*
X31888Y109307D01*
X31871Y109297D01*
X31851Y109293D01*
X31762Y109240D01*
X31671Y109191D01*
X31657Y109177D01*
X31640Y109167D01*
X31573Y109088D01*
X31502Y109013D01*
X31494Y108995D01*
X31467Y109045D01*
G37*
%LPD*%
%LPC*%
G36*
X53668Y139025D02*
X53668Y139025D01*
X52775Y139918D01*
X52775Y152182D01*
X53668Y153075D01*
X54982Y153075D01*
X55002Y153078D01*
X55021Y153076D01*
X55123Y153098D01*
X55225Y153114D01*
X55242Y153124D01*
X55262Y153128D01*
X55351Y153181D01*
X55442Y153230D01*
X55456Y153244D01*
X55473Y153254D01*
X55540Y153333D01*
X55612Y153408D01*
X55620Y153426D01*
X55633Y153441D01*
X55672Y153537D01*
X55715Y153631D01*
X55717Y153651D01*
X55725Y153669D01*
X55743Y153836D01*
X55743Y154911D01*
X55729Y155002D01*
X55721Y155092D01*
X55709Y155122D01*
X55704Y155154D01*
X55661Y155235D01*
X55625Y155319D01*
X55599Y155351D01*
X55588Y155372D01*
X55565Y155394D01*
X55520Y155450D01*
X46443Y164527D01*
X46443Y164714D01*
X46441Y164726D01*
X46442Y164734D01*
X46441Y164741D01*
X46442Y164753D01*
X46420Y164855D01*
X46404Y164957D01*
X46394Y164974D01*
X46390Y164994D01*
X46337Y165083D01*
X46288Y165174D01*
X46274Y165188D01*
X46264Y165205D01*
X46185Y165272D01*
X46110Y165344D01*
X46092Y165352D01*
X46077Y165365D01*
X45981Y165404D01*
X45887Y165447D01*
X45867Y165449D01*
X45849Y165457D01*
X45682Y165475D01*
X43641Y165475D01*
X37475Y171641D01*
X37475Y180359D01*
X43641Y186525D01*
X52359Y186525D01*
X58525Y180359D01*
X58525Y171641D01*
X54495Y167611D01*
X54484Y167595D01*
X54468Y167583D01*
X54412Y167495D01*
X54352Y167411D01*
X54346Y167392D01*
X54335Y167376D01*
X54310Y167275D01*
X54279Y167176D01*
X54280Y167156D01*
X54275Y167137D01*
X54283Y167034D01*
X54286Y166930D01*
X54293Y166912D01*
X54294Y166892D01*
X54335Y166797D01*
X54370Y166699D01*
X54383Y166684D01*
X54391Y166666D01*
X54495Y166535D01*
X62857Y158173D01*
X62857Y153836D01*
X62860Y153816D01*
X62858Y153797D01*
X62880Y153695D01*
X62896Y153593D01*
X62906Y153576D01*
X62910Y153556D01*
X62963Y153467D01*
X63012Y153376D01*
X63026Y153362D01*
X63036Y153345D01*
X63115Y153278D01*
X63190Y153206D01*
X63208Y153198D01*
X63223Y153185D01*
X63319Y153146D01*
X63413Y153103D01*
X63433Y153101D01*
X63451Y153093D01*
X63618Y153075D01*
X64932Y153075D01*
X65825Y152182D01*
X65825Y139918D01*
X64932Y139025D01*
X53668Y139025D01*
G37*
%LPD*%
%LPC*%
G36*
X47318Y50125D02*
X47318Y50125D01*
X46425Y51018D01*
X46425Y63282D01*
X47318Y64175D01*
X48124Y64175D01*
X48144Y64178D01*
X48163Y64176D01*
X48265Y64198D01*
X48367Y64214D01*
X48384Y64224D01*
X48404Y64228D01*
X48493Y64281D01*
X48584Y64330D01*
X48598Y64344D01*
X48615Y64354D01*
X48682Y64433D01*
X48754Y64508D01*
X48762Y64526D01*
X48775Y64541D01*
X48814Y64637D01*
X48857Y64731D01*
X48859Y64751D01*
X48867Y64769D01*
X48885Y64936D01*
X48885Y73034D01*
X50620Y74769D01*
X50673Y74843D01*
X50733Y74912D01*
X50745Y74942D01*
X50764Y74968D01*
X50791Y75055D01*
X50825Y75140D01*
X50829Y75181D01*
X50836Y75204D01*
X50835Y75236D01*
X50843Y75307D01*
X50843Y76748D01*
X53952Y79857D01*
X58348Y79857D01*
X61457Y76748D01*
X61457Y72352D01*
X58348Y69243D01*
X57776Y69243D01*
X57756Y69240D01*
X57737Y69242D01*
X57635Y69220D01*
X57533Y69204D01*
X57516Y69194D01*
X57496Y69190D01*
X57407Y69137D01*
X57316Y69088D01*
X57302Y69074D01*
X57285Y69064D01*
X57218Y68985D01*
X57146Y68910D01*
X57138Y68892D01*
X57125Y68877D01*
X57086Y68781D01*
X57043Y68687D01*
X57041Y68667D01*
X57033Y68649D01*
X57015Y68482D01*
X57015Y64936D01*
X57018Y64916D01*
X57016Y64897D01*
X57038Y64795D01*
X57054Y64693D01*
X57064Y64676D01*
X57068Y64656D01*
X57121Y64567D01*
X57170Y64476D01*
X57184Y64462D01*
X57194Y64445D01*
X57273Y64378D01*
X57348Y64306D01*
X57366Y64298D01*
X57381Y64285D01*
X57477Y64246D01*
X57571Y64203D01*
X57591Y64201D01*
X57609Y64193D01*
X57776Y64175D01*
X58582Y64175D01*
X59475Y63282D01*
X59475Y51018D01*
X58582Y50125D01*
X47318Y50125D01*
G37*
%LPD*%
%LPC*%
G36*
X76523Y177523D02*
X76523Y177523D01*
X76523Y187541D01*
X79780Y187541D01*
X86541Y180780D01*
X86541Y177523D01*
X76523Y177523D01*
G37*
%LPD*%
%LPC*%
G36*
X63459Y177523D02*
X63459Y177523D01*
X63459Y180780D01*
X70220Y187541D01*
X73477Y187541D01*
X73477Y177523D01*
X63459Y177523D01*
G37*
%LPD*%
%LPC*%
G36*
X76523Y164459D02*
X76523Y164459D01*
X76523Y174477D01*
X86541Y174477D01*
X86541Y171220D01*
X79780Y164459D01*
X76523Y164459D01*
G37*
%LPD*%
%LPC*%
G36*
X70220Y164459D02*
X70220Y164459D01*
X63459Y171220D01*
X63459Y174477D01*
X73477Y174477D01*
X73477Y164459D01*
X70220Y164459D01*
G37*
%LPD*%
%LPC*%
G36*
X84423Y127973D02*
X84423Y127973D01*
X84423Y135491D01*
X90734Y135491D01*
X91381Y135318D01*
X91960Y134983D01*
X92433Y134510D01*
X92768Y133931D01*
X92941Y133284D01*
X92941Y127973D01*
X84423Y127973D01*
G37*
%LPD*%
%LPC*%
G36*
X108823Y127973D02*
X108823Y127973D01*
X108823Y135491D01*
X115134Y135491D01*
X115781Y135318D01*
X116360Y134983D01*
X116833Y134510D01*
X117168Y133931D01*
X117341Y133284D01*
X117341Y127973D01*
X108823Y127973D01*
G37*
%LPD*%
%LPC*%
G36*
X97259Y127973D02*
X97259Y127973D01*
X97259Y133284D01*
X97432Y133931D01*
X97767Y134510D01*
X98240Y134983D01*
X98819Y135318D01*
X99466Y135491D01*
X105777Y135491D01*
X105777Y127973D01*
X97259Y127973D01*
G37*
%LPD*%
%LPC*%
G36*
X72859Y127973D02*
X72859Y127973D01*
X72859Y133284D01*
X73032Y133931D01*
X73367Y134510D01*
X73840Y134983D01*
X74419Y135318D01*
X75066Y135491D01*
X81377Y135491D01*
X81377Y127973D01*
X72859Y127973D01*
G37*
%LPD*%
%LPC*%
G36*
X108823Y117409D02*
X108823Y117409D01*
X108823Y124927D01*
X117341Y124927D01*
X117341Y119616D01*
X117168Y118969D01*
X116833Y118390D01*
X116360Y117917D01*
X115781Y117582D01*
X115134Y117409D01*
X108823Y117409D01*
G37*
%LPD*%
%LPC*%
G36*
X84423Y117409D02*
X84423Y117409D01*
X84423Y124927D01*
X92941Y124927D01*
X92941Y119616D01*
X92768Y118969D01*
X92433Y118390D01*
X91960Y117917D01*
X91381Y117582D01*
X90734Y117409D01*
X84423Y117409D01*
G37*
%LPD*%
%LPC*%
G36*
X75066Y117409D02*
X75066Y117409D01*
X74419Y117582D01*
X73840Y117917D01*
X73367Y118390D01*
X73032Y118969D01*
X72859Y119616D01*
X72859Y124927D01*
X81377Y124927D01*
X81377Y117409D01*
X75066Y117409D01*
G37*
%LPD*%
%LPC*%
G36*
X99466Y117409D02*
X99466Y117409D01*
X98819Y117582D01*
X98240Y117917D01*
X97767Y118390D01*
X97432Y118969D01*
X97259Y119616D01*
X97259Y124927D01*
X105777Y124927D01*
X105777Y117409D01*
X99466Y117409D01*
G37*
%LPD*%
%LPC*%
G36*
X84073Y26923D02*
X84073Y26923D01*
X84073Y35561D01*
X86759Y35561D01*
X92711Y29609D01*
X92711Y26923D01*
X84073Y26923D01*
G37*
%LPD*%
%LPC*%
G36*
X72389Y26923D02*
X72389Y26923D01*
X72389Y29609D01*
X78341Y35561D01*
X81027Y35561D01*
X81027Y26923D01*
X72389Y26923D01*
G37*
%LPD*%
%LPC*%
G36*
X84073Y15239D02*
X84073Y15239D01*
X84073Y23877D01*
X92711Y23877D01*
X92711Y21191D01*
X86759Y15239D01*
X84073Y15239D01*
G37*
%LPD*%
%LPC*%
G36*
X78341Y15239D02*
X78341Y15239D01*
X72389Y21191D01*
X72389Y23877D01*
X81027Y23877D01*
X81027Y15239D01*
X78341Y15239D01*
G37*
%LPD*%
%LPC*%
G36*
X26923Y139073D02*
X26923Y139073D01*
X26923Y145091D01*
X31234Y145091D01*
X31881Y144918D01*
X32460Y144583D01*
X32933Y144110D01*
X33268Y143531D01*
X33441Y142884D01*
X33441Y139073D01*
X26923Y139073D01*
G37*
%LPD*%
%LPC*%
G36*
X17359Y139073D02*
X17359Y139073D01*
X17359Y142884D01*
X17532Y143531D01*
X17867Y144110D01*
X18340Y144583D01*
X18919Y144918D01*
X19566Y145091D01*
X23877Y145091D01*
X23877Y139073D01*
X17359Y139073D01*
G37*
%LPD*%
%LPC*%
G36*
X26923Y130009D02*
X26923Y130009D01*
X26923Y136027D01*
X33441Y136027D01*
X33441Y132216D01*
X33268Y131569D01*
X32933Y130990D01*
X32460Y130517D01*
X31881Y130182D01*
X31234Y130009D01*
X26923Y130009D01*
G37*
%LPD*%
%LPC*%
G36*
X19566Y130009D02*
X19566Y130009D01*
X18919Y130182D01*
X18340Y130517D01*
X17867Y130990D01*
X17532Y131569D01*
X17359Y132216D01*
X17359Y136027D01*
X23877Y136027D01*
X23877Y130009D01*
X19566Y130009D01*
G37*
%LPD*%
%LPC*%
G36*
X58800Y118744D02*
X58800Y118744D01*
X58800Y122683D01*
X64088Y122683D01*
X64735Y122510D01*
X65314Y122175D01*
X65787Y121702D01*
X66122Y121123D01*
X66295Y120476D01*
X66295Y118744D01*
X58800Y118744D01*
G37*
%LPD*%
%LPC*%
G36*
X48513Y118744D02*
X48513Y118744D01*
X48513Y120476D01*
X48686Y121123D01*
X49021Y121702D01*
X49494Y122175D01*
X50073Y122510D01*
X50720Y122683D01*
X56008Y122683D01*
X56008Y118744D01*
X48513Y118744D01*
G37*
%LPD*%
%LPC*%
G36*
X82549Y25399D02*
X82549Y25399D01*
X82549Y25401D01*
X82551Y25401D01*
X82551Y25399D01*
X82549Y25399D01*
G37*
%LPD*%
%LPC*%
G36*
X74999Y175999D02*
X74999Y175999D01*
X74999Y176001D01*
X75001Y176001D01*
X75001Y175999D01*
X74999Y175999D01*
G37*
%LPD*%
%LPC*%
G36*
X82899Y126449D02*
X82899Y126449D01*
X82899Y126451D01*
X82901Y126451D01*
X82901Y126449D01*
X82899Y126449D01*
G37*
%LPD*%
%LPC*%
G36*
X107299Y126449D02*
X107299Y126449D01*
X107299Y126451D01*
X107301Y126451D01*
X107301Y126449D01*
X107299Y126449D01*
G37*
%LPD*%
%LPC*%
G36*
X25399Y137549D02*
X25399Y137549D01*
X25399Y137551D01*
X25401Y137551D01*
X25401Y137549D01*
X25399Y137549D01*
G37*
%LPD*%
D10*
X0Y0D02*
X150000Y0D01*
X150000Y200000D01*
X0Y200000D01*
X0Y0D01*
D11*
X-6000Y0D02*
X-56500Y0D01*
X-56500Y200000D02*
X-6000Y200000D01*
X-37000Y199350D02*
X-37000Y650D01*
X-40192Y26000D01*
X-33808Y26000D01*
X-37000Y650D01*
X-38300Y26000D01*
X-35700Y26000D02*
X-37000Y650D01*
X-39600Y26000D01*
X-34400Y26000D02*
X-37000Y650D01*
X-40192Y174000D02*
X-37000Y199350D01*
X-40192Y174000D02*
X-33808Y174000D01*
X-37000Y199350D01*
X-38300Y174000D01*
X-35700Y174000D02*
X-37000Y199350D01*
X-39600Y174000D01*
X-34400Y174000D02*
X-37000Y199350D01*
D12*
X-50746Y84238D02*
X-50853Y84236D01*
X-50959Y84230D01*
X-51065Y84220D01*
X-51171Y84207D01*
X-51277Y84189D01*
X-51381Y84168D01*
X-51485Y84143D01*
X-51588Y84114D01*
X-51689Y84082D01*
X-51789Y84045D01*
X-51888Y84005D01*
X-51986Y83962D01*
X-52082Y83915D01*
X-52176Y83864D01*
X-52268Y83810D01*
X-52358Y83753D01*
X-52446Y83693D01*
X-52531Y83629D01*
X-52614Y83562D01*
X-52695Y83492D01*
X-52773Y83420D01*
X-52849Y83344D01*
X-52921Y83266D01*
X-52991Y83185D01*
X-53058Y83102D01*
X-53122Y83017D01*
X-53182Y82929D01*
X-53239Y82839D01*
X-53293Y82747D01*
X-53344Y82653D01*
X-53391Y82557D01*
X-53434Y82459D01*
X-53474Y82360D01*
X-53511Y82260D01*
X-53543Y82159D01*
X-53572Y82056D01*
X-53597Y81952D01*
X-53618Y81848D01*
X-53636Y81742D01*
X-53649Y81636D01*
X-53659Y81530D01*
X-53665Y81424D01*
X-53667Y81317D01*
X-53665Y81196D01*
X-53659Y81075D01*
X-53649Y80955D01*
X-53636Y80834D01*
X-53618Y80715D01*
X-53597Y80595D01*
X-53572Y80477D01*
X-53543Y80360D01*
X-53510Y80243D01*
X-53474Y80128D01*
X-53433Y80014D01*
X-53390Y79901D01*
X-53342Y79789D01*
X-53291Y79680D01*
X-53236Y79572D01*
X-53178Y79465D01*
X-53117Y79361D01*
X-53052Y79259D01*
X-52984Y79159D01*
X-52913Y79061D01*
X-52839Y78965D01*
X-52762Y78872D01*
X-52681Y78782D01*
X-52598Y78694D01*
X-52512Y78609D01*
X-52423Y78526D01*
X-52332Y78447D01*
X-52238Y78370D01*
X-52142Y78297D01*
X-52044Y78227D01*
X-51943Y78160D01*
X-51840Y78096D01*
X-51735Y78036D01*
X-51628Y77979D01*
X-51520Y77925D01*
X-51410Y77875D01*
X-51298Y77829D01*
X-51185Y77786D01*
X-51070Y77747D01*
X-48474Y83265D02*
X-48551Y83344D01*
X-48632Y83420D01*
X-48715Y83493D01*
X-48800Y83563D01*
X-48888Y83630D01*
X-48978Y83694D01*
X-49070Y83754D01*
X-49165Y83811D01*
X-49261Y83865D01*
X-49359Y83916D01*
X-49459Y83963D01*
X-49561Y84007D01*
X-49664Y84047D01*
X-49768Y84083D01*
X-49874Y84115D01*
X-49980Y84144D01*
X-50088Y84169D01*
X-50196Y84191D01*
X-50306Y84208D01*
X-50415Y84222D01*
X-50525Y84231D01*
X-50636Y84237D01*
X-50746Y84239D01*
X-48474Y83264D02*
X-41983Y77747D01*
X-41983Y84238D01*
X-47825Y89177D02*
X-48055Y89180D01*
X-48285Y89188D01*
X-48514Y89202D01*
X-48743Y89221D01*
X-48972Y89246D01*
X-49199Y89276D01*
X-49427Y89311D01*
X-49653Y89352D01*
X-49878Y89398D01*
X-50102Y89450D01*
X-50324Y89507D01*
X-50546Y89569D01*
X-50765Y89637D01*
X-50983Y89710D01*
X-51200Y89788D01*
X-51414Y89871D01*
X-51626Y89959D01*
X-51836Y90052D01*
X-52044Y90151D01*
X-52134Y90184D01*
X-52223Y90220D01*
X-52311Y90260D01*
X-52396Y90304D01*
X-52480Y90351D01*
X-52562Y90401D01*
X-52642Y90455D01*
X-52719Y90511D01*
X-52795Y90571D01*
X-52868Y90634D01*
X-52938Y90699D01*
X-53006Y90768D01*
X-53070Y90839D01*
X-53132Y90912D01*
X-53191Y90988D01*
X-53247Y91066D01*
X-53300Y91147D01*
X-53349Y91229D01*
X-53395Y91313D01*
X-53438Y91400D01*
X-53477Y91487D01*
X-53513Y91577D01*
X-53545Y91667D01*
X-53573Y91759D01*
X-53598Y91852D01*
X-53619Y91946D01*
X-53636Y92040D01*
X-53650Y92135D01*
X-53659Y92231D01*
X-53665Y92327D01*
X-53667Y92423D01*
X-53665Y92519D01*
X-53659Y92615D01*
X-53650Y92711D01*
X-53636Y92806D01*
X-53619Y92900D01*
X-53598Y92994D01*
X-53573Y93087D01*
X-53545Y93179D01*
X-53513Y93269D01*
X-53477Y93359D01*
X-53438Y93446D01*
X-53395Y93533D01*
X-53349Y93617D01*
X-53300Y93699D01*
X-53247Y93780D01*
X-53191Y93858D01*
X-53132Y93934D01*
X-53070Y94007D01*
X-53006Y94078D01*
X-52938Y94147D01*
X-52868Y94212D01*
X-52795Y94275D01*
X-52719Y94335D01*
X-52642Y94391D01*
X-52562Y94445D01*
X-52480Y94495D01*
X-52396Y94542D01*
X-52311Y94586D01*
X-52223Y94626D01*
X-52134Y94662D01*
X-52044Y94695D01*
X-51837Y94794D01*
X-51627Y94887D01*
X-51414Y94975D01*
X-51200Y95058D01*
X-50984Y95136D01*
X-50766Y95209D01*
X-50546Y95277D01*
X-50325Y95339D01*
X-50102Y95396D01*
X-49878Y95448D01*
X-49653Y95494D01*
X-49427Y95535D01*
X-49200Y95570D01*
X-48972Y95600D01*
X-48743Y95625D01*
X-48514Y95644D01*
X-48285Y95658D01*
X-48055Y95666D01*
X-47825Y95669D01*
X-47825Y89177D02*
X-47595Y89180D01*
X-47365Y89188D01*
X-47136Y89202D01*
X-46907Y89221D01*
X-46678Y89246D01*
X-46450Y89276D01*
X-46223Y89311D01*
X-45997Y89352D01*
X-45772Y89398D01*
X-45548Y89450D01*
X-45325Y89507D01*
X-45104Y89569D01*
X-44884Y89637D01*
X-44666Y89710D01*
X-44450Y89788D01*
X-44236Y89871D01*
X-44024Y89959D01*
X-43813Y90052D01*
X-43606Y90151D01*
X-43516Y90184D01*
X-43427Y90220D01*
X-43339Y90261D01*
X-43254Y90304D01*
X-43170Y90351D01*
X-43088Y90401D01*
X-43008Y90455D01*
X-42931Y90511D01*
X-42855Y90571D01*
X-42782Y90634D01*
X-42712Y90699D01*
X-42644Y90768D01*
X-42580Y90839D01*
X-42518Y90912D01*
X-42459Y90988D01*
X-42403Y91066D01*
X-42350Y91147D01*
X-42301Y91229D01*
X-42255Y91313D01*
X-42212Y91400D01*
X-42173Y91487D01*
X-42137Y91577D01*
X-42105Y91667D01*
X-42077Y91759D01*
X-42052Y91852D01*
X-42031Y91946D01*
X-42014Y92040D01*
X-42000Y92135D01*
X-41991Y92231D01*
X-41985Y92327D01*
X-41983Y92423D01*
X-43606Y94694D02*
X-43813Y94793D01*
X-44024Y94886D01*
X-44236Y94974D01*
X-44450Y95057D01*
X-44666Y95135D01*
X-44884Y95208D01*
X-45104Y95276D01*
X-45325Y95338D01*
X-45548Y95395D01*
X-45772Y95447D01*
X-45997Y95493D01*
X-46223Y95534D01*
X-46450Y95569D01*
X-46678Y95599D01*
X-46907Y95624D01*
X-47136Y95643D01*
X-47365Y95657D01*
X-47595Y95665D01*
X-47825Y95668D01*
X-43606Y94695D02*
X-43516Y94662D01*
X-43427Y94626D01*
X-43339Y94586D01*
X-43254Y94542D01*
X-43170Y94495D01*
X-43088Y94445D01*
X-43008Y94391D01*
X-42931Y94335D01*
X-42855Y94275D01*
X-42782Y94212D01*
X-42712Y94147D01*
X-42644Y94078D01*
X-42580Y94007D01*
X-42518Y93934D01*
X-42459Y93858D01*
X-42403Y93780D01*
X-42350Y93699D01*
X-42301Y93617D01*
X-42255Y93533D01*
X-42212Y93446D01*
X-42173Y93359D01*
X-42137Y93269D01*
X-42105Y93179D01*
X-42077Y93087D01*
X-42052Y92994D01*
X-42031Y92900D01*
X-42014Y92806D01*
X-42000Y92711D01*
X-41991Y92615D01*
X-41985Y92519D01*
X-41983Y92423D01*
X-44579Y89826D02*
X-51071Y95019D01*
X-42632Y100099D02*
X-41983Y100099D01*
X-42632Y100099D02*
X-42632Y100748D01*
X-41983Y100748D01*
X-41983Y100099D01*
X-47825Y105179D02*
X-48055Y105182D01*
X-48285Y105190D01*
X-48514Y105204D01*
X-48743Y105223D01*
X-48972Y105248D01*
X-49199Y105278D01*
X-49427Y105313D01*
X-49653Y105354D01*
X-49878Y105400D01*
X-50102Y105452D01*
X-50324Y105509D01*
X-50546Y105571D01*
X-50765Y105639D01*
X-50983Y105712D01*
X-51200Y105790D01*
X-51414Y105873D01*
X-51626Y105961D01*
X-51836Y106054D01*
X-52044Y106153D01*
X-52044Y106152D02*
X-52134Y106185D01*
X-52223Y106221D01*
X-52311Y106261D01*
X-52396Y106305D01*
X-52480Y106352D01*
X-52562Y106402D01*
X-52642Y106456D01*
X-52719Y106512D01*
X-52795Y106572D01*
X-52868Y106635D01*
X-52938Y106700D01*
X-53006Y106769D01*
X-53070Y106840D01*
X-53132Y106913D01*
X-53191Y106989D01*
X-53247Y107067D01*
X-53300Y107148D01*
X-53349Y107230D01*
X-53395Y107314D01*
X-53438Y107401D01*
X-53477Y107488D01*
X-53513Y107578D01*
X-53545Y107668D01*
X-53573Y107760D01*
X-53598Y107853D01*
X-53619Y107947D01*
X-53636Y108041D01*
X-53650Y108136D01*
X-53659Y108232D01*
X-53665Y108328D01*
X-53667Y108424D01*
X-53665Y108520D01*
X-53659Y108616D01*
X-53650Y108712D01*
X-53636Y108807D01*
X-53619Y108901D01*
X-53598Y108995D01*
X-53573Y109088D01*
X-53545Y109180D01*
X-53513Y109270D01*
X-53477Y109360D01*
X-53438Y109447D01*
X-53395Y109534D01*
X-53349Y109618D01*
X-53300Y109700D01*
X-53247Y109781D01*
X-53191Y109859D01*
X-53132Y109935D01*
X-53070Y110008D01*
X-53006Y110079D01*
X-52938Y110148D01*
X-52868Y110213D01*
X-52795Y110276D01*
X-52719Y110336D01*
X-52642Y110392D01*
X-52562Y110446D01*
X-52480Y110496D01*
X-52396Y110543D01*
X-52311Y110587D01*
X-52223Y110627D01*
X-52134Y110663D01*
X-52044Y110696D01*
X-52044Y110697D02*
X-51837Y110796D01*
X-51627Y110889D01*
X-51414Y110977D01*
X-51200Y111060D01*
X-50984Y111138D01*
X-50766Y111211D01*
X-50546Y111279D01*
X-50325Y111341D01*
X-50102Y111398D01*
X-49878Y111450D01*
X-49653Y111496D01*
X-49427Y111537D01*
X-49200Y111572D01*
X-48972Y111602D01*
X-48743Y111627D01*
X-48514Y111646D01*
X-48285Y111660D01*
X-48055Y111668D01*
X-47825Y111671D01*
X-47825Y105179D02*
X-47595Y105182D01*
X-47365Y105190D01*
X-47136Y105204D01*
X-46907Y105223D01*
X-46678Y105248D01*
X-46450Y105278D01*
X-46223Y105313D01*
X-45997Y105354D01*
X-45772Y105400D01*
X-45548Y105452D01*
X-45325Y105509D01*
X-45104Y105571D01*
X-44884Y105639D01*
X-44666Y105712D01*
X-44450Y105790D01*
X-44236Y105873D01*
X-44024Y105961D01*
X-43813Y106054D01*
X-43606Y106153D01*
X-43606Y106152D02*
X-43516Y106185D01*
X-43427Y106221D01*
X-43339Y106262D01*
X-43254Y106305D01*
X-43170Y106352D01*
X-43088Y106402D01*
X-43008Y106456D01*
X-42931Y106512D01*
X-42855Y106572D01*
X-42782Y106635D01*
X-42712Y106700D01*
X-42644Y106769D01*
X-42580Y106840D01*
X-42518Y106913D01*
X-42459Y106989D01*
X-42403Y107067D01*
X-42350Y107148D01*
X-42301Y107230D01*
X-42255Y107314D01*
X-42212Y107401D01*
X-42173Y107488D01*
X-42137Y107578D01*
X-42105Y107668D01*
X-42077Y107760D01*
X-42052Y107853D01*
X-42031Y107947D01*
X-42014Y108041D01*
X-42000Y108136D01*
X-41991Y108232D01*
X-41985Y108328D01*
X-41983Y108424D01*
X-43606Y110696D02*
X-43813Y110795D01*
X-44024Y110888D01*
X-44236Y110976D01*
X-44450Y111059D01*
X-44666Y111137D01*
X-44884Y111210D01*
X-45104Y111278D01*
X-45325Y111340D01*
X-45548Y111397D01*
X-45772Y111449D01*
X-45997Y111495D01*
X-46223Y111536D01*
X-46450Y111571D01*
X-46678Y111601D01*
X-46907Y111626D01*
X-47136Y111645D01*
X-47365Y111659D01*
X-47595Y111667D01*
X-47825Y111670D01*
X-43606Y110696D02*
X-43516Y110663D01*
X-43427Y110627D01*
X-43339Y110587D01*
X-43254Y110543D01*
X-43170Y110496D01*
X-43088Y110446D01*
X-43008Y110392D01*
X-42931Y110336D01*
X-42855Y110276D01*
X-42782Y110213D01*
X-42712Y110148D01*
X-42644Y110079D01*
X-42580Y110008D01*
X-42518Y109935D01*
X-42459Y109859D01*
X-42403Y109781D01*
X-42350Y109700D01*
X-42301Y109618D01*
X-42255Y109534D01*
X-42212Y109447D01*
X-42173Y109360D01*
X-42137Y109270D01*
X-42105Y109180D01*
X-42077Y109088D01*
X-42052Y108995D01*
X-42031Y108901D01*
X-42014Y108807D01*
X-42000Y108712D01*
X-41991Y108616D01*
X-41985Y108520D01*
X-41983Y108424D01*
X-44579Y105828D02*
X-51071Y111021D01*
X-47825Y116609D02*
X-48055Y116612D01*
X-48285Y116620D01*
X-48514Y116634D01*
X-48743Y116653D01*
X-48972Y116678D01*
X-49199Y116708D01*
X-49427Y116743D01*
X-49653Y116784D01*
X-49878Y116830D01*
X-50102Y116882D01*
X-50324Y116939D01*
X-50546Y117001D01*
X-50765Y117069D01*
X-50983Y117142D01*
X-51200Y117220D01*
X-51414Y117303D01*
X-51626Y117391D01*
X-51836Y117484D01*
X-52044Y117583D01*
X-52044Y117582D02*
X-52134Y117615D01*
X-52223Y117651D01*
X-52311Y117691D01*
X-52396Y117735D01*
X-52480Y117782D01*
X-52562Y117832D01*
X-52642Y117886D01*
X-52719Y117942D01*
X-52795Y118002D01*
X-52868Y118065D01*
X-52938Y118130D01*
X-53006Y118199D01*
X-53070Y118270D01*
X-53132Y118343D01*
X-53191Y118419D01*
X-53247Y118497D01*
X-53300Y118578D01*
X-53349Y118660D01*
X-53395Y118744D01*
X-53438Y118831D01*
X-53477Y118918D01*
X-53513Y119008D01*
X-53545Y119098D01*
X-53573Y119190D01*
X-53598Y119283D01*
X-53619Y119377D01*
X-53636Y119471D01*
X-53650Y119566D01*
X-53659Y119662D01*
X-53665Y119758D01*
X-53667Y119854D01*
X-53665Y119950D01*
X-53659Y120046D01*
X-53650Y120142D01*
X-53636Y120237D01*
X-53619Y120331D01*
X-53598Y120425D01*
X-53573Y120518D01*
X-53545Y120610D01*
X-53513Y120700D01*
X-53477Y120790D01*
X-53438Y120877D01*
X-53395Y120964D01*
X-53349Y121048D01*
X-53300Y121130D01*
X-53247Y121211D01*
X-53191Y121289D01*
X-53132Y121365D01*
X-53070Y121438D01*
X-53006Y121509D01*
X-52938Y121578D01*
X-52868Y121643D01*
X-52795Y121706D01*
X-52719Y121766D01*
X-52642Y121822D01*
X-52562Y121876D01*
X-52480Y121926D01*
X-52396Y121973D01*
X-52311Y122017D01*
X-52223Y122057D01*
X-52134Y122093D01*
X-52044Y122126D01*
X-52044Y122127D02*
X-51837Y122226D01*
X-51627Y122319D01*
X-51414Y122407D01*
X-51200Y122490D01*
X-50984Y122568D01*
X-50766Y122641D01*
X-50546Y122709D01*
X-50325Y122771D01*
X-50102Y122828D01*
X-49878Y122880D01*
X-49653Y122926D01*
X-49427Y122967D01*
X-49200Y123002D01*
X-48972Y123032D01*
X-48743Y123057D01*
X-48514Y123076D01*
X-48285Y123090D01*
X-48055Y123098D01*
X-47825Y123101D01*
X-47825Y116609D02*
X-47595Y116612D01*
X-47365Y116620D01*
X-47136Y116634D01*
X-46907Y116653D01*
X-46678Y116678D01*
X-46450Y116708D01*
X-46223Y116743D01*
X-45997Y116784D01*
X-45772Y116830D01*
X-45548Y116882D01*
X-45325Y116939D01*
X-45104Y117001D01*
X-44884Y117069D01*
X-44666Y117142D01*
X-44450Y117220D01*
X-44236Y117303D01*
X-44024Y117391D01*
X-43813Y117484D01*
X-43606Y117583D01*
X-43606Y117582D02*
X-43516Y117615D01*
X-43427Y117651D01*
X-43339Y117692D01*
X-43254Y117735D01*
X-43170Y117782D01*
X-43088Y117832D01*
X-43008Y117886D01*
X-42931Y117942D01*
X-42855Y118002D01*
X-42782Y118065D01*
X-42712Y118130D01*
X-42644Y118199D01*
X-42580Y118270D01*
X-42518Y118343D01*
X-42459Y118419D01*
X-42403Y118497D01*
X-42350Y118578D01*
X-42301Y118660D01*
X-42255Y118744D01*
X-42212Y118831D01*
X-42173Y118918D01*
X-42137Y119008D01*
X-42105Y119098D01*
X-42077Y119190D01*
X-42052Y119283D01*
X-42031Y119377D01*
X-42014Y119471D01*
X-42000Y119566D01*
X-41991Y119662D01*
X-41985Y119758D01*
X-41983Y119854D01*
X-43606Y122126D02*
X-43813Y122225D01*
X-44024Y122318D01*
X-44236Y122406D01*
X-44450Y122489D01*
X-44666Y122567D01*
X-44884Y122640D01*
X-45104Y122708D01*
X-45325Y122770D01*
X-45548Y122827D01*
X-45772Y122879D01*
X-45997Y122925D01*
X-46223Y122966D01*
X-46450Y123001D01*
X-46678Y123031D01*
X-46907Y123056D01*
X-47136Y123075D01*
X-47365Y123089D01*
X-47595Y123097D01*
X-47825Y123100D01*
X-43606Y122126D02*
X-43516Y122093D01*
X-43427Y122057D01*
X-43339Y122017D01*
X-43254Y121973D01*
X-43170Y121926D01*
X-43088Y121876D01*
X-43008Y121822D01*
X-42931Y121766D01*
X-42855Y121706D01*
X-42782Y121643D01*
X-42712Y121578D01*
X-42644Y121509D01*
X-42580Y121438D01*
X-42518Y121365D01*
X-42459Y121289D01*
X-42403Y121211D01*
X-42350Y121130D01*
X-42301Y121048D01*
X-42255Y120964D01*
X-42212Y120877D01*
X-42173Y120790D01*
X-42137Y120700D01*
X-42105Y120610D01*
X-42077Y120518D01*
X-42052Y120425D01*
X-42031Y120331D01*
X-42014Y120237D01*
X-42000Y120142D01*
X-41991Y120046D01*
X-41985Y119950D01*
X-41983Y119854D01*
X-44579Y117258D02*
X-51071Y122451D01*
D11*
X0Y-5000D02*
X0Y-62500D01*
X150000Y-62500D02*
X150000Y-5000D01*
X149350Y-43000D02*
X650Y-43000D01*
X26000Y-39808D01*
X26000Y-46192D01*
X650Y-43000D01*
X26000Y-41700D01*
X26000Y-44300D02*
X650Y-43000D01*
X26000Y-40400D01*
X26000Y-45600D02*
X650Y-43000D01*
X124000Y-39808D02*
X149350Y-43000D01*
X124000Y-39808D02*
X124000Y-46192D01*
X149350Y-43000D01*
X124000Y-41700D01*
X124000Y-44300D02*
X149350Y-43000D01*
X124000Y-40400D01*
X124000Y-45600D02*
X149350Y-43000D01*
D12*
X55993Y-26333D02*
X52747Y-28929D01*
X55993Y-26333D02*
X55993Y-38017D01*
X59238Y-38017D02*
X52747Y-38017D01*
X64177Y-38017D02*
X68072Y-38017D01*
X68171Y-38015D01*
X68271Y-38009D01*
X68370Y-38000D01*
X68468Y-37987D01*
X68566Y-37970D01*
X68664Y-37949D01*
X68760Y-37924D01*
X68855Y-37896D01*
X68949Y-37864D01*
X69042Y-37829D01*
X69134Y-37790D01*
X69224Y-37747D01*
X69312Y-37702D01*
X69399Y-37652D01*
X69483Y-37600D01*
X69566Y-37544D01*
X69646Y-37486D01*
X69724Y-37424D01*
X69799Y-37359D01*
X69872Y-37291D01*
X69942Y-37221D01*
X70010Y-37148D01*
X70075Y-37073D01*
X70137Y-36995D01*
X70195Y-36915D01*
X70251Y-36832D01*
X70303Y-36748D01*
X70353Y-36661D01*
X70398Y-36573D01*
X70441Y-36483D01*
X70480Y-36391D01*
X70515Y-36298D01*
X70547Y-36204D01*
X70575Y-36109D01*
X70600Y-36013D01*
X70621Y-35915D01*
X70638Y-35817D01*
X70651Y-35719D01*
X70660Y-35620D01*
X70666Y-35520D01*
X70668Y-35421D01*
X70668Y-34122D01*
X70666Y-34023D01*
X70660Y-33923D01*
X70651Y-33824D01*
X70638Y-33726D01*
X70621Y-33628D01*
X70600Y-33530D01*
X70575Y-33434D01*
X70547Y-33339D01*
X70515Y-33245D01*
X70480Y-33152D01*
X70441Y-33060D01*
X70398Y-32970D01*
X70353Y-32882D01*
X70303Y-32795D01*
X70251Y-32711D01*
X70195Y-32628D01*
X70137Y-32548D01*
X70075Y-32470D01*
X70010Y-32395D01*
X69942Y-32322D01*
X69872Y-32252D01*
X69799Y-32184D01*
X69724Y-32119D01*
X69646Y-32057D01*
X69566Y-31999D01*
X69483Y-31943D01*
X69399Y-31891D01*
X69312Y-31841D01*
X69224Y-31796D01*
X69134Y-31753D01*
X69042Y-31714D01*
X68949Y-31679D01*
X68855Y-31647D01*
X68760Y-31619D01*
X68664Y-31594D01*
X68566Y-31573D01*
X68468Y-31556D01*
X68370Y-31543D01*
X68271Y-31534D01*
X68171Y-31528D01*
X68072Y-31526D01*
X64177Y-31526D01*
X64177Y-26333D01*
X70668Y-26333D01*
X75099Y-37368D02*
X75099Y-38017D01*
X75099Y-37368D02*
X75748Y-37368D01*
X75748Y-38017D01*
X75099Y-38017D01*
X80179Y-32175D02*
X80182Y-31945D01*
X80190Y-31715D01*
X80204Y-31486D01*
X80223Y-31257D01*
X80248Y-31028D01*
X80278Y-30800D01*
X80313Y-30573D01*
X80354Y-30347D01*
X80400Y-30122D01*
X80452Y-29898D01*
X80509Y-29675D01*
X80571Y-29454D01*
X80639Y-29234D01*
X80712Y-29016D01*
X80790Y-28800D01*
X80873Y-28586D01*
X80961Y-28374D01*
X81054Y-28163D01*
X81153Y-27956D01*
X81152Y-27956D02*
X81185Y-27866D01*
X81221Y-27777D01*
X81261Y-27689D01*
X81305Y-27604D01*
X81352Y-27520D01*
X81402Y-27438D01*
X81456Y-27358D01*
X81512Y-27281D01*
X81572Y-27205D01*
X81635Y-27132D01*
X81700Y-27062D01*
X81769Y-26994D01*
X81840Y-26930D01*
X81913Y-26868D01*
X81989Y-26809D01*
X82067Y-26753D01*
X82148Y-26700D01*
X82230Y-26651D01*
X82314Y-26605D01*
X82401Y-26562D01*
X82488Y-26523D01*
X82578Y-26487D01*
X82668Y-26455D01*
X82760Y-26427D01*
X82853Y-26402D01*
X82947Y-26381D01*
X83041Y-26364D01*
X83136Y-26350D01*
X83232Y-26341D01*
X83328Y-26335D01*
X83424Y-26333D01*
X83520Y-26335D01*
X83616Y-26341D01*
X83712Y-26350D01*
X83807Y-26364D01*
X83901Y-26381D01*
X83995Y-26402D01*
X84088Y-26427D01*
X84180Y-26455D01*
X84270Y-26487D01*
X84360Y-26523D01*
X84448Y-26562D01*
X84534Y-26605D01*
X84618Y-26651D01*
X84700Y-26700D01*
X84781Y-26753D01*
X84859Y-26809D01*
X84935Y-26868D01*
X85008Y-26930D01*
X85079Y-26994D01*
X85148Y-27062D01*
X85213Y-27132D01*
X85276Y-27205D01*
X85336Y-27281D01*
X85392Y-27358D01*
X85446Y-27438D01*
X85496Y-27520D01*
X85543Y-27604D01*
X85587Y-27689D01*
X85627Y-27777D01*
X85663Y-27866D01*
X85696Y-27956D01*
X85795Y-28163D01*
X85888Y-28374D01*
X85976Y-28586D01*
X86059Y-28800D01*
X86137Y-29016D01*
X86210Y-29234D01*
X86278Y-29454D01*
X86340Y-29675D01*
X86397Y-29898D01*
X86449Y-30122D01*
X86495Y-30347D01*
X86536Y-30573D01*
X86571Y-30800D01*
X86601Y-31028D01*
X86626Y-31257D01*
X86645Y-31486D01*
X86659Y-31715D01*
X86667Y-31945D01*
X86670Y-32175D01*
X80179Y-32175D02*
X80182Y-32405D01*
X80190Y-32635D01*
X80204Y-32864D01*
X80223Y-33093D01*
X80248Y-33322D01*
X80278Y-33550D01*
X80313Y-33777D01*
X80354Y-34003D01*
X80400Y-34228D01*
X80452Y-34452D01*
X80509Y-34675D01*
X80571Y-34896D01*
X80639Y-35116D01*
X80712Y-35334D01*
X80790Y-35550D01*
X80873Y-35764D01*
X80961Y-35976D01*
X81054Y-36187D01*
X81153Y-36394D01*
X81152Y-36394D02*
X81185Y-36484D01*
X81221Y-36573D01*
X81262Y-36661D01*
X81305Y-36746D01*
X81352Y-36830D01*
X81402Y-36912D01*
X81456Y-36992D01*
X81512Y-37069D01*
X81572Y-37145D01*
X81635Y-37218D01*
X81700Y-37288D01*
X81769Y-37356D01*
X81840Y-37420D01*
X81913Y-37482D01*
X81989Y-37541D01*
X82067Y-37597D01*
X82148Y-37650D01*
X82230Y-37699D01*
X82314Y-37745D01*
X82401Y-37788D01*
X82488Y-37827D01*
X82578Y-37863D01*
X82668Y-37895D01*
X82760Y-37923D01*
X82853Y-37948D01*
X82947Y-37969D01*
X83041Y-37986D01*
X83136Y-38000D01*
X83232Y-38009D01*
X83328Y-38015D01*
X83424Y-38017D01*
X85696Y-36394D02*
X85795Y-36187D01*
X85888Y-35976D01*
X85976Y-35764D01*
X86059Y-35550D01*
X86137Y-35334D01*
X86210Y-35116D01*
X86278Y-34896D01*
X86340Y-34675D01*
X86397Y-34452D01*
X86449Y-34228D01*
X86495Y-34003D01*
X86536Y-33777D01*
X86571Y-33550D01*
X86601Y-33322D01*
X86626Y-33093D01*
X86645Y-32864D01*
X86659Y-32635D01*
X86667Y-32405D01*
X86670Y-32175D01*
X85696Y-36394D02*
X85663Y-36484D01*
X85627Y-36573D01*
X85587Y-36661D01*
X85543Y-36746D01*
X85496Y-36830D01*
X85446Y-36912D01*
X85392Y-36992D01*
X85336Y-37069D01*
X85276Y-37145D01*
X85213Y-37218D01*
X85148Y-37288D01*
X85079Y-37356D01*
X85008Y-37420D01*
X84935Y-37482D01*
X84859Y-37541D01*
X84781Y-37597D01*
X84700Y-37650D01*
X84618Y-37699D01*
X84534Y-37745D01*
X84447Y-37788D01*
X84360Y-37827D01*
X84270Y-37863D01*
X84180Y-37895D01*
X84088Y-37923D01*
X83995Y-37948D01*
X83901Y-37969D01*
X83807Y-37986D01*
X83712Y-38000D01*
X83616Y-38009D01*
X83520Y-38015D01*
X83424Y-38017D01*
X80828Y-35421D02*
X86021Y-28929D01*
X91609Y-32175D02*
X91612Y-31945D01*
X91620Y-31715D01*
X91634Y-31486D01*
X91653Y-31257D01*
X91678Y-31028D01*
X91708Y-30800D01*
X91743Y-30573D01*
X91784Y-30347D01*
X91830Y-30122D01*
X91882Y-29898D01*
X91939Y-29675D01*
X92001Y-29454D01*
X92069Y-29234D01*
X92142Y-29016D01*
X92220Y-28800D01*
X92303Y-28586D01*
X92391Y-28374D01*
X92484Y-28163D01*
X92583Y-27956D01*
X92582Y-27956D02*
X92615Y-27866D01*
X92651Y-27777D01*
X92691Y-27689D01*
X92735Y-27604D01*
X92782Y-27520D01*
X92832Y-27438D01*
X92886Y-27358D01*
X92942Y-27281D01*
X93002Y-27205D01*
X93065Y-27132D01*
X93130Y-27062D01*
X93199Y-26994D01*
X93270Y-26930D01*
X93343Y-26868D01*
X93419Y-26809D01*
X93497Y-26753D01*
X93578Y-26700D01*
X93660Y-26651D01*
X93744Y-26605D01*
X93831Y-26562D01*
X93918Y-26523D01*
X94008Y-26487D01*
X94098Y-26455D01*
X94190Y-26427D01*
X94283Y-26402D01*
X94377Y-26381D01*
X94471Y-26364D01*
X94566Y-26350D01*
X94662Y-26341D01*
X94758Y-26335D01*
X94854Y-26333D01*
X94950Y-26335D01*
X95046Y-26341D01*
X95142Y-26350D01*
X95237Y-26364D01*
X95331Y-26381D01*
X95425Y-26402D01*
X95518Y-26427D01*
X95610Y-26455D01*
X95700Y-26487D01*
X95790Y-26523D01*
X95878Y-26562D01*
X95964Y-26605D01*
X96048Y-26651D01*
X96130Y-26700D01*
X96211Y-26753D01*
X96289Y-26809D01*
X96365Y-26868D01*
X96438Y-26930D01*
X96509Y-26994D01*
X96578Y-27062D01*
X96643Y-27132D01*
X96706Y-27205D01*
X96766Y-27281D01*
X96822Y-27358D01*
X96876Y-27438D01*
X96926Y-27520D01*
X96973Y-27604D01*
X97017Y-27689D01*
X97057Y-27777D01*
X97093Y-27866D01*
X97126Y-27956D01*
X97225Y-28163D01*
X97318Y-28374D01*
X97406Y-28586D01*
X97489Y-28800D01*
X97567Y-29016D01*
X97640Y-29234D01*
X97708Y-29454D01*
X97770Y-29675D01*
X97827Y-29898D01*
X97879Y-30122D01*
X97925Y-30347D01*
X97966Y-30573D01*
X98001Y-30800D01*
X98031Y-31028D01*
X98056Y-31257D01*
X98075Y-31486D01*
X98089Y-31715D01*
X98097Y-31945D01*
X98100Y-32175D01*
X91609Y-32175D02*
X91612Y-32405D01*
X91620Y-32635D01*
X91634Y-32864D01*
X91653Y-33093D01*
X91678Y-33322D01*
X91708Y-33550D01*
X91743Y-33777D01*
X91784Y-34003D01*
X91830Y-34228D01*
X91882Y-34452D01*
X91939Y-34675D01*
X92001Y-34896D01*
X92069Y-35116D01*
X92142Y-35334D01*
X92220Y-35550D01*
X92303Y-35764D01*
X92391Y-35976D01*
X92484Y-36187D01*
X92583Y-36394D01*
X92582Y-36394D02*
X92615Y-36484D01*
X92651Y-36573D01*
X92692Y-36661D01*
X92735Y-36746D01*
X92782Y-36830D01*
X92832Y-36912D01*
X92886Y-36992D01*
X92942Y-37069D01*
X93002Y-37145D01*
X93065Y-37218D01*
X93130Y-37288D01*
X93199Y-37356D01*
X93270Y-37420D01*
X93343Y-37482D01*
X93419Y-37541D01*
X93497Y-37597D01*
X93578Y-37650D01*
X93660Y-37699D01*
X93744Y-37745D01*
X93831Y-37788D01*
X93918Y-37827D01*
X94008Y-37863D01*
X94098Y-37895D01*
X94190Y-37923D01*
X94283Y-37948D01*
X94377Y-37969D01*
X94471Y-37986D01*
X94566Y-38000D01*
X94662Y-38009D01*
X94758Y-38015D01*
X94854Y-38017D01*
X97126Y-36394D02*
X97225Y-36187D01*
X97318Y-35976D01*
X97406Y-35764D01*
X97489Y-35550D01*
X97567Y-35334D01*
X97640Y-35116D01*
X97708Y-34896D01*
X97770Y-34675D01*
X97827Y-34452D01*
X97879Y-34228D01*
X97925Y-34003D01*
X97966Y-33777D01*
X98001Y-33550D01*
X98031Y-33322D01*
X98056Y-33093D01*
X98075Y-32864D01*
X98089Y-32635D01*
X98097Y-32405D01*
X98100Y-32175D01*
X97126Y-36394D02*
X97093Y-36484D01*
X97057Y-36573D01*
X97017Y-36661D01*
X96973Y-36746D01*
X96926Y-36830D01*
X96876Y-36912D01*
X96822Y-36992D01*
X96766Y-37069D01*
X96706Y-37145D01*
X96643Y-37218D01*
X96578Y-37288D01*
X96509Y-37356D01*
X96438Y-37420D01*
X96365Y-37482D01*
X96289Y-37541D01*
X96211Y-37597D01*
X96130Y-37650D01*
X96048Y-37699D01*
X95964Y-37745D01*
X95877Y-37788D01*
X95790Y-37827D01*
X95700Y-37863D01*
X95610Y-37895D01*
X95518Y-37923D01*
X95425Y-37948D01*
X95331Y-37969D01*
X95237Y-37986D01*
X95142Y-38000D01*
X95046Y-38009D01*
X94950Y-38015D01*
X94854Y-38017D01*
X92258Y-35421D02*
X97451Y-28929D01*
D13*
X107300Y107450D03*
X107300Y126450D03*
X82900Y107450D03*
X82900Y126450D03*
D14*
X48000Y176000D03*
X102000Y176000D03*
X75000Y176000D03*
D15*
X57150Y25400D03*
X31750Y25400D03*
X107950Y25400D03*
X82550Y25400D03*
D16*
X52950Y57150D03*
X35950Y57150D03*
X91050Y63500D03*
X74050Y63500D03*
D17*
X31496Y117348D03*
X31496Y107950D03*
X31496Y98552D03*
X57404Y98552D03*
X57404Y107950D03*
X57404Y117348D03*
D16*
X42300Y146050D03*
X59300Y146050D03*
D18*
X25400Y137550D03*
X25400Y154550D03*
D19*
X44450Y82550D03*
X78000Y144000D03*
X90000Y144000D03*
X102000Y144000D03*
X127000Y25400D03*
X19050Y120650D03*
X113000Y144000D03*
X104000Y79400D03*
D20*
X74050Y81906D02*
X74050Y63500D01*
X74050Y81906D02*
X57404Y98552D01*
X57150Y40250D02*
X57150Y25400D01*
X74050Y57150D02*
X74050Y63500D01*
X74050Y57150D02*
X57150Y40250D01*
X31750Y52950D02*
X31750Y25400D01*
X31750Y52950D02*
X35950Y57150D01*
X29600Y63500D01*
X29600Y87748D01*
X31496Y89644D02*
X31496Y98552D01*
X31496Y89644D02*
X29600Y87748D01*
X107950Y41000D02*
X107950Y25400D01*
X107950Y41000D02*
X107950Y44450D01*
X91050Y61350D01*
X91050Y63500D01*
D19*
X82550Y44450D03*
X56150Y74550D03*
D20*
X52950Y71350D01*
X52950Y57150D01*
X107950Y44450D02*
X133350Y69850D01*
X133350Y102000D01*
X133350Y146050D01*
X103400Y176000D01*
X102000Y176000D01*
X127900Y107450D02*
X133350Y102000D01*
X127900Y107450D02*
X107300Y107450D01*
X82900Y107450D01*
X57904Y107450D01*
X57404Y107950D01*
X104500Y44450D02*
X107950Y41000D01*
X104500Y44450D02*
X82550Y44450D01*
D21*
X50000Y174000D02*
X48000Y176000D01*
X50000Y174000D02*
X50000Y166000D01*
X59300Y156700D02*
X59300Y146050D01*
X59300Y156700D02*
X50000Y166000D01*
X33800Y154550D02*
X25400Y154550D01*
X33800Y154550D02*
X42300Y146050D01*
X42300Y128152D01*
X31496Y117348D01*
M02*
