G04 EAGLE Gerber RS-274X export*
G75*
%MOMM*%
%FSLAX34Y34*%
%LPD*%
%IN*%
%IPPOS*%
%AMOC8*
5,1,8,0,0,1.08239X$1,22.5*%
G01*
%ADD10C,0.000000*%
%ADD11C,0.130000*%
%ADD12C,0.101600*%
%ADD13C,0.254000*%


D10*
X0Y0D02*
X150000Y0D01*
X150000Y200000D01*
X0Y200000D01*
X0Y0D01*
D11*
X-6000Y0D02*
X-56500Y0D01*
X-56500Y200000D02*
X-6000Y200000D01*
X-37000Y199350D02*
X-37000Y650D01*
X-40192Y26000D01*
X-33808Y26000D01*
X-37000Y650D01*
X-38300Y26000D01*
X-35700Y26000D02*
X-37000Y650D01*
X-39600Y26000D01*
X-34400Y26000D02*
X-37000Y650D01*
X-40192Y174000D02*
X-37000Y199350D01*
X-40192Y174000D02*
X-33808Y174000D01*
X-37000Y199350D01*
X-38300Y174000D01*
X-35700Y174000D02*
X-37000Y199350D01*
X-39600Y174000D01*
X-34400Y174000D02*
X-37000Y199350D01*
D12*
X-50746Y84238D02*
X-50853Y84236D01*
X-50959Y84230D01*
X-51065Y84220D01*
X-51171Y84207D01*
X-51277Y84189D01*
X-51381Y84168D01*
X-51485Y84143D01*
X-51588Y84114D01*
X-51689Y84082D01*
X-51789Y84045D01*
X-51888Y84005D01*
X-51986Y83962D01*
X-52082Y83915D01*
X-52176Y83864D01*
X-52268Y83810D01*
X-52358Y83753D01*
X-52446Y83693D01*
X-52531Y83629D01*
X-52614Y83562D01*
X-52695Y83492D01*
X-52773Y83420D01*
X-52849Y83344D01*
X-52921Y83266D01*
X-52991Y83185D01*
X-53058Y83102D01*
X-53122Y83017D01*
X-53182Y82929D01*
X-53239Y82839D01*
X-53293Y82747D01*
X-53344Y82653D01*
X-53391Y82557D01*
X-53434Y82459D01*
X-53474Y82360D01*
X-53511Y82260D01*
X-53543Y82159D01*
X-53572Y82056D01*
X-53597Y81952D01*
X-53618Y81848D01*
X-53636Y81742D01*
X-53649Y81636D01*
X-53659Y81530D01*
X-53665Y81424D01*
X-53667Y81317D01*
X-53665Y81196D01*
X-53659Y81075D01*
X-53649Y80955D01*
X-53636Y80834D01*
X-53618Y80715D01*
X-53597Y80595D01*
X-53572Y80477D01*
X-53543Y80360D01*
X-53510Y80243D01*
X-53474Y80128D01*
X-53433Y80014D01*
X-53390Y79901D01*
X-53342Y79789D01*
X-53291Y79680D01*
X-53236Y79572D01*
X-53178Y79465D01*
X-53117Y79361D01*
X-53052Y79259D01*
X-52984Y79159D01*
X-52913Y79061D01*
X-52839Y78965D01*
X-52762Y78872D01*
X-52681Y78782D01*
X-52598Y78694D01*
X-52512Y78609D01*
X-52423Y78526D01*
X-52332Y78447D01*
X-52238Y78370D01*
X-52142Y78297D01*
X-52044Y78227D01*
X-51943Y78160D01*
X-51840Y78096D01*
X-51735Y78036D01*
X-51628Y77979D01*
X-51520Y77925D01*
X-51410Y77875D01*
X-51298Y77829D01*
X-51185Y77786D01*
X-51070Y77747D01*
X-48474Y83265D02*
X-48551Y83344D01*
X-48632Y83420D01*
X-48715Y83493D01*
X-48800Y83563D01*
X-48888Y83630D01*
X-48978Y83694D01*
X-49070Y83754D01*
X-49165Y83811D01*
X-49261Y83865D01*
X-49359Y83916D01*
X-49459Y83963D01*
X-49561Y84007D01*
X-49664Y84047D01*
X-49768Y84083D01*
X-49874Y84115D01*
X-49980Y84144D01*
X-50088Y84169D01*
X-50196Y84191D01*
X-50306Y84208D01*
X-50415Y84222D01*
X-50525Y84231D01*
X-50636Y84237D01*
X-50746Y84239D01*
X-48474Y83264D02*
X-41983Y77747D01*
X-41983Y84238D01*
X-47825Y89177D02*
X-48055Y89180D01*
X-48285Y89188D01*
X-48514Y89202D01*
X-48743Y89221D01*
X-48972Y89246D01*
X-49199Y89276D01*
X-49427Y89311D01*
X-49653Y89352D01*
X-49878Y89398D01*
X-50102Y89450D01*
X-50324Y89507D01*
X-50546Y89569D01*
X-50765Y89637D01*
X-50983Y89710D01*
X-51200Y89788D01*
X-51414Y89871D01*
X-51626Y89959D01*
X-51836Y90052D01*
X-52044Y90151D01*
X-52134Y90184D01*
X-52223Y90220D01*
X-52311Y90260D01*
X-52396Y90304D01*
X-52480Y90351D01*
X-52562Y90401D01*
X-52642Y90455D01*
X-52719Y90511D01*
X-52795Y90571D01*
X-52868Y90634D01*
X-52938Y90699D01*
X-53006Y90768D01*
X-53070Y90839D01*
X-53132Y90912D01*
X-53191Y90988D01*
X-53247Y91066D01*
X-53300Y91147D01*
X-53349Y91229D01*
X-53395Y91313D01*
X-53438Y91400D01*
X-53477Y91487D01*
X-53513Y91577D01*
X-53545Y91667D01*
X-53573Y91759D01*
X-53598Y91852D01*
X-53619Y91946D01*
X-53636Y92040D01*
X-53650Y92135D01*
X-53659Y92231D01*
X-53665Y92327D01*
X-53667Y92423D01*
X-53665Y92519D01*
X-53659Y92615D01*
X-53650Y92711D01*
X-53636Y92806D01*
X-53619Y92900D01*
X-53598Y92994D01*
X-53573Y93087D01*
X-53545Y93179D01*
X-53513Y93269D01*
X-53477Y93359D01*
X-53438Y93446D01*
X-53395Y93533D01*
X-53349Y93617D01*
X-53300Y93699D01*
X-53247Y93780D01*
X-53191Y93858D01*
X-53132Y93934D01*
X-53070Y94007D01*
X-53006Y94078D01*
X-52938Y94147D01*
X-52868Y94212D01*
X-52795Y94275D01*
X-52719Y94335D01*
X-52642Y94391D01*
X-52562Y94445D01*
X-52480Y94495D01*
X-52396Y94542D01*
X-52311Y94586D01*
X-52223Y94626D01*
X-52134Y94662D01*
X-52044Y94695D01*
X-51837Y94794D01*
X-51627Y94887D01*
X-51414Y94975D01*
X-51200Y95058D01*
X-50984Y95136D01*
X-50766Y95209D01*
X-50546Y95277D01*
X-50325Y95339D01*
X-50102Y95396D01*
X-49878Y95448D01*
X-49653Y95494D01*
X-49427Y95535D01*
X-49200Y95570D01*
X-48972Y95600D01*
X-48743Y95625D01*
X-48514Y95644D01*
X-48285Y95658D01*
X-48055Y95666D01*
X-47825Y95669D01*
X-47825Y89177D02*
X-47595Y89180D01*
X-47365Y89188D01*
X-47136Y89202D01*
X-46907Y89221D01*
X-46678Y89246D01*
X-46450Y89276D01*
X-46223Y89311D01*
X-45997Y89352D01*
X-45772Y89398D01*
X-45548Y89450D01*
X-45325Y89507D01*
X-45104Y89569D01*
X-44884Y89637D01*
X-44666Y89710D01*
X-44450Y89788D01*
X-44236Y89871D01*
X-44024Y89959D01*
X-43813Y90052D01*
X-43606Y90151D01*
X-43516Y90184D01*
X-43427Y90220D01*
X-43339Y90261D01*
X-43254Y90304D01*
X-43170Y90351D01*
X-43088Y90401D01*
X-43008Y90455D01*
X-42931Y90511D01*
X-42855Y90571D01*
X-42782Y90634D01*
X-42712Y90699D01*
X-42644Y90768D01*
X-42580Y90839D01*
X-42518Y90912D01*
X-42459Y90988D01*
X-42403Y91066D01*
X-42350Y91147D01*
X-42301Y91229D01*
X-42255Y91313D01*
X-42212Y91400D01*
X-42173Y91487D01*
X-42137Y91577D01*
X-42105Y91667D01*
X-42077Y91759D01*
X-42052Y91852D01*
X-42031Y91946D01*
X-42014Y92040D01*
X-42000Y92135D01*
X-41991Y92231D01*
X-41985Y92327D01*
X-41983Y92423D01*
X-43606Y94694D02*
X-43813Y94793D01*
X-44024Y94886D01*
X-44236Y94974D01*
X-44450Y95057D01*
X-44666Y95135D01*
X-44884Y95208D01*
X-45104Y95276D01*
X-45325Y95338D01*
X-45548Y95395D01*
X-45772Y95447D01*
X-45997Y95493D01*
X-46223Y95534D01*
X-46450Y95569D01*
X-46678Y95599D01*
X-46907Y95624D01*
X-47136Y95643D01*
X-47365Y95657D01*
X-47595Y95665D01*
X-47825Y95668D01*
X-43606Y94695D02*
X-43516Y94662D01*
X-43427Y94626D01*
X-43339Y94586D01*
X-43254Y94542D01*
X-43170Y94495D01*
X-43088Y94445D01*
X-43008Y94391D01*
X-42931Y94335D01*
X-42855Y94275D01*
X-42782Y94212D01*
X-42712Y94147D01*
X-42644Y94078D01*
X-42580Y94007D01*
X-42518Y93934D01*
X-42459Y93858D01*
X-42403Y93780D01*
X-42350Y93699D01*
X-42301Y93617D01*
X-42255Y93533D01*
X-42212Y93446D01*
X-42173Y93359D01*
X-42137Y93269D01*
X-42105Y93179D01*
X-42077Y93087D01*
X-42052Y92994D01*
X-42031Y92900D01*
X-42014Y92806D01*
X-42000Y92711D01*
X-41991Y92615D01*
X-41985Y92519D01*
X-41983Y92423D01*
X-44579Y89826D02*
X-51071Y95019D01*
X-42632Y100099D02*
X-41983Y100099D01*
X-42632Y100099D02*
X-42632Y100748D01*
X-41983Y100748D01*
X-41983Y100099D01*
X-47825Y105179D02*
X-48055Y105182D01*
X-48285Y105190D01*
X-48514Y105204D01*
X-48743Y105223D01*
X-48972Y105248D01*
X-49199Y105278D01*
X-49427Y105313D01*
X-49653Y105354D01*
X-49878Y105400D01*
X-50102Y105452D01*
X-50324Y105509D01*
X-50546Y105571D01*
X-50765Y105639D01*
X-50983Y105712D01*
X-51200Y105790D01*
X-51414Y105873D01*
X-51626Y105961D01*
X-51836Y106054D01*
X-52044Y106153D01*
X-52044Y106152D02*
X-52134Y106185D01*
X-52223Y106221D01*
X-52311Y106261D01*
X-52396Y106305D01*
X-52480Y106352D01*
X-52562Y106402D01*
X-52642Y106456D01*
X-52719Y106512D01*
X-52795Y106572D01*
X-52868Y106635D01*
X-52938Y106700D01*
X-53006Y106769D01*
X-53070Y106840D01*
X-53132Y106913D01*
X-53191Y106989D01*
X-53247Y107067D01*
X-53300Y107148D01*
X-53349Y107230D01*
X-53395Y107314D01*
X-53438Y107401D01*
X-53477Y107488D01*
X-53513Y107578D01*
X-53545Y107668D01*
X-53573Y107760D01*
X-53598Y107853D01*
X-53619Y107947D01*
X-53636Y108041D01*
X-53650Y108136D01*
X-53659Y108232D01*
X-53665Y108328D01*
X-53667Y108424D01*
X-53665Y108520D01*
X-53659Y108616D01*
X-53650Y108712D01*
X-53636Y108807D01*
X-53619Y108901D01*
X-53598Y108995D01*
X-53573Y109088D01*
X-53545Y109180D01*
X-53513Y109270D01*
X-53477Y109360D01*
X-53438Y109447D01*
X-53395Y109534D01*
X-53349Y109618D01*
X-53300Y109700D01*
X-53247Y109781D01*
X-53191Y109859D01*
X-53132Y109935D01*
X-53070Y110008D01*
X-53006Y110079D01*
X-52938Y110148D01*
X-52868Y110213D01*
X-52795Y110276D01*
X-52719Y110336D01*
X-52642Y110392D01*
X-52562Y110446D01*
X-52480Y110496D01*
X-52396Y110543D01*
X-52311Y110587D01*
X-52223Y110627D01*
X-52134Y110663D01*
X-52044Y110696D01*
X-52044Y110697D02*
X-51837Y110796D01*
X-51627Y110889D01*
X-51414Y110977D01*
X-51200Y111060D01*
X-50984Y111138D01*
X-50766Y111211D01*
X-50546Y111279D01*
X-50325Y111341D01*
X-50102Y111398D01*
X-49878Y111450D01*
X-49653Y111496D01*
X-49427Y111537D01*
X-49200Y111572D01*
X-48972Y111602D01*
X-48743Y111627D01*
X-48514Y111646D01*
X-48285Y111660D01*
X-48055Y111668D01*
X-47825Y111671D01*
X-47825Y105179D02*
X-47595Y105182D01*
X-47365Y105190D01*
X-47136Y105204D01*
X-46907Y105223D01*
X-46678Y105248D01*
X-46450Y105278D01*
X-46223Y105313D01*
X-45997Y105354D01*
X-45772Y105400D01*
X-45548Y105452D01*
X-45325Y105509D01*
X-45104Y105571D01*
X-44884Y105639D01*
X-44666Y105712D01*
X-44450Y105790D01*
X-44236Y105873D01*
X-44024Y105961D01*
X-43813Y106054D01*
X-43606Y106153D01*
X-43606Y106152D02*
X-43516Y106185D01*
X-43427Y106221D01*
X-43339Y106262D01*
X-43254Y106305D01*
X-43170Y106352D01*
X-43088Y106402D01*
X-43008Y106456D01*
X-42931Y106512D01*
X-42855Y106572D01*
X-42782Y106635D01*
X-42712Y106700D01*
X-42644Y106769D01*
X-42580Y106840D01*
X-42518Y106913D01*
X-42459Y106989D01*
X-42403Y107067D01*
X-42350Y107148D01*
X-42301Y107230D01*
X-42255Y107314D01*
X-42212Y107401D01*
X-42173Y107488D01*
X-42137Y107578D01*
X-42105Y107668D01*
X-42077Y107760D01*
X-42052Y107853D01*
X-42031Y107947D01*
X-42014Y108041D01*
X-42000Y108136D01*
X-41991Y108232D01*
X-41985Y108328D01*
X-41983Y108424D01*
X-43606Y110696D02*
X-43813Y110795D01*
X-44024Y110888D01*
X-44236Y110976D01*
X-44450Y111059D01*
X-44666Y111137D01*
X-44884Y111210D01*
X-45104Y111278D01*
X-45325Y111340D01*
X-45548Y111397D01*
X-45772Y111449D01*
X-45997Y111495D01*
X-46223Y111536D01*
X-46450Y111571D01*
X-46678Y111601D01*
X-46907Y111626D01*
X-47136Y111645D01*
X-47365Y111659D01*
X-47595Y111667D01*
X-47825Y111670D01*
X-43606Y110696D02*
X-43516Y110663D01*
X-43427Y110627D01*
X-43339Y110587D01*
X-43254Y110543D01*
X-43170Y110496D01*
X-43088Y110446D01*
X-43008Y110392D01*
X-42931Y110336D01*
X-42855Y110276D01*
X-42782Y110213D01*
X-42712Y110148D01*
X-42644Y110079D01*
X-42580Y110008D01*
X-42518Y109935D01*
X-42459Y109859D01*
X-42403Y109781D01*
X-42350Y109700D01*
X-42301Y109618D01*
X-42255Y109534D01*
X-42212Y109447D01*
X-42173Y109360D01*
X-42137Y109270D01*
X-42105Y109180D01*
X-42077Y109088D01*
X-42052Y108995D01*
X-42031Y108901D01*
X-42014Y108807D01*
X-42000Y108712D01*
X-41991Y108616D01*
X-41985Y108520D01*
X-41983Y108424D01*
X-44579Y105828D02*
X-51071Y111021D01*
X-47825Y116609D02*
X-48055Y116612D01*
X-48285Y116620D01*
X-48514Y116634D01*
X-48743Y116653D01*
X-48972Y116678D01*
X-49199Y116708D01*
X-49427Y116743D01*
X-49653Y116784D01*
X-49878Y116830D01*
X-50102Y116882D01*
X-50324Y116939D01*
X-50546Y117001D01*
X-50765Y117069D01*
X-50983Y117142D01*
X-51200Y117220D01*
X-51414Y117303D01*
X-51626Y117391D01*
X-51836Y117484D01*
X-52044Y117583D01*
X-52044Y117582D02*
X-52134Y117615D01*
X-52223Y117651D01*
X-52311Y117691D01*
X-52396Y117735D01*
X-52480Y117782D01*
X-52562Y117832D01*
X-52642Y117886D01*
X-52719Y117942D01*
X-52795Y118002D01*
X-52868Y118065D01*
X-52938Y118130D01*
X-53006Y118199D01*
X-53070Y118270D01*
X-53132Y118343D01*
X-53191Y118419D01*
X-53247Y118497D01*
X-53300Y118578D01*
X-53349Y118660D01*
X-53395Y118744D01*
X-53438Y118831D01*
X-53477Y118918D01*
X-53513Y119008D01*
X-53545Y119098D01*
X-53573Y119190D01*
X-53598Y119283D01*
X-53619Y119377D01*
X-53636Y119471D01*
X-53650Y119566D01*
X-53659Y119662D01*
X-53665Y119758D01*
X-53667Y119854D01*
X-53665Y119950D01*
X-53659Y120046D01*
X-53650Y120142D01*
X-53636Y120237D01*
X-53619Y120331D01*
X-53598Y120425D01*
X-53573Y120518D01*
X-53545Y120610D01*
X-53513Y120700D01*
X-53477Y120790D01*
X-53438Y120877D01*
X-53395Y120964D01*
X-53349Y121048D01*
X-53300Y121130D01*
X-53247Y121211D01*
X-53191Y121289D01*
X-53132Y121365D01*
X-53070Y121438D01*
X-53006Y121509D01*
X-52938Y121578D01*
X-52868Y121643D01*
X-52795Y121706D01*
X-52719Y121766D01*
X-52642Y121822D01*
X-52562Y121876D01*
X-52480Y121926D01*
X-52396Y121973D01*
X-52311Y122017D01*
X-52223Y122057D01*
X-52134Y122093D01*
X-52044Y122126D01*
X-52044Y122127D02*
X-51837Y122226D01*
X-51627Y122319D01*
X-51414Y122407D01*
X-51200Y122490D01*
X-50984Y122568D01*
X-50766Y122641D01*
X-50546Y122709D01*
X-50325Y122771D01*
X-50102Y122828D01*
X-49878Y122880D01*
X-49653Y122926D01*
X-49427Y122967D01*
X-49200Y123002D01*
X-48972Y123032D01*
X-48743Y123057D01*
X-48514Y123076D01*
X-48285Y123090D01*
X-48055Y123098D01*
X-47825Y123101D01*
X-47825Y116609D02*
X-47595Y116612D01*
X-47365Y116620D01*
X-47136Y116634D01*
X-46907Y116653D01*
X-46678Y116678D01*
X-46450Y116708D01*
X-46223Y116743D01*
X-45997Y116784D01*
X-45772Y116830D01*
X-45548Y116882D01*
X-45325Y116939D01*
X-45104Y117001D01*
X-44884Y117069D01*
X-44666Y117142D01*
X-44450Y117220D01*
X-44236Y117303D01*
X-44024Y117391D01*
X-43813Y117484D01*
X-43606Y117583D01*
X-43606Y117582D02*
X-43516Y117615D01*
X-43427Y117651D01*
X-43339Y117692D01*
X-43254Y117735D01*
X-43170Y117782D01*
X-43088Y117832D01*
X-43008Y117886D01*
X-42931Y117942D01*
X-42855Y118002D01*
X-42782Y118065D01*
X-42712Y118130D01*
X-42644Y118199D01*
X-42580Y118270D01*
X-42518Y118343D01*
X-42459Y118419D01*
X-42403Y118497D01*
X-42350Y118578D01*
X-42301Y118660D01*
X-42255Y118744D01*
X-42212Y118831D01*
X-42173Y118918D01*
X-42137Y119008D01*
X-42105Y119098D01*
X-42077Y119190D01*
X-42052Y119283D01*
X-42031Y119377D01*
X-42014Y119471D01*
X-42000Y119566D01*
X-41991Y119662D01*
X-41985Y119758D01*
X-41983Y119854D01*
X-43606Y122126D02*
X-43813Y122225D01*
X-44024Y122318D01*
X-44236Y122406D01*
X-44450Y122489D01*
X-44666Y122567D01*
X-44884Y122640D01*
X-45104Y122708D01*
X-45325Y122770D01*
X-45548Y122827D01*
X-45772Y122879D01*
X-45997Y122925D01*
X-46223Y122966D01*
X-46450Y123001D01*
X-46678Y123031D01*
X-46907Y123056D01*
X-47136Y123075D01*
X-47365Y123089D01*
X-47595Y123097D01*
X-47825Y123100D01*
X-43606Y122126D02*
X-43516Y122093D01*
X-43427Y122057D01*
X-43339Y122017D01*
X-43254Y121973D01*
X-43170Y121926D01*
X-43088Y121876D01*
X-43008Y121822D01*
X-42931Y121766D01*
X-42855Y121706D01*
X-42782Y121643D01*
X-42712Y121578D01*
X-42644Y121509D01*
X-42580Y121438D01*
X-42518Y121365D01*
X-42459Y121289D01*
X-42403Y121211D01*
X-42350Y121130D01*
X-42301Y121048D01*
X-42255Y120964D01*
X-42212Y120877D01*
X-42173Y120790D01*
X-42137Y120700D01*
X-42105Y120610D01*
X-42077Y120518D01*
X-42052Y120425D01*
X-42031Y120331D01*
X-42014Y120237D01*
X-42000Y120142D01*
X-41991Y120046D01*
X-41985Y119950D01*
X-41983Y119854D01*
X-44579Y117258D02*
X-51071Y122451D01*
D11*
X0Y-5000D02*
X0Y-62500D01*
X150000Y-62500D02*
X150000Y-5000D01*
X149350Y-43000D02*
X650Y-43000D01*
X26000Y-39808D01*
X26000Y-46192D01*
X650Y-43000D01*
X26000Y-41700D01*
X26000Y-44300D02*
X650Y-43000D01*
X26000Y-40400D01*
X26000Y-45600D02*
X650Y-43000D01*
X124000Y-39808D02*
X149350Y-43000D01*
X124000Y-39808D02*
X124000Y-46192D01*
X149350Y-43000D01*
X124000Y-41700D01*
X124000Y-44300D02*
X149350Y-43000D01*
X124000Y-40400D01*
X124000Y-45600D02*
X149350Y-43000D01*
D12*
X55993Y-26333D02*
X52747Y-28929D01*
X55993Y-26333D02*
X55993Y-38017D01*
X59238Y-38017D02*
X52747Y-38017D01*
X64177Y-38017D02*
X68072Y-38017D01*
X68171Y-38015D01*
X68271Y-38009D01*
X68370Y-38000D01*
X68468Y-37987D01*
X68566Y-37970D01*
X68664Y-37949D01*
X68760Y-37924D01*
X68855Y-37896D01*
X68949Y-37864D01*
X69042Y-37829D01*
X69134Y-37790D01*
X69224Y-37747D01*
X69312Y-37702D01*
X69399Y-37652D01*
X69483Y-37600D01*
X69566Y-37544D01*
X69646Y-37486D01*
X69724Y-37424D01*
X69799Y-37359D01*
X69872Y-37291D01*
X69942Y-37221D01*
X70010Y-37148D01*
X70075Y-37073D01*
X70137Y-36995D01*
X70195Y-36915D01*
X70251Y-36832D01*
X70303Y-36748D01*
X70353Y-36661D01*
X70398Y-36573D01*
X70441Y-36483D01*
X70480Y-36391D01*
X70515Y-36298D01*
X70547Y-36204D01*
X70575Y-36109D01*
X70600Y-36013D01*
X70621Y-35915D01*
X70638Y-35817D01*
X70651Y-35719D01*
X70660Y-35620D01*
X70666Y-35520D01*
X70668Y-35421D01*
X70668Y-34122D01*
X70666Y-34023D01*
X70660Y-33923D01*
X70651Y-33824D01*
X70638Y-33726D01*
X70621Y-33628D01*
X70600Y-33530D01*
X70575Y-33434D01*
X70547Y-33339D01*
X70515Y-33245D01*
X70480Y-33152D01*
X70441Y-33060D01*
X70398Y-32970D01*
X70353Y-32882D01*
X70303Y-32795D01*
X70251Y-32711D01*
X70195Y-32628D01*
X70137Y-32548D01*
X70075Y-32470D01*
X70010Y-32395D01*
X69942Y-32322D01*
X69872Y-32252D01*
X69799Y-32184D01*
X69724Y-32119D01*
X69646Y-32057D01*
X69566Y-31999D01*
X69483Y-31943D01*
X69399Y-31891D01*
X69312Y-31841D01*
X69224Y-31796D01*
X69134Y-31753D01*
X69042Y-31714D01*
X68949Y-31679D01*
X68855Y-31647D01*
X68760Y-31619D01*
X68664Y-31594D01*
X68566Y-31573D01*
X68468Y-31556D01*
X68370Y-31543D01*
X68271Y-31534D01*
X68171Y-31528D01*
X68072Y-31526D01*
X64177Y-31526D01*
X64177Y-26333D01*
X70668Y-26333D01*
X75099Y-37368D02*
X75099Y-38017D01*
X75099Y-37368D02*
X75748Y-37368D01*
X75748Y-38017D01*
X75099Y-38017D01*
X80179Y-32175D02*
X80182Y-31945D01*
X80190Y-31715D01*
X80204Y-31486D01*
X80223Y-31257D01*
X80248Y-31028D01*
X80278Y-30800D01*
X80313Y-30573D01*
X80354Y-30347D01*
X80400Y-30122D01*
X80452Y-29898D01*
X80509Y-29675D01*
X80571Y-29454D01*
X80639Y-29234D01*
X80712Y-29016D01*
X80790Y-28800D01*
X80873Y-28586D01*
X80961Y-28374D01*
X81054Y-28163D01*
X81153Y-27956D01*
X81152Y-27956D02*
X81185Y-27866D01*
X81221Y-27777D01*
X81261Y-27689D01*
X81305Y-27604D01*
X81352Y-27520D01*
X81402Y-27438D01*
X81456Y-27358D01*
X81512Y-27281D01*
X81572Y-27205D01*
X81635Y-27132D01*
X81700Y-27062D01*
X81769Y-26994D01*
X81840Y-26930D01*
X81913Y-26868D01*
X81989Y-26809D01*
X82067Y-26753D01*
X82148Y-26700D01*
X82230Y-26651D01*
X82314Y-26605D01*
X82401Y-26562D01*
X82488Y-26523D01*
X82578Y-26487D01*
X82668Y-26455D01*
X82760Y-26427D01*
X82853Y-26402D01*
X82947Y-26381D01*
X83041Y-26364D01*
X83136Y-26350D01*
X83232Y-26341D01*
X83328Y-26335D01*
X83424Y-26333D01*
X83520Y-26335D01*
X83616Y-26341D01*
X83712Y-26350D01*
X83807Y-26364D01*
X83901Y-26381D01*
X83995Y-26402D01*
X84088Y-26427D01*
X84180Y-26455D01*
X84270Y-26487D01*
X84360Y-26523D01*
X84448Y-26562D01*
X84534Y-26605D01*
X84618Y-26651D01*
X84700Y-26700D01*
X84781Y-26753D01*
X84859Y-26809D01*
X84935Y-26868D01*
X85008Y-26930D01*
X85079Y-26994D01*
X85148Y-27062D01*
X85213Y-27132D01*
X85276Y-27205D01*
X85336Y-27281D01*
X85392Y-27358D01*
X85446Y-27438D01*
X85496Y-27520D01*
X85543Y-27604D01*
X85587Y-27689D01*
X85627Y-27777D01*
X85663Y-27866D01*
X85696Y-27956D01*
X85795Y-28163D01*
X85888Y-28374D01*
X85976Y-28586D01*
X86059Y-28800D01*
X86137Y-29016D01*
X86210Y-29234D01*
X86278Y-29454D01*
X86340Y-29675D01*
X86397Y-29898D01*
X86449Y-30122D01*
X86495Y-30347D01*
X86536Y-30573D01*
X86571Y-30800D01*
X86601Y-31028D01*
X86626Y-31257D01*
X86645Y-31486D01*
X86659Y-31715D01*
X86667Y-31945D01*
X86670Y-32175D01*
X80179Y-32175D02*
X80182Y-32405D01*
X80190Y-32635D01*
X80204Y-32864D01*
X80223Y-33093D01*
X80248Y-33322D01*
X80278Y-33550D01*
X80313Y-33777D01*
X80354Y-34003D01*
X80400Y-34228D01*
X80452Y-34452D01*
X80509Y-34675D01*
X80571Y-34896D01*
X80639Y-35116D01*
X80712Y-35334D01*
X80790Y-35550D01*
X80873Y-35764D01*
X80961Y-35976D01*
X81054Y-36187D01*
X81153Y-36394D01*
X81152Y-36394D02*
X81185Y-36484D01*
X81221Y-36573D01*
X81262Y-36661D01*
X81305Y-36746D01*
X81352Y-36830D01*
X81402Y-36912D01*
X81456Y-36992D01*
X81512Y-37069D01*
X81572Y-37145D01*
X81635Y-37218D01*
X81700Y-37288D01*
X81769Y-37356D01*
X81840Y-37420D01*
X81913Y-37482D01*
X81989Y-37541D01*
X82067Y-37597D01*
X82148Y-37650D01*
X82230Y-37699D01*
X82314Y-37745D01*
X82401Y-37788D01*
X82488Y-37827D01*
X82578Y-37863D01*
X82668Y-37895D01*
X82760Y-37923D01*
X82853Y-37948D01*
X82947Y-37969D01*
X83041Y-37986D01*
X83136Y-38000D01*
X83232Y-38009D01*
X83328Y-38015D01*
X83424Y-38017D01*
X85696Y-36394D02*
X85795Y-36187D01*
X85888Y-35976D01*
X85976Y-35764D01*
X86059Y-35550D01*
X86137Y-35334D01*
X86210Y-35116D01*
X86278Y-34896D01*
X86340Y-34675D01*
X86397Y-34452D01*
X86449Y-34228D01*
X86495Y-34003D01*
X86536Y-33777D01*
X86571Y-33550D01*
X86601Y-33322D01*
X86626Y-33093D01*
X86645Y-32864D01*
X86659Y-32635D01*
X86667Y-32405D01*
X86670Y-32175D01*
X85696Y-36394D02*
X85663Y-36484D01*
X85627Y-36573D01*
X85587Y-36661D01*
X85543Y-36746D01*
X85496Y-36830D01*
X85446Y-36912D01*
X85392Y-36992D01*
X85336Y-37069D01*
X85276Y-37145D01*
X85213Y-37218D01*
X85148Y-37288D01*
X85079Y-37356D01*
X85008Y-37420D01*
X84935Y-37482D01*
X84859Y-37541D01*
X84781Y-37597D01*
X84700Y-37650D01*
X84618Y-37699D01*
X84534Y-37745D01*
X84447Y-37788D01*
X84360Y-37827D01*
X84270Y-37863D01*
X84180Y-37895D01*
X84088Y-37923D01*
X83995Y-37948D01*
X83901Y-37969D01*
X83807Y-37986D01*
X83712Y-38000D01*
X83616Y-38009D01*
X83520Y-38015D01*
X83424Y-38017D01*
X80828Y-35421D02*
X86021Y-28929D01*
X91609Y-32175D02*
X91612Y-31945D01*
X91620Y-31715D01*
X91634Y-31486D01*
X91653Y-31257D01*
X91678Y-31028D01*
X91708Y-30800D01*
X91743Y-30573D01*
X91784Y-30347D01*
X91830Y-30122D01*
X91882Y-29898D01*
X91939Y-29675D01*
X92001Y-29454D01*
X92069Y-29234D01*
X92142Y-29016D01*
X92220Y-28800D01*
X92303Y-28586D01*
X92391Y-28374D01*
X92484Y-28163D01*
X92583Y-27956D01*
X92582Y-27956D02*
X92615Y-27866D01*
X92651Y-27777D01*
X92691Y-27689D01*
X92735Y-27604D01*
X92782Y-27520D01*
X92832Y-27438D01*
X92886Y-27358D01*
X92942Y-27281D01*
X93002Y-27205D01*
X93065Y-27132D01*
X93130Y-27062D01*
X93199Y-26994D01*
X93270Y-26930D01*
X93343Y-26868D01*
X93419Y-26809D01*
X93497Y-26753D01*
X93578Y-26700D01*
X93660Y-26651D01*
X93744Y-26605D01*
X93831Y-26562D01*
X93918Y-26523D01*
X94008Y-26487D01*
X94098Y-26455D01*
X94190Y-26427D01*
X94283Y-26402D01*
X94377Y-26381D01*
X94471Y-26364D01*
X94566Y-26350D01*
X94662Y-26341D01*
X94758Y-26335D01*
X94854Y-26333D01*
X94950Y-26335D01*
X95046Y-26341D01*
X95142Y-26350D01*
X95237Y-26364D01*
X95331Y-26381D01*
X95425Y-26402D01*
X95518Y-26427D01*
X95610Y-26455D01*
X95700Y-26487D01*
X95790Y-26523D01*
X95878Y-26562D01*
X95964Y-26605D01*
X96048Y-26651D01*
X96130Y-26700D01*
X96211Y-26753D01*
X96289Y-26809D01*
X96365Y-26868D01*
X96438Y-26930D01*
X96509Y-26994D01*
X96578Y-27062D01*
X96643Y-27132D01*
X96706Y-27205D01*
X96766Y-27281D01*
X96822Y-27358D01*
X96876Y-27438D01*
X96926Y-27520D01*
X96973Y-27604D01*
X97017Y-27689D01*
X97057Y-27777D01*
X97093Y-27866D01*
X97126Y-27956D01*
X97225Y-28163D01*
X97318Y-28374D01*
X97406Y-28586D01*
X97489Y-28800D01*
X97567Y-29016D01*
X97640Y-29234D01*
X97708Y-29454D01*
X97770Y-29675D01*
X97827Y-29898D01*
X97879Y-30122D01*
X97925Y-30347D01*
X97966Y-30573D01*
X98001Y-30800D01*
X98031Y-31028D01*
X98056Y-31257D01*
X98075Y-31486D01*
X98089Y-31715D01*
X98097Y-31945D01*
X98100Y-32175D01*
X91609Y-32175D02*
X91612Y-32405D01*
X91620Y-32635D01*
X91634Y-32864D01*
X91653Y-33093D01*
X91678Y-33322D01*
X91708Y-33550D01*
X91743Y-33777D01*
X91784Y-34003D01*
X91830Y-34228D01*
X91882Y-34452D01*
X91939Y-34675D01*
X92001Y-34896D01*
X92069Y-35116D01*
X92142Y-35334D01*
X92220Y-35550D01*
X92303Y-35764D01*
X92391Y-35976D01*
X92484Y-36187D01*
X92583Y-36394D01*
X92582Y-36394D02*
X92615Y-36484D01*
X92651Y-36573D01*
X92692Y-36661D01*
X92735Y-36746D01*
X92782Y-36830D01*
X92832Y-36912D01*
X92886Y-36992D01*
X92942Y-37069D01*
X93002Y-37145D01*
X93065Y-37218D01*
X93130Y-37288D01*
X93199Y-37356D01*
X93270Y-37420D01*
X93343Y-37482D01*
X93419Y-37541D01*
X93497Y-37597D01*
X93578Y-37650D01*
X93660Y-37699D01*
X93744Y-37745D01*
X93831Y-37788D01*
X93918Y-37827D01*
X94008Y-37863D01*
X94098Y-37895D01*
X94190Y-37923D01*
X94283Y-37948D01*
X94377Y-37969D01*
X94471Y-37986D01*
X94566Y-38000D01*
X94662Y-38009D01*
X94758Y-38015D01*
X94854Y-38017D01*
X97126Y-36394D02*
X97225Y-36187D01*
X97318Y-35976D01*
X97406Y-35764D01*
X97489Y-35550D01*
X97567Y-35334D01*
X97640Y-35116D01*
X97708Y-34896D01*
X97770Y-34675D01*
X97827Y-34452D01*
X97879Y-34228D01*
X97925Y-34003D01*
X97966Y-33777D01*
X98001Y-33550D01*
X98031Y-33322D01*
X98056Y-33093D01*
X98075Y-32864D01*
X98089Y-32635D01*
X98097Y-32405D01*
X98100Y-32175D01*
X97126Y-36394D02*
X97093Y-36484D01*
X97057Y-36573D01*
X97017Y-36661D01*
X96973Y-36746D01*
X96926Y-36830D01*
X96876Y-36912D01*
X96822Y-36992D01*
X96766Y-37069D01*
X96706Y-37145D01*
X96643Y-37218D01*
X96578Y-37288D01*
X96509Y-37356D01*
X96438Y-37420D01*
X96365Y-37482D01*
X96289Y-37541D01*
X96211Y-37597D01*
X96130Y-37650D01*
X96048Y-37699D01*
X95964Y-37745D01*
X95877Y-37788D01*
X95790Y-37827D01*
X95700Y-37863D01*
X95610Y-37895D01*
X95518Y-37923D01*
X95425Y-37948D01*
X95331Y-37969D01*
X95237Y-37986D01*
X95142Y-38000D01*
X95046Y-38009D01*
X94950Y-38015D01*
X94854Y-38017D01*
X92258Y-35421D02*
X97451Y-28929D01*
D13*
X0Y0D02*
X150000Y0D01*
X150000Y200000D01*
X0Y200000D01*
X0Y0D01*
M02*
