G04 EAGLE Gerber RS-274X export*
G75*
%MOMM*%
%FSLAX34Y34*%
%LPD*%
%INSilkscreen Top*%
%IPPOS*%
%AMOC8*
5,1,8,0,0,1.08239X$1,22.5*%
G01*
%ADD10C,0.000000*%
%ADD11C,0.130000*%
%ADD12C,0.101600*%
%ADD13C,0.076200*%
%ADD14C,0.152400*%


D10*
X0Y0D02*
X150000Y0D01*
X150000Y200000D01*
X0Y200000D01*
X0Y0D01*
D11*
X-6000Y0D02*
X-56500Y0D01*
X-56500Y200000D02*
X-6000Y200000D01*
X-37000Y199350D02*
X-37000Y650D01*
X-40192Y26000D01*
X-33808Y26000D01*
X-37000Y650D01*
X-38300Y26000D01*
X-35700Y26000D02*
X-37000Y650D01*
X-39600Y26000D01*
X-34400Y26000D02*
X-37000Y650D01*
X-40192Y174000D02*
X-37000Y199350D01*
X-40192Y174000D02*
X-33808Y174000D01*
X-37000Y199350D01*
X-38300Y174000D01*
X-35700Y174000D02*
X-37000Y199350D01*
X-39600Y174000D01*
X-34400Y174000D02*
X-37000Y199350D01*
D12*
X-50746Y84238D02*
X-50853Y84236D01*
X-50959Y84230D01*
X-51065Y84220D01*
X-51171Y84207D01*
X-51277Y84189D01*
X-51381Y84168D01*
X-51485Y84143D01*
X-51588Y84114D01*
X-51689Y84082D01*
X-51789Y84045D01*
X-51888Y84005D01*
X-51986Y83962D01*
X-52082Y83915D01*
X-52176Y83864D01*
X-52268Y83810D01*
X-52358Y83753D01*
X-52446Y83693D01*
X-52531Y83629D01*
X-52614Y83562D01*
X-52695Y83492D01*
X-52773Y83420D01*
X-52849Y83344D01*
X-52921Y83266D01*
X-52991Y83185D01*
X-53058Y83102D01*
X-53122Y83017D01*
X-53182Y82929D01*
X-53239Y82839D01*
X-53293Y82747D01*
X-53344Y82653D01*
X-53391Y82557D01*
X-53434Y82459D01*
X-53474Y82360D01*
X-53511Y82260D01*
X-53543Y82159D01*
X-53572Y82056D01*
X-53597Y81952D01*
X-53618Y81848D01*
X-53636Y81742D01*
X-53649Y81636D01*
X-53659Y81530D01*
X-53665Y81424D01*
X-53667Y81317D01*
X-53665Y81196D01*
X-53659Y81075D01*
X-53649Y80955D01*
X-53636Y80834D01*
X-53618Y80715D01*
X-53597Y80595D01*
X-53572Y80477D01*
X-53543Y80360D01*
X-53510Y80243D01*
X-53474Y80128D01*
X-53433Y80014D01*
X-53390Y79901D01*
X-53342Y79789D01*
X-53291Y79680D01*
X-53236Y79572D01*
X-53178Y79465D01*
X-53117Y79361D01*
X-53052Y79259D01*
X-52984Y79159D01*
X-52913Y79061D01*
X-52839Y78965D01*
X-52762Y78872D01*
X-52681Y78782D01*
X-52598Y78694D01*
X-52512Y78609D01*
X-52423Y78526D01*
X-52332Y78447D01*
X-52238Y78370D01*
X-52142Y78297D01*
X-52044Y78227D01*
X-51943Y78160D01*
X-51840Y78096D01*
X-51735Y78036D01*
X-51628Y77979D01*
X-51520Y77925D01*
X-51410Y77875D01*
X-51298Y77829D01*
X-51185Y77786D01*
X-51070Y77747D01*
X-48474Y83265D02*
X-48551Y83344D01*
X-48632Y83420D01*
X-48715Y83493D01*
X-48800Y83563D01*
X-48888Y83630D01*
X-48978Y83694D01*
X-49070Y83754D01*
X-49165Y83811D01*
X-49261Y83865D01*
X-49359Y83916D01*
X-49459Y83963D01*
X-49561Y84007D01*
X-49664Y84047D01*
X-49768Y84083D01*
X-49874Y84115D01*
X-49980Y84144D01*
X-50088Y84169D01*
X-50196Y84191D01*
X-50306Y84208D01*
X-50415Y84222D01*
X-50525Y84231D01*
X-50636Y84237D01*
X-50746Y84239D01*
X-48474Y83264D02*
X-41983Y77747D01*
X-41983Y84238D01*
X-47825Y89177D02*
X-48055Y89180D01*
X-48285Y89188D01*
X-48514Y89202D01*
X-48743Y89221D01*
X-48972Y89246D01*
X-49199Y89276D01*
X-49427Y89311D01*
X-49653Y89352D01*
X-49878Y89398D01*
X-50102Y89450D01*
X-50324Y89507D01*
X-50546Y89569D01*
X-50765Y89637D01*
X-50983Y89710D01*
X-51200Y89788D01*
X-51414Y89871D01*
X-51626Y89959D01*
X-51836Y90052D01*
X-52044Y90151D01*
X-52134Y90184D01*
X-52223Y90220D01*
X-52311Y90260D01*
X-52396Y90304D01*
X-52480Y90351D01*
X-52562Y90401D01*
X-52642Y90455D01*
X-52719Y90511D01*
X-52795Y90571D01*
X-52868Y90634D01*
X-52938Y90699D01*
X-53006Y90768D01*
X-53070Y90839D01*
X-53132Y90912D01*
X-53191Y90988D01*
X-53247Y91066D01*
X-53300Y91147D01*
X-53349Y91229D01*
X-53395Y91313D01*
X-53438Y91400D01*
X-53477Y91487D01*
X-53513Y91577D01*
X-53545Y91667D01*
X-53573Y91759D01*
X-53598Y91852D01*
X-53619Y91946D01*
X-53636Y92040D01*
X-53650Y92135D01*
X-53659Y92231D01*
X-53665Y92327D01*
X-53667Y92423D01*
X-53665Y92519D01*
X-53659Y92615D01*
X-53650Y92711D01*
X-53636Y92806D01*
X-53619Y92900D01*
X-53598Y92994D01*
X-53573Y93087D01*
X-53545Y93179D01*
X-53513Y93269D01*
X-53477Y93359D01*
X-53438Y93446D01*
X-53395Y93533D01*
X-53349Y93617D01*
X-53300Y93699D01*
X-53247Y93780D01*
X-53191Y93858D01*
X-53132Y93934D01*
X-53070Y94007D01*
X-53006Y94078D01*
X-52938Y94147D01*
X-52868Y94212D01*
X-52795Y94275D01*
X-52719Y94335D01*
X-52642Y94391D01*
X-52562Y94445D01*
X-52480Y94495D01*
X-52396Y94542D01*
X-52311Y94586D01*
X-52223Y94626D01*
X-52134Y94662D01*
X-52044Y94695D01*
X-51837Y94794D01*
X-51627Y94887D01*
X-51414Y94975D01*
X-51200Y95058D01*
X-50984Y95136D01*
X-50766Y95209D01*
X-50546Y95277D01*
X-50325Y95339D01*
X-50102Y95396D01*
X-49878Y95448D01*
X-49653Y95494D01*
X-49427Y95535D01*
X-49200Y95570D01*
X-48972Y95600D01*
X-48743Y95625D01*
X-48514Y95644D01*
X-48285Y95658D01*
X-48055Y95666D01*
X-47825Y95669D01*
X-47825Y89177D02*
X-47595Y89180D01*
X-47365Y89188D01*
X-47136Y89202D01*
X-46907Y89221D01*
X-46678Y89246D01*
X-46450Y89276D01*
X-46223Y89311D01*
X-45997Y89352D01*
X-45772Y89398D01*
X-45548Y89450D01*
X-45325Y89507D01*
X-45104Y89569D01*
X-44884Y89637D01*
X-44666Y89710D01*
X-44450Y89788D01*
X-44236Y89871D01*
X-44024Y89959D01*
X-43813Y90052D01*
X-43606Y90151D01*
X-43516Y90184D01*
X-43427Y90220D01*
X-43339Y90261D01*
X-43254Y90304D01*
X-43170Y90351D01*
X-43088Y90401D01*
X-43008Y90455D01*
X-42931Y90511D01*
X-42855Y90571D01*
X-42782Y90634D01*
X-42712Y90699D01*
X-42644Y90768D01*
X-42580Y90839D01*
X-42518Y90912D01*
X-42459Y90988D01*
X-42403Y91066D01*
X-42350Y91147D01*
X-42301Y91229D01*
X-42255Y91313D01*
X-42212Y91400D01*
X-42173Y91487D01*
X-42137Y91577D01*
X-42105Y91667D01*
X-42077Y91759D01*
X-42052Y91852D01*
X-42031Y91946D01*
X-42014Y92040D01*
X-42000Y92135D01*
X-41991Y92231D01*
X-41985Y92327D01*
X-41983Y92423D01*
X-43606Y94694D02*
X-43813Y94793D01*
X-44024Y94886D01*
X-44236Y94974D01*
X-44450Y95057D01*
X-44666Y95135D01*
X-44884Y95208D01*
X-45104Y95276D01*
X-45325Y95338D01*
X-45548Y95395D01*
X-45772Y95447D01*
X-45997Y95493D01*
X-46223Y95534D01*
X-46450Y95569D01*
X-46678Y95599D01*
X-46907Y95624D01*
X-47136Y95643D01*
X-47365Y95657D01*
X-47595Y95665D01*
X-47825Y95668D01*
X-43606Y94695D02*
X-43516Y94662D01*
X-43427Y94626D01*
X-43339Y94586D01*
X-43254Y94542D01*
X-43170Y94495D01*
X-43088Y94445D01*
X-43008Y94391D01*
X-42931Y94335D01*
X-42855Y94275D01*
X-42782Y94212D01*
X-42712Y94147D01*
X-42644Y94078D01*
X-42580Y94007D01*
X-42518Y93934D01*
X-42459Y93858D01*
X-42403Y93780D01*
X-42350Y93699D01*
X-42301Y93617D01*
X-42255Y93533D01*
X-42212Y93446D01*
X-42173Y93359D01*
X-42137Y93269D01*
X-42105Y93179D01*
X-42077Y93087D01*
X-42052Y92994D01*
X-42031Y92900D01*
X-42014Y92806D01*
X-42000Y92711D01*
X-41991Y92615D01*
X-41985Y92519D01*
X-41983Y92423D01*
X-44579Y89826D02*
X-51071Y95019D01*
X-42632Y100099D02*
X-41983Y100099D01*
X-42632Y100099D02*
X-42632Y100748D01*
X-41983Y100748D01*
X-41983Y100099D01*
X-47825Y105179D02*
X-48055Y105182D01*
X-48285Y105190D01*
X-48514Y105204D01*
X-48743Y105223D01*
X-48972Y105248D01*
X-49199Y105278D01*
X-49427Y105313D01*
X-49653Y105354D01*
X-49878Y105400D01*
X-50102Y105452D01*
X-50324Y105509D01*
X-50546Y105571D01*
X-50765Y105639D01*
X-50983Y105712D01*
X-51200Y105790D01*
X-51414Y105873D01*
X-51626Y105961D01*
X-51836Y106054D01*
X-52044Y106153D01*
X-52044Y106152D02*
X-52134Y106185D01*
X-52223Y106221D01*
X-52311Y106261D01*
X-52396Y106305D01*
X-52480Y106352D01*
X-52562Y106402D01*
X-52642Y106456D01*
X-52719Y106512D01*
X-52795Y106572D01*
X-52868Y106635D01*
X-52938Y106700D01*
X-53006Y106769D01*
X-53070Y106840D01*
X-53132Y106913D01*
X-53191Y106989D01*
X-53247Y107067D01*
X-53300Y107148D01*
X-53349Y107230D01*
X-53395Y107314D01*
X-53438Y107401D01*
X-53477Y107488D01*
X-53513Y107578D01*
X-53545Y107668D01*
X-53573Y107760D01*
X-53598Y107853D01*
X-53619Y107947D01*
X-53636Y108041D01*
X-53650Y108136D01*
X-53659Y108232D01*
X-53665Y108328D01*
X-53667Y108424D01*
X-53665Y108520D01*
X-53659Y108616D01*
X-53650Y108712D01*
X-53636Y108807D01*
X-53619Y108901D01*
X-53598Y108995D01*
X-53573Y109088D01*
X-53545Y109180D01*
X-53513Y109270D01*
X-53477Y109360D01*
X-53438Y109447D01*
X-53395Y109534D01*
X-53349Y109618D01*
X-53300Y109700D01*
X-53247Y109781D01*
X-53191Y109859D01*
X-53132Y109935D01*
X-53070Y110008D01*
X-53006Y110079D01*
X-52938Y110148D01*
X-52868Y110213D01*
X-52795Y110276D01*
X-52719Y110336D01*
X-52642Y110392D01*
X-52562Y110446D01*
X-52480Y110496D01*
X-52396Y110543D01*
X-52311Y110587D01*
X-52223Y110627D01*
X-52134Y110663D01*
X-52044Y110696D01*
X-52044Y110697D02*
X-51837Y110796D01*
X-51627Y110889D01*
X-51414Y110977D01*
X-51200Y111060D01*
X-50984Y111138D01*
X-50766Y111211D01*
X-50546Y111279D01*
X-50325Y111341D01*
X-50102Y111398D01*
X-49878Y111450D01*
X-49653Y111496D01*
X-49427Y111537D01*
X-49200Y111572D01*
X-48972Y111602D01*
X-48743Y111627D01*
X-48514Y111646D01*
X-48285Y111660D01*
X-48055Y111668D01*
X-47825Y111671D01*
X-47825Y105179D02*
X-47595Y105182D01*
X-47365Y105190D01*
X-47136Y105204D01*
X-46907Y105223D01*
X-46678Y105248D01*
X-46450Y105278D01*
X-46223Y105313D01*
X-45997Y105354D01*
X-45772Y105400D01*
X-45548Y105452D01*
X-45325Y105509D01*
X-45104Y105571D01*
X-44884Y105639D01*
X-44666Y105712D01*
X-44450Y105790D01*
X-44236Y105873D01*
X-44024Y105961D01*
X-43813Y106054D01*
X-43606Y106153D01*
X-43606Y106152D02*
X-43516Y106185D01*
X-43427Y106221D01*
X-43339Y106262D01*
X-43254Y106305D01*
X-43170Y106352D01*
X-43088Y106402D01*
X-43008Y106456D01*
X-42931Y106512D01*
X-42855Y106572D01*
X-42782Y106635D01*
X-42712Y106700D01*
X-42644Y106769D01*
X-42580Y106840D01*
X-42518Y106913D01*
X-42459Y106989D01*
X-42403Y107067D01*
X-42350Y107148D01*
X-42301Y107230D01*
X-42255Y107314D01*
X-42212Y107401D01*
X-42173Y107488D01*
X-42137Y107578D01*
X-42105Y107668D01*
X-42077Y107760D01*
X-42052Y107853D01*
X-42031Y107947D01*
X-42014Y108041D01*
X-42000Y108136D01*
X-41991Y108232D01*
X-41985Y108328D01*
X-41983Y108424D01*
X-43606Y110696D02*
X-43813Y110795D01*
X-44024Y110888D01*
X-44236Y110976D01*
X-44450Y111059D01*
X-44666Y111137D01*
X-44884Y111210D01*
X-45104Y111278D01*
X-45325Y111340D01*
X-45548Y111397D01*
X-45772Y111449D01*
X-45997Y111495D01*
X-46223Y111536D01*
X-46450Y111571D01*
X-46678Y111601D01*
X-46907Y111626D01*
X-47136Y111645D01*
X-47365Y111659D01*
X-47595Y111667D01*
X-47825Y111670D01*
X-43606Y110696D02*
X-43516Y110663D01*
X-43427Y110627D01*
X-43339Y110587D01*
X-43254Y110543D01*
X-43170Y110496D01*
X-43088Y110446D01*
X-43008Y110392D01*
X-42931Y110336D01*
X-42855Y110276D01*
X-42782Y110213D01*
X-42712Y110148D01*
X-42644Y110079D01*
X-42580Y110008D01*
X-42518Y109935D01*
X-42459Y109859D01*
X-42403Y109781D01*
X-42350Y109700D01*
X-42301Y109618D01*
X-42255Y109534D01*
X-42212Y109447D01*
X-42173Y109360D01*
X-42137Y109270D01*
X-42105Y109180D01*
X-42077Y109088D01*
X-42052Y108995D01*
X-42031Y108901D01*
X-42014Y108807D01*
X-42000Y108712D01*
X-41991Y108616D01*
X-41985Y108520D01*
X-41983Y108424D01*
X-44579Y105828D02*
X-51071Y111021D01*
X-47825Y116609D02*
X-48055Y116612D01*
X-48285Y116620D01*
X-48514Y116634D01*
X-48743Y116653D01*
X-48972Y116678D01*
X-49199Y116708D01*
X-49427Y116743D01*
X-49653Y116784D01*
X-49878Y116830D01*
X-50102Y116882D01*
X-50324Y116939D01*
X-50546Y117001D01*
X-50765Y117069D01*
X-50983Y117142D01*
X-51200Y117220D01*
X-51414Y117303D01*
X-51626Y117391D01*
X-51836Y117484D01*
X-52044Y117583D01*
X-52044Y117582D02*
X-52134Y117615D01*
X-52223Y117651D01*
X-52311Y117691D01*
X-52396Y117735D01*
X-52480Y117782D01*
X-52562Y117832D01*
X-52642Y117886D01*
X-52719Y117942D01*
X-52795Y118002D01*
X-52868Y118065D01*
X-52938Y118130D01*
X-53006Y118199D01*
X-53070Y118270D01*
X-53132Y118343D01*
X-53191Y118419D01*
X-53247Y118497D01*
X-53300Y118578D01*
X-53349Y118660D01*
X-53395Y118744D01*
X-53438Y118831D01*
X-53477Y118918D01*
X-53513Y119008D01*
X-53545Y119098D01*
X-53573Y119190D01*
X-53598Y119283D01*
X-53619Y119377D01*
X-53636Y119471D01*
X-53650Y119566D01*
X-53659Y119662D01*
X-53665Y119758D01*
X-53667Y119854D01*
X-53665Y119950D01*
X-53659Y120046D01*
X-53650Y120142D01*
X-53636Y120237D01*
X-53619Y120331D01*
X-53598Y120425D01*
X-53573Y120518D01*
X-53545Y120610D01*
X-53513Y120700D01*
X-53477Y120790D01*
X-53438Y120877D01*
X-53395Y120964D01*
X-53349Y121048D01*
X-53300Y121130D01*
X-53247Y121211D01*
X-53191Y121289D01*
X-53132Y121365D01*
X-53070Y121438D01*
X-53006Y121509D01*
X-52938Y121578D01*
X-52868Y121643D01*
X-52795Y121706D01*
X-52719Y121766D01*
X-52642Y121822D01*
X-52562Y121876D01*
X-52480Y121926D01*
X-52396Y121973D01*
X-52311Y122017D01*
X-52223Y122057D01*
X-52134Y122093D01*
X-52044Y122126D01*
X-52044Y122127D02*
X-51837Y122226D01*
X-51627Y122319D01*
X-51414Y122407D01*
X-51200Y122490D01*
X-50984Y122568D01*
X-50766Y122641D01*
X-50546Y122709D01*
X-50325Y122771D01*
X-50102Y122828D01*
X-49878Y122880D01*
X-49653Y122926D01*
X-49427Y122967D01*
X-49200Y123002D01*
X-48972Y123032D01*
X-48743Y123057D01*
X-48514Y123076D01*
X-48285Y123090D01*
X-48055Y123098D01*
X-47825Y123101D01*
X-47825Y116609D02*
X-47595Y116612D01*
X-47365Y116620D01*
X-47136Y116634D01*
X-46907Y116653D01*
X-46678Y116678D01*
X-46450Y116708D01*
X-46223Y116743D01*
X-45997Y116784D01*
X-45772Y116830D01*
X-45548Y116882D01*
X-45325Y116939D01*
X-45104Y117001D01*
X-44884Y117069D01*
X-44666Y117142D01*
X-44450Y117220D01*
X-44236Y117303D01*
X-44024Y117391D01*
X-43813Y117484D01*
X-43606Y117583D01*
X-43606Y117582D02*
X-43516Y117615D01*
X-43427Y117651D01*
X-43339Y117692D01*
X-43254Y117735D01*
X-43170Y117782D01*
X-43088Y117832D01*
X-43008Y117886D01*
X-42931Y117942D01*
X-42855Y118002D01*
X-42782Y118065D01*
X-42712Y118130D01*
X-42644Y118199D01*
X-42580Y118270D01*
X-42518Y118343D01*
X-42459Y118419D01*
X-42403Y118497D01*
X-42350Y118578D01*
X-42301Y118660D01*
X-42255Y118744D01*
X-42212Y118831D01*
X-42173Y118918D01*
X-42137Y119008D01*
X-42105Y119098D01*
X-42077Y119190D01*
X-42052Y119283D01*
X-42031Y119377D01*
X-42014Y119471D01*
X-42000Y119566D01*
X-41991Y119662D01*
X-41985Y119758D01*
X-41983Y119854D01*
X-43606Y122126D02*
X-43813Y122225D01*
X-44024Y122318D01*
X-44236Y122406D01*
X-44450Y122489D01*
X-44666Y122567D01*
X-44884Y122640D01*
X-45104Y122708D01*
X-45325Y122770D01*
X-45548Y122827D01*
X-45772Y122879D01*
X-45997Y122925D01*
X-46223Y122966D01*
X-46450Y123001D01*
X-46678Y123031D01*
X-46907Y123056D01*
X-47136Y123075D01*
X-47365Y123089D01*
X-47595Y123097D01*
X-47825Y123100D01*
X-43606Y122126D02*
X-43516Y122093D01*
X-43427Y122057D01*
X-43339Y122017D01*
X-43254Y121973D01*
X-43170Y121926D01*
X-43088Y121876D01*
X-43008Y121822D01*
X-42931Y121766D01*
X-42855Y121706D01*
X-42782Y121643D01*
X-42712Y121578D01*
X-42644Y121509D01*
X-42580Y121438D01*
X-42518Y121365D01*
X-42459Y121289D01*
X-42403Y121211D01*
X-42350Y121130D01*
X-42301Y121048D01*
X-42255Y120964D01*
X-42212Y120877D01*
X-42173Y120790D01*
X-42137Y120700D01*
X-42105Y120610D01*
X-42077Y120518D01*
X-42052Y120425D01*
X-42031Y120331D01*
X-42014Y120237D01*
X-42000Y120142D01*
X-41991Y120046D01*
X-41985Y119950D01*
X-41983Y119854D01*
X-44579Y117258D02*
X-51071Y122451D01*
D11*
X0Y-5000D02*
X0Y-62500D01*
X150000Y-62500D02*
X150000Y-5000D01*
X149350Y-43000D02*
X650Y-43000D01*
X26000Y-39808D01*
X26000Y-46192D01*
X650Y-43000D01*
X26000Y-41700D01*
X26000Y-44300D02*
X650Y-43000D01*
X26000Y-40400D01*
X26000Y-45600D02*
X650Y-43000D01*
X124000Y-39808D02*
X149350Y-43000D01*
X124000Y-39808D02*
X124000Y-46192D01*
X149350Y-43000D01*
X124000Y-41700D01*
X124000Y-44300D02*
X149350Y-43000D01*
X124000Y-40400D01*
X124000Y-45600D02*
X149350Y-43000D01*
D12*
X55993Y-26333D02*
X52747Y-28929D01*
X55993Y-26333D02*
X55993Y-38017D01*
X59238Y-38017D02*
X52747Y-38017D01*
X64177Y-38017D02*
X68072Y-38017D01*
X68171Y-38015D01*
X68271Y-38009D01*
X68370Y-38000D01*
X68468Y-37987D01*
X68566Y-37970D01*
X68664Y-37949D01*
X68760Y-37924D01*
X68855Y-37896D01*
X68949Y-37864D01*
X69042Y-37829D01*
X69134Y-37790D01*
X69224Y-37747D01*
X69312Y-37702D01*
X69399Y-37652D01*
X69483Y-37600D01*
X69566Y-37544D01*
X69646Y-37486D01*
X69724Y-37424D01*
X69799Y-37359D01*
X69872Y-37291D01*
X69942Y-37221D01*
X70010Y-37148D01*
X70075Y-37073D01*
X70137Y-36995D01*
X70195Y-36915D01*
X70251Y-36832D01*
X70303Y-36748D01*
X70353Y-36661D01*
X70398Y-36573D01*
X70441Y-36483D01*
X70480Y-36391D01*
X70515Y-36298D01*
X70547Y-36204D01*
X70575Y-36109D01*
X70600Y-36013D01*
X70621Y-35915D01*
X70638Y-35817D01*
X70651Y-35719D01*
X70660Y-35620D01*
X70666Y-35520D01*
X70668Y-35421D01*
X70668Y-34122D01*
X70666Y-34023D01*
X70660Y-33923D01*
X70651Y-33824D01*
X70638Y-33726D01*
X70621Y-33628D01*
X70600Y-33530D01*
X70575Y-33434D01*
X70547Y-33339D01*
X70515Y-33245D01*
X70480Y-33152D01*
X70441Y-33060D01*
X70398Y-32970D01*
X70353Y-32882D01*
X70303Y-32795D01*
X70251Y-32711D01*
X70195Y-32628D01*
X70137Y-32548D01*
X70075Y-32470D01*
X70010Y-32395D01*
X69942Y-32322D01*
X69872Y-32252D01*
X69799Y-32184D01*
X69724Y-32119D01*
X69646Y-32057D01*
X69566Y-31999D01*
X69483Y-31943D01*
X69399Y-31891D01*
X69312Y-31841D01*
X69224Y-31796D01*
X69134Y-31753D01*
X69042Y-31714D01*
X68949Y-31679D01*
X68855Y-31647D01*
X68760Y-31619D01*
X68664Y-31594D01*
X68566Y-31573D01*
X68468Y-31556D01*
X68370Y-31543D01*
X68271Y-31534D01*
X68171Y-31528D01*
X68072Y-31526D01*
X64177Y-31526D01*
X64177Y-26333D01*
X70668Y-26333D01*
X75099Y-37368D02*
X75099Y-38017D01*
X75099Y-37368D02*
X75748Y-37368D01*
X75748Y-38017D01*
X75099Y-38017D01*
X80179Y-32175D02*
X80182Y-31945D01*
X80190Y-31715D01*
X80204Y-31486D01*
X80223Y-31257D01*
X80248Y-31028D01*
X80278Y-30800D01*
X80313Y-30573D01*
X80354Y-30347D01*
X80400Y-30122D01*
X80452Y-29898D01*
X80509Y-29675D01*
X80571Y-29454D01*
X80639Y-29234D01*
X80712Y-29016D01*
X80790Y-28800D01*
X80873Y-28586D01*
X80961Y-28374D01*
X81054Y-28163D01*
X81153Y-27956D01*
X81152Y-27956D02*
X81185Y-27866D01*
X81221Y-27777D01*
X81261Y-27689D01*
X81305Y-27604D01*
X81352Y-27520D01*
X81402Y-27438D01*
X81456Y-27358D01*
X81512Y-27281D01*
X81572Y-27205D01*
X81635Y-27132D01*
X81700Y-27062D01*
X81769Y-26994D01*
X81840Y-26930D01*
X81913Y-26868D01*
X81989Y-26809D01*
X82067Y-26753D01*
X82148Y-26700D01*
X82230Y-26651D01*
X82314Y-26605D01*
X82401Y-26562D01*
X82488Y-26523D01*
X82578Y-26487D01*
X82668Y-26455D01*
X82760Y-26427D01*
X82853Y-26402D01*
X82947Y-26381D01*
X83041Y-26364D01*
X83136Y-26350D01*
X83232Y-26341D01*
X83328Y-26335D01*
X83424Y-26333D01*
X83520Y-26335D01*
X83616Y-26341D01*
X83712Y-26350D01*
X83807Y-26364D01*
X83901Y-26381D01*
X83995Y-26402D01*
X84088Y-26427D01*
X84180Y-26455D01*
X84270Y-26487D01*
X84360Y-26523D01*
X84448Y-26562D01*
X84534Y-26605D01*
X84618Y-26651D01*
X84700Y-26700D01*
X84781Y-26753D01*
X84859Y-26809D01*
X84935Y-26868D01*
X85008Y-26930D01*
X85079Y-26994D01*
X85148Y-27062D01*
X85213Y-27132D01*
X85276Y-27205D01*
X85336Y-27281D01*
X85392Y-27358D01*
X85446Y-27438D01*
X85496Y-27520D01*
X85543Y-27604D01*
X85587Y-27689D01*
X85627Y-27777D01*
X85663Y-27866D01*
X85696Y-27956D01*
X85795Y-28163D01*
X85888Y-28374D01*
X85976Y-28586D01*
X86059Y-28800D01*
X86137Y-29016D01*
X86210Y-29234D01*
X86278Y-29454D01*
X86340Y-29675D01*
X86397Y-29898D01*
X86449Y-30122D01*
X86495Y-30347D01*
X86536Y-30573D01*
X86571Y-30800D01*
X86601Y-31028D01*
X86626Y-31257D01*
X86645Y-31486D01*
X86659Y-31715D01*
X86667Y-31945D01*
X86670Y-32175D01*
X80179Y-32175D02*
X80182Y-32405D01*
X80190Y-32635D01*
X80204Y-32864D01*
X80223Y-33093D01*
X80248Y-33322D01*
X80278Y-33550D01*
X80313Y-33777D01*
X80354Y-34003D01*
X80400Y-34228D01*
X80452Y-34452D01*
X80509Y-34675D01*
X80571Y-34896D01*
X80639Y-35116D01*
X80712Y-35334D01*
X80790Y-35550D01*
X80873Y-35764D01*
X80961Y-35976D01*
X81054Y-36187D01*
X81153Y-36394D01*
X81152Y-36394D02*
X81185Y-36484D01*
X81221Y-36573D01*
X81262Y-36661D01*
X81305Y-36746D01*
X81352Y-36830D01*
X81402Y-36912D01*
X81456Y-36992D01*
X81512Y-37069D01*
X81572Y-37145D01*
X81635Y-37218D01*
X81700Y-37288D01*
X81769Y-37356D01*
X81840Y-37420D01*
X81913Y-37482D01*
X81989Y-37541D01*
X82067Y-37597D01*
X82148Y-37650D01*
X82230Y-37699D01*
X82314Y-37745D01*
X82401Y-37788D01*
X82488Y-37827D01*
X82578Y-37863D01*
X82668Y-37895D01*
X82760Y-37923D01*
X82853Y-37948D01*
X82947Y-37969D01*
X83041Y-37986D01*
X83136Y-38000D01*
X83232Y-38009D01*
X83328Y-38015D01*
X83424Y-38017D01*
X85696Y-36394D02*
X85795Y-36187D01*
X85888Y-35976D01*
X85976Y-35764D01*
X86059Y-35550D01*
X86137Y-35334D01*
X86210Y-35116D01*
X86278Y-34896D01*
X86340Y-34675D01*
X86397Y-34452D01*
X86449Y-34228D01*
X86495Y-34003D01*
X86536Y-33777D01*
X86571Y-33550D01*
X86601Y-33322D01*
X86626Y-33093D01*
X86645Y-32864D01*
X86659Y-32635D01*
X86667Y-32405D01*
X86670Y-32175D01*
X85696Y-36394D02*
X85663Y-36484D01*
X85627Y-36573D01*
X85587Y-36661D01*
X85543Y-36746D01*
X85496Y-36830D01*
X85446Y-36912D01*
X85392Y-36992D01*
X85336Y-37069D01*
X85276Y-37145D01*
X85213Y-37218D01*
X85148Y-37288D01*
X85079Y-37356D01*
X85008Y-37420D01*
X84935Y-37482D01*
X84859Y-37541D01*
X84781Y-37597D01*
X84700Y-37650D01*
X84618Y-37699D01*
X84534Y-37745D01*
X84447Y-37788D01*
X84360Y-37827D01*
X84270Y-37863D01*
X84180Y-37895D01*
X84088Y-37923D01*
X83995Y-37948D01*
X83901Y-37969D01*
X83807Y-37986D01*
X83712Y-38000D01*
X83616Y-38009D01*
X83520Y-38015D01*
X83424Y-38017D01*
X80828Y-35421D02*
X86021Y-28929D01*
X91609Y-32175D02*
X91612Y-31945D01*
X91620Y-31715D01*
X91634Y-31486D01*
X91653Y-31257D01*
X91678Y-31028D01*
X91708Y-30800D01*
X91743Y-30573D01*
X91784Y-30347D01*
X91830Y-30122D01*
X91882Y-29898D01*
X91939Y-29675D01*
X92001Y-29454D01*
X92069Y-29234D01*
X92142Y-29016D01*
X92220Y-28800D01*
X92303Y-28586D01*
X92391Y-28374D01*
X92484Y-28163D01*
X92583Y-27956D01*
X92582Y-27956D02*
X92615Y-27866D01*
X92651Y-27777D01*
X92691Y-27689D01*
X92735Y-27604D01*
X92782Y-27520D01*
X92832Y-27438D01*
X92886Y-27358D01*
X92942Y-27281D01*
X93002Y-27205D01*
X93065Y-27132D01*
X93130Y-27062D01*
X93199Y-26994D01*
X93270Y-26930D01*
X93343Y-26868D01*
X93419Y-26809D01*
X93497Y-26753D01*
X93578Y-26700D01*
X93660Y-26651D01*
X93744Y-26605D01*
X93831Y-26562D01*
X93918Y-26523D01*
X94008Y-26487D01*
X94098Y-26455D01*
X94190Y-26427D01*
X94283Y-26402D01*
X94377Y-26381D01*
X94471Y-26364D01*
X94566Y-26350D01*
X94662Y-26341D01*
X94758Y-26335D01*
X94854Y-26333D01*
X94950Y-26335D01*
X95046Y-26341D01*
X95142Y-26350D01*
X95237Y-26364D01*
X95331Y-26381D01*
X95425Y-26402D01*
X95518Y-26427D01*
X95610Y-26455D01*
X95700Y-26487D01*
X95790Y-26523D01*
X95878Y-26562D01*
X95964Y-26605D01*
X96048Y-26651D01*
X96130Y-26700D01*
X96211Y-26753D01*
X96289Y-26809D01*
X96365Y-26868D01*
X96438Y-26930D01*
X96509Y-26994D01*
X96578Y-27062D01*
X96643Y-27132D01*
X96706Y-27205D01*
X96766Y-27281D01*
X96822Y-27358D01*
X96876Y-27438D01*
X96926Y-27520D01*
X96973Y-27604D01*
X97017Y-27689D01*
X97057Y-27777D01*
X97093Y-27866D01*
X97126Y-27956D01*
X97225Y-28163D01*
X97318Y-28374D01*
X97406Y-28586D01*
X97489Y-28800D01*
X97567Y-29016D01*
X97640Y-29234D01*
X97708Y-29454D01*
X97770Y-29675D01*
X97827Y-29898D01*
X97879Y-30122D01*
X97925Y-30347D01*
X97966Y-30573D01*
X98001Y-30800D01*
X98031Y-31028D01*
X98056Y-31257D01*
X98075Y-31486D01*
X98089Y-31715D01*
X98097Y-31945D01*
X98100Y-32175D01*
X91609Y-32175D02*
X91612Y-32405D01*
X91620Y-32635D01*
X91634Y-32864D01*
X91653Y-33093D01*
X91678Y-33322D01*
X91708Y-33550D01*
X91743Y-33777D01*
X91784Y-34003D01*
X91830Y-34228D01*
X91882Y-34452D01*
X91939Y-34675D01*
X92001Y-34896D01*
X92069Y-35116D01*
X92142Y-35334D01*
X92220Y-35550D01*
X92303Y-35764D01*
X92391Y-35976D01*
X92484Y-36187D01*
X92583Y-36394D01*
X92582Y-36394D02*
X92615Y-36484D01*
X92651Y-36573D01*
X92692Y-36661D01*
X92735Y-36746D01*
X92782Y-36830D01*
X92832Y-36912D01*
X92886Y-36992D01*
X92942Y-37069D01*
X93002Y-37145D01*
X93065Y-37218D01*
X93130Y-37288D01*
X93199Y-37356D01*
X93270Y-37420D01*
X93343Y-37482D01*
X93419Y-37541D01*
X93497Y-37597D01*
X93578Y-37650D01*
X93660Y-37699D01*
X93744Y-37745D01*
X93831Y-37788D01*
X93918Y-37827D01*
X94008Y-37863D01*
X94098Y-37895D01*
X94190Y-37923D01*
X94283Y-37948D01*
X94377Y-37969D01*
X94471Y-37986D01*
X94566Y-38000D01*
X94662Y-38009D01*
X94758Y-38015D01*
X94854Y-38017D01*
X97126Y-36394D02*
X97225Y-36187D01*
X97318Y-35976D01*
X97406Y-35764D01*
X97489Y-35550D01*
X97567Y-35334D01*
X97640Y-35116D01*
X97708Y-34896D01*
X97770Y-34675D01*
X97827Y-34452D01*
X97879Y-34228D01*
X97925Y-34003D01*
X97966Y-33777D01*
X98001Y-33550D01*
X98031Y-33322D01*
X98056Y-33093D01*
X98075Y-32864D01*
X98089Y-32635D01*
X98097Y-32405D01*
X98100Y-32175D01*
X97126Y-36394D02*
X97093Y-36484D01*
X97057Y-36573D01*
X97017Y-36661D01*
X96973Y-36746D01*
X96926Y-36830D01*
X96876Y-36912D01*
X96822Y-36992D01*
X96766Y-37069D01*
X96706Y-37145D01*
X96643Y-37218D01*
X96578Y-37288D01*
X96509Y-37356D01*
X96438Y-37420D01*
X96365Y-37482D01*
X96289Y-37541D01*
X96211Y-37597D01*
X96130Y-37650D01*
X96048Y-37699D01*
X95964Y-37745D01*
X95877Y-37788D01*
X95790Y-37827D01*
X95700Y-37863D01*
X95610Y-37895D01*
X95518Y-37923D01*
X95425Y-37948D01*
X95331Y-37969D01*
X95237Y-37986D01*
X95142Y-38000D01*
X95046Y-38009D01*
X94950Y-38015D01*
X94854Y-38017D01*
X92258Y-35421D02*
X97451Y-28929D01*
D13*
X104191Y90661D02*
X105150Y90661D01*
X104191Y90661D02*
X104131Y90663D01*
X104071Y90669D01*
X104011Y90678D01*
X103952Y90691D01*
X103894Y90708D01*
X103838Y90728D01*
X103782Y90752D01*
X103729Y90780D01*
X103677Y90810D01*
X103627Y90844D01*
X103579Y90881D01*
X103534Y90921D01*
X103491Y90964D01*
X103451Y91009D01*
X103414Y91057D01*
X103380Y91107D01*
X103350Y91159D01*
X103322Y91212D01*
X103298Y91268D01*
X103278Y91324D01*
X103261Y91382D01*
X103248Y91441D01*
X103239Y91501D01*
X103233Y91561D01*
X103231Y91621D01*
X103231Y94019D01*
X103233Y94079D01*
X103239Y94139D01*
X103248Y94199D01*
X103261Y94258D01*
X103278Y94316D01*
X103298Y94372D01*
X103322Y94428D01*
X103350Y94481D01*
X103380Y94533D01*
X103414Y94583D01*
X103451Y94631D01*
X103491Y94676D01*
X103534Y94719D01*
X103579Y94759D01*
X103627Y94796D01*
X103677Y94830D01*
X103728Y94860D01*
X103782Y94888D01*
X103838Y94912D01*
X103894Y94932D01*
X103952Y94949D01*
X104011Y94962D01*
X104071Y94971D01*
X104131Y94977D01*
X104191Y94979D01*
X105150Y94979D01*
X107060Y94019D02*
X108260Y94979D01*
X108260Y90661D01*
X109459Y90661D02*
X107060Y90661D01*
X80750Y90661D02*
X79791Y90661D01*
X79731Y90663D01*
X79671Y90669D01*
X79611Y90678D01*
X79552Y90691D01*
X79494Y90708D01*
X79438Y90728D01*
X79382Y90752D01*
X79329Y90780D01*
X79277Y90810D01*
X79227Y90844D01*
X79179Y90881D01*
X79134Y90921D01*
X79091Y90964D01*
X79051Y91009D01*
X79014Y91057D01*
X78980Y91107D01*
X78950Y91159D01*
X78922Y91212D01*
X78898Y91268D01*
X78878Y91324D01*
X78861Y91382D01*
X78848Y91441D01*
X78839Y91501D01*
X78833Y91561D01*
X78831Y91621D01*
X78831Y94019D01*
X78833Y94079D01*
X78839Y94139D01*
X78848Y94199D01*
X78861Y94258D01*
X78878Y94316D01*
X78898Y94372D01*
X78922Y94428D01*
X78950Y94481D01*
X78980Y94533D01*
X79014Y94583D01*
X79051Y94631D01*
X79091Y94676D01*
X79134Y94719D01*
X79179Y94759D01*
X79227Y94796D01*
X79277Y94830D01*
X79328Y94860D01*
X79382Y94888D01*
X79438Y94912D01*
X79494Y94932D01*
X79552Y94949D01*
X79611Y94962D01*
X79671Y94971D01*
X79731Y94977D01*
X79791Y94979D01*
X80750Y94979D01*
X83980Y94980D02*
X84043Y94978D01*
X84105Y94973D01*
X84168Y94964D01*
X84229Y94951D01*
X84290Y94935D01*
X84349Y94915D01*
X84408Y94892D01*
X84465Y94865D01*
X84520Y94835D01*
X84573Y94802D01*
X84625Y94766D01*
X84674Y94727D01*
X84721Y94686D01*
X84766Y94641D01*
X84807Y94594D01*
X84846Y94545D01*
X84882Y94493D01*
X84915Y94440D01*
X84945Y94385D01*
X84972Y94328D01*
X84995Y94269D01*
X85015Y94210D01*
X85031Y94149D01*
X85044Y94088D01*
X85053Y94025D01*
X85058Y93963D01*
X85060Y93900D01*
X83980Y94979D02*
X83907Y94977D01*
X83835Y94971D01*
X83763Y94962D01*
X83691Y94949D01*
X83621Y94932D01*
X83551Y94911D01*
X83483Y94887D01*
X83415Y94859D01*
X83350Y94828D01*
X83286Y94793D01*
X83224Y94755D01*
X83164Y94714D01*
X83107Y94669D01*
X83051Y94622D01*
X82999Y94572D01*
X82949Y94519D01*
X82902Y94464D01*
X82857Y94406D01*
X82816Y94347D01*
X82778Y94285D01*
X82744Y94221D01*
X82712Y94155D01*
X82685Y94088D01*
X82660Y94019D01*
X84700Y93060D02*
X84747Y93108D01*
X84792Y93158D01*
X84833Y93211D01*
X84871Y93266D01*
X84906Y93323D01*
X84938Y93382D01*
X84966Y93443D01*
X84991Y93505D01*
X85012Y93569D01*
X85029Y93634D01*
X85043Y93700D01*
X85052Y93766D01*
X85058Y93833D01*
X85060Y93900D01*
X84699Y93060D02*
X82660Y90661D01*
X85059Y90661D01*
D14*
X54350Y188700D02*
X41650Y188700D01*
X54350Y188700D02*
X60700Y182350D01*
X60700Y169650D01*
X54350Y163300D01*
X35300Y169650D02*
X35300Y182350D01*
X41650Y188700D01*
X35300Y169650D02*
X41650Y163300D01*
X54350Y163300D01*
D13*
X42881Y190581D02*
X42881Y194899D01*
X44080Y194899D01*
X44148Y194897D01*
X44217Y194891D01*
X44284Y194881D01*
X44352Y194868D01*
X44418Y194850D01*
X44483Y194829D01*
X44547Y194804D01*
X44609Y194776D01*
X44670Y194744D01*
X44728Y194709D01*
X44785Y194670D01*
X44839Y194628D01*
X44891Y194583D01*
X44940Y194536D01*
X44986Y194485D01*
X45029Y194432D01*
X45070Y194377D01*
X45107Y194319D01*
X45140Y194260D01*
X45171Y194198D01*
X45197Y194135D01*
X45220Y194071D01*
X45240Y194005D01*
X45255Y193938D01*
X45267Y193871D01*
X45275Y193803D01*
X45279Y193734D01*
X45279Y193666D01*
X45275Y193597D01*
X45267Y193529D01*
X45255Y193462D01*
X45240Y193395D01*
X45220Y193329D01*
X45197Y193265D01*
X45171Y193202D01*
X45140Y193140D01*
X45107Y193081D01*
X45070Y193023D01*
X45029Y192968D01*
X44986Y192915D01*
X44940Y192864D01*
X44891Y192817D01*
X44839Y192772D01*
X44785Y192730D01*
X44728Y192691D01*
X44670Y192656D01*
X44609Y192624D01*
X44547Y192596D01*
X44483Y192571D01*
X44418Y192550D01*
X44352Y192532D01*
X44284Y192519D01*
X44217Y192509D01*
X44148Y192503D01*
X44080Y192501D01*
X44080Y192500D02*
X42881Y192500D01*
X44320Y192500D02*
X45280Y190581D01*
X47576Y190581D02*
X49495Y190581D01*
X47576Y190581D02*
X47576Y194899D01*
X49495Y194899D01*
X49015Y192980D02*
X47576Y192980D01*
X51525Y194899D02*
X51525Y190581D01*
X51525Y194899D02*
X52725Y194899D01*
X52792Y194897D01*
X52859Y194891D01*
X52926Y194882D01*
X52992Y194869D01*
X53057Y194852D01*
X53121Y194832D01*
X53184Y194808D01*
X53245Y194780D01*
X53305Y194749D01*
X53363Y194715D01*
X53419Y194678D01*
X53473Y194637D01*
X53524Y194594D01*
X53573Y194548D01*
X53619Y194499D01*
X53662Y194448D01*
X53703Y194394D01*
X53740Y194338D01*
X53774Y194280D01*
X53805Y194220D01*
X53833Y194159D01*
X53857Y194096D01*
X53877Y194032D01*
X53894Y193967D01*
X53907Y193901D01*
X53916Y193834D01*
X53922Y193767D01*
X53924Y193700D01*
X53924Y191780D01*
X53922Y191713D01*
X53916Y191646D01*
X53907Y191579D01*
X53894Y191513D01*
X53877Y191448D01*
X53857Y191384D01*
X53833Y191321D01*
X53805Y191260D01*
X53774Y191200D01*
X53740Y191142D01*
X53703Y191086D01*
X53662Y191032D01*
X53619Y190981D01*
X53573Y190932D01*
X53524Y190886D01*
X53473Y190843D01*
X53419Y190802D01*
X53363Y190765D01*
X53305Y190731D01*
X53245Y190700D01*
X53184Y190672D01*
X53121Y190648D01*
X53057Y190628D01*
X52992Y190611D01*
X52926Y190598D01*
X52859Y190589D01*
X52792Y190583D01*
X52725Y190581D01*
X51525Y190581D01*
D14*
X95650Y188700D02*
X108350Y188700D01*
X114700Y182350D01*
X114700Y169650D01*
X108350Y163300D01*
X89300Y169650D02*
X89300Y182350D01*
X95650Y188700D01*
X89300Y169650D02*
X95650Y163300D01*
X108350Y163300D01*
D13*
X97358Y192948D02*
X95919Y194987D01*
X97358Y192948D02*
X98798Y194987D01*
X97358Y192948D02*
X97358Y190669D01*
X100896Y190669D02*
X102815Y190669D01*
X100896Y190669D02*
X100896Y194987D01*
X102815Y194987D01*
X102336Y193068D02*
X100896Y193068D01*
X104859Y194987D02*
X104859Y190669D01*
X106778Y190669D01*
X108821Y190669D02*
X108821Y194987D01*
X108821Y190669D02*
X110740Y190669D01*
X112618Y191868D02*
X112618Y193788D01*
X112620Y193856D01*
X112626Y193925D01*
X112636Y193992D01*
X112649Y194060D01*
X112667Y194126D01*
X112688Y194191D01*
X112713Y194255D01*
X112741Y194317D01*
X112773Y194378D01*
X112808Y194436D01*
X112847Y194493D01*
X112889Y194547D01*
X112934Y194599D01*
X112981Y194648D01*
X113032Y194694D01*
X113085Y194737D01*
X113140Y194778D01*
X113198Y194815D01*
X113257Y194848D01*
X113319Y194879D01*
X113382Y194905D01*
X113446Y194928D01*
X113512Y194948D01*
X113579Y194963D01*
X113646Y194975D01*
X113714Y194983D01*
X113783Y194987D01*
X113851Y194987D01*
X113920Y194983D01*
X113988Y194975D01*
X114055Y194963D01*
X114122Y194948D01*
X114188Y194928D01*
X114252Y194905D01*
X114315Y194879D01*
X114377Y194848D01*
X114436Y194815D01*
X114494Y194778D01*
X114549Y194737D01*
X114602Y194694D01*
X114653Y194648D01*
X114700Y194599D01*
X114745Y194547D01*
X114787Y194493D01*
X114826Y194436D01*
X114861Y194378D01*
X114893Y194317D01*
X114921Y194255D01*
X114946Y194191D01*
X114967Y194126D01*
X114985Y194060D01*
X114998Y193992D01*
X115008Y193925D01*
X115014Y193856D01*
X115016Y193788D01*
X115017Y193788D02*
X115017Y191868D01*
X115016Y191868D02*
X115014Y191800D01*
X115008Y191731D01*
X114998Y191664D01*
X114985Y191596D01*
X114967Y191530D01*
X114946Y191465D01*
X114921Y191401D01*
X114893Y191339D01*
X114861Y191278D01*
X114826Y191220D01*
X114787Y191163D01*
X114745Y191109D01*
X114700Y191057D01*
X114653Y191008D01*
X114602Y190962D01*
X114549Y190919D01*
X114494Y190878D01*
X114436Y190841D01*
X114377Y190808D01*
X114315Y190777D01*
X114252Y190751D01*
X114188Y190728D01*
X114122Y190708D01*
X114055Y190693D01*
X113988Y190681D01*
X113920Y190673D01*
X113851Y190669D01*
X113783Y190669D01*
X113714Y190673D01*
X113646Y190681D01*
X113579Y190693D01*
X113512Y190708D01*
X113446Y190728D01*
X113382Y190751D01*
X113319Y190777D01*
X113257Y190808D01*
X113198Y190841D01*
X113140Y190878D01*
X113085Y190919D01*
X113032Y190962D01*
X112981Y191008D01*
X112934Y191057D01*
X112889Y191109D01*
X112847Y191163D01*
X112808Y191220D01*
X112773Y191278D01*
X112741Y191339D01*
X112713Y191401D01*
X112688Y191465D01*
X112667Y191530D01*
X112649Y191596D01*
X112636Y191664D01*
X112626Y191731D01*
X112620Y191800D01*
X112618Y191868D01*
X117080Y194987D02*
X118039Y190669D01*
X118999Y193548D01*
X119958Y190669D01*
X120918Y194987D01*
D14*
X81350Y188700D02*
X68650Y188700D01*
X81350Y188700D02*
X87700Y182350D01*
X87700Y169650D01*
X81350Y163300D01*
X62300Y169650D02*
X62300Y182350D01*
X68650Y188700D01*
X62300Y169650D02*
X68650Y163300D01*
X81350Y163300D01*
D13*
X68680Y192980D02*
X67960Y192980D01*
X68680Y192980D02*
X68680Y190581D01*
X67241Y190581D01*
X67181Y190583D01*
X67121Y190589D01*
X67061Y190598D01*
X67002Y190611D01*
X66944Y190628D01*
X66888Y190648D01*
X66832Y190672D01*
X66779Y190700D01*
X66727Y190730D01*
X66677Y190764D01*
X66629Y190801D01*
X66584Y190841D01*
X66541Y190884D01*
X66501Y190929D01*
X66464Y190977D01*
X66430Y191027D01*
X66400Y191079D01*
X66372Y191132D01*
X66348Y191188D01*
X66328Y191244D01*
X66311Y191302D01*
X66298Y191361D01*
X66289Y191421D01*
X66283Y191481D01*
X66281Y191541D01*
X66281Y193939D01*
X66283Y193999D01*
X66289Y194059D01*
X66298Y194119D01*
X66311Y194178D01*
X66328Y194236D01*
X66348Y194292D01*
X66372Y194348D01*
X66400Y194401D01*
X66430Y194453D01*
X66464Y194503D01*
X66501Y194551D01*
X66541Y194596D01*
X66584Y194639D01*
X66629Y194679D01*
X66677Y194716D01*
X66727Y194750D01*
X66778Y194780D01*
X66832Y194808D01*
X66888Y194832D01*
X66944Y194852D01*
X67002Y194869D01*
X67061Y194882D01*
X67121Y194891D01*
X67181Y194897D01*
X67241Y194899D01*
X68680Y194899D01*
X71200Y194899D02*
X71200Y190581D01*
X71200Y194899D02*
X72400Y194899D01*
X72468Y194897D01*
X72537Y194891D01*
X72604Y194881D01*
X72672Y194868D01*
X72738Y194850D01*
X72803Y194829D01*
X72867Y194804D01*
X72929Y194776D01*
X72990Y194744D01*
X73048Y194709D01*
X73105Y194670D01*
X73159Y194628D01*
X73211Y194583D01*
X73260Y194536D01*
X73306Y194485D01*
X73349Y194432D01*
X73390Y194377D01*
X73427Y194319D01*
X73460Y194260D01*
X73491Y194198D01*
X73517Y194135D01*
X73540Y194071D01*
X73560Y194005D01*
X73575Y193938D01*
X73587Y193871D01*
X73595Y193803D01*
X73599Y193734D01*
X73599Y193666D01*
X73595Y193597D01*
X73587Y193529D01*
X73575Y193462D01*
X73560Y193395D01*
X73540Y193329D01*
X73517Y193265D01*
X73491Y193202D01*
X73460Y193140D01*
X73427Y193081D01*
X73390Y193023D01*
X73349Y192968D01*
X73306Y192915D01*
X73260Y192864D01*
X73211Y192817D01*
X73159Y192772D01*
X73105Y192730D01*
X73048Y192691D01*
X72990Y192656D01*
X72929Y192624D01*
X72867Y192596D01*
X72803Y192571D01*
X72738Y192550D01*
X72672Y192532D01*
X72604Y192519D01*
X72537Y192509D01*
X72468Y192503D01*
X72400Y192501D01*
X72400Y192500D02*
X71200Y192500D01*
X72639Y192500D02*
X73599Y190581D01*
X75895Y190581D02*
X77814Y190581D01*
X75895Y190581D02*
X75895Y194899D01*
X77814Y194899D01*
X77334Y192980D02*
X75895Y192980D01*
X79857Y190581D02*
X81777Y190581D01*
X79857Y190581D02*
X79857Y194899D01*
X81777Y194899D01*
X81297Y192980D02*
X79857Y192980D01*
X83807Y194899D02*
X83807Y190581D01*
X86206Y190581D02*
X83807Y194899D01*
X86206Y194899D02*
X86206Y190581D01*
D14*
X63500Y38100D02*
X50800Y38100D01*
X63500Y38100D02*
X69850Y31750D01*
X69850Y19050D01*
X63500Y12700D01*
X44450Y19050D02*
X44450Y31750D01*
X50800Y38100D01*
X44450Y19050D02*
X50800Y12700D01*
X63500Y12700D01*
D13*
X51043Y6421D02*
X51041Y6361D01*
X51035Y6301D01*
X51026Y6241D01*
X51013Y6182D01*
X50996Y6124D01*
X50976Y6068D01*
X50952Y6012D01*
X50924Y5959D01*
X50894Y5907D01*
X50860Y5857D01*
X50823Y5809D01*
X50783Y5764D01*
X50740Y5721D01*
X50695Y5681D01*
X50647Y5644D01*
X50597Y5610D01*
X50545Y5580D01*
X50492Y5552D01*
X50436Y5528D01*
X50380Y5508D01*
X50322Y5491D01*
X50263Y5478D01*
X50203Y5469D01*
X50143Y5463D01*
X50083Y5461D01*
X49994Y5463D01*
X49905Y5469D01*
X49817Y5479D01*
X49729Y5492D01*
X49642Y5510D01*
X49556Y5531D01*
X49470Y5556D01*
X49386Y5585D01*
X49303Y5617D01*
X49222Y5653D01*
X49142Y5692D01*
X49065Y5735D01*
X48989Y5782D01*
X48915Y5831D01*
X48843Y5884D01*
X48774Y5940D01*
X48708Y5999D01*
X48644Y6061D01*
X48763Y8819D02*
X48765Y8879D01*
X48771Y8939D01*
X48780Y8999D01*
X48793Y9058D01*
X48810Y9116D01*
X48830Y9172D01*
X48854Y9228D01*
X48882Y9281D01*
X48912Y9333D01*
X48946Y9383D01*
X48983Y9431D01*
X49023Y9476D01*
X49066Y9519D01*
X49111Y9559D01*
X49159Y9596D01*
X49209Y9630D01*
X49261Y9660D01*
X49314Y9688D01*
X49370Y9712D01*
X49426Y9732D01*
X49484Y9749D01*
X49543Y9762D01*
X49603Y9771D01*
X49663Y9777D01*
X49723Y9779D01*
X49806Y9777D01*
X49888Y9771D01*
X49970Y9762D01*
X50052Y9749D01*
X50133Y9732D01*
X50213Y9711D01*
X50292Y9687D01*
X50370Y9659D01*
X50446Y9627D01*
X50521Y9592D01*
X50594Y9554D01*
X50666Y9512D01*
X50735Y9467D01*
X50802Y9419D01*
X49243Y7979D02*
X49193Y8011D01*
X49144Y8046D01*
X49098Y8083D01*
X49055Y8124D01*
X49013Y8167D01*
X48975Y8212D01*
X48939Y8260D01*
X48907Y8310D01*
X48877Y8361D01*
X48851Y8415D01*
X48828Y8470D01*
X48808Y8526D01*
X48792Y8583D01*
X48779Y8641D01*
X48770Y8700D01*
X48765Y8759D01*
X48763Y8819D01*
X50563Y7261D02*
X50613Y7229D01*
X50662Y7194D01*
X50708Y7157D01*
X50751Y7116D01*
X50793Y7073D01*
X50831Y7028D01*
X50867Y6980D01*
X50899Y6930D01*
X50929Y6879D01*
X50955Y6825D01*
X50978Y6770D01*
X50998Y6714D01*
X51014Y6657D01*
X51027Y6599D01*
X51036Y6540D01*
X51041Y6481D01*
X51043Y6421D01*
X50563Y7260D02*
X49244Y7980D01*
X53216Y9779D02*
X53216Y5461D01*
X53216Y9779D02*
X54415Y9779D01*
X54482Y9777D01*
X54549Y9771D01*
X54616Y9762D01*
X54682Y9749D01*
X54747Y9732D01*
X54811Y9712D01*
X54874Y9688D01*
X54935Y9660D01*
X54995Y9629D01*
X55053Y9595D01*
X55109Y9558D01*
X55163Y9517D01*
X55214Y9474D01*
X55263Y9428D01*
X55309Y9379D01*
X55352Y9328D01*
X55393Y9274D01*
X55430Y9218D01*
X55464Y9160D01*
X55495Y9100D01*
X55523Y9039D01*
X55547Y8976D01*
X55567Y8912D01*
X55584Y8847D01*
X55597Y8781D01*
X55606Y8714D01*
X55612Y8647D01*
X55614Y8580D01*
X55615Y8580D02*
X55615Y6660D01*
X55614Y6660D02*
X55612Y6593D01*
X55606Y6526D01*
X55597Y6459D01*
X55584Y6393D01*
X55567Y6328D01*
X55547Y6264D01*
X55523Y6201D01*
X55495Y6140D01*
X55464Y6080D01*
X55430Y6022D01*
X55393Y5966D01*
X55352Y5912D01*
X55309Y5861D01*
X55263Y5812D01*
X55214Y5766D01*
X55163Y5723D01*
X55109Y5682D01*
X55053Y5645D01*
X54995Y5611D01*
X54935Y5580D01*
X54874Y5552D01*
X54811Y5528D01*
X54747Y5508D01*
X54682Y5491D01*
X54616Y5478D01*
X54549Y5469D01*
X54482Y5463D01*
X54415Y5461D01*
X53216Y5461D01*
X57700Y5461D02*
X59140Y9779D01*
X60579Y5461D01*
X60219Y6541D02*
X58060Y6541D01*
D14*
X38100Y38100D02*
X25400Y38100D01*
X38100Y38100D02*
X44450Y31750D01*
X44450Y19050D01*
X38100Y12700D01*
X19050Y19050D02*
X19050Y31750D01*
X25400Y38100D01*
X19050Y19050D02*
X25400Y12700D01*
X38100Y12700D01*
D13*
X27264Y6421D02*
X27262Y6361D01*
X27256Y6301D01*
X27247Y6241D01*
X27234Y6182D01*
X27217Y6124D01*
X27197Y6068D01*
X27173Y6012D01*
X27145Y5959D01*
X27115Y5907D01*
X27081Y5857D01*
X27044Y5809D01*
X27004Y5764D01*
X26961Y5721D01*
X26916Y5681D01*
X26868Y5644D01*
X26818Y5610D01*
X26766Y5580D01*
X26713Y5552D01*
X26657Y5528D01*
X26601Y5508D01*
X26543Y5491D01*
X26484Y5478D01*
X26424Y5469D01*
X26364Y5463D01*
X26304Y5461D01*
X26215Y5463D01*
X26126Y5469D01*
X26038Y5479D01*
X25950Y5492D01*
X25863Y5510D01*
X25777Y5531D01*
X25691Y5556D01*
X25607Y5585D01*
X25524Y5617D01*
X25443Y5653D01*
X25363Y5692D01*
X25286Y5735D01*
X25210Y5782D01*
X25136Y5831D01*
X25064Y5884D01*
X24995Y5940D01*
X24929Y5999D01*
X24865Y6061D01*
X24985Y8819D02*
X24987Y8879D01*
X24993Y8939D01*
X25002Y8999D01*
X25015Y9058D01*
X25032Y9116D01*
X25052Y9172D01*
X25076Y9228D01*
X25104Y9281D01*
X25134Y9333D01*
X25168Y9383D01*
X25205Y9431D01*
X25245Y9476D01*
X25288Y9519D01*
X25333Y9559D01*
X25381Y9596D01*
X25431Y9630D01*
X25483Y9660D01*
X25536Y9688D01*
X25592Y9712D01*
X25648Y9732D01*
X25706Y9749D01*
X25765Y9762D01*
X25825Y9771D01*
X25885Y9777D01*
X25945Y9779D01*
X26028Y9777D01*
X26110Y9771D01*
X26192Y9762D01*
X26274Y9749D01*
X26355Y9732D01*
X26435Y9711D01*
X26514Y9687D01*
X26592Y9659D01*
X26668Y9627D01*
X26743Y9592D01*
X26816Y9554D01*
X26888Y9512D01*
X26957Y9467D01*
X27024Y9419D01*
X25465Y7979D02*
X25415Y8011D01*
X25366Y8046D01*
X25320Y8083D01*
X25277Y8124D01*
X25235Y8167D01*
X25197Y8212D01*
X25161Y8260D01*
X25129Y8310D01*
X25099Y8361D01*
X25073Y8415D01*
X25050Y8470D01*
X25030Y8526D01*
X25014Y8583D01*
X25001Y8641D01*
X24992Y8700D01*
X24987Y8759D01*
X24985Y8819D01*
X26784Y7261D02*
X26834Y7229D01*
X26883Y7194D01*
X26929Y7157D01*
X26972Y7116D01*
X27014Y7073D01*
X27052Y7028D01*
X27088Y6980D01*
X27120Y6930D01*
X27150Y6879D01*
X27176Y6825D01*
X27199Y6770D01*
X27219Y6714D01*
X27235Y6657D01*
X27248Y6599D01*
X27257Y6540D01*
X27262Y6481D01*
X27264Y6421D01*
X26784Y7260D02*
X25465Y7980D01*
X30225Y5461D02*
X31185Y5461D01*
X30225Y5461D02*
X30165Y5463D01*
X30105Y5469D01*
X30045Y5478D01*
X29986Y5491D01*
X29928Y5508D01*
X29872Y5528D01*
X29816Y5552D01*
X29763Y5580D01*
X29711Y5610D01*
X29661Y5644D01*
X29613Y5681D01*
X29568Y5721D01*
X29525Y5764D01*
X29485Y5809D01*
X29448Y5857D01*
X29414Y5907D01*
X29384Y5959D01*
X29356Y6012D01*
X29332Y6068D01*
X29312Y6124D01*
X29295Y6182D01*
X29282Y6241D01*
X29273Y6301D01*
X29267Y6361D01*
X29265Y6421D01*
X29266Y6421D02*
X29266Y8819D01*
X29265Y8819D02*
X29267Y8879D01*
X29273Y8939D01*
X29282Y8999D01*
X29295Y9058D01*
X29312Y9116D01*
X29332Y9172D01*
X29356Y9228D01*
X29384Y9281D01*
X29414Y9333D01*
X29448Y9383D01*
X29485Y9431D01*
X29525Y9476D01*
X29568Y9519D01*
X29613Y9559D01*
X29661Y9596D01*
X29711Y9630D01*
X29762Y9660D01*
X29816Y9688D01*
X29872Y9712D01*
X29928Y9732D01*
X29986Y9749D01*
X30045Y9762D01*
X30105Y9771D01*
X30165Y9777D01*
X30225Y9779D01*
X31185Y9779D01*
X33260Y9779D02*
X33260Y5461D01*
X35179Y5461D01*
D14*
X101600Y38100D02*
X114300Y38100D01*
X120650Y31750D01*
X120650Y19050D01*
X114300Y12700D01*
X95250Y19050D02*
X95250Y31750D01*
X101600Y38100D01*
X95250Y19050D02*
X101600Y12700D01*
X114300Y12700D01*
D13*
X101417Y9539D02*
X102857Y5221D01*
X104296Y9539D01*
X107170Y5221D02*
X108129Y5221D01*
X107170Y5221D02*
X107110Y5223D01*
X107050Y5229D01*
X106990Y5238D01*
X106931Y5251D01*
X106873Y5268D01*
X106817Y5288D01*
X106761Y5312D01*
X106708Y5340D01*
X106656Y5370D01*
X106606Y5404D01*
X106558Y5441D01*
X106513Y5481D01*
X106470Y5524D01*
X106430Y5569D01*
X106393Y5617D01*
X106359Y5667D01*
X106329Y5719D01*
X106301Y5772D01*
X106277Y5828D01*
X106257Y5884D01*
X106240Y5942D01*
X106227Y6001D01*
X106218Y6061D01*
X106212Y6121D01*
X106210Y6181D01*
X106210Y8579D01*
X106212Y8639D01*
X106218Y8699D01*
X106227Y8759D01*
X106240Y8818D01*
X106257Y8876D01*
X106277Y8932D01*
X106301Y8988D01*
X106329Y9041D01*
X106359Y9093D01*
X106393Y9143D01*
X106430Y9191D01*
X106470Y9236D01*
X106513Y9279D01*
X106558Y9319D01*
X106606Y9356D01*
X106656Y9390D01*
X106707Y9420D01*
X106761Y9448D01*
X106817Y9472D01*
X106873Y9492D01*
X106931Y9509D01*
X106990Y9522D01*
X107050Y9531D01*
X107110Y9537D01*
X107170Y9539D01*
X108129Y9539D01*
X110979Y5221D02*
X111939Y5221D01*
X110979Y5221D02*
X110919Y5223D01*
X110859Y5229D01*
X110799Y5238D01*
X110740Y5251D01*
X110682Y5268D01*
X110626Y5288D01*
X110570Y5312D01*
X110517Y5340D01*
X110465Y5370D01*
X110415Y5404D01*
X110367Y5441D01*
X110322Y5481D01*
X110279Y5524D01*
X110239Y5569D01*
X110202Y5617D01*
X110168Y5667D01*
X110138Y5719D01*
X110110Y5772D01*
X110086Y5828D01*
X110066Y5884D01*
X110049Y5942D01*
X110036Y6001D01*
X110027Y6061D01*
X110021Y6121D01*
X110019Y6181D01*
X110020Y6181D02*
X110020Y8579D01*
X110019Y8579D02*
X110021Y8639D01*
X110027Y8699D01*
X110036Y8759D01*
X110049Y8818D01*
X110066Y8876D01*
X110086Y8932D01*
X110110Y8988D01*
X110138Y9041D01*
X110168Y9093D01*
X110202Y9143D01*
X110239Y9191D01*
X110279Y9236D01*
X110322Y9279D01*
X110367Y9319D01*
X110415Y9356D01*
X110465Y9390D01*
X110516Y9420D01*
X110570Y9448D01*
X110626Y9472D01*
X110682Y9492D01*
X110740Y9509D01*
X110799Y9522D01*
X110859Y9531D01*
X110919Y9537D01*
X110979Y9539D01*
X111939Y9539D01*
D14*
X88900Y38100D02*
X76200Y38100D01*
X88900Y38100D02*
X95250Y31750D01*
X95250Y19050D01*
X88900Y12700D01*
X69850Y19050D02*
X69850Y31750D01*
X76200Y38100D01*
X69850Y19050D02*
X76200Y12700D01*
X88900Y12700D01*
D13*
X76226Y7860D02*
X75506Y7860D01*
X76226Y7860D02*
X76226Y5461D01*
X74786Y5461D01*
X74726Y5463D01*
X74666Y5469D01*
X74606Y5478D01*
X74547Y5491D01*
X74489Y5508D01*
X74433Y5528D01*
X74377Y5552D01*
X74324Y5580D01*
X74272Y5610D01*
X74222Y5644D01*
X74174Y5681D01*
X74129Y5721D01*
X74086Y5764D01*
X74046Y5809D01*
X74009Y5857D01*
X73975Y5907D01*
X73945Y5959D01*
X73917Y6012D01*
X73893Y6068D01*
X73873Y6124D01*
X73856Y6182D01*
X73843Y6241D01*
X73834Y6301D01*
X73828Y6361D01*
X73826Y6421D01*
X73827Y6421D02*
X73827Y8819D01*
X73826Y8819D02*
X73828Y8879D01*
X73834Y8939D01*
X73843Y8999D01*
X73856Y9058D01*
X73873Y9116D01*
X73893Y9172D01*
X73917Y9228D01*
X73945Y9281D01*
X73975Y9333D01*
X74009Y9383D01*
X74046Y9431D01*
X74086Y9476D01*
X74129Y9519D01*
X74174Y9559D01*
X74222Y9596D01*
X74272Y9630D01*
X74323Y9660D01*
X74377Y9688D01*
X74433Y9712D01*
X74489Y9732D01*
X74547Y9749D01*
X74606Y9762D01*
X74666Y9771D01*
X74726Y9777D01*
X74786Y9779D01*
X76226Y9779D01*
X78703Y9779D02*
X78703Y5461D01*
X81102Y5461D02*
X78703Y9779D01*
X81102Y9779D02*
X81102Y5461D01*
X83580Y5461D02*
X83580Y9779D01*
X84780Y9779D01*
X84847Y9777D01*
X84914Y9771D01*
X84981Y9762D01*
X85047Y9749D01*
X85112Y9732D01*
X85176Y9712D01*
X85239Y9688D01*
X85300Y9660D01*
X85360Y9629D01*
X85418Y9595D01*
X85474Y9558D01*
X85528Y9517D01*
X85579Y9474D01*
X85628Y9428D01*
X85674Y9379D01*
X85717Y9328D01*
X85758Y9274D01*
X85795Y9218D01*
X85829Y9160D01*
X85860Y9100D01*
X85888Y9039D01*
X85912Y8976D01*
X85932Y8912D01*
X85949Y8847D01*
X85962Y8781D01*
X85971Y8714D01*
X85977Y8647D01*
X85979Y8580D01*
X85979Y6660D01*
X85977Y6593D01*
X85971Y6526D01*
X85962Y6459D01*
X85949Y6393D01*
X85932Y6328D01*
X85912Y6264D01*
X85888Y6201D01*
X85860Y6140D01*
X85829Y6080D01*
X85795Y6022D01*
X85758Y5966D01*
X85717Y5912D01*
X85674Y5861D01*
X85628Y5812D01*
X85579Y5766D01*
X85528Y5723D01*
X85474Y5682D01*
X85418Y5645D01*
X85360Y5611D01*
X85300Y5580D01*
X85239Y5552D01*
X85176Y5528D01*
X85112Y5508D01*
X85047Y5491D01*
X84981Y5478D01*
X84914Y5469D01*
X84847Y5463D01*
X84780Y5461D01*
X83580Y5461D01*
X43490Y41021D02*
X43490Y45339D01*
X44690Y45339D01*
X44758Y45337D01*
X44827Y45331D01*
X44894Y45321D01*
X44962Y45308D01*
X45028Y45290D01*
X45093Y45269D01*
X45157Y45244D01*
X45219Y45216D01*
X45280Y45184D01*
X45338Y45149D01*
X45395Y45110D01*
X45449Y45068D01*
X45501Y45023D01*
X45550Y44976D01*
X45596Y44925D01*
X45639Y44872D01*
X45680Y44817D01*
X45717Y44759D01*
X45750Y44700D01*
X45781Y44638D01*
X45807Y44575D01*
X45830Y44511D01*
X45850Y44445D01*
X45865Y44378D01*
X45877Y44311D01*
X45885Y44243D01*
X45889Y44174D01*
X45889Y44106D01*
X45885Y44037D01*
X45877Y43969D01*
X45865Y43902D01*
X45850Y43835D01*
X45830Y43769D01*
X45807Y43705D01*
X45781Y43642D01*
X45750Y43580D01*
X45717Y43521D01*
X45680Y43463D01*
X45639Y43408D01*
X45596Y43355D01*
X45550Y43304D01*
X45501Y43257D01*
X45449Y43212D01*
X45395Y43170D01*
X45338Y43131D01*
X45280Y43096D01*
X45219Y43064D01*
X45157Y43036D01*
X45093Y43011D01*
X45028Y42990D01*
X44962Y42972D01*
X44894Y42959D01*
X44827Y42949D01*
X44758Y42943D01*
X44690Y42941D01*
X44690Y42940D02*
X43490Y42940D01*
X44930Y42940D02*
X45889Y41021D01*
X48020Y44379D02*
X49220Y45339D01*
X49220Y41021D01*
X50419Y41021D02*
X48020Y41021D01*
X99981Y63341D02*
X99981Y67659D01*
X101180Y67659D01*
X101248Y67657D01*
X101317Y67651D01*
X101384Y67641D01*
X101452Y67628D01*
X101518Y67610D01*
X101583Y67589D01*
X101647Y67564D01*
X101709Y67536D01*
X101770Y67504D01*
X101828Y67469D01*
X101885Y67430D01*
X101939Y67388D01*
X101991Y67343D01*
X102040Y67296D01*
X102086Y67245D01*
X102129Y67192D01*
X102170Y67137D01*
X102207Y67079D01*
X102240Y67020D01*
X102271Y66958D01*
X102297Y66895D01*
X102320Y66831D01*
X102340Y66765D01*
X102355Y66698D01*
X102367Y66631D01*
X102375Y66563D01*
X102379Y66494D01*
X102379Y66426D01*
X102375Y66357D01*
X102367Y66289D01*
X102355Y66222D01*
X102340Y66155D01*
X102320Y66089D01*
X102297Y66025D01*
X102271Y65962D01*
X102240Y65900D01*
X102207Y65841D01*
X102170Y65783D01*
X102129Y65728D01*
X102086Y65675D01*
X102040Y65624D01*
X101991Y65577D01*
X101939Y65532D01*
X101885Y65490D01*
X101828Y65451D01*
X101770Y65416D01*
X101709Y65384D01*
X101647Y65356D01*
X101583Y65331D01*
X101518Y65310D01*
X101452Y65292D01*
X101384Y65279D01*
X101317Y65269D01*
X101248Y65263D01*
X101180Y65261D01*
X101180Y65260D02*
X99981Y65260D01*
X101420Y65260D02*
X102380Y63341D01*
X105830Y67660D02*
X105893Y67658D01*
X105955Y67653D01*
X106018Y67644D01*
X106079Y67631D01*
X106140Y67615D01*
X106199Y67595D01*
X106258Y67572D01*
X106315Y67545D01*
X106370Y67515D01*
X106423Y67482D01*
X106475Y67446D01*
X106524Y67407D01*
X106571Y67366D01*
X106616Y67321D01*
X106657Y67274D01*
X106696Y67225D01*
X106732Y67173D01*
X106765Y67120D01*
X106795Y67065D01*
X106822Y67008D01*
X106845Y66949D01*
X106865Y66890D01*
X106881Y66829D01*
X106894Y66768D01*
X106903Y66705D01*
X106908Y66643D01*
X106910Y66580D01*
X105830Y67659D02*
X105757Y67657D01*
X105685Y67651D01*
X105613Y67642D01*
X105541Y67629D01*
X105471Y67612D01*
X105401Y67591D01*
X105333Y67567D01*
X105265Y67539D01*
X105200Y67508D01*
X105136Y67473D01*
X105074Y67435D01*
X105014Y67394D01*
X104957Y67349D01*
X104901Y67302D01*
X104849Y67252D01*
X104799Y67199D01*
X104752Y67144D01*
X104707Y67086D01*
X104666Y67027D01*
X104628Y66965D01*
X104594Y66901D01*
X104562Y66835D01*
X104535Y66768D01*
X104510Y66699D01*
X106550Y65740D02*
X106597Y65788D01*
X106642Y65838D01*
X106683Y65891D01*
X106721Y65946D01*
X106756Y66003D01*
X106788Y66062D01*
X106816Y66123D01*
X106841Y66185D01*
X106862Y66249D01*
X106879Y66314D01*
X106893Y66380D01*
X106902Y66446D01*
X106908Y66513D01*
X106910Y66580D01*
X106550Y65740D02*
X104511Y63341D01*
X106910Y63341D01*
D14*
X49784Y123190D02*
X47498Y123190D01*
X41402Y123190D01*
X39116Y123190D01*
X41402Y123190D02*
X41404Y123081D01*
X41410Y122973D01*
X41419Y122864D01*
X41433Y122756D01*
X41450Y122649D01*
X41472Y122542D01*
X41497Y122436D01*
X41525Y122331D01*
X41558Y122227D01*
X41594Y122125D01*
X41634Y122024D01*
X41677Y121924D01*
X41724Y121826D01*
X41775Y121729D01*
X41829Y121635D01*
X41886Y121542D01*
X41946Y121452D01*
X42010Y121363D01*
X42077Y121277D01*
X42146Y121194D01*
X42219Y121113D01*
X42295Y121035D01*
X42373Y120959D01*
X42454Y120886D01*
X42537Y120817D01*
X42623Y120750D01*
X42712Y120686D01*
X42802Y120626D01*
X42895Y120569D01*
X42989Y120515D01*
X43086Y120464D01*
X43184Y120417D01*
X43284Y120374D01*
X43385Y120334D01*
X43487Y120298D01*
X43591Y120265D01*
X43696Y120237D01*
X43802Y120212D01*
X43909Y120190D01*
X44016Y120173D01*
X44124Y120159D01*
X44233Y120150D01*
X44341Y120144D01*
X44450Y120142D01*
X44559Y120144D01*
X44667Y120150D01*
X44776Y120159D01*
X44884Y120173D01*
X44991Y120190D01*
X45098Y120212D01*
X45204Y120237D01*
X45309Y120265D01*
X45413Y120298D01*
X45515Y120334D01*
X45616Y120374D01*
X45716Y120417D01*
X45814Y120464D01*
X45911Y120515D01*
X46005Y120569D01*
X46098Y120626D01*
X46188Y120686D01*
X46277Y120750D01*
X46363Y120817D01*
X46446Y120886D01*
X46527Y120959D01*
X46605Y121035D01*
X46681Y121113D01*
X46754Y121194D01*
X46823Y121277D01*
X46890Y121363D01*
X46954Y121452D01*
X47014Y121542D01*
X47071Y121635D01*
X47125Y121729D01*
X47176Y121826D01*
X47223Y121924D01*
X47266Y122024D01*
X47306Y122125D01*
X47342Y122227D01*
X47375Y122331D01*
X47403Y122436D01*
X47428Y122542D01*
X47450Y122649D01*
X47467Y122756D01*
X47481Y122864D01*
X47490Y122973D01*
X47496Y123081D01*
X47498Y123190D01*
D13*
X53291Y130921D02*
X53291Y135239D01*
X54490Y135239D01*
X54558Y135237D01*
X54627Y135231D01*
X54694Y135221D01*
X54762Y135208D01*
X54828Y135190D01*
X54893Y135169D01*
X54957Y135144D01*
X55019Y135116D01*
X55080Y135084D01*
X55138Y135049D01*
X55195Y135010D01*
X55249Y134968D01*
X55301Y134923D01*
X55350Y134876D01*
X55396Y134825D01*
X55439Y134772D01*
X55480Y134717D01*
X55517Y134659D01*
X55550Y134600D01*
X55581Y134538D01*
X55607Y134475D01*
X55630Y134411D01*
X55650Y134345D01*
X55665Y134278D01*
X55677Y134211D01*
X55685Y134143D01*
X55689Y134074D01*
X55689Y134006D01*
X55685Y133937D01*
X55677Y133869D01*
X55665Y133802D01*
X55650Y133735D01*
X55630Y133669D01*
X55607Y133605D01*
X55581Y133542D01*
X55550Y133480D01*
X55517Y133421D01*
X55480Y133363D01*
X55439Y133308D01*
X55396Y133255D01*
X55350Y133204D01*
X55301Y133157D01*
X55249Y133112D01*
X55195Y133070D01*
X55138Y133031D01*
X55080Y132996D01*
X55019Y132964D01*
X54957Y132936D01*
X54893Y132911D01*
X54828Y132890D01*
X54762Y132872D01*
X54694Y132859D01*
X54627Y132849D01*
X54558Y132843D01*
X54490Y132841D01*
X54490Y132840D02*
X53291Y132840D01*
X54730Y132840D02*
X55690Y130921D01*
X57821Y131881D02*
X58780Y135239D01*
X57821Y131881D02*
X60220Y131881D01*
X59500Y132840D02*
X59500Y130921D01*
X20850Y162311D02*
X20850Y166629D01*
X22050Y166629D01*
X22118Y166627D01*
X22187Y166621D01*
X22254Y166611D01*
X22322Y166598D01*
X22388Y166580D01*
X22453Y166559D01*
X22517Y166534D01*
X22579Y166506D01*
X22640Y166474D01*
X22698Y166439D01*
X22755Y166400D01*
X22809Y166358D01*
X22861Y166313D01*
X22910Y166266D01*
X22956Y166215D01*
X22999Y166162D01*
X23040Y166107D01*
X23077Y166049D01*
X23110Y165990D01*
X23141Y165928D01*
X23167Y165865D01*
X23190Y165801D01*
X23210Y165735D01*
X23225Y165668D01*
X23237Y165601D01*
X23245Y165533D01*
X23249Y165464D01*
X23249Y165396D01*
X23245Y165327D01*
X23237Y165259D01*
X23225Y165192D01*
X23210Y165125D01*
X23190Y165059D01*
X23167Y164995D01*
X23141Y164932D01*
X23110Y164870D01*
X23077Y164811D01*
X23040Y164753D01*
X22999Y164698D01*
X22956Y164645D01*
X22910Y164594D01*
X22861Y164547D01*
X22809Y164502D01*
X22755Y164460D01*
X22698Y164421D01*
X22640Y164386D01*
X22579Y164354D01*
X22517Y164326D01*
X22453Y164301D01*
X22388Y164280D01*
X22322Y164262D01*
X22254Y164249D01*
X22187Y164239D01*
X22118Y164233D01*
X22050Y164231D01*
X22050Y164230D02*
X20850Y164230D01*
X22290Y164230D02*
X23249Y162311D01*
X25380Y162311D02*
X26819Y162311D01*
X26879Y162313D01*
X26939Y162319D01*
X26999Y162328D01*
X27058Y162341D01*
X27116Y162358D01*
X27172Y162378D01*
X27228Y162402D01*
X27281Y162430D01*
X27333Y162460D01*
X27383Y162494D01*
X27431Y162531D01*
X27476Y162571D01*
X27519Y162614D01*
X27559Y162659D01*
X27596Y162707D01*
X27630Y162757D01*
X27660Y162808D01*
X27688Y162862D01*
X27712Y162918D01*
X27732Y162974D01*
X27749Y163032D01*
X27762Y163091D01*
X27771Y163151D01*
X27777Y163211D01*
X27779Y163271D01*
X27779Y163750D01*
X27777Y163810D01*
X27771Y163870D01*
X27762Y163930D01*
X27749Y163989D01*
X27732Y164047D01*
X27712Y164103D01*
X27688Y164159D01*
X27660Y164212D01*
X27630Y164264D01*
X27596Y164314D01*
X27559Y164362D01*
X27519Y164407D01*
X27476Y164450D01*
X27431Y164490D01*
X27383Y164527D01*
X27333Y164561D01*
X27281Y164591D01*
X27228Y164619D01*
X27172Y164643D01*
X27116Y164663D01*
X27058Y164680D01*
X26999Y164693D01*
X26939Y164702D01*
X26879Y164708D01*
X26819Y164710D01*
X25380Y164710D01*
X25380Y166629D01*
X27779Y166629D01*
M02*
