G04 EAGLE Gerber RS-274X export*
G75*
%MOMM*%
%FSLAX34Y34*%
%LPD*%
%INSilkscreen Top*%
%IPPOS*%
%AMOC8*
5,1,8,0,0,1.08239X$1,22.5*%
G01*
%ADD10C,0.000000*%
%ADD11C,0.330200*%
%ADD12C,0.203200*%
%ADD13C,0.152400*%
%ADD14C,0.130000*%
%ADD15C,0.127000*%
%ADD16C,0.160000*%
%ADD17C,0.200000*%
%ADD18R,1.400000X0.200000*%
%ADD19C,0.250000*%
%ADD20R,0.650000X1.400000*%
%ADD21C,0.101600*%
%ADD22R,0.250000X0.225000*%
%ADD23C,0.150000*%
%ADD24R,0.200000X1.400000*%
%ADD25C,0.254000*%


D10*
X0Y-12000D02*
X908000Y-12000D01*
X908000Y813000D01*
X0Y814000D01*
X0Y-12000D01*
D11*
X41845Y233187D02*
X48031Y233187D01*
X41845Y233187D02*
X38752Y230094D01*
X38752Y217722D01*
X41845Y214629D01*
X48031Y214629D01*
X51124Y217722D01*
X51124Y230094D01*
X48031Y233187D01*
X58866Y233187D02*
X58866Y214629D01*
X71238Y214629D02*
X58866Y233187D01*
X71238Y233187D02*
X71238Y214629D01*
X46624Y32037D02*
X40438Y32037D01*
X37346Y28944D01*
X37346Y16572D01*
X40438Y13479D01*
X46624Y13479D01*
X49717Y16572D01*
X49717Y28944D01*
X46624Y32037D01*
X57459Y32037D02*
X57459Y13479D01*
X57459Y32037D02*
X69831Y32037D01*
X63645Y22758D02*
X57459Y22758D01*
X77573Y13479D02*
X77573Y32037D01*
X89945Y32037D01*
X83759Y22758D02*
X77573Y22758D01*
D12*
X811859Y7562D02*
X818977Y7562D01*
X815418Y11121D02*
X815418Y4003D01*
X862009Y6197D02*
X869127Y6197D01*
X846777Y3434D02*
X836099Y3434D01*
X846777Y3434D02*
X846777Y8773D01*
X844997Y10552D01*
X837879Y10552D01*
X836099Y8773D01*
X836099Y3434D01*
X21268Y773997D02*
X21268Y781115D01*
X17709Y777556D02*
X24827Y777556D01*
X21903Y723965D02*
X21903Y716847D01*
X26607Y745422D02*
X15929Y745422D01*
X26607Y745422D02*
X26607Y750760D01*
X24827Y752540D01*
X17709Y752540D01*
X15929Y750760D01*
X15929Y745422D01*
D13*
X560899Y9836D02*
X560899Y4181D01*
X558071Y7008D02*
X563727Y7008D01*
X609986Y8271D02*
X615641Y8271D01*
X589141Y5756D02*
X580657Y5756D01*
X589141Y5756D02*
X589141Y9997D01*
X587727Y11411D01*
X582071Y11411D01*
X580657Y9997D01*
X580657Y5756D01*
D12*
X235015Y797882D02*
X227897Y797882D01*
X231456Y801441D02*
X231456Y794323D01*
X177865Y797247D02*
X170747Y797247D01*
X199322Y792544D02*
X199322Y803221D01*
X199322Y792544D02*
X204660Y792544D01*
X206440Y794323D01*
X206440Y801441D01*
X204660Y803221D01*
X199322Y803221D01*
X659898Y12085D02*
X659898Y4967D01*
X656339Y8526D02*
X663457Y8526D01*
X680754Y-6525D02*
X691432Y-6525D01*
X686093Y-6525D02*
X686093Y593D01*
X680754Y593D02*
X691432Y593D01*
X691432Y5169D02*
X680754Y5169D01*
X680754Y10507D01*
X682534Y12287D01*
X686093Y12287D01*
X687872Y10507D01*
X687872Y5169D01*
X706559Y-1764D02*
X708339Y16D01*
X706559Y-1764D02*
X706559Y-5323D01*
X708339Y-7103D01*
X710118Y-7103D01*
X711898Y-5323D01*
X711898Y-1764D01*
X713677Y16D01*
X715457Y16D01*
X717237Y-1764D01*
X717237Y-5323D01*
X715457Y-7103D01*
X706559Y9930D02*
X708339Y11710D01*
X706559Y9930D02*
X706559Y6371D01*
X708339Y4591D01*
X715457Y4591D01*
X717237Y6371D01*
X717237Y9930D01*
X715457Y11710D01*
X717237Y16285D02*
X706559Y16285D01*
X717237Y16285D02*
X717237Y23404D01*
X734339Y-234D02*
X732559Y-2014D01*
X732559Y-5573D01*
X734339Y-7353D01*
X736118Y-7353D01*
X737898Y-5573D01*
X737898Y-2014D01*
X739677Y-234D01*
X741457Y-234D01*
X743237Y-2014D01*
X743237Y-5573D01*
X741457Y-7353D01*
X743237Y4341D02*
X732559Y4341D01*
X743237Y4341D02*
X743237Y9680D01*
X741457Y11460D01*
X734339Y11460D01*
X732559Y9680D01*
X732559Y4341D01*
X736118Y16035D02*
X743237Y16035D01*
X736118Y16035D02*
X732559Y19594D01*
X736118Y23154D01*
X743237Y23154D01*
X737898Y23154D02*
X737898Y16035D01*
X763263Y11685D02*
X763263Y4567D01*
D13*
X652866Y586586D02*
X644382Y586586D01*
X644382Y590828D01*
X645796Y592241D01*
X648624Y592241D01*
X650038Y590828D01*
X650038Y586586D01*
X650038Y589414D02*
X652866Y592241D01*
X652866Y595794D02*
X644382Y595794D01*
X644382Y601449D01*
X648624Y598621D02*
X648624Y595794D01*
X652866Y605002D02*
X644382Y605002D01*
X647210Y607829D01*
X644382Y610657D01*
X652866Y610657D01*
X651452Y614209D02*
X652866Y615623D01*
X652866Y618451D01*
X651452Y619865D01*
X645796Y619865D01*
X644382Y618451D01*
X644382Y615623D01*
X645796Y614209D01*
X647210Y614209D01*
X648624Y615623D01*
X648624Y619865D01*
X644382Y623417D02*
X644382Y629073D01*
X644382Y623417D02*
X648624Y623417D01*
X647210Y626245D01*
X647210Y627659D01*
X648624Y629073D01*
X651452Y629073D01*
X652866Y627659D01*
X652866Y624831D01*
X651452Y623417D01*
X652866Y632625D02*
X644382Y632625D01*
X650038Y635453D02*
X652866Y632625D01*
X650038Y635453D02*
X652866Y638281D01*
X644382Y638281D01*
D14*
X0Y-17000D02*
X0Y-89331D01*
X908000Y-89331D02*
X908000Y-17000D01*
X907350Y-69831D02*
X650Y-69831D01*
X26000Y-66638D01*
X26000Y-73023D01*
X650Y-69831D01*
X26000Y-68531D01*
X26000Y-71131D02*
X650Y-69831D01*
X26000Y-67231D01*
X26000Y-72431D02*
X650Y-69831D01*
X882000Y-66638D02*
X907350Y-69831D01*
X882000Y-66638D02*
X882000Y-73023D01*
X907350Y-69831D01*
X882000Y-68531D01*
X882000Y-71131D02*
X907350Y-69831D01*
X882000Y-67231D01*
X882000Y-72431D02*
X907350Y-69831D01*
D12*
X434035Y-64340D02*
X432255Y-62560D01*
X434035Y-64340D02*
X437594Y-64340D01*
X439373Y-62560D01*
X439373Y-55442D01*
X437594Y-53662D01*
X434035Y-53662D01*
X432255Y-55442D01*
X432255Y-57221D01*
X434035Y-59001D01*
X439373Y-59001D01*
X443949Y-62560D02*
X443949Y-55442D01*
X445729Y-53662D01*
X449288Y-53662D01*
X451067Y-55442D01*
X451067Y-62560D01*
X449288Y-64340D01*
X445729Y-64340D01*
X443949Y-62560D01*
X451067Y-55442D01*
X455643Y-62560D02*
X455643Y-64340D01*
X455643Y-62560D02*
X457422Y-62560D01*
X457422Y-64340D01*
X455643Y-64340D01*
X461490Y-55442D02*
X463269Y-53662D01*
X466829Y-53662D01*
X468608Y-55442D01*
X468608Y-57221D01*
X466829Y-59001D01*
X468608Y-60781D01*
X468608Y-62560D01*
X466829Y-64340D01*
X463269Y-64340D01*
X461490Y-62560D01*
X461490Y-60781D01*
X463269Y-59001D01*
X461490Y-57221D01*
X461490Y-55442D01*
X463269Y-59001D02*
X466829Y-59001D01*
X473184Y-62560D02*
X473184Y-55442D01*
X474963Y-53662D01*
X478522Y-53662D01*
X480302Y-55442D01*
X480302Y-62560D01*
X478522Y-64340D01*
X474963Y-64340D01*
X473184Y-62560D01*
X480302Y-55442D01*
D14*
X-5000Y-12000D02*
X-108500Y-12000D01*
X-108500Y814000D02*
X-5000Y814000D01*
X-89000Y813350D02*
X-89000Y-11350D01*
X-92192Y14000D01*
X-85808Y14000D01*
X-89000Y-11350D01*
X-90300Y14000D01*
X-87700Y14000D02*
X-89000Y-11350D01*
X-91600Y14000D01*
X-86400Y14000D02*
X-89000Y-11350D01*
X-92192Y788000D02*
X-89000Y813350D01*
X-92192Y788000D02*
X-85808Y788000D01*
X-89000Y813350D01*
X-90300Y788000D01*
X-87700Y788000D02*
X-89000Y813350D01*
X-91600Y788000D01*
X-86400Y788000D02*
X-89000Y813350D01*
D13*
X-111777Y372653D02*
X-109065Y369941D01*
X-111777Y372653D02*
X-111777Y378076D01*
X-109065Y380788D01*
X-106354Y380788D01*
X-103642Y378076D01*
X-100930Y380788D01*
X-98219Y380788D01*
X-95507Y378076D01*
X-95507Y372653D01*
X-98219Y369941D01*
X-100930Y369941D01*
X-103642Y372653D01*
X-106354Y369941D01*
X-109065Y369941D01*
X-103642Y372653D02*
X-103642Y378076D01*
X-95507Y386313D02*
X-95507Y397159D01*
X-95507Y386313D02*
X-106354Y397159D01*
X-109065Y397159D01*
X-111777Y394448D01*
X-111777Y389024D01*
X-109065Y386313D01*
X-98219Y402684D02*
X-95507Y402684D01*
X-98219Y402684D02*
X-98219Y405396D01*
X-95507Y405396D01*
X-95507Y402684D01*
X-109065Y416293D02*
X-111777Y421717D01*
X-109065Y416293D02*
X-103642Y410870D01*
X-98219Y410870D01*
X-95507Y413582D01*
X-95507Y419005D01*
X-98219Y421717D01*
X-100930Y421717D01*
X-103642Y419005D01*
X-103642Y410870D01*
X-98219Y427242D02*
X-109065Y427242D01*
X-111777Y429953D01*
X-111777Y435377D01*
X-109065Y438088D01*
X-98219Y438088D01*
X-95507Y435377D01*
X-95507Y429953D01*
X-98219Y427242D01*
X-109065Y438088D01*
X722704Y286245D02*
X724118Y284831D01*
X722704Y286245D02*
X719876Y286245D01*
X718462Y284831D01*
X718462Y279176D01*
X719876Y277762D01*
X722704Y277762D01*
X724118Y279176D01*
X727670Y284831D02*
X729084Y286245D01*
X731911Y286245D01*
X733325Y284831D01*
X733325Y283418D01*
X731911Y282004D01*
X733325Y280590D01*
X733325Y279176D01*
X731911Y277762D01*
X729084Y277762D01*
X727670Y279176D01*
X727670Y280590D01*
X729084Y282004D01*
X727670Y283418D01*
X727670Y284831D01*
X729084Y282004D02*
X731911Y282004D01*
X395354Y644259D02*
X393940Y645673D01*
X391113Y645673D01*
X389699Y644259D01*
X389699Y638603D01*
X391113Y637190D01*
X393940Y637190D01*
X395354Y638603D01*
X398907Y644259D02*
X400321Y645673D01*
X403148Y645673D01*
X404562Y644259D01*
X404562Y642845D01*
X403148Y641431D01*
X401734Y641431D01*
X403148Y641431D02*
X404562Y640017D01*
X404562Y638603D01*
X403148Y637190D01*
X400321Y637190D01*
X398907Y638603D01*
X694205Y185345D02*
X695619Y183931D01*
X694205Y185345D02*
X691377Y185345D01*
X689963Y183931D01*
X689963Y178276D01*
X691377Y176862D01*
X694205Y176862D01*
X695619Y178276D01*
X699171Y182518D02*
X701999Y185345D01*
X701999Y176862D01*
X699171Y176862D02*
X704827Y176862D01*
X708379Y178276D02*
X708379Y183931D01*
X709793Y185345D01*
X712621Y185345D01*
X714035Y183931D01*
X714035Y178276D01*
X712621Y176862D01*
X709793Y176862D01*
X708379Y178276D01*
X714035Y183931D01*
X743655Y200213D02*
X745069Y201627D01*
X743655Y200213D02*
X743655Y197385D01*
X745069Y195971D01*
X750724Y195971D01*
X752138Y197385D01*
X752138Y200213D01*
X750724Y201627D01*
X750724Y205179D02*
X752138Y206593D01*
X752138Y209421D01*
X750724Y210835D01*
X745069Y210835D01*
X743655Y209421D01*
X743655Y206593D01*
X745069Y205179D01*
X746483Y205179D01*
X747896Y206593D01*
X747896Y210835D01*
D15*
X691425Y218375D02*
X691425Y230875D01*
X713825Y230875D02*
X713825Y218375D01*
D16*
X693325Y207125D02*
X693327Y207181D01*
X693333Y207238D01*
X693343Y207293D01*
X693357Y207348D01*
X693374Y207402D01*
X693396Y207454D01*
X693421Y207504D01*
X693449Y207553D01*
X693481Y207600D01*
X693516Y207644D01*
X693554Y207686D01*
X693595Y207725D01*
X693639Y207760D01*
X693685Y207793D01*
X693733Y207822D01*
X693783Y207848D01*
X693835Y207871D01*
X693889Y207889D01*
X693943Y207904D01*
X693998Y207915D01*
X694054Y207922D01*
X694111Y207925D01*
X694167Y207924D01*
X694224Y207919D01*
X694279Y207910D01*
X694334Y207897D01*
X694388Y207880D01*
X694441Y207860D01*
X694492Y207836D01*
X694541Y207808D01*
X694588Y207777D01*
X694633Y207743D01*
X694676Y207705D01*
X694715Y207665D01*
X694752Y207622D01*
X694785Y207577D01*
X694815Y207529D01*
X694842Y207479D01*
X694865Y207428D01*
X694885Y207375D01*
X694901Y207321D01*
X694913Y207265D01*
X694921Y207210D01*
X694925Y207153D01*
X694925Y207097D01*
X694921Y207040D01*
X694913Y206985D01*
X694901Y206929D01*
X694885Y206875D01*
X694865Y206822D01*
X694842Y206771D01*
X694815Y206721D01*
X694785Y206673D01*
X694752Y206628D01*
X694715Y206585D01*
X694676Y206545D01*
X694633Y206507D01*
X694588Y206473D01*
X694541Y206442D01*
X694492Y206414D01*
X694441Y206390D01*
X694388Y206370D01*
X694334Y206353D01*
X694279Y206340D01*
X694224Y206331D01*
X694167Y206326D01*
X694111Y206325D01*
X694054Y206328D01*
X693998Y206335D01*
X693943Y206346D01*
X693889Y206361D01*
X693835Y206379D01*
X693783Y206402D01*
X693733Y206428D01*
X693685Y206457D01*
X693639Y206490D01*
X693595Y206525D01*
X693554Y206564D01*
X693516Y206606D01*
X693481Y206650D01*
X693449Y206697D01*
X693421Y206746D01*
X693396Y206796D01*
X693374Y206848D01*
X693357Y206902D01*
X693343Y206957D01*
X693333Y207012D01*
X693327Y207069D01*
X693325Y207125D01*
D13*
X687449Y215387D02*
X681794Y215387D01*
X680380Y216801D01*
X680380Y219629D01*
X681794Y221043D01*
X687449Y221043D01*
X688863Y219629D01*
X688863Y216801D01*
X687449Y215387D01*
X686035Y218215D02*
X688863Y221043D01*
X688863Y228836D02*
X680380Y228836D01*
X684621Y224595D01*
X684621Y230250D01*
D17*
X639970Y218993D02*
X639972Y219056D01*
X639978Y219118D01*
X639988Y219180D01*
X640001Y219242D01*
X640019Y219302D01*
X640040Y219361D01*
X640065Y219419D01*
X640094Y219475D01*
X640126Y219529D01*
X640161Y219581D01*
X640199Y219630D01*
X640241Y219678D01*
X640285Y219722D01*
X640333Y219764D01*
X640382Y219802D01*
X640434Y219837D01*
X640488Y219869D01*
X640544Y219898D01*
X640602Y219923D01*
X640661Y219944D01*
X640721Y219962D01*
X640783Y219975D01*
X640845Y219985D01*
X640907Y219991D01*
X640970Y219993D01*
X641033Y219991D01*
X641095Y219985D01*
X641157Y219975D01*
X641219Y219962D01*
X641279Y219944D01*
X641338Y219923D01*
X641396Y219898D01*
X641452Y219869D01*
X641506Y219837D01*
X641558Y219802D01*
X641607Y219764D01*
X641655Y219722D01*
X641699Y219678D01*
X641741Y219630D01*
X641779Y219581D01*
X641814Y219529D01*
X641846Y219475D01*
X641875Y219419D01*
X641900Y219361D01*
X641921Y219302D01*
X641939Y219242D01*
X641952Y219180D01*
X641962Y219118D01*
X641968Y219056D01*
X641970Y218993D01*
X641968Y218930D01*
X641962Y218868D01*
X641952Y218806D01*
X641939Y218744D01*
X641921Y218684D01*
X641900Y218625D01*
X641875Y218567D01*
X641846Y218511D01*
X641814Y218457D01*
X641779Y218405D01*
X641741Y218356D01*
X641699Y218308D01*
X641655Y218264D01*
X641607Y218222D01*
X641558Y218184D01*
X641506Y218149D01*
X641452Y218117D01*
X641396Y218088D01*
X641338Y218063D01*
X641279Y218042D01*
X641219Y218024D01*
X641157Y218011D01*
X641095Y218001D01*
X641033Y217995D01*
X640970Y217993D01*
X640907Y217995D01*
X640845Y218001D01*
X640783Y218011D01*
X640721Y218024D01*
X640661Y218042D01*
X640602Y218063D01*
X640544Y218088D01*
X640488Y218117D01*
X640434Y218149D01*
X640382Y218184D01*
X640333Y218222D01*
X640285Y218264D01*
X640241Y218308D01*
X640199Y218356D01*
X640161Y218405D01*
X640126Y218457D01*
X640094Y218511D01*
X640065Y218567D01*
X640040Y218625D01*
X640019Y218684D01*
X640001Y218744D01*
X639988Y218806D01*
X639978Y218868D01*
X639972Y218930D01*
X639970Y218993D01*
D15*
X643570Y187493D02*
X635170Y187493D01*
X643570Y187493D02*
X643570Y195243D01*
X622770Y187493D02*
X614370Y187493D01*
X614370Y195243D01*
X625670Y200493D02*
X632270Y200493D01*
D13*
X613620Y216171D02*
X613620Y221826D01*
X615033Y223240D01*
X617861Y223240D01*
X619275Y221826D01*
X619275Y216171D01*
X617861Y214757D01*
X615033Y214757D01*
X613620Y216171D01*
X616447Y217585D02*
X619275Y214757D01*
X622827Y220413D02*
X625655Y223240D01*
X625655Y214757D01*
X622827Y214757D02*
X628483Y214757D01*
X391424Y387247D02*
X391424Y395730D01*
X395665Y395730D01*
X397079Y394316D01*
X397079Y391489D01*
X395665Y390075D01*
X391424Y390075D01*
X394252Y390075D02*
X397079Y387247D01*
X400632Y394316D02*
X402046Y395730D01*
X404873Y395730D01*
X406287Y394316D01*
X406287Y392903D01*
X404873Y391489D01*
X403459Y391489D01*
X404873Y391489D02*
X406287Y390075D01*
X406287Y388661D01*
X404873Y387247D01*
X402046Y387247D01*
X400632Y388661D01*
X643855Y192762D02*
X652338Y192762D01*
X643855Y192762D02*
X643855Y197004D01*
X645269Y198418D01*
X648096Y198418D01*
X649510Y197004D01*
X649510Y192762D01*
X649510Y195590D02*
X652338Y198418D01*
X646683Y201970D02*
X643855Y204798D01*
X652338Y204798D01*
X652338Y207625D02*
X652338Y201970D01*
X650924Y211178D02*
X645269Y211178D01*
X643855Y212592D01*
X643855Y215419D01*
X645269Y216833D01*
X650924Y216833D01*
X652338Y215419D01*
X652338Y212592D01*
X650924Y211178D01*
X645269Y216833D01*
X442087Y603062D02*
X442087Y611545D01*
X446329Y611545D01*
X447743Y610131D01*
X447743Y607304D01*
X446329Y605890D01*
X442087Y605890D01*
X444915Y605890D02*
X447743Y603062D01*
X451295Y608718D02*
X454123Y611545D01*
X454123Y603062D01*
X456950Y603062D02*
X451295Y603062D01*
X482405Y547496D02*
X490888Y547496D01*
X482405Y547496D02*
X482405Y551738D01*
X483819Y553152D01*
X486646Y553152D01*
X488060Y551738D01*
X488060Y547496D01*
X488060Y550324D02*
X490888Y553152D01*
X490888Y556704D02*
X490888Y562360D01*
X485233Y562360D02*
X490888Y556704D01*
X485233Y562360D02*
X483819Y562360D01*
X482405Y560946D01*
X482405Y558118D01*
X483819Y556704D01*
X611465Y145860D02*
X619948Y145860D01*
X611465Y145860D02*
X611465Y150101D01*
X612879Y151515D01*
X615706Y151515D01*
X617120Y150101D01*
X617120Y145860D01*
X617120Y148687D02*
X619948Y151515D01*
X619948Y159309D02*
X611465Y159309D01*
X615706Y155067D01*
X615706Y160723D01*
X621055Y226521D02*
X629538Y226521D01*
X621055Y226521D02*
X621055Y230763D01*
X622469Y232177D01*
X625296Y232177D01*
X626710Y230763D01*
X626710Y226521D01*
X626710Y229349D02*
X629538Y232177D01*
X628124Y235729D02*
X629538Y237143D01*
X629538Y239971D01*
X628124Y241385D01*
X622469Y241385D01*
X621055Y239971D01*
X621055Y237143D01*
X622469Y235729D01*
X623883Y235729D01*
X625296Y237143D01*
X625296Y241385D01*
X685687Y269837D02*
X685687Y278320D01*
X689929Y278320D01*
X691343Y276906D01*
X691343Y274079D01*
X689929Y272665D01*
X685687Y272665D01*
X688515Y272665D02*
X691343Y269837D01*
X694895Y276906D02*
X696309Y278320D01*
X699136Y278320D01*
X700550Y276906D01*
X700550Y275493D01*
X699136Y274079D01*
X700550Y272665D01*
X700550Y271251D01*
X699136Y269837D01*
X696309Y269837D01*
X694895Y271251D01*
X694895Y272665D01*
X696309Y274079D01*
X694895Y275493D01*
X694895Y276906D01*
X696309Y274079D02*
X699136Y274079D01*
X622300Y693100D02*
X368300Y693100D01*
X622300Y693100D02*
X622300Y350200D01*
X368300Y350200D01*
X368300Y693100D01*
X465379Y686470D02*
X466793Y685056D01*
X465379Y686470D02*
X462551Y686470D01*
X461137Y685056D01*
X461137Y683643D01*
X462551Y682229D01*
X465379Y682229D01*
X466793Y680815D01*
X466793Y679401D01*
X465379Y677987D01*
X462551Y677987D01*
X461137Y679401D01*
X470345Y677987D02*
X476000Y677987D01*
X470345Y677987D02*
X476000Y683643D01*
X476000Y685056D01*
X474586Y686470D01*
X471759Y686470D01*
X470345Y685056D01*
X479553Y686470D02*
X479553Y677987D01*
X482380Y683643D02*
X479553Y686470D01*
X482380Y683643D02*
X485208Y686470D01*
X485208Y677987D01*
X488761Y677987D02*
X491588Y677987D01*
X490174Y677987D02*
X490174Y686470D01*
X488761Y686470D02*
X491588Y686470D01*
X494899Y686470D02*
X494899Y677987D01*
X500555Y677987D02*
X494899Y686470D01*
X500555Y686470D02*
X500555Y677987D01*
X504107Y677987D02*
X506935Y677987D01*
X505521Y677987D02*
X505521Y686470D01*
X504107Y686470D02*
X506935Y686470D01*
X510246Y683643D02*
X513073Y686470D01*
X513073Y677987D01*
X510246Y677987D02*
X515901Y677987D01*
X471931Y173870D02*
X471931Y165387D01*
X471931Y173870D02*
X476173Y173870D01*
X477587Y172456D01*
X477587Y169629D01*
X476173Y168215D01*
X471931Y168215D01*
X474759Y168215D02*
X477587Y165387D01*
X481139Y173870D02*
X486795Y173870D01*
X486795Y172456D01*
X481139Y166801D01*
X481139Y165387D01*
X503835Y164592D02*
X512318Y164592D01*
X503835Y164592D02*
X503835Y168834D01*
X505249Y170248D01*
X508076Y170248D01*
X509490Y168834D01*
X509490Y164592D01*
X509490Y167420D02*
X512318Y170248D01*
X503835Y173800D02*
X503835Y179455D01*
X503835Y173800D02*
X508076Y173800D01*
X506663Y176628D01*
X506663Y178041D01*
X508076Y179455D01*
X510904Y179455D01*
X512318Y178041D01*
X512318Y175214D01*
X510904Y173800D01*
X538086Y164185D02*
X539500Y162771D01*
X538086Y164185D02*
X535258Y164185D01*
X533845Y162771D01*
X533845Y157116D01*
X535258Y155702D01*
X538086Y155702D01*
X539500Y157116D01*
X543052Y164185D02*
X548708Y164185D01*
X543052Y164185D02*
X543052Y159944D01*
X545880Y161358D01*
X547294Y161358D01*
X548708Y159944D01*
X548708Y157116D01*
X547294Y155702D01*
X544466Y155702D01*
X543052Y157116D01*
X514735Y246274D02*
X513321Y247688D01*
X510493Y247688D01*
X509080Y246274D01*
X509080Y240618D01*
X510493Y239205D01*
X513321Y239205D01*
X514735Y240618D01*
X521115Y246274D02*
X523943Y247688D01*
X521115Y246274D02*
X518287Y243446D01*
X518287Y240618D01*
X519701Y239205D01*
X522529Y239205D01*
X523943Y240618D01*
X523943Y242032D01*
X522529Y243446D01*
X518287Y243446D01*
X485063Y129738D02*
X486477Y128324D01*
X485063Y129738D02*
X482235Y129738D01*
X480821Y128324D01*
X480821Y122668D01*
X482235Y121255D01*
X485063Y121255D01*
X486477Y122668D01*
X490029Y129738D02*
X495685Y129738D01*
X495685Y128324D01*
X490029Y122668D01*
X490029Y121255D01*
X458280Y217790D02*
X458280Y226273D01*
X462521Y226273D01*
X463935Y224859D01*
X463935Y222031D01*
X462521Y220617D01*
X458280Y220617D01*
X461107Y220617D02*
X463935Y217790D01*
X470315Y224859D02*
X473143Y226273D01*
X470315Y224859D02*
X467487Y222031D01*
X467487Y219203D01*
X468901Y217790D01*
X471729Y217790D01*
X473143Y219203D01*
X473143Y220617D01*
X471729Y222031D01*
X467487Y222031D01*
X637354Y343045D02*
X638768Y341631D01*
X637354Y343045D02*
X634526Y343045D01*
X633112Y341631D01*
X633112Y335976D01*
X634526Y334562D01*
X637354Y334562D01*
X638768Y335976D01*
X642320Y340218D02*
X645148Y343045D01*
X645148Y334562D01*
X647975Y334562D02*
X642320Y334562D01*
X651528Y341631D02*
X652942Y343045D01*
X655769Y343045D01*
X657183Y341631D01*
X657183Y340218D01*
X655769Y338804D01*
X654355Y338804D01*
X655769Y338804D02*
X657183Y337390D01*
X657183Y335976D01*
X655769Y334562D01*
X652942Y334562D01*
X651528Y335976D01*
X625018Y363806D02*
X623604Y365220D01*
X620776Y365220D01*
X619362Y363806D01*
X619362Y358151D01*
X620776Y356737D01*
X623604Y356737D01*
X625018Y358151D01*
X628570Y362393D02*
X631398Y365220D01*
X631398Y356737D01*
X634225Y356737D02*
X628570Y356737D01*
X637778Y356737D02*
X643433Y356737D01*
X637778Y356737D02*
X643433Y362393D01*
X643433Y363806D01*
X642019Y365220D01*
X639192Y365220D01*
X637778Y363806D01*
X593619Y303518D02*
X592205Y302104D01*
X592205Y299276D01*
X593619Y297862D01*
X599274Y297862D01*
X600688Y299276D01*
X600688Y302104D01*
X599274Y303518D01*
X595033Y307070D02*
X592205Y309898D01*
X600688Y309898D01*
X600688Y312725D02*
X600688Y307070D01*
X595033Y316278D02*
X592205Y319105D01*
X600688Y319105D01*
X600688Y316278D02*
X600688Y321933D01*
X330480Y595554D02*
X331894Y596968D01*
X330480Y595554D02*
X330480Y592726D01*
X331894Y591312D01*
X337549Y591312D01*
X338963Y592726D01*
X338963Y595554D01*
X337549Y596968D01*
X333308Y600520D02*
X330480Y603348D01*
X338963Y603348D01*
X338963Y606175D02*
X338963Y600520D01*
X331894Y612555D02*
X330480Y615383D01*
X331894Y612555D02*
X334721Y609728D01*
X337549Y609728D01*
X338963Y611142D01*
X338963Y613969D01*
X337549Y615383D01*
X336135Y615383D01*
X334721Y613969D01*
X334721Y609728D01*
D15*
X662800Y325050D02*
X662800Y312550D01*
X640400Y312550D02*
X640400Y325050D01*
D16*
X659300Y336300D02*
X659302Y336356D01*
X659308Y336413D01*
X659318Y336468D01*
X659332Y336523D01*
X659349Y336577D01*
X659371Y336629D01*
X659396Y336679D01*
X659424Y336728D01*
X659456Y336775D01*
X659491Y336819D01*
X659529Y336861D01*
X659570Y336900D01*
X659614Y336935D01*
X659660Y336968D01*
X659708Y336997D01*
X659758Y337023D01*
X659810Y337046D01*
X659864Y337064D01*
X659918Y337079D01*
X659973Y337090D01*
X660029Y337097D01*
X660086Y337100D01*
X660142Y337099D01*
X660199Y337094D01*
X660254Y337085D01*
X660309Y337072D01*
X660363Y337055D01*
X660416Y337035D01*
X660467Y337011D01*
X660516Y336983D01*
X660563Y336952D01*
X660608Y336918D01*
X660651Y336880D01*
X660690Y336840D01*
X660727Y336797D01*
X660760Y336752D01*
X660790Y336704D01*
X660817Y336654D01*
X660840Y336603D01*
X660860Y336550D01*
X660876Y336496D01*
X660888Y336440D01*
X660896Y336385D01*
X660900Y336328D01*
X660900Y336272D01*
X660896Y336215D01*
X660888Y336160D01*
X660876Y336104D01*
X660860Y336050D01*
X660840Y335997D01*
X660817Y335946D01*
X660790Y335896D01*
X660760Y335848D01*
X660727Y335803D01*
X660690Y335760D01*
X660651Y335720D01*
X660608Y335682D01*
X660563Y335648D01*
X660516Y335617D01*
X660467Y335589D01*
X660416Y335565D01*
X660363Y335545D01*
X660309Y335528D01*
X660254Y335515D01*
X660199Y335506D01*
X660142Y335501D01*
X660086Y335500D01*
X660029Y335503D01*
X659973Y335510D01*
X659918Y335521D01*
X659864Y335536D01*
X659810Y335554D01*
X659758Y335577D01*
X659708Y335603D01*
X659660Y335632D01*
X659614Y335665D01*
X659570Y335700D01*
X659529Y335739D01*
X659491Y335781D01*
X659456Y335825D01*
X659424Y335872D01*
X659396Y335921D01*
X659371Y335971D01*
X659349Y336023D01*
X659332Y336077D01*
X659318Y336132D01*
X659308Y336187D01*
X659302Y336244D01*
X659300Y336300D01*
D13*
X668769Y307271D02*
X674424Y307271D01*
X668769Y307271D02*
X667355Y308685D01*
X667355Y311513D01*
X668769Y312927D01*
X674424Y312927D01*
X675838Y311513D01*
X675838Y308685D01*
X674424Y307271D01*
X673010Y310099D02*
X675838Y312927D01*
X667355Y316479D02*
X667355Y322135D01*
X667355Y316479D02*
X671596Y316479D01*
X670183Y319307D01*
X670183Y320721D01*
X671596Y322135D01*
X674424Y322135D01*
X675838Y320721D01*
X675838Y317893D01*
X674424Y316479D01*
X281113Y651162D02*
X281113Y659645D01*
X285355Y659645D01*
X286769Y658231D01*
X286769Y655404D01*
X285355Y653990D01*
X281113Y653990D01*
X283941Y653990D02*
X286769Y651162D01*
X290321Y651162D02*
X295977Y651162D01*
X290321Y651162D02*
X295977Y656818D01*
X295977Y658231D01*
X294563Y659645D01*
X291735Y659645D01*
X290321Y658231D01*
X299529Y651162D02*
X305185Y651162D01*
X299529Y651162D02*
X305185Y656818D01*
X305185Y658231D01*
X303771Y659645D01*
X300943Y659645D01*
X299529Y658231D01*
X319213Y659645D02*
X319213Y651162D01*
X319213Y659645D02*
X323455Y659645D01*
X324869Y658231D01*
X324869Y655404D01*
X323455Y653990D01*
X319213Y653990D01*
X322041Y653990D02*
X324869Y651162D01*
X328421Y651162D02*
X334077Y651162D01*
X328421Y651162D02*
X334077Y656818D01*
X334077Y658231D01*
X332663Y659645D01*
X329835Y659645D01*
X328421Y658231D01*
X337629Y658231D02*
X339043Y659645D01*
X341871Y659645D01*
X343285Y658231D01*
X343285Y656818D01*
X341871Y655404D01*
X340457Y655404D01*
X341871Y655404D02*
X343285Y653990D01*
X343285Y652576D01*
X341871Y651162D01*
X339043Y651162D01*
X337629Y652576D01*
X492005Y397088D02*
X500488Y397088D01*
X492005Y397088D02*
X492005Y401330D01*
X493419Y402744D01*
X496246Y402744D01*
X497660Y401330D01*
X497660Y397088D01*
X497660Y399916D02*
X500488Y402744D01*
X494833Y406296D02*
X492005Y409124D01*
X500488Y409124D01*
X500488Y406296D02*
X500488Y411952D01*
X493419Y418332D02*
X492005Y421160D01*
X493419Y418332D02*
X496246Y415504D01*
X499074Y415504D01*
X500488Y416918D01*
X500488Y419746D01*
X499074Y421160D01*
X497660Y421160D01*
X496246Y419746D01*
X496246Y415504D01*
X535330Y339687D02*
X543813Y339687D01*
X535330Y339687D02*
X535330Y343929D01*
X536744Y345343D01*
X539571Y345343D01*
X540985Y343929D01*
X540985Y339687D01*
X540985Y342515D02*
X543813Y345343D01*
X538158Y348895D02*
X535330Y351723D01*
X543813Y351723D01*
X543813Y354550D02*
X543813Y348895D01*
X535330Y358103D02*
X535330Y363758D01*
X535330Y358103D02*
X539571Y358103D01*
X538158Y360930D01*
X538158Y362344D01*
X539571Y363758D01*
X542399Y363758D01*
X543813Y362344D01*
X543813Y359517D01*
X542399Y358103D01*
X683505Y365513D02*
X691988Y365513D01*
X683505Y365513D02*
X683505Y369755D01*
X684919Y371169D01*
X687746Y371169D01*
X689160Y369755D01*
X689160Y365513D01*
X689160Y368341D02*
X691988Y371169D01*
X686333Y374721D02*
X683505Y377549D01*
X691988Y377549D01*
X691988Y374721D02*
X691988Y380377D01*
X683505Y383929D02*
X683505Y389585D01*
X684919Y389585D01*
X690574Y383929D01*
X691988Y383929D01*
D15*
X658075Y593725D02*
X658075Y753725D01*
X818075Y753725D02*
X818075Y593725D01*
X665169Y628725D02*
X665171Y628919D01*
X665179Y629113D01*
X665190Y629307D01*
X665207Y629500D01*
X665228Y629693D01*
X665255Y629885D01*
X665285Y630077D01*
X665321Y630267D01*
X665361Y630457D01*
X665406Y630646D01*
X665455Y630834D01*
X665509Y631020D01*
X665568Y631205D01*
X665631Y631388D01*
X665699Y631570D01*
X665771Y631750D01*
X665847Y631929D01*
X665928Y632105D01*
X666013Y632280D01*
X666103Y632452D01*
X666196Y632622D01*
X666294Y632789D01*
X666396Y632955D01*
X666501Y633117D01*
X666611Y633277D01*
X666725Y633435D01*
X666842Y633589D01*
X666964Y633741D01*
X667089Y633889D01*
X667217Y634034D01*
X667349Y634177D01*
X667485Y634315D01*
X667623Y634451D01*
X667766Y634583D01*
X667911Y634711D01*
X668059Y634836D01*
X668211Y634958D01*
X668365Y635075D01*
X668523Y635189D01*
X668683Y635299D01*
X668845Y635404D01*
X669011Y635506D01*
X669178Y635604D01*
X669348Y635697D01*
X669520Y635787D01*
X669695Y635872D01*
X669871Y635953D01*
X670050Y636029D01*
X670230Y636101D01*
X670412Y636169D01*
X670595Y636232D01*
X670780Y636291D01*
X670966Y636345D01*
X671154Y636394D01*
X671343Y636439D01*
X671533Y636479D01*
X671723Y636515D01*
X671915Y636545D01*
X672107Y636572D01*
X672300Y636593D01*
X672493Y636610D01*
X672687Y636621D01*
X672881Y636629D01*
X673075Y636631D01*
X673269Y636629D01*
X673463Y636621D01*
X673657Y636610D01*
X673850Y636593D01*
X674043Y636572D01*
X674235Y636545D01*
X674427Y636515D01*
X674617Y636479D01*
X674807Y636439D01*
X674996Y636394D01*
X675184Y636345D01*
X675370Y636291D01*
X675555Y636232D01*
X675738Y636169D01*
X675920Y636101D01*
X676100Y636029D01*
X676279Y635953D01*
X676455Y635872D01*
X676630Y635787D01*
X676802Y635697D01*
X676972Y635604D01*
X677139Y635506D01*
X677305Y635404D01*
X677467Y635299D01*
X677627Y635189D01*
X677785Y635075D01*
X677939Y634958D01*
X678091Y634836D01*
X678239Y634711D01*
X678384Y634583D01*
X678527Y634451D01*
X678665Y634315D01*
X678801Y634177D01*
X678933Y634034D01*
X679061Y633889D01*
X679186Y633741D01*
X679308Y633589D01*
X679425Y633435D01*
X679539Y633277D01*
X679649Y633117D01*
X679754Y632955D01*
X679856Y632789D01*
X679954Y632622D01*
X680047Y632452D01*
X680137Y632280D01*
X680222Y632105D01*
X680303Y631929D01*
X680379Y631750D01*
X680451Y631570D01*
X680519Y631388D01*
X680582Y631205D01*
X680641Y631020D01*
X680695Y630834D01*
X680744Y630646D01*
X680789Y630457D01*
X680829Y630267D01*
X680865Y630077D01*
X680895Y629885D01*
X680922Y629693D01*
X680943Y629500D01*
X680960Y629307D01*
X680971Y629113D01*
X680979Y628919D01*
X680981Y628725D01*
X680979Y628531D01*
X680971Y628337D01*
X680960Y628143D01*
X680943Y627950D01*
X680922Y627757D01*
X680895Y627565D01*
X680865Y627373D01*
X680829Y627183D01*
X680789Y626993D01*
X680744Y626804D01*
X680695Y626616D01*
X680641Y626430D01*
X680582Y626245D01*
X680519Y626062D01*
X680451Y625880D01*
X680379Y625700D01*
X680303Y625521D01*
X680222Y625345D01*
X680137Y625170D01*
X680047Y624998D01*
X679954Y624828D01*
X679856Y624661D01*
X679754Y624495D01*
X679649Y624333D01*
X679539Y624173D01*
X679425Y624015D01*
X679308Y623861D01*
X679186Y623709D01*
X679061Y623561D01*
X678933Y623416D01*
X678801Y623273D01*
X678665Y623135D01*
X678527Y622999D01*
X678384Y622867D01*
X678239Y622739D01*
X678091Y622614D01*
X677939Y622492D01*
X677785Y622375D01*
X677627Y622261D01*
X677467Y622151D01*
X677305Y622046D01*
X677139Y621944D01*
X676972Y621846D01*
X676802Y621753D01*
X676630Y621663D01*
X676455Y621578D01*
X676279Y621497D01*
X676100Y621421D01*
X675920Y621349D01*
X675738Y621281D01*
X675555Y621218D01*
X675370Y621159D01*
X675184Y621105D01*
X674996Y621056D01*
X674807Y621011D01*
X674617Y620971D01*
X674427Y620935D01*
X674235Y620905D01*
X674043Y620878D01*
X673850Y620857D01*
X673657Y620840D01*
X673463Y620829D01*
X673269Y620821D01*
X673075Y620819D01*
X672881Y620821D01*
X672687Y620829D01*
X672493Y620840D01*
X672300Y620857D01*
X672107Y620878D01*
X671915Y620905D01*
X671723Y620935D01*
X671533Y620971D01*
X671343Y621011D01*
X671154Y621056D01*
X670966Y621105D01*
X670780Y621159D01*
X670595Y621218D01*
X670412Y621281D01*
X670230Y621349D01*
X670050Y621421D01*
X669871Y621497D01*
X669695Y621578D01*
X669520Y621663D01*
X669348Y621753D01*
X669178Y621846D01*
X669011Y621944D01*
X668845Y622046D01*
X668683Y622151D01*
X668523Y622261D01*
X668365Y622375D01*
X668211Y622492D01*
X668059Y622614D01*
X667911Y622739D01*
X667766Y622867D01*
X667623Y622999D01*
X667485Y623135D01*
X667349Y623273D01*
X667217Y623416D01*
X667089Y623561D01*
X666964Y623709D01*
X666842Y623861D01*
X666725Y624015D01*
X666611Y624173D01*
X666501Y624333D01*
X666396Y624495D01*
X666294Y624661D01*
X666196Y624828D01*
X666103Y624998D01*
X666013Y625170D01*
X665928Y625345D01*
X665847Y625521D01*
X665771Y625700D01*
X665699Y625880D01*
X665631Y626062D01*
X665568Y626245D01*
X665509Y626430D01*
X665455Y626616D01*
X665406Y626804D01*
X665361Y626993D01*
X665321Y627183D01*
X665285Y627373D01*
X665255Y627565D01*
X665228Y627757D01*
X665207Y627950D01*
X665190Y628143D01*
X665179Y628337D01*
X665171Y628531D01*
X665169Y628725D01*
X779150Y412900D02*
X845750Y412900D01*
X874150Y412900D02*
X903950Y412900D01*
X845750Y560400D02*
X775150Y560400D01*
X874150Y560400D02*
X903950Y560400D01*
X903950Y412900D01*
X758950Y515850D02*
X758950Y543950D01*
D17*
X739450Y509150D02*
X739452Y509213D01*
X739458Y509275D01*
X739468Y509337D01*
X739481Y509399D01*
X739499Y509459D01*
X739520Y509518D01*
X739545Y509576D01*
X739574Y509632D01*
X739606Y509686D01*
X739641Y509738D01*
X739679Y509787D01*
X739721Y509835D01*
X739765Y509879D01*
X739813Y509921D01*
X739862Y509959D01*
X739914Y509994D01*
X739968Y510026D01*
X740024Y510055D01*
X740082Y510080D01*
X740141Y510101D01*
X740201Y510119D01*
X740263Y510132D01*
X740325Y510142D01*
X740387Y510148D01*
X740450Y510150D01*
X740513Y510148D01*
X740575Y510142D01*
X740637Y510132D01*
X740699Y510119D01*
X740759Y510101D01*
X740818Y510080D01*
X740876Y510055D01*
X740932Y510026D01*
X740986Y509994D01*
X741038Y509959D01*
X741087Y509921D01*
X741135Y509879D01*
X741179Y509835D01*
X741221Y509787D01*
X741259Y509738D01*
X741294Y509686D01*
X741326Y509632D01*
X741355Y509576D01*
X741380Y509518D01*
X741401Y509459D01*
X741419Y509399D01*
X741432Y509337D01*
X741442Y509275D01*
X741448Y509213D01*
X741450Y509150D01*
X741448Y509087D01*
X741442Y509025D01*
X741432Y508963D01*
X741419Y508901D01*
X741401Y508841D01*
X741380Y508782D01*
X741355Y508724D01*
X741326Y508668D01*
X741294Y508614D01*
X741259Y508562D01*
X741221Y508513D01*
X741179Y508465D01*
X741135Y508421D01*
X741087Y508379D01*
X741038Y508341D01*
X740986Y508306D01*
X740932Y508274D01*
X740876Y508245D01*
X740818Y508220D01*
X740759Y508199D01*
X740699Y508181D01*
X740637Y508168D01*
X740575Y508158D01*
X740513Y508152D01*
X740450Y508150D01*
X740387Y508152D01*
X740325Y508158D01*
X740263Y508168D01*
X740201Y508181D01*
X740141Y508199D01*
X740082Y508220D01*
X740024Y508245D01*
X739968Y508274D01*
X739914Y508306D01*
X739862Y508341D01*
X739813Y508379D01*
X739765Y508421D01*
X739721Y508465D01*
X739679Y508513D01*
X739641Y508562D01*
X739606Y508614D01*
X739574Y508668D01*
X739545Y508724D01*
X739520Y508782D01*
X739499Y508841D01*
X739481Y508901D01*
X739468Y508963D01*
X739458Y509025D01*
X739452Y509087D01*
X739450Y509150D01*
D10*
X858950Y437150D02*
X858952Y437291D01*
X858958Y437432D01*
X858968Y437572D01*
X858982Y437712D01*
X859000Y437852D01*
X859021Y437991D01*
X859047Y438130D01*
X859076Y438268D01*
X859110Y438404D01*
X859147Y438540D01*
X859188Y438675D01*
X859233Y438809D01*
X859282Y438941D01*
X859334Y439072D01*
X859390Y439201D01*
X859450Y439328D01*
X859513Y439454D01*
X859579Y439578D01*
X859650Y439701D01*
X859723Y439821D01*
X859800Y439939D01*
X859880Y440055D01*
X859964Y440168D01*
X860050Y440279D01*
X860140Y440388D01*
X860233Y440494D01*
X860328Y440597D01*
X860427Y440698D01*
X860528Y440796D01*
X860632Y440891D01*
X860739Y440983D01*
X860848Y441072D01*
X860960Y441157D01*
X861074Y441240D01*
X861190Y441320D01*
X861309Y441396D01*
X861430Y441468D01*
X861552Y441538D01*
X861677Y441603D01*
X861803Y441666D01*
X861931Y441724D01*
X862061Y441779D01*
X862192Y441831D01*
X862325Y441878D01*
X862459Y441922D01*
X862594Y441963D01*
X862730Y441999D01*
X862867Y442031D01*
X863005Y442060D01*
X863143Y442085D01*
X863283Y442105D01*
X863423Y442122D01*
X863563Y442135D01*
X863704Y442144D01*
X863844Y442149D01*
X863985Y442150D01*
X864126Y442147D01*
X864267Y442140D01*
X864407Y442129D01*
X864547Y442114D01*
X864687Y442095D01*
X864826Y442073D01*
X864964Y442046D01*
X865102Y442016D01*
X865238Y441981D01*
X865374Y441943D01*
X865508Y441901D01*
X865642Y441855D01*
X865774Y441806D01*
X865904Y441752D01*
X866033Y441695D01*
X866160Y441635D01*
X866286Y441571D01*
X866409Y441503D01*
X866531Y441432D01*
X866651Y441358D01*
X866768Y441280D01*
X866883Y441199D01*
X866996Y441115D01*
X867107Y441028D01*
X867215Y440937D01*
X867320Y440844D01*
X867423Y440747D01*
X867523Y440648D01*
X867620Y440546D01*
X867714Y440441D01*
X867805Y440334D01*
X867893Y440224D01*
X867978Y440112D01*
X868060Y439997D01*
X868139Y439880D01*
X868214Y439761D01*
X868286Y439640D01*
X868354Y439517D01*
X868419Y439392D01*
X868481Y439265D01*
X868538Y439136D01*
X868593Y439006D01*
X868643Y438875D01*
X868690Y438742D01*
X868733Y438608D01*
X868772Y438472D01*
X868807Y438336D01*
X868839Y438199D01*
X868866Y438061D01*
X868890Y437922D01*
X868910Y437782D01*
X868926Y437642D01*
X868938Y437502D01*
X868946Y437361D01*
X868950Y437220D01*
X868950Y437080D01*
X868946Y436939D01*
X868938Y436798D01*
X868926Y436658D01*
X868910Y436518D01*
X868890Y436378D01*
X868866Y436239D01*
X868839Y436101D01*
X868807Y435964D01*
X868772Y435828D01*
X868733Y435692D01*
X868690Y435558D01*
X868643Y435425D01*
X868593Y435294D01*
X868538Y435164D01*
X868481Y435035D01*
X868419Y434908D01*
X868354Y434783D01*
X868286Y434660D01*
X868214Y434539D01*
X868139Y434420D01*
X868060Y434303D01*
X867978Y434188D01*
X867893Y434076D01*
X867805Y433966D01*
X867714Y433859D01*
X867620Y433754D01*
X867523Y433652D01*
X867423Y433553D01*
X867320Y433456D01*
X867215Y433363D01*
X867107Y433272D01*
X866996Y433185D01*
X866883Y433101D01*
X866768Y433020D01*
X866651Y432942D01*
X866531Y432868D01*
X866409Y432797D01*
X866286Y432729D01*
X866160Y432665D01*
X866033Y432605D01*
X865904Y432548D01*
X865774Y432494D01*
X865642Y432445D01*
X865508Y432399D01*
X865374Y432357D01*
X865238Y432319D01*
X865102Y432284D01*
X864964Y432254D01*
X864826Y432227D01*
X864687Y432205D01*
X864547Y432186D01*
X864407Y432171D01*
X864267Y432160D01*
X864126Y432153D01*
X863985Y432150D01*
X863844Y432151D01*
X863704Y432156D01*
X863563Y432165D01*
X863423Y432178D01*
X863283Y432195D01*
X863143Y432215D01*
X863005Y432240D01*
X862867Y432269D01*
X862730Y432301D01*
X862594Y432337D01*
X862459Y432378D01*
X862325Y432422D01*
X862192Y432469D01*
X862061Y432521D01*
X861931Y432576D01*
X861803Y432634D01*
X861677Y432697D01*
X861552Y432762D01*
X861430Y432832D01*
X861309Y432904D01*
X861190Y432980D01*
X861074Y433060D01*
X860960Y433143D01*
X860848Y433228D01*
X860739Y433317D01*
X860632Y433409D01*
X860528Y433504D01*
X860427Y433602D01*
X860328Y433703D01*
X860233Y433806D01*
X860140Y433912D01*
X860050Y434021D01*
X859964Y434132D01*
X859880Y434245D01*
X859800Y434361D01*
X859723Y434479D01*
X859650Y434599D01*
X859579Y434722D01*
X859513Y434846D01*
X859450Y434972D01*
X859390Y435099D01*
X859334Y435228D01*
X859282Y435359D01*
X859233Y435491D01*
X859188Y435625D01*
X859147Y435760D01*
X859110Y435896D01*
X859076Y436032D01*
X859047Y436170D01*
X859021Y436309D01*
X859000Y436448D01*
X858982Y436588D01*
X858968Y436728D01*
X858958Y436868D01*
X858952Y437009D01*
X858950Y437150D01*
X858950Y517150D02*
X858952Y517291D01*
X858958Y517432D01*
X858968Y517572D01*
X858982Y517712D01*
X859000Y517852D01*
X859021Y517991D01*
X859047Y518130D01*
X859076Y518268D01*
X859110Y518404D01*
X859147Y518540D01*
X859188Y518675D01*
X859233Y518809D01*
X859282Y518941D01*
X859334Y519072D01*
X859390Y519201D01*
X859450Y519328D01*
X859513Y519454D01*
X859579Y519578D01*
X859650Y519701D01*
X859723Y519821D01*
X859800Y519939D01*
X859880Y520055D01*
X859964Y520168D01*
X860050Y520279D01*
X860140Y520388D01*
X860233Y520494D01*
X860328Y520597D01*
X860427Y520698D01*
X860528Y520796D01*
X860632Y520891D01*
X860739Y520983D01*
X860848Y521072D01*
X860960Y521157D01*
X861074Y521240D01*
X861190Y521320D01*
X861309Y521396D01*
X861430Y521468D01*
X861552Y521538D01*
X861677Y521603D01*
X861803Y521666D01*
X861931Y521724D01*
X862061Y521779D01*
X862192Y521831D01*
X862325Y521878D01*
X862459Y521922D01*
X862594Y521963D01*
X862730Y521999D01*
X862867Y522031D01*
X863005Y522060D01*
X863143Y522085D01*
X863283Y522105D01*
X863423Y522122D01*
X863563Y522135D01*
X863704Y522144D01*
X863844Y522149D01*
X863985Y522150D01*
X864126Y522147D01*
X864267Y522140D01*
X864407Y522129D01*
X864547Y522114D01*
X864687Y522095D01*
X864826Y522073D01*
X864964Y522046D01*
X865102Y522016D01*
X865238Y521981D01*
X865374Y521943D01*
X865508Y521901D01*
X865642Y521855D01*
X865774Y521806D01*
X865904Y521752D01*
X866033Y521695D01*
X866160Y521635D01*
X866286Y521571D01*
X866409Y521503D01*
X866531Y521432D01*
X866651Y521358D01*
X866768Y521280D01*
X866883Y521199D01*
X866996Y521115D01*
X867107Y521028D01*
X867215Y520937D01*
X867320Y520844D01*
X867423Y520747D01*
X867523Y520648D01*
X867620Y520546D01*
X867714Y520441D01*
X867805Y520334D01*
X867893Y520224D01*
X867978Y520112D01*
X868060Y519997D01*
X868139Y519880D01*
X868214Y519761D01*
X868286Y519640D01*
X868354Y519517D01*
X868419Y519392D01*
X868481Y519265D01*
X868538Y519136D01*
X868593Y519006D01*
X868643Y518875D01*
X868690Y518742D01*
X868733Y518608D01*
X868772Y518472D01*
X868807Y518336D01*
X868839Y518199D01*
X868866Y518061D01*
X868890Y517922D01*
X868910Y517782D01*
X868926Y517642D01*
X868938Y517502D01*
X868946Y517361D01*
X868950Y517220D01*
X868950Y517080D01*
X868946Y516939D01*
X868938Y516798D01*
X868926Y516658D01*
X868910Y516518D01*
X868890Y516378D01*
X868866Y516239D01*
X868839Y516101D01*
X868807Y515964D01*
X868772Y515828D01*
X868733Y515692D01*
X868690Y515558D01*
X868643Y515425D01*
X868593Y515294D01*
X868538Y515164D01*
X868481Y515035D01*
X868419Y514908D01*
X868354Y514783D01*
X868286Y514660D01*
X868214Y514539D01*
X868139Y514420D01*
X868060Y514303D01*
X867978Y514188D01*
X867893Y514076D01*
X867805Y513966D01*
X867714Y513859D01*
X867620Y513754D01*
X867523Y513652D01*
X867423Y513553D01*
X867320Y513456D01*
X867215Y513363D01*
X867107Y513272D01*
X866996Y513185D01*
X866883Y513101D01*
X866768Y513020D01*
X866651Y512942D01*
X866531Y512868D01*
X866409Y512797D01*
X866286Y512729D01*
X866160Y512665D01*
X866033Y512605D01*
X865904Y512548D01*
X865774Y512494D01*
X865642Y512445D01*
X865508Y512399D01*
X865374Y512357D01*
X865238Y512319D01*
X865102Y512284D01*
X864964Y512254D01*
X864826Y512227D01*
X864687Y512205D01*
X864547Y512186D01*
X864407Y512171D01*
X864267Y512160D01*
X864126Y512153D01*
X863985Y512150D01*
X863844Y512151D01*
X863704Y512156D01*
X863563Y512165D01*
X863423Y512178D01*
X863283Y512195D01*
X863143Y512215D01*
X863005Y512240D01*
X862867Y512269D01*
X862730Y512301D01*
X862594Y512337D01*
X862459Y512378D01*
X862325Y512422D01*
X862192Y512469D01*
X862061Y512521D01*
X861931Y512576D01*
X861803Y512634D01*
X861677Y512697D01*
X861552Y512762D01*
X861430Y512832D01*
X861309Y512904D01*
X861190Y512980D01*
X861074Y513060D01*
X860960Y513143D01*
X860848Y513228D01*
X860739Y513317D01*
X860632Y513409D01*
X860528Y513504D01*
X860427Y513602D01*
X860328Y513703D01*
X860233Y513806D01*
X860140Y513912D01*
X860050Y514021D01*
X859964Y514132D01*
X859880Y514245D01*
X859800Y514361D01*
X859723Y514479D01*
X859650Y514599D01*
X859579Y514722D01*
X859513Y514846D01*
X859450Y514972D01*
X859390Y515099D01*
X859334Y515228D01*
X859282Y515359D01*
X859233Y515491D01*
X859188Y515625D01*
X859147Y515760D01*
X859110Y515896D01*
X859076Y516032D01*
X859047Y516170D01*
X859021Y516309D01*
X859000Y516448D01*
X858982Y516588D01*
X858968Y516728D01*
X858958Y516868D01*
X858952Y517009D01*
X858950Y517150D01*
D13*
X789374Y398670D02*
X790787Y397256D01*
X789374Y398670D02*
X786546Y398670D01*
X785132Y397256D01*
X785132Y395843D01*
X786546Y394429D01*
X789374Y394429D01*
X790787Y393015D01*
X790787Y391601D01*
X789374Y390187D01*
X786546Y390187D01*
X785132Y391601D01*
X794340Y390187D02*
X794340Y398670D01*
X794340Y390187D02*
X798581Y390187D01*
X799995Y391601D01*
X799995Y397256D01*
X798581Y398670D01*
X794340Y398670D01*
X803548Y388773D02*
X809203Y388773D01*
X818411Y397256D02*
X816997Y398670D01*
X814169Y398670D01*
X812755Y397256D01*
X812755Y391601D01*
X814169Y390187D01*
X816997Y390187D01*
X818411Y391601D01*
X821963Y390187D02*
X821963Y395843D01*
X824791Y398670D01*
X827619Y395843D01*
X827619Y390187D01*
X827619Y394429D02*
X821963Y394429D01*
X831171Y398670D02*
X831171Y390187D01*
X831171Y398670D02*
X835413Y398670D01*
X836827Y397256D01*
X836827Y394429D01*
X835413Y393015D01*
X831171Y393015D01*
X833999Y393015D02*
X836827Y390187D01*
X840379Y390187D02*
X840379Y398670D01*
X840379Y390187D02*
X844621Y390187D01*
X846035Y391601D01*
X846035Y397256D01*
X844621Y398670D01*
X840379Y398670D01*
X674813Y524162D02*
X674813Y532645D01*
X679055Y532645D01*
X680469Y531231D01*
X680469Y528404D01*
X679055Y526990D01*
X674813Y526990D01*
X677641Y526990D02*
X680469Y524162D01*
X684021Y529818D02*
X686849Y532645D01*
X686849Y524162D01*
X684021Y524162D02*
X689677Y524162D01*
X693229Y531231D02*
X694643Y532645D01*
X697471Y532645D01*
X698885Y531231D01*
X698885Y529818D01*
X697471Y528404D01*
X698885Y526990D01*
X698885Y525576D01*
X697471Y524162D01*
X694643Y524162D01*
X693229Y525576D01*
X693229Y526990D01*
X694643Y528404D01*
X693229Y529818D01*
X693229Y531231D01*
X694643Y528404D02*
X697471Y528404D01*
X674813Y491370D02*
X674813Y482887D01*
X674813Y491370D02*
X679055Y491370D01*
X680469Y489956D01*
X680469Y487129D01*
X679055Y485715D01*
X674813Y485715D01*
X677641Y485715D02*
X680469Y482887D01*
X684021Y488543D02*
X686849Y491370D01*
X686849Y482887D01*
X684021Y482887D02*
X689677Y482887D01*
X693229Y484301D02*
X694643Y482887D01*
X697471Y482887D01*
X698885Y484301D01*
X698885Y489956D01*
X697471Y491370D01*
X694643Y491370D01*
X693229Y489956D01*
X693229Y488543D01*
X694643Y487129D01*
X698885Y487129D01*
X675688Y546787D02*
X675688Y555270D01*
X679930Y555270D01*
X681344Y553856D01*
X681344Y551029D01*
X679930Y549615D01*
X675688Y549615D01*
X678516Y549615D02*
X681344Y546787D01*
X684896Y546787D02*
X690552Y546787D01*
X684896Y546787D02*
X690552Y552443D01*
X690552Y553856D01*
X689138Y555270D01*
X686310Y555270D01*
X684896Y553856D01*
X694104Y553856D02*
X694104Y548201D01*
X694104Y553856D02*
X695518Y555270D01*
X698346Y555270D01*
X699760Y553856D01*
X699760Y548201D01*
X698346Y546787D01*
X695518Y546787D01*
X694104Y548201D01*
X699760Y553856D01*
X674813Y513595D02*
X674813Y505112D01*
X674813Y513595D02*
X679055Y513595D01*
X680469Y512181D01*
X680469Y509354D01*
X679055Y507940D01*
X674813Y507940D01*
X677641Y507940D02*
X680469Y505112D01*
X684021Y505112D02*
X689677Y505112D01*
X684021Y505112D02*
X689677Y510768D01*
X689677Y512181D01*
X688263Y513595D01*
X685435Y513595D01*
X684021Y512181D01*
X693229Y510768D02*
X696057Y513595D01*
X696057Y505112D01*
X693229Y505112D02*
X698885Y505112D01*
X166925Y637225D02*
X162925Y647225D01*
X170925Y647225D01*
X166925Y637225D01*
D15*
X158675Y628725D02*
X158675Y655725D01*
X175175Y655725D01*
X175175Y628725D01*
X158675Y628725D01*
D18*
X166925Y636225D03*
D13*
X177980Y650287D02*
X186463Y650287D01*
X186463Y654529D01*
X185049Y655943D01*
X179394Y655943D01*
X177980Y654529D01*
X177980Y650287D01*
X180808Y659495D02*
X177980Y662323D01*
X186463Y662323D01*
X186463Y665150D02*
X186463Y659495D01*
D15*
X275825Y379650D02*
X275825Y374650D01*
X275825Y379650D02*
X270825Y379650D01*
X275825Y344650D02*
X275825Y339650D01*
X270825Y339650D01*
X235825Y374650D02*
X235825Y379650D01*
X240825Y379650D01*
X235825Y344650D02*
X235825Y339650D01*
X240825Y339650D01*
D19*
X272075Y384650D02*
X272077Y384720D01*
X272083Y384790D01*
X272093Y384859D01*
X272106Y384928D01*
X272124Y384996D01*
X272145Y385063D01*
X272170Y385128D01*
X272199Y385192D01*
X272231Y385255D01*
X272267Y385315D01*
X272306Y385373D01*
X272348Y385429D01*
X272393Y385483D01*
X272441Y385534D01*
X272492Y385582D01*
X272546Y385627D01*
X272602Y385669D01*
X272660Y385708D01*
X272720Y385744D01*
X272783Y385776D01*
X272847Y385805D01*
X272912Y385830D01*
X272979Y385851D01*
X273047Y385869D01*
X273116Y385882D01*
X273185Y385892D01*
X273255Y385898D01*
X273325Y385900D01*
X273395Y385898D01*
X273465Y385892D01*
X273534Y385882D01*
X273603Y385869D01*
X273671Y385851D01*
X273738Y385830D01*
X273803Y385805D01*
X273867Y385776D01*
X273930Y385744D01*
X273990Y385708D01*
X274048Y385669D01*
X274104Y385627D01*
X274158Y385582D01*
X274209Y385534D01*
X274257Y385483D01*
X274302Y385429D01*
X274344Y385373D01*
X274383Y385315D01*
X274419Y385255D01*
X274451Y385192D01*
X274480Y385128D01*
X274505Y385063D01*
X274526Y384996D01*
X274544Y384928D01*
X274557Y384859D01*
X274567Y384790D01*
X274573Y384720D01*
X274575Y384650D01*
X274573Y384580D01*
X274567Y384510D01*
X274557Y384441D01*
X274544Y384372D01*
X274526Y384304D01*
X274505Y384237D01*
X274480Y384172D01*
X274451Y384108D01*
X274419Y384045D01*
X274383Y383985D01*
X274344Y383927D01*
X274302Y383871D01*
X274257Y383817D01*
X274209Y383766D01*
X274158Y383718D01*
X274104Y383673D01*
X274048Y383631D01*
X273990Y383592D01*
X273930Y383556D01*
X273867Y383524D01*
X273803Y383495D01*
X273738Y383470D01*
X273671Y383449D01*
X273603Y383431D01*
X273534Y383418D01*
X273465Y383408D01*
X273395Y383402D01*
X273325Y383400D01*
X273255Y383402D01*
X273185Y383408D01*
X273116Y383418D01*
X273047Y383431D01*
X272979Y383449D01*
X272912Y383470D01*
X272847Y383495D01*
X272783Y383524D01*
X272720Y383556D01*
X272660Y383592D01*
X272602Y383631D01*
X272546Y383673D01*
X272492Y383718D01*
X272441Y383766D01*
X272393Y383817D01*
X272348Y383871D01*
X272306Y383927D01*
X272267Y383985D01*
X272231Y384045D01*
X272199Y384108D01*
X272170Y384172D01*
X272145Y384237D01*
X272124Y384304D01*
X272106Y384372D01*
X272093Y384441D01*
X272083Y384510D01*
X272077Y384580D01*
X272075Y384650D01*
D13*
X288558Y345035D02*
X288558Y342208D01*
X288558Y343622D02*
X280075Y343622D01*
X280075Y345035D02*
X280075Y342208D01*
X280075Y352588D02*
X281489Y354002D01*
X280075Y352588D02*
X280075Y349760D01*
X281489Y348346D01*
X287144Y348346D01*
X288558Y349760D01*
X288558Y352588D01*
X287144Y354002D01*
X288558Y357554D02*
X288558Y363210D01*
X282903Y363210D02*
X288558Y357554D01*
X282903Y363210D02*
X281489Y363210D01*
X280075Y361796D01*
X280075Y358968D01*
X281489Y357554D01*
X213088Y448837D02*
X213088Y457320D01*
X217330Y457320D01*
X218744Y455906D01*
X218744Y453079D01*
X217330Y451665D01*
X213088Y451665D01*
X215916Y451665D02*
X218744Y448837D01*
X226538Y448837D02*
X226538Y457320D01*
X222296Y453079D01*
X227952Y453079D01*
X231504Y455906D02*
X231504Y450251D01*
X231504Y455906D02*
X232918Y457320D01*
X235746Y457320D01*
X237160Y455906D01*
X237160Y450251D01*
X235746Y448837D01*
X232918Y448837D01*
X231504Y450251D01*
X237160Y455906D01*
D20*
X288539Y489840D03*
X273807Y489840D03*
D13*
X274367Y500747D02*
X274367Y509230D01*
X278609Y509230D01*
X280023Y507816D01*
X280023Y504989D01*
X278609Y503575D01*
X274367Y503575D01*
X277195Y503575D02*
X280023Y500747D01*
X287816Y500747D02*
X287816Y509230D01*
X283575Y504989D01*
X289230Y504989D01*
X292783Y506403D02*
X295610Y509230D01*
X295610Y500747D01*
X292783Y500747D02*
X298438Y500747D01*
D21*
X191150Y384725D02*
X187150Y384725D01*
X187150Y391725D02*
X191150Y391725D01*
D22*
X190400Y385350D03*
D13*
X182288Y380645D02*
X182288Y372162D01*
X182288Y380645D02*
X186530Y380645D01*
X187944Y379231D01*
X187944Y376404D01*
X186530Y374990D01*
X182288Y374990D01*
X191496Y372162D02*
X191496Y380645D01*
X194324Y374990D02*
X191496Y372162D01*
X194324Y374990D02*
X197152Y372162D01*
X197152Y380645D01*
X200704Y380645D02*
X200704Y372162D01*
X200704Y380645D02*
X204946Y380645D01*
X206360Y379231D01*
X206360Y376404D01*
X204946Y374990D01*
X200704Y374990D01*
X203532Y374990D02*
X206360Y372162D01*
D21*
X191150Y359325D02*
X187150Y359325D01*
X187150Y366325D02*
X191150Y366325D01*
D22*
X190400Y359950D03*
D13*
X183081Y356245D02*
X183081Y347762D01*
X187322Y347762D01*
X188736Y349176D01*
X188736Y354831D01*
X187322Y356245D01*
X183081Y356245D01*
X193702Y356245D02*
X196530Y356245D01*
X193702Y356245D02*
X192288Y354831D01*
X192288Y349176D01*
X193702Y347762D01*
X196530Y347762D01*
X197944Y349176D01*
X197944Y354831D01*
X196530Y356245D01*
X201496Y356245D02*
X201496Y347762D01*
X207152Y347762D02*
X201496Y356245D01*
X207152Y356245D02*
X207152Y347762D01*
X210704Y356245D02*
X216360Y356245D01*
X210704Y356245D02*
X210704Y347762D01*
X216360Y347762D01*
X213532Y352004D02*
X210704Y352004D01*
D21*
X191150Y333925D02*
X187150Y333925D01*
X187150Y340925D02*
X191150Y340925D01*
D22*
X190400Y334550D03*
D13*
X185736Y329256D02*
X184322Y330670D01*
X181494Y330670D01*
X180081Y329256D01*
X180081Y323601D01*
X181494Y322187D01*
X184322Y322187D01*
X185736Y323601D01*
X189288Y322187D02*
X189288Y330670D01*
X189288Y326429D02*
X194944Y326429D01*
X194944Y330670D02*
X194944Y322187D01*
X198496Y322187D02*
X198496Y330670D01*
X202738Y330670D01*
X204152Y329256D01*
X204152Y326429D01*
X202738Y325015D01*
X198496Y325015D01*
X201324Y325015D02*
X204152Y322187D01*
X211946Y330670D02*
X213360Y329256D01*
X211946Y330670D02*
X209118Y330670D01*
X207704Y329256D01*
X207704Y323601D01*
X209118Y322187D01*
X211946Y322187D01*
X213360Y323601D01*
X213360Y326429D01*
X210532Y326429D01*
X130538Y330320D02*
X130538Y321837D01*
X130538Y330320D02*
X134780Y330320D01*
X136194Y328906D01*
X136194Y326079D01*
X134780Y324665D01*
X130538Y324665D01*
X133366Y324665D02*
X136194Y321837D01*
X139746Y328906D02*
X141160Y330320D01*
X143988Y330320D01*
X145402Y328906D01*
X145402Y327493D01*
X143988Y326079D01*
X142574Y326079D01*
X143988Y326079D02*
X145402Y324665D01*
X145402Y323251D01*
X143988Y321837D01*
X141160Y321837D01*
X139746Y323251D01*
X151782Y328906D02*
X154610Y330320D01*
X151782Y328906D02*
X148954Y326079D01*
X148954Y323251D01*
X150368Y321837D01*
X153196Y321837D01*
X154610Y323251D01*
X154610Y324665D01*
X153196Y326079D01*
X148954Y326079D01*
X130538Y353587D02*
X130538Y362070D01*
X134780Y362070D01*
X136194Y360656D01*
X136194Y357829D01*
X134780Y356415D01*
X130538Y356415D01*
X133366Y356415D02*
X136194Y353587D01*
X139746Y360656D02*
X141160Y362070D01*
X143988Y362070D01*
X145402Y360656D01*
X145402Y359243D01*
X143988Y357829D01*
X142574Y357829D01*
X143988Y357829D02*
X145402Y356415D01*
X145402Y355001D01*
X143988Y353587D01*
X141160Y353587D01*
X139746Y355001D01*
X148954Y362070D02*
X154610Y362070D01*
X154610Y360656D01*
X148954Y355001D01*
X148954Y353587D01*
X130538Y385337D02*
X130538Y393820D01*
X134780Y393820D01*
X136194Y392406D01*
X136194Y389579D01*
X134780Y388165D01*
X130538Y388165D01*
X133366Y388165D02*
X136194Y385337D01*
X139746Y392406D02*
X141160Y393820D01*
X143988Y393820D01*
X145402Y392406D01*
X145402Y390993D01*
X143988Y389579D01*
X142574Y389579D01*
X143988Y389579D02*
X145402Y388165D01*
X145402Y386751D01*
X143988Y385337D01*
X141160Y385337D01*
X139746Y386751D01*
X148954Y386751D02*
X150368Y385337D01*
X153196Y385337D01*
X154610Y386751D01*
X154610Y392406D01*
X153196Y393820D01*
X150368Y393820D01*
X148954Y392406D01*
X148954Y390993D01*
X150368Y389579D01*
X154610Y389579D01*
X120894Y236118D02*
X119480Y234704D01*
X119480Y231876D01*
X120894Y230462D01*
X126549Y230462D01*
X127963Y231876D01*
X127963Y234704D01*
X126549Y236118D01*
X120894Y239670D02*
X119480Y241084D01*
X119480Y243911D01*
X120894Y245325D01*
X122308Y245325D01*
X123721Y243911D01*
X123721Y242498D01*
X123721Y243911D02*
X125135Y245325D01*
X126549Y245325D01*
X127963Y243911D01*
X127963Y241084D01*
X126549Y239670D01*
X127963Y248878D02*
X127963Y254533D01*
X127963Y248878D02*
X122308Y254533D01*
X120894Y254533D01*
X119480Y253119D01*
X119480Y250292D01*
X120894Y248878D01*
X183555Y254480D02*
X184969Y255894D01*
X183555Y254480D02*
X183555Y251652D01*
X184969Y250238D01*
X190624Y250238D01*
X192038Y251652D01*
X192038Y254480D01*
X190624Y255894D01*
X184969Y259446D02*
X183555Y260860D01*
X183555Y263688D01*
X184969Y265102D01*
X186383Y265102D01*
X187796Y263688D01*
X187796Y262274D01*
X187796Y263688D02*
X189210Y265102D01*
X190624Y265102D01*
X192038Y263688D01*
X192038Y260860D01*
X190624Y259446D01*
X184969Y268654D02*
X183555Y270068D01*
X183555Y272896D01*
X184969Y274310D01*
X186383Y274310D01*
X187796Y272896D01*
X187796Y271482D01*
X187796Y272896D02*
X189210Y274310D01*
X190624Y274310D01*
X192038Y272896D01*
X192038Y270068D01*
X190624Y268654D01*
X81708Y341227D02*
X81708Y349710D01*
X85950Y349710D01*
X87364Y348296D01*
X87364Y345469D01*
X85950Y344055D01*
X81708Y344055D01*
X84536Y344055D02*
X87364Y341227D01*
X95158Y341227D02*
X95158Y349710D01*
X90916Y345469D01*
X96572Y345469D01*
X100124Y341227D02*
X105780Y341227D01*
X100124Y341227D02*
X105780Y346883D01*
X105780Y348296D01*
X104366Y349710D01*
X101538Y349710D01*
X100124Y348296D01*
D20*
X215514Y296165D03*
X200782Y296165D03*
D13*
X233342Y298555D02*
X233342Y290072D01*
X233342Y298555D02*
X237584Y298555D01*
X238998Y297141D01*
X238998Y294314D01*
X237584Y292900D01*
X233342Y292900D01*
X236170Y292900D02*
X238998Y290072D01*
X246791Y290072D02*
X246791Y298555D01*
X242550Y294314D01*
X248205Y294314D01*
X251758Y297141D02*
X253172Y298555D01*
X255999Y298555D01*
X257413Y297141D01*
X257413Y295728D01*
X255999Y294314D01*
X254585Y294314D01*
X255999Y294314D02*
X257413Y292900D01*
X257413Y291486D01*
X255999Y290072D01*
X253172Y290072D01*
X251758Y291486D01*
D15*
X102275Y381925D02*
X102275Y459925D01*
X10275Y459925D02*
X10275Y381925D01*
X50275Y459925D02*
X77275Y459925D01*
X77275Y381925D02*
X50275Y381925D01*
X102275Y441925D02*
X102275Y452925D01*
X102275Y399925D02*
X102275Y388925D01*
D10*
X61275Y442925D02*
X61277Y443066D01*
X61283Y443207D01*
X61293Y443347D01*
X61307Y443487D01*
X61325Y443627D01*
X61346Y443766D01*
X61372Y443905D01*
X61401Y444043D01*
X61435Y444179D01*
X61472Y444315D01*
X61513Y444450D01*
X61558Y444584D01*
X61607Y444716D01*
X61659Y444847D01*
X61715Y444976D01*
X61775Y445103D01*
X61838Y445229D01*
X61904Y445353D01*
X61975Y445476D01*
X62048Y445596D01*
X62125Y445714D01*
X62205Y445830D01*
X62289Y445943D01*
X62375Y446054D01*
X62465Y446163D01*
X62558Y446269D01*
X62653Y446372D01*
X62752Y446473D01*
X62853Y446571D01*
X62957Y446666D01*
X63064Y446758D01*
X63173Y446847D01*
X63285Y446932D01*
X63399Y447015D01*
X63515Y447095D01*
X63634Y447171D01*
X63755Y447243D01*
X63877Y447313D01*
X64002Y447378D01*
X64128Y447441D01*
X64256Y447499D01*
X64386Y447554D01*
X64517Y447606D01*
X64650Y447653D01*
X64784Y447697D01*
X64919Y447738D01*
X65055Y447774D01*
X65192Y447806D01*
X65330Y447835D01*
X65468Y447860D01*
X65608Y447880D01*
X65748Y447897D01*
X65888Y447910D01*
X66029Y447919D01*
X66169Y447924D01*
X66310Y447925D01*
X66451Y447922D01*
X66592Y447915D01*
X66732Y447904D01*
X66872Y447889D01*
X67012Y447870D01*
X67151Y447848D01*
X67289Y447821D01*
X67427Y447791D01*
X67563Y447756D01*
X67699Y447718D01*
X67833Y447676D01*
X67967Y447630D01*
X68099Y447581D01*
X68229Y447527D01*
X68358Y447470D01*
X68485Y447410D01*
X68611Y447346D01*
X68734Y447278D01*
X68856Y447207D01*
X68976Y447133D01*
X69093Y447055D01*
X69208Y446974D01*
X69321Y446890D01*
X69432Y446803D01*
X69540Y446712D01*
X69645Y446619D01*
X69748Y446522D01*
X69848Y446423D01*
X69945Y446321D01*
X70039Y446216D01*
X70130Y446109D01*
X70218Y445999D01*
X70303Y445887D01*
X70385Y445772D01*
X70464Y445655D01*
X70539Y445536D01*
X70611Y445415D01*
X70679Y445292D01*
X70744Y445167D01*
X70806Y445040D01*
X70863Y444911D01*
X70918Y444781D01*
X70968Y444650D01*
X71015Y444517D01*
X71058Y444383D01*
X71097Y444247D01*
X71132Y444111D01*
X71164Y443974D01*
X71191Y443836D01*
X71215Y443697D01*
X71235Y443557D01*
X71251Y443417D01*
X71263Y443277D01*
X71271Y443136D01*
X71275Y442995D01*
X71275Y442855D01*
X71271Y442714D01*
X71263Y442573D01*
X71251Y442433D01*
X71235Y442293D01*
X71215Y442153D01*
X71191Y442014D01*
X71164Y441876D01*
X71132Y441739D01*
X71097Y441603D01*
X71058Y441467D01*
X71015Y441333D01*
X70968Y441200D01*
X70918Y441069D01*
X70863Y440939D01*
X70806Y440810D01*
X70744Y440683D01*
X70679Y440558D01*
X70611Y440435D01*
X70539Y440314D01*
X70464Y440195D01*
X70385Y440078D01*
X70303Y439963D01*
X70218Y439851D01*
X70130Y439741D01*
X70039Y439634D01*
X69945Y439529D01*
X69848Y439427D01*
X69748Y439328D01*
X69645Y439231D01*
X69540Y439138D01*
X69432Y439047D01*
X69321Y438960D01*
X69208Y438876D01*
X69093Y438795D01*
X68976Y438717D01*
X68856Y438643D01*
X68734Y438572D01*
X68611Y438504D01*
X68485Y438440D01*
X68358Y438380D01*
X68229Y438323D01*
X68099Y438269D01*
X67967Y438220D01*
X67833Y438174D01*
X67699Y438132D01*
X67563Y438094D01*
X67427Y438059D01*
X67289Y438029D01*
X67151Y438002D01*
X67012Y437980D01*
X66872Y437961D01*
X66732Y437946D01*
X66592Y437935D01*
X66451Y437928D01*
X66310Y437925D01*
X66169Y437926D01*
X66029Y437931D01*
X65888Y437940D01*
X65748Y437953D01*
X65608Y437970D01*
X65468Y437990D01*
X65330Y438015D01*
X65192Y438044D01*
X65055Y438076D01*
X64919Y438112D01*
X64784Y438153D01*
X64650Y438197D01*
X64517Y438244D01*
X64386Y438296D01*
X64256Y438351D01*
X64128Y438409D01*
X64002Y438472D01*
X63877Y438537D01*
X63755Y438607D01*
X63634Y438679D01*
X63515Y438755D01*
X63399Y438835D01*
X63285Y438918D01*
X63173Y439003D01*
X63064Y439092D01*
X62957Y439184D01*
X62853Y439279D01*
X62752Y439377D01*
X62653Y439478D01*
X62558Y439581D01*
X62465Y439687D01*
X62375Y439796D01*
X62289Y439907D01*
X62205Y440020D01*
X62125Y440136D01*
X62048Y440254D01*
X61975Y440374D01*
X61904Y440497D01*
X61838Y440621D01*
X61775Y440747D01*
X61715Y440874D01*
X61659Y441003D01*
X61607Y441134D01*
X61558Y441266D01*
X61513Y441400D01*
X61472Y441535D01*
X61435Y441671D01*
X61401Y441807D01*
X61372Y441945D01*
X61346Y442084D01*
X61325Y442223D01*
X61307Y442363D01*
X61293Y442503D01*
X61283Y442643D01*
X61277Y442784D01*
X61275Y442925D01*
X61275Y398925D02*
X61277Y399066D01*
X61283Y399207D01*
X61293Y399347D01*
X61307Y399487D01*
X61325Y399627D01*
X61346Y399766D01*
X61372Y399905D01*
X61401Y400043D01*
X61435Y400179D01*
X61472Y400315D01*
X61513Y400450D01*
X61558Y400584D01*
X61607Y400716D01*
X61659Y400847D01*
X61715Y400976D01*
X61775Y401103D01*
X61838Y401229D01*
X61904Y401353D01*
X61975Y401476D01*
X62048Y401596D01*
X62125Y401714D01*
X62205Y401830D01*
X62289Y401943D01*
X62375Y402054D01*
X62465Y402163D01*
X62558Y402269D01*
X62653Y402372D01*
X62752Y402473D01*
X62853Y402571D01*
X62957Y402666D01*
X63064Y402758D01*
X63173Y402847D01*
X63285Y402932D01*
X63399Y403015D01*
X63515Y403095D01*
X63634Y403171D01*
X63755Y403243D01*
X63877Y403313D01*
X64002Y403378D01*
X64128Y403441D01*
X64256Y403499D01*
X64386Y403554D01*
X64517Y403606D01*
X64650Y403653D01*
X64784Y403697D01*
X64919Y403738D01*
X65055Y403774D01*
X65192Y403806D01*
X65330Y403835D01*
X65468Y403860D01*
X65608Y403880D01*
X65748Y403897D01*
X65888Y403910D01*
X66029Y403919D01*
X66169Y403924D01*
X66310Y403925D01*
X66451Y403922D01*
X66592Y403915D01*
X66732Y403904D01*
X66872Y403889D01*
X67012Y403870D01*
X67151Y403848D01*
X67289Y403821D01*
X67427Y403791D01*
X67563Y403756D01*
X67699Y403718D01*
X67833Y403676D01*
X67967Y403630D01*
X68099Y403581D01*
X68229Y403527D01*
X68358Y403470D01*
X68485Y403410D01*
X68611Y403346D01*
X68734Y403278D01*
X68856Y403207D01*
X68976Y403133D01*
X69093Y403055D01*
X69208Y402974D01*
X69321Y402890D01*
X69432Y402803D01*
X69540Y402712D01*
X69645Y402619D01*
X69748Y402522D01*
X69848Y402423D01*
X69945Y402321D01*
X70039Y402216D01*
X70130Y402109D01*
X70218Y401999D01*
X70303Y401887D01*
X70385Y401772D01*
X70464Y401655D01*
X70539Y401536D01*
X70611Y401415D01*
X70679Y401292D01*
X70744Y401167D01*
X70806Y401040D01*
X70863Y400911D01*
X70918Y400781D01*
X70968Y400650D01*
X71015Y400517D01*
X71058Y400383D01*
X71097Y400247D01*
X71132Y400111D01*
X71164Y399974D01*
X71191Y399836D01*
X71215Y399697D01*
X71235Y399557D01*
X71251Y399417D01*
X71263Y399277D01*
X71271Y399136D01*
X71275Y398995D01*
X71275Y398855D01*
X71271Y398714D01*
X71263Y398573D01*
X71251Y398433D01*
X71235Y398293D01*
X71215Y398153D01*
X71191Y398014D01*
X71164Y397876D01*
X71132Y397739D01*
X71097Y397603D01*
X71058Y397467D01*
X71015Y397333D01*
X70968Y397200D01*
X70918Y397069D01*
X70863Y396939D01*
X70806Y396810D01*
X70744Y396683D01*
X70679Y396558D01*
X70611Y396435D01*
X70539Y396314D01*
X70464Y396195D01*
X70385Y396078D01*
X70303Y395963D01*
X70218Y395851D01*
X70130Y395741D01*
X70039Y395634D01*
X69945Y395529D01*
X69848Y395427D01*
X69748Y395328D01*
X69645Y395231D01*
X69540Y395138D01*
X69432Y395047D01*
X69321Y394960D01*
X69208Y394876D01*
X69093Y394795D01*
X68976Y394717D01*
X68856Y394643D01*
X68734Y394572D01*
X68611Y394504D01*
X68485Y394440D01*
X68358Y394380D01*
X68229Y394323D01*
X68099Y394269D01*
X67967Y394220D01*
X67833Y394174D01*
X67699Y394132D01*
X67563Y394094D01*
X67427Y394059D01*
X67289Y394029D01*
X67151Y394002D01*
X67012Y393980D01*
X66872Y393961D01*
X66732Y393946D01*
X66592Y393935D01*
X66451Y393928D01*
X66310Y393925D01*
X66169Y393926D01*
X66029Y393931D01*
X65888Y393940D01*
X65748Y393953D01*
X65608Y393970D01*
X65468Y393990D01*
X65330Y394015D01*
X65192Y394044D01*
X65055Y394076D01*
X64919Y394112D01*
X64784Y394153D01*
X64650Y394197D01*
X64517Y394244D01*
X64386Y394296D01*
X64256Y394351D01*
X64128Y394409D01*
X64002Y394472D01*
X63877Y394537D01*
X63755Y394607D01*
X63634Y394679D01*
X63515Y394755D01*
X63399Y394835D01*
X63285Y394918D01*
X63173Y395003D01*
X63064Y395092D01*
X62957Y395184D01*
X62853Y395279D01*
X62752Y395377D01*
X62653Y395478D01*
X62558Y395581D01*
X62465Y395687D01*
X62375Y395796D01*
X62289Y395907D01*
X62205Y396020D01*
X62125Y396136D01*
X62048Y396254D01*
X61975Y396374D01*
X61904Y396497D01*
X61838Y396621D01*
X61775Y396747D01*
X61715Y396874D01*
X61659Y397003D01*
X61607Y397134D01*
X61558Y397266D01*
X61513Y397400D01*
X61472Y397535D01*
X61435Y397671D01*
X61401Y397807D01*
X61372Y397945D01*
X61346Y398084D01*
X61325Y398223D01*
X61307Y398363D01*
X61293Y398503D01*
X61283Y398643D01*
X61277Y398784D01*
X61275Y398925D01*
D13*
X110530Y431405D02*
X111944Y432819D01*
X110530Y431405D02*
X110530Y428577D01*
X111944Y427163D01*
X117599Y427163D01*
X119013Y428577D01*
X119013Y431405D01*
X117599Y432819D01*
X119013Y436371D02*
X110530Y436371D01*
X119013Y442027D01*
X110530Y442027D01*
X113358Y445579D02*
X110530Y448407D01*
X119013Y448407D01*
X119013Y445579D02*
X119013Y451235D01*
X134188Y459312D02*
X134188Y467795D01*
X138430Y467795D01*
X139844Y466381D01*
X139844Y463554D01*
X138430Y462140D01*
X134188Y462140D01*
X137016Y462140D02*
X139844Y459312D01*
X147638Y459312D02*
X147638Y467795D01*
X143396Y463554D01*
X149052Y463554D01*
X155432Y466381D02*
X158260Y467795D01*
X155432Y466381D02*
X152604Y463554D01*
X152604Y460726D01*
X154018Y459312D01*
X156846Y459312D01*
X158260Y460726D01*
X158260Y462140D01*
X156846Y463554D01*
X152604Y463554D01*
X126412Y531862D02*
X126412Y540345D01*
X130654Y540345D01*
X132068Y538931D01*
X132068Y536104D01*
X130654Y534690D01*
X126412Y534690D01*
X129240Y534690D02*
X132068Y531862D01*
X139861Y531862D02*
X139861Y540345D01*
X135620Y536104D01*
X141275Y536104D01*
X144828Y538931D02*
X146242Y540345D01*
X149069Y540345D01*
X150483Y538931D01*
X150483Y537518D01*
X149069Y536104D01*
X150483Y534690D01*
X150483Y533276D01*
X149069Y531862D01*
X146242Y531862D01*
X144828Y533276D01*
X144828Y534690D01*
X146242Y536104D01*
X144828Y537518D01*
X144828Y538931D01*
X146242Y536104D02*
X149069Y536104D01*
X115437Y491182D02*
X72257Y491182D01*
X115437Y491182D02*
X115437Y512518D01*
X72257Y512518D01*
X72257Y491182D01*
X77718Y518487D02*
X77718Y526970D01*
X81960Y526970D01*
X83374Y525556D01*
X83374Y522729D01*
X81960Y521315D01*
X77718Y521315D01*
X80546Y521315D02*
X83374Y518487D01*
X89754Y518487D02*
X89754Y526970D01*
X92581Y526970D02*
X86926Y526970D01*
X96134Y524143D02*
X98961Y526970D01*
X98961Y518487D01*
X96134Y518487D02*
X101789Y518487D01*
D20*
X259647Y663830D03*
X244915Y663830D03*
D13*
X245475Y674737D02*
X245475Y683220D01*
X249716Y683220D01*
X251130Y681806D01*
X251130Y678979D01*
X249716Y677565D01*
X245475Y677565D01*
X248302Y677565D02*
X251130Y674737D01*
X254682Y681806D02*
X256096Y683220D01*
X258924Y683220D01*
X260338Y681806D01*
X260338Y680393D01*
X258924Y678979D01*
X257510Y678979D01*
X258924Y678979D02*
X260338Y677565D01*
X260338Y676151D01*
X258924Y674737D01*
X256096Y674737D01*
X254682Y676151D01*
X263890Y674737D02*
X269546Y674737D01*
X263890Y674737D02*
X269546Y680393D01*
X269546Y681806D01*
X268132Y683220D01*
X265304Y683220D01*
X263890Y681806D01*
X265906Y126613D02*
X265906Y118130D01*
X265906Y126613D02*
X270147Y126613D01*
X271561Y125199D01*
X271561Y122372D01*
X270147Y120958D01*
X265906Y120958D01*
X268734Y120958D02*
X271561Y118130D01*
X275114Y125199D02*
X276528Y126613D01*
X279355Y126613D01*
X280769Y125199D01*
X280769Y123785D01*
X279355Y122372D01*
X277941Y122372D01*
X279355Y122372D02*
X280769Y120958D01*
X280769Y119544D01*
X279355Y118130D01*
X276528Y118130D01*
X275114Y119544D01*
X288563Y118130D02*
X288563Y126613D01*
X284322Y122372D01*
X289977Y122372D01*
X222518Y70718D02*
X222518Y62235D01*
X222518Y70718D02*
X226760Y70718D01*
X228174Y69304D01*
X228174Y66476D01*
X226760Y65062D01*
X222518Y65062D01*
X225346Y65062D02*
X228174Y62235D01*
X231726Y69304D02*
X233140Y70718D01*
X235968Y70718D01*
X237382Y69304D01*
X237382Y67890D01*
X235968Y66476D01*
X234554Y66476D01*
X235968Y66476D02*
X237382Y65062D01*
X237382Y63648D01*
X235968Y62235D01*
X233140Y62235D01*
X231726Y63648D01*
X240934Y70718D02*
X246590Y70718D01*
X240934Y70718D02*
X240934Y66476D01*
X243762Y67890D01*
X245176Y67890D01*
X246590Y66476D01*
X246590Y63648D01*
X245176Y62235D01*
X242348Y62235D01*
X240934Y63648D01*
D15*
X581125Y738100D02*
X593625Y738100D01*
X593625Y760500D02*
X581125Y760500D01*
D16*
X604075Y740800D02*
X604077Y740856D01*
X604083Y740913D01*
X604093Y740968D01*
X604107Y741023D01*
X604124Y741077D01*
X604146Y741129D01*
X604171Y741179D01*
X604199Y741228D01*
X604231Y741275D01*
X604266Y741319D01*
X604304Y741361D01*
X604345Y741400D01*
X604389Y741435D01*
X604435Y741468D01*
X604483Y741497D01*
X604533Y741523D01*
X604585Y741546D01*
X604639Y741564D01*
X604693Y741579D01*
X604748Y741590D01*
X604804Y741597D01*
X604861Y741600D01*
X604917Y741599D01*
X604974Y741594D01*
X605029Y741585D01*
X605084Y741572D01*
X605138Y741555D01*
X605191Y741535D01*
X605242Y741511D01*
X605291Y741483D01*
X605338Y741452D01*
X605383Y741418D01*
X605426Y741380D01*
X605465Y741340D01*
X605502Y741297D01*
X605535Y741252D01*
X605565Y741204D01*
X605592Y741154D01*
X605615Y741103D01*
X605635Y741050D01*
X605651Y740996D01*
X605663Y740940D01*
X605671Y740885D01*
X605675Y740828D01*
X605675Y740772D01*
X605671Y740715D01*
X605663Y740660D01*
X605651Y740604D01*
X605635Y740550D01*
X605615Y740497D01*
X605592Y740446D01*
X605565Y740396D01*
X605535Y740348D01*
X605502Y740303D01*
X605465Y740260D01*
X605426Y740220D01*
X605383Y740182D01*
X605338Y740148D01*
X605291Y740117D01*
X605242Y740089D01*
X605191Y740065D01*
X605138Y740045D01*
X605084Y740028D01*
X605029Y740015D01*
X604974Y740006D01*
X604917Y740001D01*
X604861Y740000D01*
X604804Y740003D01*
X604748Y740010D01*
X604693Y740021D01*
X604639Y740036D01*
X604585Y740054D01*
X604533Y740077D01*
X604483Y740103D01*
X604435Y740132D01*
X604389Y740165D01*
X604345Y740200D01*
X604304Y740239D01*
X604266Y740281D01*
X604231Y740325D01*
X604199Y740372D01*
X604171Y740421D01*
X604146Y740471D01*
X604124Y740523D01*
X604107Y740577D01*
X604093Y740632D01*
X604083Y740687D01*
X604077Y740744D01*
X604075Y740800D01*
D13*
X594896Y735306D02*
X594896Y729651D01*
X594896Y735306D02*
X596310Y736720D01*
X599138Y736720D01*
X600552Y735306D01*
X600552Y729651D01*
X599138Y728237D01*
X596310Y728237D01*
X594896Y729651D01*
X597724Y731065D02*
X600552Y728237D01*
X606932Y735306D02*
X609760Y736720D01*
X606932Y735306D02*
X604104Y732479D01*
X604104Y729651D01*
X605518Y728237D01*
X608346Y728237D01*
X609760Y729651D01*
X609760Y731065D01*
X608346Y732479D01*
X604104Y732479D01*
X531938Y704095D02*
X531938Y695612D01*
X531938Y704095D02*
X536180Y704095D01*
X537594Y702681D01*
X537594Y699854D01*
X536180Y698440D01*
X531938Y698440D01*
X534766Y698440D02*
X537594Y695612D01*
X541146Y695612D02*
X546802Y695612D01*
X541146Y695612D02*
X546802Y701268D01*
X546802Y702681D01*
X545388Y704095D01*
X542560Y704095D01*
X541146Y702681D01*
X553182Y702681D02*
X556010Y704095D01*
X553182Y702681D02*
X550354Y699854D01*
X550354Y697026D01*
X551768Y695612D01*
X554596Y695612D01*
X556010Y697026D01*
X556010Y698440D01*
X554596Y699854D01*
X550354Y699854D01*
X575037Y789037D02*
X575037Y797520D01*
X579279Y797520D01*
X580693Y796106D01*
X580693Y793279D01*
X579279Y791865D01*
X575037Y791865D01*
X577865Y791865D02*
X580693Y789037D01*
X584245Y789037D02*
X589900Y789037D01*
X584245Y789037D02*
X589900Y794693D01*
X589900Y796106D01*
X588486Y797520D01*
X585659Y797520D01*
X584245Y796106D01*
X597694Y797520D02*
X597694Y789037D01*
X593453Y793279D02*
X597694Y797520D01*
X599108Y793279D02*
X593453Y793279D01*
X604944Y765243D02*
X603530Y763829D01*
X603530Y761001D01*
X604944Y759587D01*
X610599Y759587D01*
X612013Y761001D01*
X612013Y763829D01*
X610599Y765243D01*
X606358Y768795D02*
X603530Y771623D01*
X612013Y771623D01*
X612013Y774450D02*
X612013Y768795D01*
X603530Y778003D02*
X603530Y783658D01*
X604944Y783658D01*
X610599Y778003D01*
X612013Y778003D01*
X614604Y717270D02*
X616018Y715856D01*
X614604Y717270D02*
X611776Y717270D01*
X610362Y715856D01*
X610362Y710201D01*
X611776Y708787D01*
X614604Y708787D01*
X616018Y710201D01*
X619570Y714443D02*
X622398Y717270D01*
X622398Y708787D01*
X625225Y708787D02*
X619570Y708787D01*
X628778Y715856D02*
X630192Y717270D01*
X633019Y717270D01*
X634433Y715856D01*
X634433Y714443D01*
X633019Y713029D01*
X634433Y711615D01*
X634433Y710201D01*
X633019Y708787D01*
X630192Y708787D01*
X628778Y710201D01*
X628778Y711615D01*
X630192Y713029D01*
X628778Y714443D01*
X628778Y715856D01*
X630192Y713029D02*
X633019Y713029D01*
X527869Y761668D02*
X526455Y760254D01*
X526455Y757426D01*
X527869Y756012D01*
X533524Y756012D01*
X534938Y757426D01*
X534938Y760254D01*
X533524Y761668D01*
X529283Y765220D02*
X526455Y768048D01*
X534938Y768048D01*
X534938Y770875D02*
X534938Y765220D01*
X533524Y774428D02*
X534938Y775842D01*
X534938Y778669D01*
X533524Y780083D01*
X527869Y780083D01*
X526455Y778669D01*
X526455Y775842D01*
X527869Y774428D01*
X529283Y774428D01*
X530696Y775842D01*
X530696Y780083D01*
X507763Y738512D02*
X499280Y738512D01*
X499280Y742754D01*
X500694Y744168D01*
X503521Y744168D01*
X504935Y742754D01*
X504935Y738512D01*
X504935Y741340D02*
X507763Y744168D01*
X507763Y747720D02*
X507763Y753375D01*
X507763Y747720D02*
X502108Y753375D01*
X500694Y753375D01*
X499280Y751961D01*
X499280Y749134D01*
X500694Y747720D01*
X499280Y756928D02*
X499280Y762583D01*
X499280Y756928D02*
X503521Y756928D01*
X502108Y759755D01*
X502108Y761169D01*
X503521Y762583D01*
X506349Y762583D01*
X507763Y761169D01*
X507763Y758342D01*
X506349Y756928D01*
D15*
X14605Y206760D02*
X14605Y42160D01*
X14605Y206760D02*
X116205Y206760D01*
X98405Y42160D02*
X82905Y42160D01*
X116205Y42160D02*
X14605Y42160D01*
D17*
X80105Y214860D02*
X80107Y214923D01*
X80113Y214985D01*
X80123Y215047D01*
X80136Y215109D01*
X80154Y215169D01*
X80175Y215228D01*
X80200Y215286D01*
X80229Y215342D01*
X80261Y215396D01*
X80296Y215448D01*
X80334Y215497D01*
X80376Y215545D01*
X80420Y215589D01*
X80468Y215631D01*
X80517Y215669D01*
X80569Y215704D01*
X80623Y215736D01*
X80679Y215765D01*
X80737Y215790D01*
X80796Y215811D01*
X80856Y215829D01*
X80918Y215842D01*
X80980Y215852D01*
X81042Y215858D01*
X81105Y215860D01*
X81168Y215858D01*
X81230Y215852D01*
X81292Y215842D01*
X81354Y215829D01*
X81414Y215811D01*
X81473Y215790D01*
X81531Y215765D01*
X81587Y215736D01*
X81641Y215704D01*
X81693Y215669D01*
X81742Y215631D01*
X81790Y215589D01*
X81834Y215545D01*
X81876Y215497D01*
X81914Y215448D01*
X81949Y215396D01*
X81981Y215342D01*
X82010Y215286D01*
X82035Y215228D01*
X82056Y215169D01*
X82074Y215109D01*
X82087Y215047D01*
X82097Y214985D01*
X82103Y214923D01*
X82105Y214860D01*
X82103Y214797D01*
X82097Y214735D01*
X82087Y214673D01*
X82074Y214611D01*
X82056Y214551D01*
X82035Y214492D01*
X82010Y214434D01*
X81981Y214378D01*
X81949Y214324D01*
X81914Y214272D01*
X81876Y214223D01*
X81834Y214175D01*
X81790Y214131D01*
X81742Y214089D01*
X81693Y214051D01*
X81641Y214016D01*
X81587Y213984D01*
X81531Y213955D01*
X81473Y213930D01*
X81414Y213909D01*
X81354Y213891D01*
X81292Y213878D01*
X81230Y213868D01*
X81168Y213862D01*
X81105Y213860D01*
X81042Y213862D01*
X80980Y213868D01*
X80918Y213878D01*
X80856Y213891D01*
X80796Y213909D01*
X80737Y213930D01*
X80679Y213955D01*
X80623Y213984D01*
X80569Y214016D01*
X80517Y214051D01*
X80468Y214089D01*
X80420Y214131D01*
X80376Y214175D01*
X80334Y214223D01*
X80296Y214272D01*
X80261Y214324D01*
X80229Y214378D01*
X80200Y214434D01*
X80175Y214492D01*
X80154Y214551D01*
X80136Y214611D01*
X80123Y214673D01*
X80113Y214735D01*
X80107Y214797D01*
X80105Y214860D01*
D15*
X116205Y206760D02*
X116205Y42160D01*
D13*
X107383Y38311D02*
X105969Y39725D01*
X103141Y39725D01*
X101727Y38311D01*
X101727Y36898D01*
X103141Y35484D01*
X105969Y35484D01*
X107383Y34070D01*
X107383Y32656D01*
X105969Y31242D01*
X103141Y31242D01*
X101727Y32656D01*
X110935Y36898D02*
X113763Y39725D01*
X113763Y31242D01*
X116590Y31242D02*
X110935Y31242D01*
D12*
X110791Y590536D02*
X110791Y592314D01*
X110791Y590536D02*
X112569Y590536D01*
X112569Y624064D02*
X110791Y624064D01*
X110791Y622286D01*
X132381Y624064D02*
X134159Y624064D01*
X134159Y622286D01*
X134159Y590536D02*
X128825Y590536D01*
X134159Y590536D02*
X134159Y592314D01*
D13*
X140796Y610901D02*
X140796Y617970D01*
X140796Y610901D02*
X142210Y609487D01*
X145038Y609487D01*
X146452Y610901D01*
X146452Y617970D01*
X150004Y617970D02*
X155659Y617970D01*
X155659Y616556D01*
X150004Y610901D01*
X150004Y609487D01*
X164269Y574393D02*
X162855Y572979D01*
X162855Y570151D01*
X164269Y568737D01*
X169924Y568737D01*
X171338Y570151D01*
X171338Y572979D01*
X169924Y574393D01*
X171338Y577945D02*
X171338Y583600D01*
X171338Y577945D02*
X165683Y583600D01*
X164269Y583600D01*
X162855Y582186D01*
X162855Y579359D01*
X164269Y577945D01*
X162855Y591394D02*
X171338Y591394D01*
X167096Y587153D02*
X162855Y591394D01*
X167096Y592808D02*
X167096Y587153D01*
X81200Y545451D02*
X81254Y545449D01*
X81308Y545443D01*
X81362Y545434D01*
X81415Y545420D01*
X81466Y545403D01*
X81517Y545382D01*
X81565Y545358D01*
X81612Y545330D01*
X81657Y545299D01*
X81699Y545265D01*
X81739Y545228D01*
X81776Y545188D01*
X81810Y545146D01*
X81841Y545101D01*
X81869Y545054D01*
X81893Y545006D01*
X81914Y544955D01*
X81931Y544904D01*
X81945Y544851D01*
X81954Y544797D01*
X81960Y544743D01*
X81962Y544689D01*
X81960Y544635D01*
X81954Y544581D01*
X81945Y544527D01*
X81931Y544474D01*
X81914Y544423D01*
X81893Y544372D01*
X81869Y544324D01*
X81841Y544277D01*
X81810Y544232D01*
X81776Y544190D01*
X81739Y544150D01*
X81699Y544113D01*
X81657Y544079D01*
X81612Y544048D01*
X81565Y544020D01*
X81517Y543996D01*
X81466Y543975D01*
X81415Y543958D01*
X81362Y543944D01*
X81308Y543935D01*
X81254Y543929D01*
X81200Y543927D01*
X81146Y543929D01*
X81092Y543935D01*
X81038Y543944D01*
X80985Y543958D01*
X80934Y543975D01*
X80883Y543996D01*
X80835Y544020D01*
X80788Y544048D01*
X80743Y544079D01*
X80701Y544113D01*
X80661Y544150D01*
X80624Y544190D01*
X80590Y544232D01*
X80559Y544277D01*
X80531Y544324D01*
X80507Y544372D01*
X80486Y544423D01*
X80469Y544474D01*
X80455Y544527D01*
X80446Y544581D01*
X80440Y544635D01*
X80438Y544689D01*
X80440Y544743D01*
X80446Y544797D01*
X80455Y544851D01*
X80469Y544904D01*
X80486Y544955D01*
X80507Y545006D01*
X80531Y545054D01*
X80559Y545101D01*
X80590Y545146D01*
X80624Y545188D01*
X80661Y545228D01*
X80701Y545265D01*
X80743Y545299D01*
X80788Y545330D01*
X80835Y545358D01*
X80883Y545382D01*
X80934Y545403D01*
X80985Y545420D01*
X81038Y545434D01*
X81092Y545443D01*
X81146Y545449D01*
X81200Y545451D01*
X58213Y559421D02*
X49730Y559421D01*
X58213Y559421D02*
X58213Y565077D01*
X58213Y568629D02*
X58213Y574284D01*
X58213Y568629D02*
X52558Y574284D01*
X51144Y574284D01*
X49730Y572870D01*
X49730Y570043D01*
X51144Y568629D01*
X120062Y662037D02*
X120062Y670520D01*
X124304Y670520D01*
X125718Y669106D01*
X125718Y666279D01*
X124304Y664865D01*
X120062Y664865D01*
X122890Y664865D02*
X125718Y662037D01*
X133511Y662037D02*
X133511Y670520D01*
X129270Y666279D01*
X134925Y666279D01*
X142719Y662037D02*
X142719Y670520D01*
X138478Y666279D01*
X144133Y666279D01*
X141705Y627062D02*
X150188Y627062D01*
X141705Y627062D02*
X141705Y631304D01*
X143119Y632718D01*
X145946Y632718D01*
X147360Y631304D01*
X147360Y627062D01*
X147360Y629890D02*
X150188Y632718D01*
X150188Y640511D02*
X141705Y640511D01*
X145946Y636270D01*
X145946Y641925D01*
X141705Y645478D02*
X141705Y651133D01*
X141705Y645478D02*
X145946Y645478D01*
X144533Y648305D01*
X144533Y649719D01*
X145946Y651133D01*
X148774Y651133D01*
X150188Y649719D01*
X150188Y646892D01*
X148774Y645478D01*
X94662Y688787D02*
X94662Y697270D01*
X98904Y697270D01*
X100318Y695856D01*
X100318Y693029D01*
X98904Y691615D01*
X94662Y691615D01*
X97490Y691615D02*
X100318Y688787D01*
X108111Y688787D02*
X108111Y697270D01*
X103870Y693029D01*
X109525Y693029D01*
X113078Y697270D02*
X118733Y697270D01*
X118733Y695856D01*
X113078Y690201D01*
X113078Y688787D01*
X114455Y567970D02*
X115869Y566556D01*
X114455Y567970D02*
X111627Y567970D01*
X110213Y566556D01*
X110213Y560901D01*
X111627Y559487D01*
X114455Y559487D01*
X115869Y560901D01*
X119421Y566556D02*
X120835Y567970D01*
X123663Y567970D01*
X125077Y566556D01*
X125077Y565143D01*
X123663Y563729D01*
X122249Y563729D01*
X123663Y563729D02*
X125077Y562315D01*
X125077Y560901D01*
X123663Y559487D01*
X120835Y559487D01*
X119421Y560901D01*
X128629Y565143D02*
X131457Y567970D01*
X131457Y559487D01*
X128629Y559487D02*
X134285Y559487D01*
X195105Y419220D02*
X196519Y417806D01*
X195105Y419220D02*
X192277Y419220D01*
X190863Y417806D01*
X190863Y412151D01*
X192277Y410737D01*
X195105Y410737D01*
X196519Y412151D01*
X200071Y410737D02*
X205727Y410737D01*
X200071Y410737D02*
X205727Y416393D01*
X205727Y417806D01*
X204313Y419220D01*
X201485Y419220D01*
X200071Y417806D01*
X209279Y412151D02*
X210693Y410737D01*
X213521Y410737D01*
X214935Y412151D01*
X214935Y417806D01*
X213521Y419220D01*
X210693Y419220D01*
X209279Y417806D01*
X209279Y416393D01*
X210693Y414979D01*
X214935Y414979D01*
D15*
X271575Y399500D02*
X271575Y459500D01*
X303575Y459500D02*
X303575Y399500D01*
D17*
X286575Y387700D02*
X286577Y387763D01*
X286583Y387825D01*
X286593Y387887D01*
X286606Y387949D01*
X286624Y388009D01*
X286645Y388068D01*
X286670Y388126D01*
X286699Y388182D01*
X286731Y388236D01*
X286766Y388288D01*
X286804Y388337D01*
X286846Y388385D01*
X286890Y388429D01*
X286938Y388471D01*
X286987Y388509D01*
X287039Y388544D01*
X287093Y388576D01*
X287149Y388605D01*
X287207Y388630D01*
X287266Y388651D01*
X287326Y388669D01*
X287388Y388682D01*
X287450Y388692D01*
X287512Y388698D01*
X287575Y388700D01*
X287638Y388698D01*
X287700Y388692D01*
X287762Y388682D01*
X287824Y388669D01*
X287884Y388651D01*
X287943Y388630D01*
X288001Y388605D01*
X288057Y388576D01*
X288111Y388544D01*
X288163Y388509D01*
X288212Y388471D01*
X288260Y388429D01*
X288304Y388385D01*
X288346Y388337D01*
X288384Y388288D01*
X288419Y388236D01*
X288451Y388182D01*
X288480Y388126D01*
X288505Y388068D01*
X288526Y388009D01*
X288544Y387949D01*
X288557Y387887D01*
X288567Y387825D01*
X288573Y387763D01*
X288575Y387700D01*
X288573Y387637D01*
X288567Y387575D01*
X288557Y387513D01*
X288544Y387451D01*
X288526Y387391D01*
X288505Y387332D01*
X288480Y387274D01*
X288451Y387218D01*
X288419Y387164D01*
X288384Y387112D01*
X288346Y387063D01*
X288304Y387015D01*
X288260Y386971D01*
X288212Y386929D01*
X288163Y386891D01*
X288111Y386856D01*
X288057Y386824D01*
X288001Y386795D01*
X287943Y386770D01*
X287884Y386749D01*
X287824Y386731D01*
X287762Y386718D01*
X287700Y386708D01*
X287638Y386702D01*
X287575Y386700D01*
X287512Y386702D01*
X287450Y386708D01*
X287388Y386718D01*
X287326Y386731D01*
X287266Y386749D01*
X287207Y386770D01*
X287149Y386795D01*
X287093Y386824D01*
X287039Y386856D01*
X286987Y386891D01*
X286938Y386929D01*
X286890Y386971D01*
X286846Y387015D01*
X286804Y387063D01*
X286766Y387112D01*
X286731Y387164D01*
X286699Y387218D01*
X286670Y387274D01*
X286645Y387332D01*
X286624Y387391D01*
X286606Y387451D01*
X286593Y387513D01*
X286583Y387575D01*
X286577Y387637D01*
X286575Y387700D01*
D13*
X261105Y418629D02*
X262519Y420043D01*
X261105Y418629D02*
X261105Y415801D01*
X262519Y414387D01*
X268174Y414387D01*
X269588Y415801D01*
X269588Y418629D01*
X268174Y420043D01*
X269588Y423595D02*
X269588Y429250D01*
X269588Y423595D02*
X263933Y429250D01*
X262519Y429250D01*
X261105Y427836D01*
X261105Y425009D01*
X262519Y423595D01*
X261105Y432803D02*
X261105Y438458D01*
X262519Y438458D01*
X268174Y432803D01*
X269588Y432803D01*
D17*
X234408Y564565D02*
X234410Y564628D01*
X234416Y564690D01*
X234426Y564752D01*
X234439Y564814D01*
X234457Y564874D01*
X234478Y564933D01*
X234503Y564991D01*
X234532Y565047D01*
X234564Y565101D01*
X234599Y565153D01*
X234637Y565202D01*
X234679Y565250D01*
X234723Y565294D01*
X234771Y565336D01*
X234820Y565374D01*
X234872Y565409D01*
X234926Y565441D01*
X234982Y565470D01*
X235040Y565495D01*
X235099Y565516D01*
X235159Y565534D01*
X235221Y565547D01*
X235283Y565557D01*
X235345Y565563D01*
X235408Y565565D01*
X235471Y565563D01*
X235533Y565557D01*
X235595Y565547D01*
X235657Y565534D01*
X235717Y565516D01*
X235776Y565495D01*
X235834Y565470D01*
X235890Y565441D01*
X235944Y565409D01*
X235996Y565374D01*
X236045Y565336D01*
X236093Y565294D01*
X236137Y565250D01*
X236179Y565202D01*
X236217Y565153D01*
X236252Y565101D01*
X236284Y565047D01*
X236313Y564991D01*
X236338Y564933D01*
X236359Y564874D01*
X236377Y564814D01*
X236390Y564752D01*
X236400Y564690D01*
X236406Y564628D01*
X236408Y564565D01*
X236406Y564502D01*
X236400Y564440D01*
X236390Y564378D01*
X236377Y564316D01*
X236359Y564256D01*
X236338Y564197D01*
X236313Y564139D01*
X236284Y564083D01*
X236252Y564029D01*
X236217Y563977D01*
X236179Y563928D01*
X236137Y563880D01*
X236093Y563836D01*
X236045Y563794D01*
X235996Y563756D01*
X235944Y563721D01*
X235890Y563689D01*
X235834Y563660D01*
X235776Y563635D01*
X235717Y563614D01*
X235657Y563596D01*
X235595Y563583D01*
X235533Y563573D01*
X235471Y563567D01*
X235408Y563565D01*
X235345Y563567D01*
X235283Y563573D01*
X235221Y563583D01*
X235159Y563596D01*
X235099Y563614D01*
X235040Y563635D01*
X234982Y563660D01*
X234926Y563689D01*
X234872Y563721D01*
X234820Y563756D01*
X234771Y563794D01*
X234723Y563836D01*
X234679Y563880D01*
X234637Y563928D01*
X234599Y563977D01*
X234564Y564029D01*
X234532Y564083D01*
X234503Y564139D01*
X234478Y564197D01*
X234457Y564256D01*
X234439Y564316D01*
X234426Y564378D01*
X234416Y564440D01*
X234410Y564502D01*
X234408Y564565D01*
D13*
X236754Y559810D02*
X236754Y552741D01*
X238168Y551327D01*
X240995Y551327D01*
X242409Y552741D01*
X242409Y559810D01*
X248789Y558396D02*
X251617Y559810D01*
X248789Y558396D02*
X245962Y555569D01*
X245962Y552741D01*
X247376Y551327D01*
X250203Y551327D01*
X251617Y552741D01*
X251617Y554155D01*
X250203Y555569D01*
X245962Y555569D01*
X184196Y587902D02*
X184196Y596385D01*
X188438Y596385D01*
X189851Y594971D01*
X189851Y592144D01*
X188438Y590730D01*
X184196Y590730D01*
X187024Y590730D02*
X189851Y587902D01*
X193404Y587902D02*
X199059Y587902D01*
X193404Y587902D02*
X199059Y593558D01*
X199059Y594971D01*
X197645Y596385D01*
X194818Y596385D01*
X193404Y594971D01*
X202612Y596385D02*
X208267Y596385D01*
X208267Y594971D01*
X202612Y589316D01*
X202612Y587902D01*
X253095Y601077D02*
X253095Y609560D01*
X257336Y609560D01*
X258750Y608146D01*
X258750Y605319D01*
X257336Y603905D01*
X253095Y603905D01*
X255922Y603905D02*
X258750Y601077D01*
X262302Y601077D02*
X267958Y601077D01*
X262302Y601077D02*
X267958Y606733D01*
X267958Y608146D01*
X266544Y609560D01*
X263716Y609560D01*
X262302Y608146D01*
X271510Y602491D02*
X272924Y601077D01*
X275752Y601077D01*
X277166Y602491D01*
X277166Y608146D01*
X275752Y609560D01*
X272924Y609560D01*
X271510Y608146D01*
X271510Y606733D01*
X272924Y605319D01*
X277166Y605319D01*
X189595Y632827D02*
X189595Y641310D01*
X193836Y641310D01*
X195250Y639896D01*
X195250Y637069D01*
X193836Y635655D01*
X189595Y635655D01*
X192422Y635655D02*
X195250Y632827D01*
X198802Y632827D02*
X204458Y632827D01*
X198802Y632827D02*
X204458Y638483D01*
X204458Y639896D01*
X203044Y641310D01*
X200216Y641310D01*
X198802Y639896D01*
X208010Y639896D02*
X209424Y641310D01*
X212252Y641310D01*
X213666Y639896D01*
X213666Y638483D01*
X212252Y637069D01*
X213666Y635655D01*
X213666Y634241D01*
X212252Y632827D01*
X209424Y632827D01*
X208010Y634241D01*
X208010Y635655D01*
X209424Y637069D01*
X208010Y638483D01*
X208010Y639896D01*
X209424Y637069D02*
X212252Y637069D01*
X254046Y631310D02*
X254046Y622827D01*
X254046Y631310D02*
X258288Y631310D01*
X259701Y629896D01*
X259701Y627069D01*
X258288Y625655D01*
X254046Y625655D01*
X256874Y625655D02*
X259701Y622827D01*
X263254Y629896D02*
X264668Y631310D01*
X267495Y631310D01*
X268909Y629896D01*
X268909Y628483D01*
X267495Y627069D01*
X266082Y627069D01*
X267495Y627069D02*
X268909Y625655D01*
X268909Y624241D01*
X267495Y622827D01*
X264668Y622827D01*
X263254Y624241D01*
X272462Y624241D02*
X272462Y629896D01*
X273875Y631310D01*
X276703Y631310D01*
X278117Y629896D01*
X278117Y624241D01*
X276703Y622827D01*
X273875Y622827D01*
X272462Y624241D01*
X278117Y629896D01*
X207245Y541585D02*
X207245Y533102D01*
X207245Y541585D02*
X211486Y541585D01*
X212900Y540171D01*
X212900Y537344D01*
X211486Y535930D01*
X207245Y535930D01*
X210072Y535930D02*
X212900Y533102D01*
X216452Y540171D02*
X217866Y541585D01*
X220694Y541585D01*
X222108Y540171D01*
X222108Y538758D01*
X220694Y537344D01*
X219280Y537344D01*
X220694Y537344D02*
X222108Y535930D01*
X222108Y534516D01*
X220694Y533102D01*
X217866Y533102D01*
X216452Y534516D01*
X225660Y538758D02*
X228488Y541585D01*
X228488Y533102D01*
X225660Y533102D02*
X231316Y533102D01*
X180326Y502896D02*
X178913Y504310D01*
X176085Y504310D01*
X174671Y502896D01*
X174671Y497241D01*
X176085Y495827D01*
X178913Y495827D01*
X180326Y497241D01*
X183879Y495827D02*
X189534Y495827D01*
X183879Y495827D02*
X189534Y501483D01*
X189534Y502896D01*
X188120Y504310D01*
X185293Y504310D01*
X183879Y502896D01*
X193087Y502896D02*
X194500Y504310D01*
X197328Y504310D01*
X198742Y502896D01*
X198742Y501483D01*
X197328Y500069D01*
X195914Y500069D01*
X197328Y500069D02*
X198742Y498655D01*
X198742Y497241D01*
X197328Y495827D01*
X194500Y495827D01*
X193087Y497241D01*
X686280Y460020D02*
X687694Y458606D01*
X686280Y460020D02*
X683452Y460020D01*
X682038Y458606D01*
X682038Y452951D01*
X683452Y451537D01*
X686280Y451537D01*
X687694Y452951D01*
X691246Y457193D02*
X694074Y460020D01*
X694074Y451537D01*
X691246Y451537D02*
X696902Y451537D01*
X704696Y451537D02*
X704696Y460020D01*
X700454Y455779D01*
X706110Y455779D01*
X255538Y399463D02*
X247055Y399463D01*
X247055Y403705D01*
X248469Y405119D01*
X251296Y405119D01*
X252710Y403705D01*
X252710Y399463D01*
X252710Y402291D02*
X255538Y405119D01*
X248469Y408671D02*
X247055Y410085D01*
X247055Y412913D01*
X248469Y414327D01*
X249883Y414327D01*
X251296Y412913D01*
X251296Y411499D01*
X251296Y412913D02*
X252710Y414327D01*
X254124Y414327D01*
X255538Y412913D01*
X255538Y410085D01*
X254124Y408671D01*
X248469Y417879D02*
X247055Y419293D01*
X247055Y422121D01*
X248469Y423535D01*
X249883Y423535D01*
X251296Y422121D01*
X252710Y423535D01*
X254124Y423535D01*
X255538Y422121D01*
X255538Y419293D01*
X254124Y417879D01*
X252710Y417879D01*
X251296Y419293D01*
X249883Y417879D01*
X248469Y417879D01*
X251296Y419293D02*
X251296Y422121D01*
D15*
X868650Y740975D02*
X868650Y766975D01*
D23*
X828700Y753975D02*
X828702Y754029D01*
X828708Y754083D01*
X828718Y754136D01*
X828731Y754189D01*
X828748Y754240D01*
X828769Y754290D01*
X828794Y754338D01*
X828822Y754385D01*
X828853Y754429D01*
X828887Y754471D01*
X828924Y754510D01*
X828964Y754547D01*
X829007Y754580D01*
X829052Y754611D01*
X829099Y754638D01*
X829147Y754661D01*
X829198Y754681D01*
X829249Y754698D01*
X829302Y754710D01*
X829355Y754719D01*
X829409Y754724D01*
X829464Y754725D01*
X829518Y754722D01*
X829571Y754715D01*
X829624Y754704D01*
X829677Y754690D01*
X829728Y754672D01*
X829777Y754650D01*
X829825Y754625D01*
X829871Y754596D01*
X829915Y754564D01*
X829956Y754529D01*
X829994Y754491D01*
X830030Y754450D01*
X830063Y754407D01*
X830093Y754362D01*
X830119Y754314D01*
X830142Y754265D01*
X830161Y754214D01*
X830176Y754163D01*
X830188Y754110D01*
X830196Y754056D01*
X830200Y754002D01*
X830200Y753948D01*
X830196Y753894D01*
X830188Y753840D01*
X830176Y753787D01*
X830161Y753736D01*
X830142Y753685D01*
X830119Y753636D01*
X830093Y753588D01*
X830063Y753543D01*
X830030Y753500D01*
X829994Y753459D01*
X829956Y753421D01*
X829915Y753386D01*
X829871Y753354D01*
X829825Y753325D01*
X829777Y753300D01*
X829728Y753278D01*
X829677Y753260D01*
X829624Y753246D01*
X829571Y753235D01*
X829518Y753228D01*
X829464Y753225D01*
X829409Y753226D01*
X829355Y753231D01*
X829302Y753240D01*
X829249Y753252D01*
X829198Y753269D01*
X829147Y753289D01*
X829099Y753312D01*
X829052Y753339D01*
X829007Y753370D01*
X828964Y753403D01*
X828924Y753440D01*
X828887Y753479D01*
X828853Y753521D01*
X828822Y753565D01*
X828794Y753612D01*
X828769Y753660D01*
X828748Y753710D01*
X828731Y753761D01*
X828718Y753814D01*
X828708Y753867D01*
X828702Y753921D01*
X828700Y753975D01*
D15*
X840250Y761475D02*
X840250Y766975D01*
X840250Y746475D02*
X840250Y740975D01*
D13*
X878519Y741269D02*
X879933Y742683D01*
X879933Y744097D01*
X878519Y745511D01*
X871450Y745511D01*
X871450Y746924D02*
X871450Y744097D01*
X871450Y750477D02*
X871450Y756132D01*
X872864Y756132D01*
X878519Y750477D01*
X879933Y750477D01*
D17*
X638845Y162495D02*
X638847Y162558D01*
X638853Y162620D01*
X638863Y162682D01*
X638876Y162744D01*
X638894Y162804D01*
X638915Y162863D01*
X638940Y162921D01*
X638969Y162977D01*
X639001Y163031D01*
X639036Y163083D01*
X639074Y163132D01*
X639116Y163180D01*
X639160Y163224D01*
X639208Y163266D01*
X639257Y163304D01*
X639309Y163339D01*
X639363Y163371D01*
X639419Y163400D01*
X639477Y163425D01*
X639536Y163446D01*
X639596Y163464D01*
X639658Y163477D01*
X639720Y163487D01*
X639782Y163493D01*
X639845Y163495D01*
X639908Y163493D01*
X639970Y163487D01*
X640032Y163477D01*
X640094Y163464D01*
X640154Y163446D01*
X640213Y163425D01*
X640271Y163400D01*
X640327Y163371D01*
X640381Y163339D01*
X640433Y163304D01*
X640482Y163266D01*
X640530Y163224D01*
X640574Y163180D01*
X640616Y163132D01*
X640654Y163083D01*
X640689Y163031D01*
X640721Y162977D01*
X640750Y162921D01*
X640775Y162863D01*
X640796Y162804D01*
X640814Y162744D01*
X640827Y162682D01*
X640837Y162620D01*
X640843Y162558D01*
X640845Y162495D01*
X640843Y162432D01*
X640837Y162370D01*
X640827Y162308D01*
X640814Y162246D01*
X640796Y162186D01*
X640775Y162127D01*
X640750Y162069D01*
X640721Y162013D01*
X640689Y161959D01*
X640654Y161907D01*
X640616Y161858D01*
X640574Y161810D01*
X640530Y161766D01*
X640482Y161724D01*
X640433Y161686D01*
X640381Y161651D01*
X640327Y161619D01*
X640271Y161590D01*
X640213Y161565D01*
X640154Y161544D01*
X640094Y161526D01*
X640032Y161513D01*
X639970Y161503D01*
X639908Y161497D01*
X639845Y161495D01*
X639782Y161497D01*
X639720Y161503D01*
X639658Y161513D01*
X639596Y161526D01*
X639536Y161544D01*
X639477Y161565D01*
X639419Y161590D01*
X639363Y161619D01*
X639309Y161651D01*
X639257Y161686D01*
X639208Y161724D01*
X639160Y161766D01*
X639116Y161810D01*
X639074Y161858D01*
X639036Y161907D01*
X639001Y161959D01*
X638969Y162013D01*
X638940Y162069D01*
X638915Y162127D01*
X638894Y162186D01*
X638876Y162246D01*
X638863Y162308D01*
X638853Y162370D01*
X638847Y162432D01*
X638845Y162495D01*
D15*
X671345Y165095D02*
X671345Y156695D01*
X671345Y165095D02*
X663595Y165095D01*
X671345Y144295D02*
X671345Y135895D01*
X663595Y135895D01*
X658345Y147195D02*
X658345Y153795D01*
D13*
X675532Y140226D02*
X675532Y134571D01*
X675532Y140226D02*
X676946Y141640D01*
X679774Y141640D01*
X681188Y140226D01*
X681188Y134571D01*
X679774Y133157D01*
X676946Y133157D01*
X675532Y134571D01*
X678360Y135985D02*
X681188Y133157D01*
X684740Y133157D02*
X690395Y133157D01*
X684740Y133157D02*
X690395Y138813D01*
X690395Y140226D01*
X688981Y141640D01*
X686154Y141640D01*
X684740Y140226D01*
D15*
X643400Y125775D02*
X643400Y25775D01*
X785400Y25775D02*
X785400Y125775D01*
X643400Y125775D01*
X643400Y25775D02*
X785400Y25775D01*
D17*
X659400Y135775D02*
X659402Y135838D01*
X659408Y135900D01*
X659418Y135962D01*
X659431Y136024D01*
X659449Y136084D01*
X659470Y136143D01*
X659495Y136201D01*
X659524Y136257D01*
X659556Y136311D01*
X659591Y136363D01*
X659629Y136412D01*
X659671Y136460D01*
X659715Y136504D01*
X659763Y136546D01*
X659812Y136584D01*
X659864Y136619D01*
X659918Y136651D01*
X659974Y136680D01*
X660032Y136705D01*
X660091Y136726D01*
X660151Y136744D01*
X660213Y136757D01*
X660275Y136767D01*
X660337Y136773D01*
X660400Y136775D01*
X660463Y136773D01*
X660525Y136767D01*
X660587Y136757D01*
X660649Y136744D01*
X660709Y136726D01*
X660768Y136705D01*
X660826Y136680D01*
X660882Y136651D01*
X660936Y136619D01*
X660988Y136584D01*
X661037Y136546D01*
X661085Y136504D01*
X661129Y136460D01*
X661171Y136412D01*
X661209Y136363D01*
X661244Y136311D01*
X661276Y136257D01*
X661305Y136201D01*
X661330Y136143D01*
X661351Y136084D01*
X661369Y136024D01*
X661382Y135962D01*
X661392Y135900D01*
X661398Y135838D01*
X661400Y135775D01*
X661398Y135712D01*
X661392Y135650D01*
X661382Y135588D01*
X661369Y135526D01*
X661351Y135466D01*
X661330Y135407D01*
X661305Y135349D01*
X661276Y135293D01*
X661244Y135239D01*
X661209Y135187D01*
X661171Y135138D01*
X661129Y135090D01*
X661085Y135046D01*
X661037Y135004D01*
X660988Y134966D01*
X660936Y134931D01*
X660882Y134899D01*
X660826Y134870D01*
X660768Y134845D01*
X660709Y134824D01*
X660649Y134806D01*
X660587Y134793D01*
X660525Y134783D01*
X660463Y134777D01*
X660400Y134775D01*
X660337Y134777D01*
X660275Y134783D01*
X660213Y134793D01*
X660151Y134806D01*
X660091Y134824D01*
X660032Y134845D01*
X659974Y134870D01*
X659918Y134899D01*
X659864Y134931D01*
X659812Y134966D01*
X659763Y135004D01*
X659715Y135046D01*
X659671Y135090D01*
X659629Y135138D01*
X659591Y135187D01*
X659556Y135239D01*
X659524Y135293D01*
X659495Y135349D01*
X659470Y135407D01*
X659449Y135466D01*
X659431Y135526D01*
X659418Y135588D01*
X659408Y135650D01*
X659402Y135712D01*
X659400Y135775D01*
D13*
X761162Y130187D02*
X763990Y130187D01*
X762576Y130187D02*
X762576Y138670D01*
X761162Y138670D02*
X763990Y138670D01*
X767301Y130187D02*
X772956Y130187D01*
X767301Y130187D02*
X772956Y135843D01*
X772956Y137256D01*
X771542Y138670D01*
X768714Y138670D01*
X767301Y137256D01*
X780750Y138670D02*
X782164Y137256D01*
X780750Y138670D02*
X777922Y138670D01*
X776508Y137256D01*
X776508Y131601D01*
X777922Y130187D01*
X780750Y130187D01*
X782164Y131601D01*
D15*
X544340Y125775D02*
X544340Y25775D01*
X635540Y25775D02*
X635540Y125775D01*
X544340Y125775D01*
X544340Y25775D02*
X635540Y25775D01*
D17*
X560340Y135775D02*
X560342Y135838D01*
X560348Y135900D01*
X560358Y135962D01*
X560371Y136024D01*
X560389Y136084D01*
X560410Y136143D01*
X560435Y136201D01*
X560464Y136257D01*
X560496Y136311D01*
X560531Y136363D01*
X560569Y136412D01*
X560611Y136460D01*
X560655Y136504D01*
X560703Y136546D01*
X560752Y136584D01*
X560804Y136619D01*
X560858Y136651D01*
X560914Y136680D01*
X560972Y136705D01*
X561031Y136726D01*
X561091Y136744D01*
X561153Y136757D01*
X561215Y136767D01*
X561277Y136773D01*
X561340Y136775D01*
X561403Y136773D01*
X561465Y136767D01*
X561527Y136757D01*
X561589Y136744D01*
X561649Y136726D01*
X561708Y136705D01*
X561766Y136680D01*
X561822Y136651D01*
X561876Y136619D01*
X561928Y136584D01*
X561977Y136546D01*
X562025Y136504D01*
X562069Y136460D01*
X562111Y136412D01*
X562149Y136363D01*
X562184Y136311D01*
X562216Y136257D01*
X562245Y136201D01*
X562270Y136143D01*
X562291Y136084D01*
X562309Y136024D01*
X562322Y135962D01*
X562332Y135900D01*
X562338Y135838D01*
X562340Y135775D01*
X562338Y135712D01*
X562332Y135650D01*
X562322Y135588D01*
X562309Y135526D01*
X562291Y135466D01*
X562270Y135407D01*
X562245Y135349D01*
X562216Y135293D01*
X562184Y135239D01*
X562149Y135187D01*
X562111Y135138D01*
X562069Y135090D01*
X562025Y135046D01*
X561977Y135004D01*
X561928Y134966D01*
X561876Y134931D01*
X561822Y134899D01*
X561766Y134870D01*
X561708Y134845D01*
X561649Y134824D01*
X561589Y134806D01*
X561527Y134793D01*
X561465Y134783D01*
X561403Y134777D01*
X561340Y134775D01*
X561277Y134777D01*
X561215Y134783D01*
X561153Y134793D01*
X561091Y134806D01*
X561031Y134824D01*
X560972Y134845D01*
X560914Y134870D01*
X560858Y134899D01*
X560804Y134931D01*
X560752Y134966D01*
X560703Y135004D01*
X560655Y135046D01*
X560611Y135090D01*
X560569Y135138D01*
X560531Y135187D01*
X560496Y135239D01*
X560464Y135293D01*
X560435Y135349D01*
X560410Y135407D01*
X560389Y135466D01*
X560371Y135526D01*
X560358Y135588D01*
X560348Y135650D01*
X560342Y135712D01*
X560340Y135775D01*
D13*
X530669Y79908D02*
X529255Y78494D01*
X529255Y75666D01*
X530669Y74252D01*
X532083Y74252D01*
X533496Y75666D01*
X533496Y78494D01*
X534910Y79908D01*
X536324Y79908D01*
X537738Y78494D01*
X537738Y75666D01*
X536324Y74252D01*
X537738Y83460D02*
X529255Y83460D01*
X537738Y83460D02*
X537738Y87701D01*
X536324Y89115D01*
X530669Y89115D01*
X529255Y87701D01*
X529255Y83460D01*
X537738Y92668D02*
X537738Y95495D01*
X537738Y94082D02*
X529255Y94082D01*
X529255Y95495D02*
X529255Y92668D01*
X533496Y98806D02*
X533496Y104462D01*
X532083Y108014D02*
X529255Y110842D01*
X537738Y110842D01*
X537738Y108014D02*
X537738Y113670D01*
X537738Y117222D02*
X537738Y122877D01*
X537738Y117222D02*
X532083Y122877D01*
X530669Y122877D01*
X529255Y121464D01*
X529255Y118636D01*
X530669Y117222D01*
D15*
X135300Y793288D02*
X35300Y793288D01*
X35300Y702088D02*
X135300Y702088D01*
X135300Y793288D01*
X35300Y793288D02*
X35300Y702088D01*
D17*
X144300Y776288D02*
X144302Y776351D01*
X144308Y776413D01*
X144318Y776475D01*
X144331Y776537D01*
X144349Y776597D01*
X144370Y776656D01*
X144395Y776714D01*
X144424Y776770D01*
X144456Y776824D01*
X144491Y776876D01*
X144529Y776925D01*
X144571Y776973D01*
X144615Y777017D01*
X144663Y777059D01*
X144712Y777097D01*
X144764Y777132D01*
X144818Y777164D01*
X144874Y777193D01*
X144932Y777218D01*
X144991Y777239D01*
X145051Y777257D01*
X145113Y777270D01*
X145175Y777280D01*
X145237Y777286D01*
X145300Y777288D01*
X145363Y777286D01*
X145425Y777280D01*
X145487Y777270D01*
X145549Y777257D01*
X145609Y777239D01*
X145668Y777218D01*
X145726Y777193D01*
X145782Y777164D01*
X145836Y777132D01*
X145888Y777097D01*
X145937Y777059D01*
X145985Y777017D01*
X146029Y776973D01*
X146071Y776925D01*
X146109Y776876D01*
X146144Y776824D01*
X146176Y776770D01*
X146205Y776714D01*
X146230Y776656D01*
X146251Y776597D01*
X146269Y776537D01*
X146282Y776475D01*
X146292Y776413D01*
X146298Y776351D01*
X146300Y776288D01*
X146298Y776225D01*
X146292Y776163D01*
X146282Y776101D01*
X146269Y776039D01*
X146251Y775979D01*
X146230Y775920D01*
X146205Y775862D01*
X146176Y775806D01*
X146144Y775752D01*
X146109Y775700D01*
X146071Y775651D01*
X146029Y775603D01*
X145985Y775559D01*
X145937Y775517D01*
X145888Y775479D01*
X145836Y775444D01*
X145782Y775412D01*
X145726Y775383D01*
X145668Y775358D01*
X145609Y775337D01*
X145549Y775319D01*
X145487Y775306D01*
X145425Y775296D01*
X145363Y775290D01*
X145300Y775288D01*
X145237Y775290D01*
X145175Y775296D01*
X145113Y775306D01*
X145051Y775319D01*
X144991Y775337D01*
X144932Y775358D01*
X144874Y775383D01*
X144818Y775412D01*
X144764Y775444D01*
X144712Y775479D01*
X144663Y775517D01*
X144615Y775559D01*
X144571Y775603D01*
X144529Y775651D01*
X144491Y775700D01*
X144456Y775752D01*
X144424Y775806D01*
X144395Y775862D01*
X144370Y775920D01*
X144349Y775979D01*
X144331Y776039D01*
X144318Y776101D01*
X144308Y776163D01*
X144302Y776225D01*
X144300Y776288D01*
D13*
X142144Y711255D02*
X140730Y709841D01*
X140730Y707013D01*
X142144Y705600D01*
X143558Y705600D01*
X144971Y707013D01*
X144971Y709841D01*
X146385Y711255D01*
X147799Y711255D01*
X149213Y709841D01*
X149213Y707013D01*
X147799Y705600D01*
X140730Y716221D02*
X140730Y719049D01*
X140730Y716221D02*
X142144Y714807D01*
X147799Y714807D01*
X149213Y716221D01*
X149213Y719049D01*
X147799Y720463D01*
X142144Y720463D01*
X140730Y719049D01*
X149213Y724015D02*
X149213Y726843D01*
X149213Y725429D02*
X140730Y725429D01*
X140730Y724015D02*
X140730Y726843D01*
X140730Y730154D02*
X149213Y730154D01*
X149213Y735809D01*
X150627Y739362D02*
X150627Y745017D01*
X149213Y751397D02*
X140730Y751397D01*
X140730Y748569D02*
X140730Y754225D01*
X140730Y757777D02*
X140730Y763433D01*
X140730Y757777D02*
X149213Y757777D01*
X149213Y763433D01*
X144971Y760605D02*
X144971Y757777D01*
X140730Y766985D02*
X149213Y766985D01*
X143558Y769813D02*
X140730Y766985D01*
X143558Y769813D02*
X140730Y772641D01*
X149213Y772641D01*
X149213Y776193D02*
X140730Y776193D01*
X140730Y780435D01*
X142144Y781848D01*
X144971Y781848D01*
X146385Y780435D01*
X146385Y776193D01*
D15*
X248775Y787025D02*
X248775Y687025D01*
X157575Y687025D02*
X157575Y787025D01*
X157575Y687025D02*
X248775Y687025D01*
X248775Y787025D02*
X157575Y787025D01*
D17*
X230775Y677025D02*
X230777Y677088D01*
X230783Y677150D01*
X230793Y677212D01*
X230806Y677274D01*
X230824Y677334D01*
X230845Y677393D01*
X230870Y677451D01*
X230899Y677507D01*
X230931Y677561D01*
X230966Y677613D01*
X231004Y677662D01*
X231046Y677710D01*
X231090Y677754D01*
X231138Y677796D01*
X231187Y677834D01*
X231239Y677869D01*
X231293Y677901D01*
X231349Y677930D01*
X231407Y677955D01*
X231466Y677976D01*
X231526Y677994D01*
X231588Y678007D01*
X231650Y678017D01*
X231712Y678023D01*
X231775Y678025D01*
X231838Y678023D01*
X231900Y678017D01*
X231962Y678007D01*
X232024Y677994D01*
X232084Y677976D01*
X232143Y677955D01*
X232201Y677930D01*
X232257Y677901D01*
X232311Y677869D01*
X232363Y677834D01*
X232412Y677796D01*
X232460Y677754D01*
X232504Y677710D01*
X232546Y677662D01*
X232584Y677613D01*
X232619Y677561D01*
X232651Y677507D01*
X232680Y677451D01*
X232705Y677393D01*
X232726Y677334D01*
X232744Y677274D01*
X232757Y677212D01*
X232767Y677150D01*
X232773Y677088D01*
X232775Y677025D01*
X232773Y676962D01*
X232767Y676900D01*
X232757Y676838D01*
X232744Y676776D01*
X232726Y676716D01*
X232705Y676657D01*
X232680Y676599D01*
X232651Y676543D01*
X232619Y676489D01*
X232584Y676437D01*
X232546Y676388D01*
X232504Y676340D01*
X232460Y676296D01*
X232412Y676254D01*
X232363Y676216D01*
X232311Y676181D01*
X232257Y676149D01*
X232201Y676120D01*
X232143Y676095D01*
X232084Y676074D01*
X232024Y676056D01*
X231962Y676043D01*
X231900Y676033D01*
X231838Y676027D01*
X231775Y676025D01*
X231712Y676027D01*
X231650Y676033D01*
X231588Y676043D01*
X231526Y676056D01*
X231466Y676074D01*
X231407Y676095D01*
X231349Y676120D01*
X231293Y676149D01*
X231239Y676181D01*
X231187Y676216D01*
X231138Y676254D01*
X231090Y676296D01*
X231046Y676340D01*
X231004Y676388D01*
X230966Y676437D01*
X230931Y676489D01*
X230899Y676543D01*
X230870Y676599D01*
X230845Y676657D01*
X230824Y676716D01*
X230806Y676776D01*
X230793Y676838D01*
X230783Y676900D01*
X230777Y676962D01*
X230775Y677025D01*
D13*
X255030Y695554D02*
X256444Y696968D01*
X255030Y695554D02*
X255030Y692726D01*
X256444Y691312D01*
X257858Y691312D01*
X259271Y692726D01*
X259271Y695554D01*
X260685Y696968D01*
X262099Y696968D01*
X263513Y695554D01*
X263513Y692726D01*
X262099Y691312D01*
X255030Y701934D02*
X255030Y704761D01*
X255030Y701934D02*
X256444Y700520D01*
X262099Y700520D01*
X263513Y701934D01*
X263513Y704761D01*
X262099Y706175D01*
X256444Y706175D01*
X255030Y704761D01*
X263513Y709728D02*
X263513Y712555D01*
X263513Y711142D02*
X255030Y711142D01*
X255030Y712555D02*
X255030Y709728D01*
X255030Y715866D02*
X263513Y715866D01*
X263513Y721522D01*
X264927Y725074D02*
X264927Y730730D01*
X263513Y734282D02*
X255030Y734282D01*
X257858Y737110D01*
X255030Y739937D01*
X263513Y739937D01*
X255030Y744904D02*
X255030Y747731D01*
X255030Y744904D02*
X256444Y743490D01*
X262099Y743490D01*
X263513Y744904D01*
X263513Y747731D01*
X262099Y749145D01*
X256444Y749145D01*
X255030Y747731D01*
X263513Y752698D02*
X263513Y755525D01*
X263513Y754112D02*
X255030Y754112D01*
X255030Y755525D02*
X255030Y752698D01*
X255030Y763078D02*
X256444Y764492D01*
X255030Y763078D02*
X255030Y760250D01*
X256444Y758836D01*
X257858Y758836D01*
X259271Y760250D01*
X259271Y763078D01*
X260685Y764492D01*
X262099Y764492D01*
X263513Y763078D01*
X263513Y760250D01*
X262099Y758836D01*
X263513Y770872D02*
X255030Y770872D01*
X255030Y768044D02*
X255030Y773700D01*
X255030Y777252D02*
X262099Y777252D01*
X263513Y778666D01*
X263513Y781494D01*
X262099Y782907D01*
X255030Y782907D01*
X255030Y786460D02*
X263513Y786460D01*
X255030Y786460D02*
X255030Y790701D01*
X256444Y792115D01*
X259271Y792115D01*
X260685Y790701D01*
X260685Y786460D01*
X260685Y789287D02*
X263513Y792115D01*
X255030Y795668D02*
X255030Y801323D01*
X255030Y795668D02*
X263513Y795668D01*
X263513Y801323D01*
X259271Y798495D02*
X259271Y795668D01*
D15*
X798975Y125775D02*
X798975Y25775D01*
X890175Y25775D02*
X890175Y125775D01*
X798975Y125775D01*
X798975Y25775D02*
X890175Y25775D01*
D17*
X814975Y135775D02*
X814977Y135838D01*
X814983Y135900D01*
X814993Y135962D01*
X815006Y136024D01*
X815024Y136084D01*
X815045Y136143D01*
X815070Y136201D01*
X815099Y136257D01*
X815131Y136311D01*
X815166Y136363D01*
X815204Y136412D01*
X815246Y136460D01*
X815290Y136504D01*
X815338Y136546D01*
X815387Y136584D01*
X815439Y136619D01*
X815493Y136651D01*
X815549Y136680D01*
X815607Y136705D01*
X815666Y136726D01*
X815726Y136744D01*
X815788Y136757D01*
X815850Y136767D01*
X815912Y136773D01*
X815975Y136775D01*
X816038Y136773D01*
X816100Y136767D01*
X816162Y136757D01*
X816224Y136744D01*
X816284Y136726D01*
X816343Y136705D01*
X816401Y136680D01*
X816457Y136651D01*
X816511Y136619D01*
X816563Y136584D01*
X816612Y136546D01*
X816660Y136504D01*
X816704Y136460D01*
X816746Y136412D01*
X816784Y136363D01*
X816819Y136311D01*
X816851Y136257D01*
X816880Y136201D01*
X816905Y136143D01*
X816926Y136084D01*
X816944Y136024D01*
X816957Y135962D01*
X816967Y135900D01*
X816973Y135838D01*
X816975Y135775D01*
X816973Y135712D01*
X816967Y135650D01*
X816957Y135588D01*
X816944Y135526D01*
X816926Y135466D01*
X816905Y135407D01*
X816880Y135349D01*
X816851Y135293D01*
X816819Y135239D01*
X816784Y135187D01*
X816746Y135138D01*
X816704Y135090D01*
X816660Y135046D01*
X816612Y135004D01*
X816563Y134966D01*
X816511Y134931D01*
X816457Y134899D01*
X816401Y134870D01*
X816343Y134845D01*
X816284Y134824D01*
X816224Y134806D01*
X816162Y134793D01*
X816100Y134783D01*
X816038Y134777D01*
X815975Y134775D01*
X815912Y134777D01*
X815850Y134783D01*
X815788Y134793D01*
X815726Y134806D01*
X815666Y134824D01*
X815607Y134845D01*
X815549Y134870D01*
X815493Y134899D01*
X815439Y134931D01*
X815387Y134966D01*
X815338Y135004D01*
X815290Y135046D01*
X815246Y135090D01*
X815204Y135138D01*
X815166Y135187D01*
X815131Y135239D01*
X815099Y135293D01*
X815070Y135349D01*
X815045Y135407D01*
X815024Y135466D01*
X815006Y135526D01*
X814993Y135588D01*
X814983Y135650D01*
X814977Y135712D01*
X814975Y135775D01*
D13*
X843712Y138670D02*
X843712Y130187D01*
X847954Y130187D01*
X849368Y131601D01*
X849368Y137256D01*
X847954Y138670D01*
X843712Y138670D01*
X852920Y138670D02*
X852920Y130187D01*
X852920Y134429D02*
X858575Y134429D01*
X858575Y138670D02*
X858575Y130187D01*
X864955Y130187D02*
X864955Y138670D01*
X862128Y138670D02*
X867783Y138670D01*
X871336Y130187D02*
X876991Y130187D01*
X871336Y130187D02*
X876991Y135843D01*
X876991Y137256D01*
X875577Y138670D01*
X872749Y138670D01*
X871336Y137256D01*
X880543Y130187D02*
X886199Y130187D01*
X880543Y130187D02*
X886199Y135843D01*
X886199Y137256D01*
X884785Y138670D01*
X881957Y138670D01*
X880543Y137256D01*
X323918Y131656D02*
X322504Y133070D01*
X319676Y133070D01*
X318262Y131656D01*
X318262Y126001D01*
X319676Y124587D01*
X322504Y124587D01*
X323918Y126001D01*
X327470Y131656D02*
X328884Y133070D01*
X331711Y133070D01*
X333125Y131656D01*
X333125Y130243D01*
X331711Y128829D01*
X330298Y128829D01*
X331711Y128829D02*
X333125Y127415D01*
X333125Y126001D01*
X331711Y124587D01*
X328884Y124587D01*
X327470Y126001D01*
X336678Y133070D02*
X342333Y133070D01*
X336678Y133070D02*
X336678Y128829D01*
X339505Y130243D01*
X340919Y130243D01*
X342333Y128829D01*
X342333Y126001D01*
X340919Y124587D01*
X338092Y124587D01*
X336678Y126001D01*
X511295Y83108D02*
X512709Y84521D01*
X511295Y83108D02*
X511295Y80280D01*
X512709Y78866D01*
X518364Y78866D01*
X519778Y80280D01*
X519778Y83108D01*
X518364Y84521D01*
X512709Y88074D02*
X511295Y89488D01*
X511295Y92315D01*
X512709Y93729D01*
X514123Y93729D01*
X515536Y92315D01*
X515536Y90902D01*
X515536Y92315D02*
X516950Y93729D01*
X518364Y93729D01*
X519778Y92315D01*
X519778Y89488D01*
X518364Y88074D01*
X511295Y97282D02*
X511295Y102937D01*
X512709Y102937D01*
X518364Y97282D01*
X519778Y97282D01*
X459660Y97153D02*
X449660Y93153D01*
X449660Y101153D01*
X459660Y97153D01*
D15*
X468160Y88903D02*
X441160Y88903D01*
X441160Y105403D01*
X468160Y105403D01*
X468160Y88903D01*
D24*
X460660Y97153D03*
D13*
X453881Y82213D02*
X453881Y73730D01*
X458123Y73730D01*
X459537Y75143D01*
X459537Y80799D01*
X458123Y82213D01*
X453881Y82213D01*
X463089Y80799D02*
X464503Y82213D01*
X467331Y82213D01*
X468745Y80799D01*
X468745Y79385D01*
X467331Y77971D01*
X465917Y77971D01*
X467331Y77971D02*
X468745Y76557D01*
X468745Y75143D01*
X467331Y73730D01*
X464503Y73730D01*
X463089Y75143D01*
D25*
X366885Y136025D02*
X366885Y181025D01*
X459885Y181025D01*
X459885Y136025D01*
X366885Y136025D01*
D13*
X427874Y158525D02*
X427877Y158795D01*
X427887Y159065D01*
X427904Y159335D01*
X427927Y159604D01*
X427957Y159873D01*
X427993Y160141D01*
X428036Y160407D01*
X428086Y160673D01*
X428142Y160938D01*
X428204Y161200D01*
X428273Y161462D01*
X428348Y161721D01*
X428430Y161979D01*
X428518Y162234D01*
X428612Y162488D01*
X428712Y162739D01*
X428819Y162987D01*
X428931Y163233D01*
X429050Y163476D01*
X429174Y163716D01*
X429304Y163952D01*
X429441Y164186D01*
X429582Y164416D01*
X429730Y164642D01*
X429883Y164865D01*
X430041Y165084D01*
X430205Y165299D01*
X430373Y165510D01*
X430547Y165717D01*
X430726Y165920D01*
X430910Y166118D01*
X431099Y166311D01*
X431292Y166500D01*
X431490Y166684D01*
X431693Y166863D01*
X431900Y167037D01*
X432111Y167205D01*
X432326Y167369D01*
X432545Y167527D01*
X432768Y167680D01*
X432994Y167828D01*
X433224Y167969D01*
X433458Y168106D01*
X433694Y168236D01*
X433934Y168360D01*
X434177Y168479D01*
X434423Y168591D01*
X434671Y168698D01*
X434922Y168798D01*
X435176Y168892D01*
X435431Y168980D01*
X435689Y169062D01*
X435948Y169137D01*
X436210Y169206D01*
X436472Y169268D01*
X436737Y169324D01*
X437003Y169374D01*
X437269Y169417D01*
X437537Y169453D01*
X437806Y169483D01*
X438075Y169506D01*
X438345Y169523D01*
X438615Y169533D01*
X438885Y169536D01*
X439155Y169533D01*
X439425Y169523D01*
X439695Y169506D01*
X439964Y169483D01*
X440233Y169453D01*
X440501Y169417D01*
X440767Y169374D01*
X441033Y169324D01*
X441298Y169268D01*
X441560Y169206D01*
X441822Y169137D01*
X442081Y169062D01*
X442339Y168980D01*
X442594Y168892D01*
X442848Y168798D01*
X443099Y168698D01*
X443347Y168591D01*
X443593Y168479D01*
X443836Y168360D01*
X444076Y168236D01*
X444312Y168106D01*
X444546Y167969D01*
X444776Y167828D01*
X445002Y167680D01*
X445225Y167527D01*
X445444Y167369D01*
X445659Y167205D01*
X445870Y167037D01*
X446077Y166863D01*
X446280Y166684D01*
X446478Y166500D01*
X446671Y166311D01*
X446860Y166118D01*
X447044Y165920D01*
X447223Y165717D01*
X447397Y165510D01*
X447565Y165299D01*
X447729Y165084D01*
X447887Y164865D01*
X448040Y164642D01*
X448188Y164416D01*
X448329Y164186D01*
X448466Y163952D01*
X448596Y163716D01*
X448720Y163476D01*
X448839Y163233D01*
X448951Y162987D01*
X449058Y162739D01*
X449158Y162488D01*
X449252Y162234D01*
X449340Y161979D01*
X449422Y161721D01*
X449497Y161462D01*
X449566Y161200D01*
X449628Y160938D01*
X449684Y160673D01*
X449734Y160407D01*
X449777Y160141D01*
X449813Y159873D01*
X449843Y159604D01*
X449866Y159335D01*
X449883Y159065D01*
X449893Y158795D01*
X449896Y158525D01*
X449893Y158255D01*
X449883Y157985D01*
X449866Y157715D01*
X449843Y157446D01*
X449813Y157177D01*
X449777Y156909D01*
X449734Y156643D01*
X449684Y156377D01*
X449628Y156112D01*
X449566Y155850D01*
X449497Y155588D01*
X449422Y155329D01*
X449340Y155071D01*
X449252Y154816D01*
X449158Y154562D01*
X449058Y154311D01*
X448951Y154063D01*
X448839Y153817D01*
X448720Y153574D01*
X448596Y153334D01*
X448466Y153098D01*
X448329Y152864D01*
X448188Y152634D01*
X448040Y152408D01*
X447887Y152185D01*
X447729Y151966D01*
X447565Y151751D01*
X447397Y151540D01*
X447223Y151333D01*
X447044Y151130D01*
X446860Y150932D01*
X446671Y150739D01*
X446478Y150550D01*
X446280Y150366D01*
X446077Y150187D01*
X445870Y150013D01*
X445659Y149845D01*
X445444Y149681D01*
X445225Y149523D01*
X445002Y149370D01*
X444776Y149222D01*
X444546Y149081D01*
X444312Y148944D01*
X444076Y148814D01*
X443836Y148690D01*
X443593Y148571D01*
X443347Y148459D01*
X443099Y148352D01*
X442848Y148252D01*
X442594Y148158D01*
X442339Y148070D01*
X442081Y147988D01*
X441822Y147913D01*
X441560Y147844D01*
X441298Y147782D01*
X441033Y147726D01*
X440767Y147676D01*
X440501Y147633D01*
X440233Y147597D01*
X439964Y147567D01*
X439695Y147544D01*
X439425Y147527D01*
X439155Y147517D01*
X438885Y147514D01*
X438615Y147517D01*
X438345Y147527D01*
X438075Y147544D01*
X437806Y147567D01*
X437537Y147597D01*
X437269Y147633D01*
X437003Y147676D01*
X436737Y147726D01*
X436472Y147782D01*
X436210Y147844D01*
X435948Y147913D01*
X435689Y147988D01*
X435431Y148070D01*
X435176Y148158D01*
X434922Y148252D01*
X434671Y148352D01*
X434423Y148459D01*
X434177Y148571D01*
X433934Y148690D01*
X433694Y148814D01*
X433458Y148944D01*
X433224Y149081D01*
X432994Y149222D01*
X432768Y149370D01*
X432545Y149523D01*
X432326Y149681D01*
X432111Y149845D01*
X431900Y150013D01*
X431693Y150187D01*
X431490Y150366D01*
X431292Y150550D01*
X431099Y150739D01*
X430910Y150932D01*
X430726Y151130D01*
X430547Y151333D01*
X430373Y151540D01*
X430205Y151751D01*
X430041Y151966D01*
X429883Y152185D01*
X429730Y152408D01*
X429582Y152634D01*
X429441Y152864D01*
X429304Y153098D01*
X429174Y153334D01*
X429050Y153574D01*
X428931Y153817D01*
X428819Y154063D01*
X428712Y154311D01*
X428612Y154562D01*
X428518Y154816D01*
X428430Y155071D01*
X428348Y155329D01*
X428273Y155588D01*
X428204Y155850D01*
X428142Y156112D01*
X428086Y156377D01*
X428036Y156643D01*
X427993Y156909D01*
X427957Y157177D01*
X427927Y157446D01*
X427904Y157715D01*
X427887Y157985D01*
X427877Y158255D01*
X427874Y158525D01*
X405977Y135220D02*
X405977Y126737D01*
X405977Y135220D02*
X410219Y135220D01*
X411633Y133806D01*
X411633Y130979D01*
X410219Y129565D01*
X405977Y129565D01*
X408805Y129565D02*
X411633Y126737D01*
X415185Y135220D02*
X420840Y135220D01*
X415185Y135220D02*
X415185Y130979D01*
X418013Y132393D01*
X419426Y132393D01*
X420840Y130979D01*
X420840Y128151D01*
X419426Y126737D01*
X416599Y126737D01*
X415185Y128151D01*
X424393Y126737D02*
X430048Y126737D01*
X424393Y126737D02*
X430048Y132393D01*
X430048Y133806D01*
X428634Y135220D01*
X425807Y135220D01*
X424393Y133806D01*
X422402Y122688D02*
X422402Y114205D01*
X422402Y122688D02*
X426644Y122688D01*
X428058Y121274D01*
X428058Y118446D01*
X426644Y117032D01*
X422402Y117032D01*
X425230Y117032D02*
X428058Y114205D01*
X431610Y122688D02*
X437265Y122688D01*
X431610Y122688D02*
X431610Y118446D01*
X434438Y119860D01*
X435851Y119860D01*
X437265Y118446D01*
X437265Y115618D01*
X435851Y114205D01*
X433024Y114205D01*
X431610Y115618D01*
X440818Y119860D02*
X443645Y122688D01*
X443645Y114205D01*
X440818Y114205D02*
X446473Y114205D01*
X342188Y142301D02*
X333705Y142301D01*
X333705Y146543D01*
X335119Y147956D01*
X337946Y147956D01*
X339360Y146543D01*
X339360Y142301D01*
X339360Y145129D02*
X342188Y147956D01*
X333705Y151509D02*
X333705Y157164D01*
X333705Y151509D02*
X337946Y151509D01*
X336533Y154337D01*
X336533Y155750D01*
X337946Y157164D01*
X340774Y157164D01*
X342188Y155750D01*
X342188Y152923D01*
X340774Y151509D01*
X335119Y160717D02*
X333705Y162130D01*
X333705Y164958D01*
X335119Y166372D01*
X336533Y166372D01*
X337946Y164958D01*
X337946Y163544D01*
X337946Y164958D02*
X339360Y166372D01*
X340774Y166372D01*
X342188Y164958D01*
X342188Y162130D01*
X340774Y160717D01*
D15*
X356453Y81713D02*
X405453Y81713D01*
X405453Y32713D02*
X356453Y32713D01*
D13*
X340826Y13365D02*
X332342Y13365D01*
X340826Y13365D02*
X340826Y19020D01*
X340826Y26814D02*
X332342Y26814D01*
X336584Y22572D01*
X336584Y28228D01*
X416878Y782955D02*
X429578Y782955D01*
X435928Y776605D01*
X435928Y763905D01*
X429578Y757555D01*
X435928Y776605D02*
X442278Y782955D01*
X454978Y782955D01*
X461328Y776605D01*
X461328Y763905D01*
X454978Y757555D01*
X442278Y757555D01*
X435928Y763905D01*
X410528Y763905D02*
X410528Y776605D01*
X416878Y782955D01*
X410528Y763905D02*
X416878Y757555D01*
X429578Y757555D01*
X461328Y776605D02*
X467678Y782955D01*
X480378Y782955D01*
X486728Y776605D01*
X486728Y763905D01*
X480378Y757555D01*
X467678Y757555D01*
X461328Y763905D01*
X377016Y778738D02*
X375603Y777324D01*
X377016Y778738D02*
X379844Y778738D01*
X381258Y777324D01*
X381258Y775911D01*
X379844Y774497D01*
X378430Y774497D01*
X379844Y774497D02*
X381258Y773083D01*
X381258Y771669D01*
X379844Y770255D01*
X377016Y770255D01*
X375603Y771669D01*
X384810Y773083D02*
X384810Y778738D01*
X384810Y773083D02*
X387638Y770255D01*
X390466Y773083D01*
X390466Y778738D01*
X394018Y777324D02*
X395432Y778738D01*
X398260Y778738D01*
X399674Y777324D01*
X399674Y775911D01*
X398260Y774497D01*
X396846Y774497D01*
X398260Y774497D02*
X399674Y773083D01*
X399674Y771669D01*
X398260Y770255D01*
X395432Y770255D01*
X394018Y771669D01*
X417195Y756285D02*
X429895Y756285D01*
X436245Y749935D01*
X436245Y737235D01*
X429895Y730885D01*
X436245Y749935D02*
X442595Y756285D01*
X455295Y756285D01*
X461645Y749935D01*
X461645Y737235D01*
X455295Y730885D01*
X442595Y730885D01*
X436245Y737235D01*
X410845Y737235D02*
X410845Y749935D01*
X417195Y756285D01*
X410845Y737235D02*
X417195Y730885D01*
X429895Y730885D01*
X461645Y749935D02*
X467995Y756285D01*
X480695Y756285D01*
X487045Y749935D01*
X487045Y737235D01*
X480695Y730885D01*
X467995Y730885D01*
X461645Y737235D01*
X384751Y747479D02*
X383337Y748893D01*
X380509Y748893D01*
X379095Y747479D01*
X379095Y741824D01*
X380509Y740410D01*
X383337Y740410D01*
X384751Y741824D01*
X384751Y744652D01*
X381923Y744652D01*
X388303Y748893D02*
X388303Y740410D01*
X393958Y740410D02*
X388303Y748893D01*
X393958Y748893D02*
X393958Y740410D01*
X397511Y740410D02*
X397511Y748893D01*
X397511Y740410D02*
X401752Y740410D01*
X403166Y741824D01*
X403166Y747479D01*
X401752Y748893D01*
X397511Y748893D01*
X492125Y22225D02*
X504825Y22225D01*
X492125Y22225D02*
X485775Y28575D01*
X485775Y41275D01*
X492125Y47625D01*
X485775Y28575D02*
X479425Y22225D01*
X466725Y22225D01*
X460375Y28575D01*
X460375Y41275D01*
X466725Y47625D01*
X479425Y47625D01*
X485775Y41275D01*
X511175Y41275D02*
X511175Y28575D01*
X504825Y22225D01*
X511175Y41275D02*
X504825Y47625D01*
X492125Y47625D01*
X460375Y28575D02*
X454025Y22225D01*
X441325Y22225D01*
X434975Y28575D01*
X434975Y41275D01*
X441325Y47625D01*
X454025Y47625D01*
X460375Y41275D01*
X446067Y17608D02*
X446067Y9125D01*
X441825Y13367D02*
X446067Y17608D01*
X447481Y13367D02*
X441825Y13367D01*
X451033Y10539D02*
X451033Y9125D01*
X451033Y10539D02*
X452447Y10539D01*
X452447Y9125D01*
X451033Y9125D01*
X455637Y17608D02*
X461292Y17608D01*
X455637Y17608D02*
X455637Y13367D01*
X458465Y14781D01*
X459878Y14781D01*
X461292Y13367D01*
X461292Y10539D01*
X459878Y9125D01*
X457051Y9125D01*
X455637Y10539D01*
X464845Y11953D02*
X464845Y17608D01*
X464845Y11953D02*
X467672Y9125D01*
X470500Y11953D01*
X470500Y17608D01*
X474052Y13367D02*
X479708Y13367D01*
X483260Y14781D02*
X486088Y17608D01*
X486088Y9125D01*
X483260Y9125D02*
X488916Y9125D01*
X492468Y9125D02*
X498124Y9125D01*
X492468Y9125D02*
X498124Y14781D01*
X498124Y16194D01*
X496710Y17608D01*
X493882Y17608D01*
X492468Y16194D01*
X501676Y17608D02*
X501676Y11953D01*
X504504Y9125D01*
X507331Y11953D01*
X507331Y17608D01*
X505143Y47308D02*
X492443Y47308D01*
X486093Y53658D01*
X486093Y66358D01*
X492443Y72708D01*
X486093Y53658D02*
X479743Y47308D01*
X467043Y47308D01*
X460693Y53658D01*
X460693Y66358D01*
X467043Y72708D01*
X479743Y72708D01*
X486093Y66358D01*
X511493Y66358D02*
X511493Y53658D01*
X505143Y47308D01*
X511493Y66358D02*
X505143Y72708D01*
X492443Y72708D01*
X460693Y53658D02*
X454343Y47308D01*
X441643Y47308D01*
X435293Y53658D01*
X435293Y66358D01*
X441643Y72708D01*
X454343Y72708D01*
X460693Y66358D01*
X521449Y62951D02*
X522863Y61537D01*
X521449Y62951D02*
X518621Y62951D01*
X517208Y61537D01*
X517208Y55881D01*
X518621Y54468D01*
X521449Y54468D01*
X522863Y55881D01*
X522863Y58709D01*
X520035Y58709D01*
X526415Y54468D02*
X526415Y62951D01*
X532071Y54468D01*
X532071Y62951D01*
X535623Y62951D02*
X535623Y54468D01*
X539865Y54468D01*
X541279Y55881D01*
X541279Y61537D01*
X539865Y62951D01*
X535623Y62951D01*
X544831Y62951D02*
X550487Y62951D01*
X544831Y62951D02*
X544831Y58709D01*
X547659Y60123D01*
X549073Y60123D01*
X550487Y58709D01*
X550487Y55881D01*
X549073Y54468D01*
X546245Y54468D01*
X544831Y55881D01*
D15*
X414900Y263750D02*
X397900Y263750D01*
X397900Y295050D02*
X414900Y295050D01*
D17*
X428450Y269900D02*
X428452Y269963D01*
X428458Y270025D01*
X428468Y270087D01*
X428481Y270149D01*
X428499Y270209D01*
X428520Y270268D01*
X428545Y270326D01*
X428574Y270382D01*
X428606Y270436D01*
X428641Y270488D01*
X428679Y270537D01*
X428721Y270585D01*
X428765Y270629D01*
X428813Y270671D01*
X428862Y270709D01*
X428914Y270744D01*
X428968Y270776D01*
X429024Y270805D01*
X429082Y270830D01*
X429141Y270851D01*
X429201Y270869D01*
X429263Y270882D01*
X429325Y270892D01*
X429387Y270898D01*
X429450Y270900D01*
X429513Y270898D01*
X429575Y270892D01*
X429637Y270882D01*
X429699Y270869D01*
X429759Y270851D01*
X429818Y270830D01*
X429876Y270805D01*
X429932Y270776D01*
X429986Y270744D01*
X430038Y270709D01*
X430087Y270671D01*
X430135Y270629D01*
X430179Y270585D01*
X430221Y270537D01*
X430259Y270488D01*
X430294Y270436D01*
X430326Y270382D01*
X430355Y270326D01*
X430380Y270268D01*
X430401Y270209D01*
X430419Y270149D01*
X430432Y270087D01*
X430442Y270025D01*
X430448Y269963D01*
X430450Y269900D01*
X430448Y269837D01*
X430442Y269775D01*
X430432Y269713D01*
X430419Y269651D01*
X430401Y269591D01*
X430380Y269532D01*
X430355Y269474D01*
X430326Y269418D01*
X430294Y269364D01*
X430259Y269312D01*
X430221Y269263D01*
X430179Y269215D01*
X430135Y269171D01*
X430087Y269129D01*
X430038Y269091D01*
X429986Y269056D01*
X429932Y269024D01*
X429876Y268995D01*
X429818Y268970D01*
X429759Y268949D01*
X429699Y268931D01*
X429637Y268918D01*
X429575Y268908D01*
X429513Y268902D01*
X429450Y268900D01*
X429387Y268902D01*
X429325Y268908D01*
X429263Y268918D01*
X429201Y268931D01*
X429141Y268949D01*
X429082Y268970D01*
X429024Y268995D01*
X428968Y269024D01*
X428914Y269056D01*
X428862Y269091D01*
X428813Y269129D01*
X428765Y269171D01*
X428721Y269215D01*
X428679Y269263D01*
X428641Y269312D01*
X428606Y269364D01*
X428574Y269418D01*
X428545Y269474D01*
X428520Y269532D01*
X428499Y269591D01*
X428481Y269651D01*
X428468Y269713D01*
X428458Y269775D01*
X428452Y269837D01*
X428450Y269900D01*
D13*
X396046Y299201D02*
X396046Y306270D01*
X396046Y299201D02*
X397460Y297787D01*
X400288Y297787D01*
X401702Y299201D01*
X401702Y306270D01*
X405254Y304856D02*
X406668Y306270D01*
X409496Y306270D01*
X410910Y304856D01*
X410910Y303443D01*
X409496Y302029D01*
X410910Y300615D01*
X410910Y299201D01*
X409496Y297787D01*
X406668Y297787D01*
X405254Y299201D01*
X405254Y300615D01*
X406668Y302029D01*
X405254Y303443D01*
X405254Y304856D01*
X406668Y302029D02*
X409496Y302029D01*
X480775Y272225D02*
X490775Y276225D01*
X480775Y272225D02*
X480775Y280225D01*
X490775Y276225D01*
D15*
X499275Y267975D02*
X472275Y267975D01*
X472275Y284475D01*
X499275Y284475D01*
X499275Y267975D01*
D24*
X491775Y276225D03*
D13*
X484996Y294077D02*
X484996Y302560D01*
X484996Y294077D02*
X489238Y294077D01*
X490652Y295491D01*
X490652Y301146D01*
X489238Y302560D01*
X484996Y302560D01*
X494204Y294077D02*
X499860Y294077D01*
X494204Y294077D02*
X499860Y299733D01*
X499860Y301146D01*
X498446Y302560D01*
X495618Y302560D01*
X494204Y301146D01*
X335719Y279468D02*
X334305Y278054D01*
X334305Y275226D01*
X335719Y273812D01*
X341374Y273812D01*
X342788Y275226D01*
X342788Y278054D01*
X341374Y279468D01*
X335719Y283020D02*
X334305Y284434D01*
X334305Y287261D01*
X335719Y288675D01*
X337133Y288675D01*
X338546Y287261D01*
X338546Y285848D01*
X338546Y287261D02*
X339960Y288675D01*
X341374Y288675D01*
X342788Y287261D01*
X342788Y284434D01*
X341374Y283020D01*
X342788Y296469D02*
X334305Y296469D01*
X338546Y292228D01*
X338546Y297883D01*
X540505Y259955D02*
X541919Y261369D01*
X540505Y259955D02*
X540505Y257127D01*
X541919Y255713D01*
X547574Y255713D01*
X548988Y257127D01*
X548988Y259955D01*
X547574Y261369D01*
X541919Y264921D02*
X540505Y266335D01*
X540505Y269163D01*
X541919Y270577D01*
X543333Y270577D01*
X544746Y269163D01*
X544746Y267749D01*
X544746Y269163D02*
X546160Y270577D01*
X547574Y270577D01*
X548988Y269163D01*
X548988Y266335D01*
X547574Y264921D01*
X541919Y276957D02*
X540505Y279785D01*
X541919Y276957D02*
X544746Y274129D01*
X547574Y274129D01*
X548988Y275543D01*
X548988Y278371D01*
X547574Y279785D01*
X546160Y279785D01*
X544746Y278371D01*
X544746Y274129D01*
X416638Y322992D02*
X416638Y331475D01*
X420880Y331475D01*
X422294Y330061D01*
X422294Y327234D01*
X420880Y325820D01*
X416638Y325820D01*
X419466Y325820D02*
X422294Y322992D01*
X425846Y331475D02*
X431502Y331475D01*
X425846Y331475D02*
X425846Y327234D01*
X428674Y328648D01*
X430088Y328648D01*
X431502Y327234D01*
X431502Y324406D01*
X430088Y322992D01*
X427260Y322992D01*
X425846Y324406D01*
X435054Y324406D02*
X435054Y330061D01*
X436468Y331475D01*
X439296Y331475D01*
X440710Y330061D01*
X440710Y324406D01*
X439296Y322992D01*
X436468Y322992D01*
X435054Y324406D01*
X440710Y330061D01*
D15*
X430900Y253400D02*
X381900Y253400D01*
X381900Y204400D02*
X430900Y204400D01*
D13*
X365662Y269662D02*
X365662Y278145D01*
X365662Y269662D02*
X371318Y269662D01*
X374870Y276731D02*
X376284Y278145D01*
X379111Y278145D01*
X380525Y276731D01*
X380525Y275318D01*
X379111Y273904D01*
X377698Y273904D01*
X379111Y273904D02*
X380525Y272490D01*
X380525Y271076D01*
X379111Y269662D01*
X376284Y269662D01*
X374870Y271076D01*
X806730Y302387D02*
X815213Y302387D01*
X806730Y302387D02*
X806730Y306629D01*
X808144Y308043D01*
X810971Y308043D01*
X812385Y306629D01*
X812385Y302387D01*
X812385Y305215D02*
X815213Y308043D01*
X809558Y311595D02*
X806730Y314423D01*
X815213Y314423D01*
X815213Y317250D02*
X815213Y311595D01*
X815213Y325044D02*
X806730Y325044D01*
X810971Y320803D01*
X810971Y326458D01*
X792988Y302387D02*
X784505Y302387D01*
X784505Y306629D01*
X785919Y308043D01*
X788746Y308043D01*
X790160Y306629D01*
X790160Y302387D01*
X790160Y305215D02*
X792988Y308043D01*
X787333Y311595D02*
X784505Y314423D01*
X792988Y314423D01*
X792988Y317250D02*
X792988Y311595D01*
X792988Y320803D02*
X792988Y326458D01*
X792988Y320803D02*
X787333Y326458D01*
X785919Y326458D01*
X784505Y325044D01*
X784505Y322217D01*
X785919Y320803D01*
D15*
X742695Y297455D02*
X726695Y297455D01*
X726695Y328655D02*
X742695Y328655D01*
D17*
X709695Y322555D02*
X709697Y322618D01*
X709703Y322680D01*
X709713Y322742D01*
X709726Y322804D01*
X709744Y322864D01*
X709765Y322923D01*
X709790Y322981D01*
X709819Y323037D01*
X709851Y323091D01*
X709886Y323143D01*
X709924Y323192D01*
X709966Y323240D01*
X710010Y323284D01*
X710058Y323326D01*
X710107Y323364D01*
X710159Y323399D01*
X710213Y323431D01*
X710269Y323460D01*
X710327Y323485D01*
X710386Y323506D01*
X710446Y323524D01*
X710508Y323537D01*
X710570Y323547D01*
X710632Y323553D01*
X710695Y323555D01*
X710758Y323553D01*
X710820Y323547D01*
X710882Y323537D01*
X710944Y323524D01*
X711004Y323506D01*
X711063Y323485D01*
X711121Y323460D01*
X711177Y323431D01*
X711231Y323399D01*
X711283Y323364D01*
X711332Y323326D01*
X711380Y323284D01*
X711424Y323240D01*
X711466Y323192D01*
X711504Y323143D01*
X711539Y323091D01*
X711571Y323037D01*
X711600Y322981D01*
X711625Y322923D01*
X711646Y322864D01*
X711664Y322804D01*
X711677Y322742D01*
X711687Y322680D01*
X711693Y322618D01*
X711695Y322555D01*
X711693Y322492D01*
X711687Y322430D01*
X711677Y322368D01*
X711664Y322306D01*
X711646Y322246D01*
X711625Y322187D01*
X711600Y322129D01*
X711571Y322073D01*
X711539Y322019D01*
X711504Y321967D01*
X711466Y321918D01*
X711424Y321870D01*
X711380Y321826D01*
X711332Y321784D01*
X711283Y321746D01*
X711231Y321711D01*
X711177Y321679D01*
X711121Y321650D01*
X711063Y321625D01*
X711004Y321604D01*
X710944Y321586D01*
X710882Y321573D01*
X710820Y321563D01*
X710758Y321557D01*
X710695Y321555D01*
X710632Y321557D01*
X710570Y321563D01*
X710508Y321573D01*
X710446Y321586D01*
X710386Y321604D01*
X710327Y321625D01*
X710269Y321650D01*
X710213Y321679D01*
X710159Y321711D01*
X710107Y321746D01*
X710058Y321784D01*
X710010Y321826D01*
X709966Y321870D01*
X709924Y321918D01*
X709886Y321967D01*
X709851Y322019D01*
X709819Y322073D01*
X709790Y322129D01*
X709765Y322187D01*
X709744Y322246D01*
X709726Y322306D01*
X709713Y322368D01*
X709703Y322430D01*
X709697Y322492D01*
X709695Y322555D01*
D13*
X730857Y333881D02*
X730857Y340950D01*
X730857Y333881D02*
X732271Y332467D01*
X735099Y332467D01*
X736513Y333881D01*
X736513Y340950D01*
X740065Y339536D02*
X741479Y340950D01*
X744306Y340950D01*
X745720Y339536D01*
X745720Y338123D01*
X744306Y336709D01*
X742893Y336709D01*
X744306Y336709D02*
X745720Y335295D01*
X745720Y333881D01*
X744306Y332467D01*
X741479Y332467D01*
X740065Y333881D01*
D17*
X754650Y226150D02*
X754652Y226213D01*
X754658Y226275D01*
X754668Y226337D01*
X754681Y226399D01*
X754699Y226459D01*
X754720Y226518D01*
X754745Y226576D01*
X754774Y226632D01*
X754806Y226686D01*
X754841Y226738D01*
X754879Y226787D01*
X754921Y226835D01*
X754965Y226879D01*
X755013Y226921D01*
X755062Y226959D01*
X755114Y226994D01*
X755168Y227026D01*
X755224Y227055D01*
X755282Y227080D01*
X755341Y227101D01*
X755401Y227119D01*
X755463Y227132D01*
X755525Y227142D01*
X755587Y227148D01*
X755650Y227150D01*
X755713Y227148D01*
X755775Y227142D01*
X755837Y227132D01*
X755899Y227119D01*
X755959Y227101D01*
X756018Y227080D01*
X756076Y227055D01*
X756132Y227026D01*
X756186Y226994D01*
X756238Y226959D01*
X756287Y226921D01*
X756335Y226879D01*
X756379Y226835D01*
X756421Y226787D01*
X756459Y226738D01*
X756494Y226686D01*
X756526Y226632D01*
X756555Y226576D01*
X756580Y226518D01*
X756601Y226459D01*
X756619Y226399D01*
X756632Y226337D01*
X756642Y226275D01*
X756648Y226213D01*
X756650Y226150D01*
X756648Y226087D01*
X756642Y226025D01*
X756632Y225963D01*
X756619Y225901D01*
X756601Y225841D01*
X756580Y225782D01*
X756555Y225724D01*
X756526Y225668D01*
X756494Y225614D01*
X756459Y225562D01*
X756421Y225513D01*
X756379Y225465D01*
X756335Y225421D01*
X756287Y225379D01*
X756238Y225341D01*
X756186Y225306D01*
X756132Y225274D01*
X756076Y225245D01*
X756018Y225220D01*
X755959Y225199D01*
X755899Y225181D01*
X755837Y225168D01*
X755775Y225158D01*
X755713Y225152D01*
X755650Y225150D01*
X755587Y225152D01*
X755525Y225158D01*
X755463Y225168D01*
X755401Y225181D01*
X755341Y225199D01*
X755282Y225220D01*
X755224Y225245D01*
X755168Y225274D01*
X755114Y225306D01*
X755062Y225341D01*
X755013Y225379D01*
X754965Y225421D01*
X754921Y225465D01*
X754879Y225513D01*
X754841Y225562D01*
X754806Y225614D01*
X754774Y225668D01*
X754745Y225724D01*
X754720Y225782D01*
X754699Y225841D01*
X754681Y225901D01*
X754668Y225963D01*
X754658Y226025D01*
X754652Y226087D01*
X754650Y226150D01*
D15*
X780100Y226400D02*
X820100Y226400D01*
X820100Y176000D02*
X780100Y176000D01*
D13*
X792912Y233521D02*
X792912Y240590D01*
X792912Y233521D02*
X794326Y232107D01*
X797154Y232107D01*
X798568Y233521D01*
X798568Y240590D01*
X806361Y240590D02*
X806361Y232107D01*
X802120Y236349D02*
X806361Y240590D01*
X807775Y236349D02*
X802120Y236349D01*
X746887Y155295D02*
X746887Y146812D01*
X746887Y155295D02*
X751129Y155295D01*
X752543Y153881D01*
X752543Y151054D01*
X751129Y149640D01*
X746887Y149640D01*
X749715Y149640D02*
X752543Y146812D01*
X756095Y152468D02*
X758923Y155295D01*
X758923Y146812D01*
X761750Y146812D02*
X756095Y146812D01*
X765303Y152468D02*
X768130Y155295D01*
X768130Y146812D01*
X765303Y146812D02*
X770958Y146812D01*
X746887Y169037D02*
X746887Y177520D01*
X751129Y177520D01*
X752543Y176106D01*
X752543Y173279D01*
X751129Y171865D01*
X746887Y171865D01*
X749715Y171865D02*
X752543Y169037D01*
X756095Y174693D02*
X758923Y177520D01*
X758923Y169037D01*
X761750Y169037D02*
X756095Y169037D01*
X765303Y176106D02*
X766717Y177520D01*
X769544Y177520D01*
X770958Y176106D01*
X770958Y174693D01*
X769544Y173279D01*
X768130Y173279D01*
X769544Y173279D02*
X770958Y171865D01*
X770958Y170451D01*
X769544Y169037D01*
X766717Y169037D01*
X765303Y170451D01*
D15*
X578125Y163575D02*
X578125Y147575D01*
X609325Y147575D02*
X609325Y163575D01*
D17*
X602225Y179575D02*
X602227Y179638D01*
X602233Y179700D01*
X602243Y179762D01*
X602256Y179824D01*
X602274Y179884D01*
X602295Y179943D01*
X602320Y180001D01*
X602349Y180057D01*
X602381Y180111D01*
X602416Y180163D01*
X602454Y180212D01*
X602496Y180260D01*
X602540Y180304D01*
X602588Y180346D01*
X602637Y180384D01*
X602689Y180419D01*
X602743Y180451D01*
X602799Y180480D01*
X602857Y180505D01*
X602916Y180526D01*
X602976Y180544D01*
X603038Y180557D01*
X603100Y180567D01*
X603162Y180573D01*
X603225Y180575D01*
X603288Y180573D01*
X603350Y180567D01*
X603412Y180557D01*
X603474Y180544D01*
X603534Y180526D01*
X603593Y180505D01*
X603651Y180480D01*
X603707Y180451D01*
X603761Y180419D01*
X603813Y180384D01*
X603862Y180346D01*
X603910Y180304D01*
X603954Y180260D01*
X603996Y180212D01*
X604034Y180163D01*
X604069Y180111D01*
X604101Y180057D01*
X604130Y180001D01*
X604155Y179943D01*
X604176Y179884D01*
X604194Y179824D01*
X604207Y179762D01*
X604217Y179700D01*
X604223Y179638D01*
X604225Y179575D01*
X604223Y179512D01*
X604217Y179450D01*
X604207Y179388D01*
X604194Y179326D01*
X604176Y179266D01*
X604155Y179207D01*
X604130Y179149D01*
X604101Y179093D01*
X604069Y179039D01*
X604034Y178987D01*
X603996Y178938D01*
X603954Y178890D01*
X603910Y178846D01*
X603862Y178804D01*
X603813Y178766D01*
X603761Y178731D01*
X603707Y178699D01*
X603651Y178670D01*
X603593Y178645D01*
X603534Y178624D01*
X603474Y178606D01*
X603412Y178593D01*
X603350Y178583D01*
X603288Y178577D01*
X603225Y178575D01*
X603162Y178577D01*
X603100Y178583D01*
X603038Y178593D01*
X602976Y178606D01*
X602916Y178624D01*
X602857Y178645D01*
X602799Y178670D01*
X602743Y178699D01*
X602689Y178731D01*
X602637Y178766D01*
X602588Y178804D01*
X602540Y178846D01*
X602496Y178890D01*
X602454Y178938D01*
X602416Y178987D01*
X602381Y179039D01*
X602349Y179093D01*
X602320Y179149D01*
X602295Y179207D01*
X602274Y179266D01*
X602256Y179326D01*
X602243Y179388D01*
X602233Y179450D01*
X602227Y179512D01*
X602225Y179575D01*
D13*
X573099Y164187D02*
X566030Y164187D01*
X573099Y164187D02*
X574513Y165601D01*
X574513Y168429D01*
X573099Y169843D01*
X566030Y169843D01*
X574513Y173395D02*
X574513Y179050D01*
X574513Y173395D02*
X568858Y179050D01*
X567444Y179050D01*
X566030Y177636D01*
X566030Y174809D01*
X567444Y173395D01*
D12*
X206675Y143450D02*
X201900Y143450D01*
X181575Y113950D02*
X176800Y113950D01*
X176800Y143450D02*
X181575Y143450D01*
X201900Y113950D02*
X206675Y113950D01*
D13*
X222738Y114033D02*
X222738Y116860D01*
X222738Y115447D02*
X214255Y115447D01*
X214255Y116860D02*
X214255Y114033D01*
X214255Y124413D02*
X215669Y125827D01*
X214255Y124413D02*
X214255Y121585D01*
X215669Y120171D01*
X221324Y120171D01*
X222738Y121585D01*
X222738Y124413D01*
X221324Y125827D01*
X217083Y129379D02*
X214255Y132207D01*
X222738Y132207D01*
X222738Y129379D02*
X222738Y135035D01*
X154337Y74445D02*
X154337Y65962D01*
X154337Y74445D02*
X158579Y74445D01*
X159993Y73031D01*
X159993Y70204D01*
X158579Y68790D01*
X154337Y68790D01*
X157165Y68790D02*
X159993Y65962D01*
X163545Y73031D02*
X164959Y74445D01*
X167786Y74445D01*
X169200Y73031D01*
X169200Y71618D01*
X167786Y70204D01*
X166373Y70204D01*
X167786Y70204D02*
X169200Y68790D01*
X169200Y67376D01*
X167786Y65962D01*
X164959Y65962D01*
X163545Y67376D01*
X172753Y73031D02*
X174167Y74445D01*
X176994Y74445D01*
X178408Y73031D01*
X178408Y71618D01*
X176994Y70204D01*
X175580Y70204D01*
X176994Y70204D02*
X178408Y68790D01*
X178408Y67376D01*
X176994Y65962D01*
X174167Y65962D01*
X172753Y67376D01*
X221005Y83855D02*
X222419Y85269D01*
X221005Y83855D02*
X221005Y81027D01*
X222419Y79613D01*
X228074Y79613D01*
X229488Y81027D01*
X229488Y83855D01*
X228074Y85269D01*
X229488Y88821D02*
X229488Y94477D01*
X223833Y94477D02*
X229488Y88821D01*
X223833Y94477D02*
X222419Y94477D01*
X221005Y93063D01*
X221005Y90235D01*
X222419Y88821D01*
X229488Y98029D02*
X229488Y103685D01*
X223833Y103685D02*
X229488Y98029D01*
X223833Y103685D02*
X222419Y103685D01*
X221005Y102271D01*
X221005Y99443D01*
X222419Y98029D01*
X124994Y107494D02*
X123580Y106080D01*
X123580Y103252D01*
X124994Y101838D01*
X130649Y101838D01*
X132063Y103252D01*
X132063Y106080D01*
X130649Y107494D01*
X132063Y111046D02*
X132063Y116702D01*
X126408Y116702D02*
X132063Y111046D01*
X126408Y116702D02*
X124994Y116702D01*
X123580Y115288D01*
X123580Y112460D01*
X124994Y111046D01*
X126408Y120254D02*
X123580Y123082D01*
X132063Y123082D01*
X132063Y120254D02*
X132063Y125910D01*
X147219Y107494D02*
X145805Y106080D01*
X145805Y103252D01*
X147219Y101838D01*
X152874Y101838D01*
X154288Y103252D01*
X154288Y106080D01*
X152874Y107494D01*
X154288Y111046D02*
X154288Y116702D01*
X148633Y116702D02*
X154288Y111046D01*
X148633Y116702D02*
X147219Y116702D01*
X145805Y115288D01*
X145805Y112460D01*
X147219Y111046D01*
X147219Y120254D02*
X152874Y120254D01*
X147219Y120254D02*
X145805Y121668D01*
X145805Y124496D01*
X147219Y125910D01*
X152874Y125910D01*
X154288Y124496D01*
X154288Y121668D01*
X152874Y120254D01*
X147219Y125910D01*
X254280Y187679D02*
X255694Y189093D01*
X254280Y187679D02*
X254280Y184851D01*
X255694Y183437D01*
X261349Y183437D01*
X262763Y184851D01*
X262763Y187679D01*
X261349Y189093D01*
X262763Y192645D02*
X262763Y198300D01*
X262763Y192645D02*
X257108Y198300D01*
X255694Y198300D01*
X254280Y196886D01*
X254280Y194059D01*
X255694Y192645D01*
X255694Y204680D02*
X254280Y207508D01*
X255694Y204680D02*
X258521Y201853D01*
X261349Y201853D01*
X262763Y203267D01*
X262763Y206094D01*
X261349Y207508D01*
X259935Y207508D01*
X258521Y206094D01*
X258521Y201853D01*
X277680Y187679D02*
X279094Y189093D01*
X277680Y187679D02*
X277680Y184851D01*
X279094Y183437D01*
X284749Y183437D01*
X286163Y184851D01*
X286163Y187679D01*
X284749Y189093D01*
X286163Y192645D02*
X286163Y198300D01*
X286163Y192645D02*
X280508Y198300D01*
X279094Y198300D01*
X277680Y196886D01*
X277680Y194059D01*
X279094Y192645D01*
X279094Y201853D02*
X277680Y203267D01*
X277680Y206094D01*
X279094Y207508D01*
X280508Y207508D01*
X281921Y206094D01*
X283335Y207508D01*
X284749Y207508D01*
X286163Y206094D01*
X286163Y203267D01*
X284749Y201853D01*
X283335Y201853D01*
X281921Y203267D01*
X280508Y201853D01*
X279094Y201853D01*
X281921Y203267D02*
X281921Y206094D01*
X235469Y189093D02*
X234055Y187679D01*
X234055Y184851D01*
X235469Y183437D01*
X241124Y183437D01*
X242538Y184851D01*
X242538Y187679D01*
X241124Y189093D01*
X235469Y192645D02*
X234055Y194059D01*
X234055Y196886D01*
X235469Y198300D01*
X236883Y198300D01*
X238296Y196886D01*
X238296Y195473D01*
X238296Y196886D02*
X239710Y198300D01*
X241124Y198300D01*
X242538Y196886D01*
X242538Y194059D01*
X241124Y192645D01*
X241124Y201853D02*
X235469Y201853D01*
X234055Y203267D01*
X234055Y206094D01*
X235469Y207508D01*
X241124Y207508D01*
X242538Y206094D01*
X242538Y203267D01*
X241124Y201853D01*
X235469Y207508D01*
X272879Y103020D02*
X274293Y101606D01*
X272879Y103020D02*
X270051Y103020D01*
X268637Y101606D01*
X268637Y95951D01*
X270051Y94537D01*
X272879Y94537D01*
X274293Y95951D01*
X277845Y94537D02*
X283500Y94537D01*
X277845Y94537D02*
X283500Y100193D01*
X283500Y101606D01*
X282086Y103020D01*
X279259Y103020D01*
X277845Y101606D01*
X287053Y103020D02*
X292708Y103020D01*
X287053Y103020D02*
X287053Y98779D01*
X289880Y100193D01*
X291294Y100193D01*
X292708Y98779D01*
X292708Y95951D01*
X291294Y94537D01*
X288467Y94537D01*
X287053Y95951D01*
X680780Y311438D02*
X682194Y312852D01*
X680780Y311438D02*
X680780Y308610D01*
X682194Y307196D01*
X687849Y307196D01*
X689263Y308610D01*
X689263Y311438D01*
X687849Y312852D01*
X689263Y320646D02*
X680780Y320646D01*
X685021Y316404D01*
X685021Y322060D01*
D15*
X482325Y493650D02*
X482325Y509650D01*
X451125Y509650D02*
X451125Y493650D01*
D17*
X456225Y477650D02*
X456227Y477713D01*
X456233Y477775D01*
X456243Y477837D01*
X456256Y477899D01*
X456274Y477959D01*
X456295Y478018D01*
X456320Y478076D01*
X456349Y478132D01*
X456381Y478186D01*
X456416Y478238D01*
X456454Y478287D01*
X456496Y478335D01*
X456540Y478379D01*
X456588Y478421D01*
X456637Y478459D01*
X456689Y478494D01*
X456743Y478526D01*
X456799Y478555D01*
X456857Y478580D01*
X456916Y478601D01*
X456976Y478619D01*
X457038Y478632D01*
X457100Y478642D01*
X457162Y478648D01*
X457225Y478650D01*
X457288Y478648D01*
X457350Y478642D01*
X457412Y478632D01*
X457474Y478619D01*
X457534Y478601D01*
X457593Y478580D01*
X457651Y478555D01*
X457707Y478526D01*
X457761Y478494D01*
X457813Y478459D01*
X457862Y478421D01*
X457910Y478379D01*
X457954Y478335D01*
X457996Y478287D01*
X458034Y478238D01*
X458069Y478186D01*
X458101Y478132D01*
X458130Y478076D01*
X458155Y478018D01*
X458176Y477959D01*
X458194Y477899D01*
X458207Y477837D01*
X458217Y477775D01*
X458223Y477713D01*
X458225Y477650D01*
X458223Y477587D01*
X458217Y477525D01*
X458207Y477463D01*
X458194Y477401D01*
X458176Y477341D01*
X458155Y477282D01*
X458130Y477224D01*
X458101Y477168D01*
X458069Y477114D01*
X458034Y477062D01*
X457996Y477013D01*
X457954Y476965D01*
X457910Y476921D01*
X457862Y476879D01*
X457813Y476841D01*
X457761Y476806D01*
X457707Y476774D01*
X457651Y476745D01*
X457593Y476720D01*
X457534Y476699D01*
X457474Y476681D01*
X457412Y476668D01*
X457350Y476658D01*
X457288Y476652D01*
X457225Y476650D01*
X457162Y476652D01*
X457100Y476658D01*
X457038Y476668D01*
X456976Y476681D01*
X456916Y476699D01*
X456857Y476720D01*
X456799Y476745D01*
X456743Y476774D01*
X456689Y476806D01*
X456637Y476841D01*
X456588Y476879D01*
X456540Y476921D01*
X456496Y476965D01*
X456454Y477013D01*
X456416Y477062D01*
X456381Y477114D01*
X456349Y477168D01*
X456320Y477224D01*
X456295Y477282D01*
X456274Y477341D01*
X456256Y477401D01*
X456243Y477463D01*
X456233Y477525D01*
X456227Y477587D01*
X456225Y477650D01*
D13*
X439549Y472412D02*
X432480Y472412D01*
X439549Y472412D02*
X440963Y473826D01*
X440963Y476654D01*
X439549Y478068D01*
X432480Y478068D01*
X435308Y481620D02*
X432480Y484448D01*
X440963Y484448D01*
X440963Y487275D02*
X440963Y481620D01*
X459029Y485495D02*
X460443Y484081D01*
X459029Y485495D02*
X456201Y485495D01*
X454787Y484081D01*
X454787Y478426D01*
X456201Y477012D01*
X459029Y477012D01*
X460443Y478426D01*
X463995Y482668D02*
X466823Y485495D01*
X466823Y477012D01*
X469650Y477012D02*
X463995Y477012D01*
D15*
X314050Y588900D02*
X314050Y604900D01*
X282850Y604900D02*
X282850Y588900D01*
D17*
X287950Y572900D02*
X287952Y572963D01*
X287958Y573025D01*
X287968Y573087D01*
X287981Y573149D01*
X287999Y573209D01*
X288020Y573268D01*
X288045Y573326D01*
X288074Y573382D01*
X288106Y573436D01*
X288141Y573488D01*
X288179Y573537D01*
X288221Y573585D01*
X288265Y573629D01*
X288313Y573671D01*
X288362Y573709D01*
X288414Y573744D01*
X288468Y573776D01*
X288524Y573805D01*
X288582Y573830D01*
X288641Y573851D01*
X288701Y573869D01*
X288763Y573882D01*
X288825Y573892D01*
X288887Y573898D01*
X288950Y573900D01*
X289013Y573898D01*
X289075Y573892D01*
X289137Y573882D01*
X289199Y573869D01*
X289259Y573851D01*
X289318Y573830D01*
X289376Y573805D01*
X289432Y573776D01*
X289486Y573744D01*
X289538Y573709D01*
X289587Y573671D01*
X289635Y573629D01*
X289679Y573585D01*
X289721Y573537D01*
X289759Y573488D01*
X289794Y573436D01*
X289826Y573382D01*
X289855Y573326D01*
X289880Y573268D01*
X289901Y573209D01*
X289919Y573149D01*
X289932Y573087D01*
X289942Y573025D01*
X289948Y572963D01*
X289950Y572900D01*
X289948Y572837D01*
X289942Y572775D01*
X289932Y572713D01*
X289919Y572651D01*
X289901Y572591D01*
X289880Y572532D01*
X289855Y572474D01*
X289826Y572418D01*
X289794Y572364D01*
X289759Y572312D01*
X289721Y572263D01*
X289679Y572215D01*
X289635Y572171D01*
X289587Y572129D01*
X289538Y572091D01*
X289486Y572056D01*
X289432Y572024D01*
X289376Y571995D01*
X289318Y571970D01*
X289259Y571949D01*
X289199Y571931D01*
X289137Y571918D01*
X289075Y571908D01*
X289013Y571902D01*
X288950Y571900D01*
X288887Y571902D01*
X288825Y571908D01*
X288763Y571918D01*
X288701Y571931D01*
X288641Y571949D01*
X288582Y571970D01*
X288524Y571995D01*
X288468Y572024D01*
X288414Y572056D01*
X288362Y572091D01*
X288313Y572129D01*
X288265Y572171D01*
X288221Y572215D01*
X288179Y572263D01*
X288141Y572312D01*
X288106Y572364D01*
X288074Y572418D01*
X288045Y572474D01*
X288020Y572532D01*
X287999Y572591D01*
X287981Y572651D01*
X287968Y572713D01*
X287958Y572775D01*
X287952Y572837D01*
X287950Y572900D01*
D13*
X277624Y580362D02*
X270555Y580362D01*
X277624Y580362D02*
X279038Y581776D01*
X279038Y584604D01*
X277624Y586018D01*
X270555Y586018D01*
X270555Y589570D02*
X270555Y595225D01*
X270555Y589570D02*
X274796Y589570D01*
X273383Y592398D01*
X273383Y593811D01*
X274796Y595225D01*
X277624Y595225D01*
X279038Y593811D01*
X279038Y590984D01*
X277624Y589570D01*
X325679Y564870D02*
X327093Y563456D01*
X325679Y564870D02*
X322851Y564870D01*
X321437Y563456D01*
X321437Y557801D01*
X322851Y556387D01*
X325679Y556387D01*
X327093Y557801D01*
X330645Y562043D02*
X333473Y564870D01*
X333473Y556387D01*
X336300Y556387D02*
X330645Y556387D01*
X339853Y564870D02*
X345508Y564870D01*
X339853Y564870D02*
X339853Y560629D01*
X342680Y562043D01*
X344094Y562043D01*
X345508Y560629D01*
X345508Y557801D01*
X344094Y556387D01*
X341267Y556387D01*
X339853Y557801D01*
X586663Y217395D02*
X588077Y215981D01*
X586663Y217395D02*
X583835Y217395D01*
X582421Y215981D01*
X582421Y210326D01*
X583835Y208912D01*
X586663Y208912D01*
X588077Y210326D01*
X591629Y208912D02*
X597285Y208912D01*
X591629Y208912D02*
X597285Y214568D01*
X597285Y215981D01*
X595871Y217395D01*
X593043Y217395D01*
X591629Y215981D01*
D15*
X15600Y284825D02*
X15600Y343825D01*
X15600Y284825D02*
X60600Y284825D01*
X60600Y343825D02*
X15600Y343825D01*
X60600Y343825D02*
X60600Y284825D01*
D17*
X66600Y324325D02*
X66602Y324388D01*
X66608Y324450D01*
X66618Y324512D01*
X66631Y324574D01*
X66649Y324634D01*
X66670Y324693D01*
X66695Y324751D01*
X66724Y324807D01*
X66756Y324861D01*
X66791Y324913D01*
X66829Y324962D01*
X66871Y325010D01*
X66915Y325054D01*
X66963Y325096D01*
X67012Y325134D01*
X67064Y325169D01*
X67118Y325201D01*
X67174Y325230D01*
X67232Y325255D01*
X67291Y325276D01*
X67351Y325294D01*
X67413Y325307D01*
X67475Y325317D01*
X67537Y325323D01*
X67600Y325325D01*
X67663Y325323D01*
X67725Y325317D01*
X67787Y325307D01*
X67849Y325294D01*
X67909Y325276D01*
X67968Y325255D01*
X68026Y325230D01*
X68082Y325201D01*
X68136Y325169D01*
X68188Y325134D01*
X68237Y325096D01*
X68285Y325054D01*
X68329Y325010D01*
X68371Y324962D01*
X68409Y324913D01*
X68444Y324861D01*
X68476Y324807D01*
X68505Y324751D01*
X68530Y324693D01*
X68551Y324634D01*
X68569Y324574D01*
X68582Y324512D01*
X68592Y324450D01*
X68598Y324388D01*
X68600Y324325D01*
X68598Y324262D01*
X68592Y324200D01*
X68582Y324138D01*
X68569Y324076D01*
X68551Y324016D01*
X68530Y323957D01*
X68505Y323899D01*
X68476Y323843D01*
X68444Y323789D01*
X68409Y323737D01*
X68371Y323688D01*
X68329Y323640D01*
X68285Y323596D01*
X68237Y323554D01*
X68188Y323516D01*
X68136Y323481D01*
X68082Y323449D01*
X68026Y323420D01*
X67968Y323395D01*
X67909Y323374D01*
X67849Y323356D01*
X67787Y323343D01*
X67725Y323333D01*
X67663Y323327D01*
X67600Y323325D01*
X67537Y323327D01*
X67475Y323333D01*
X67413Y323343D01*
X67351Y323356D01*
X67291Y323374D01*
X67232Y323395D01*
X67174Y323420D01*
X67118Y323449D01*
X67064Y323481D01*
X67012Y323516D01*
X66963Y323554D01*
X66915Y323596D01*
X66871Y323640D01*
X66829Y323688D01*
X66791Y323737D01*
X66756Y323789D01*
X66724Y323843D01*
X66695Y323899D01*
X66670Y323957D01*
X66649Y324016D01*
X66631Y324076D01*
X66618Y324138D01*
X66608Y324200D01*
X66602Y324262D01*
X66600Y324325D01*
D13*
X21331Y280895D02*
X21331Y272412D01*
X21331Y280895D02*
X25572Y280895D01*
X26986Y279481D01*
X26986Y278068D01*
X25572Y276654D01*
X26986Y275240D01*
X26986Y273826D01*
X25572Y272412D01*
X21331Y272412D01*
X21331Y276654D02*
X25572Y276654D01*
X30538Y278068D02*
X30538Y272412D01*
X30538Y278068D02*
X33366Y280895D01*
X36194Y278068D01*
X36194Y272412D01*
X36194Y276654D02*
X30538Y276654D01*
X42574Y272412D02*
X42574Y280895D01*
X39746Y280895D02*
X45402Y280895D01*
X51782Y280895D02*
X51782Y272412D01*
X48954Y280895D02*
X54610Y280895D01*
D15*
X281650Y806725D02*
X340650Y806725D01*
X281650Y806725D02*
X281650Y761725D01*
X340650Y761725D02*
X340650Y806725D01*
X340650Y761725D02*
X281650Y761725D01*
D17*
X320150Y754725D02*
X320152Y754788D01*
X320158Y754850D01*
X320168Y754912D01*
X320181Y754974D01*
X320199Y755034D01*
X320220Y755093D01*
X320245Y755151D01*
X320274Y755207D01*
X320306Y755261D01*
X320341Y755313D01*
X320379Y755362D01*
X320421Y755410D01*
X320465Y755454D01*
X320513Y755496D01*
X320562Y755534D01*
X320614Y755569D01*
X320668Y755601D01*
X320724Y755630D01*
X320782Y755655D01*
X320841Y755676D01*
X320901Y755694D01*
X320963Y755707D01*
X321025Y755717D01*
X321087Y755723D01*
X321150Y755725D01*
X321213Y755723D01*
X321275Y755717D01*
X321337Y755707D01*
X321399Y755694D01*
X321459Y755676D01*
X321518Y755655D01*
X321576Y755630D01*
X321632Y755601D01*
X321686Y755569D01*
X321738Y755534D01*
X321787Y755496D01*
X321835Y755454D01*
X321879Y755410D01*
X321921Y755362D01*
X321959Y755313D01*
X321994Y755261D01*
X322026Y755207D01*
X322055Y755151D01*
X322080Y755093D01*
X322101Y755034D01*
X322119Y754974D01*
X322132Y754912D01*
X322142Y754850D01*
X322148Y754788D01*
X322150Y754725D01*
X322148Y754662D01*
X322142Y754600D01*
X322132Y754538D01*
X322119Y754476D01*
X322101Y754416D01*
X322080Y754357D01*
X322055Y754299D01*
X322026Y754243D01*
X321994Y754189D01*
X321959Y754137D01*
X321921Y754088D01*
X321879Y754040D01*
X321835Y753996D01*
X321787Y753954D01*
X321738Y753916D01*
X321686Y753881D01*
X321632Y753849D01*
X321576Y753820D01*
X321518Y753795D01*
X321459Y753774D01*
X321399Y753756D01*
X321337Y753743D01*
X321275Y753733D01*
X321213Y753727D01*
X321150Y753725D01*
X321087Y753727D01*
X321025Y753733D01*
X320963Y753743D01*
X320901Y753756D01*
X320841Y753774D01*
X320782Y753795D01*
X320724Y753820D01*
X320668Y753849D01*
X320614Y753881D01*
X320562Y753916D01*
X320513Y753954D01*
X320465Y753996D01*
X320421Y754040D01*
X320379Y754088D01*
X320341Y754137D01*
X320306Y754189D01*
X320274Y754243D01*
X320245Y754299D01*
X320220Y754357D01*
X320199Y754416D01*
X320181Y754476D01*
X320168Y754538D01*
X320158Y754600D01*
X320152Y754662D01*
X320150Y754725D01*
D13*
X294003Y755731D02*
X292589Y757145D01*
X289762Y757145D01*
X288348Y755731D01*
X288348Y754318D01*
X289762Y752904D01*
X292589Y752904D01*
X294003Y751490D01*
X294003Y750076D01*
X292589Y748662D01*
X289762Y748662D01*
X288348Y750076D01*
X298969Y757145D02*
X301797Y757145D01*
X298969Y757145D02*
X297556Y755731D01*
X297556Y750076D01*
X298969Y748662D01*
X301797Y748662D01*
X303211Y750076D01*
X303211Y755731D01*
X301797Y757145D01*
X306763Y757145D02*
X306763Y748662D01*
X312419Y748662D01*
X315971Y748662D02*
X315971Y754318D01*
X318799Y757145D01*
X321627Y754318D01*
X321627Y748662D01*
X321627Y752904D02*
X315971Y752904D01*
X325179Y757145D02*
X325179Y748662D01*
X325179Y757145D02*
X329421Y757145D01*
X330835Y755731D01*
X330835Y752904D01*
X329421Y751490D01*
X325179Y751490D01*
X328007Y751490D02*
X330835Y748662D01*
X772869Y241494D02*
X771455Y240080D01*
X771455Y237252D01*
X772869Y235838D01*
X778524Y235838D01*
X779938Y237252D01*
X779938Y240080D01*
X778524Y241494D01*
X772869Y245046D02*
X771455Y246460D01*
X771455Y249288D01*
X772869Y250702D01*
X774283Y250702D01*
X775696Y249288D01*
X775696Y247874D01*
X775696Y249288D02*
X777110Y250702D01*
X778524Y250702D01*
X779938Y249288D01*
X779938Y246460D01*
X778524Y245046D01*
X772869Y254254D02*
X771455Y255668D01*
X771455Y258496D01*
X772869Y259910D01*
X774283Y259910D01*
X775696Y258496D01*
X777110Y259910D01*
X778524Y259910D01*
X779938Y258496D01*
X779938Y255668D01*
X778524Y254254D01*
X777110Y254254D01*
X775696Y255668D01*
X774283Y254254D01*
X772869Y254254D01*
X775696Y255668D02*
X775696Y258496D01*
X468618Y302412D02*
X460135Y302412D01*
X460135Y306654D01*
X461549Y308068D01*
X464376Y308068D01*
X465790Y306654D01*
X465790Y302412D01*
X465790Y305240D02*
X468618Y308068D01*
X468618Y315861D02*
X460135Y315861D01*
X464376Y311620D01*
X464376Y317275D01*
X467204Y320828D02*
X468618Y322242D01*
X468618Y325069D01*
X467204Y326483D01*
X461549Y326483D01*
X460135Y325069D01*
X460135Y322242D01*
X461549Y320828D01*
X462963Y320828D01*
X464376Y322242D01*
X464376Y326483D01*
D15*
X396500Y97350D02*
X379500Y97350D01*
X379500Y128650D02*
X396500Y128650D01*
D17*
X410050Y103500D02*
X410052Y103563D01*
X410058Y103625D01*
X410068Y103687D01*
X410081Y103749D01*
X410099Y103809D01*
X410120Y103868D01*
X410145Y103926D01*
X410174Y103982D01*
X410206Y104036D01*
X410241Y104088D01*
X410279Y104137D01*
X410321Y104185D01*
X410365Y104229D01*
X410413Y104271D01*
X410462Y104309D01*
X410514Y104344D01*
X410568Y104376D01*
X410624Y104405D01*
X410682Y104430D01*
X410741Y104451D01*
X410801Y104469D01*
X410863Y104482D01*
X410925Y104492D01*
X410987Y104498D01*
X411050Y104500D01*
X411113Y104498D01*
X411175Y104492D01*
X411237Y104482D01*
X411299Y104469D01*
X411359Y104451D01*
X411418Y104430D01*
X411476Y104405D01*
X411532Y104376D01*
X411586Y104344D01*
X411638Y104309D01*
X411687Y104271D01*
X411735Y104229D01*
X411779Y104185D01*
X411821Y104137D01*
X411859Y104088D01*
X411894Y104036D01*
X411926Y103982D01*
X411955Y103926D01*
X411980Y103868D01*
X412001Y103809D01*
X412019Y103749D01*
X412032Y103687D01*
X412042Y103625D01*
X412048Y103563D01*
X412050Y103500D01*
X412048Y103437D01*
X412042Y103375D01*
X412032Y103313D01*
X412019Y103251D01*
X412001Y103191D01*
X411980Y103132D01*
X411955Y103074D01*
X411926Y103018D01*
X411894Y102964D01*
X411859Y102912D01*
X411821Y102863D01*
X411779Y102815D01*
X411735Y102771D01*
X411687Y102729D01*
X411638Y102691D01*
X411586Y102656D01*
X411532Y102624D01*
X411476Y102595D01*
X411418Y102570D01*
X411359Y102549D01*
X411299Y102531D01*
X411237Y102518D01*
X411175Y102508D01*
X411113Y102502D01*
X411050Y102500D01*
X410987Y102502D01*
X410925Y102508D01*
X410863Y102518D01*
X410801Y102531D01*
X410741Y102549D01*
X410682Y102570D01*
X410624Y102595D01*
X410568Y102624D01*
X410514Y102656D01*
X410462Y102691D01*
X410413Y102729D01*
X410365Y102771D01*
X410321Y102815D01*
X410279Y102863D01*
X410241Y102912D01*
X410206Y102964D01*
X410174Y103018D01*
X410145Y103074D01*
X410120Y103132D01*
X410099Y103191D01*
X410081Y103251D01*
X410068Y103313D01*
X410058Y103375D01*
X410052Y103437D01*
X410050Y103500D01*
D13*
X362824Y106346D02*
X355755Y106346D01*
X362824Y106346D02*
X364238Y107760D01*
X364238Y110588D01*
X362824Y112002D01*
X355755Y112002D01*
X362824Y115554D02*
X364238Y116968D01*
X364238Y119796D01*
X362824Y121210D01*
X357169Y121210D01*
X355755Y119796D01*
X355755Y116968D01*
X357169Y115554D01*
X358583Y115554D01*
X359996Y116968D01*
X359996Y121210D01*
X253488Y221412D02*
X253488Y229895D01*
X257730Y229895D01*
X259144Y228481D01*
X259144Y225654D01*
X257730Y224240D01*
X253488Y224240D01*
X256316Y224240D02*
X259144Y221412D01*
X262696Y229895D02*
X268352Y229895D01*
X262696Y229895D02*
X262696Y225654D01*
X265524Y227068D01*
X266938Y227068D01*
X268352Y225654D01*
X268352Y222826D01*
X266938Y221412D01*
X264110Y221412D01*
X262696Y222826D01*
X276146Y221412D02*
X276146Y229895D01*
X271904Y225654D01*
X277560Y225654D01*
D15*
X217500Y210500D02*
X168500Y210500D01*
X168500Y161500D02*
X217500Y161500D01*
D13*
X163762Y221762D02*
X163762Y230245D01*
X163762Y221762D02*
X169418Y221762D01*
X172970Y227418D02*
X175798Y230245D01*
X175798Y221762D01*
X178625Y221762D02*
X172970Y221762D01*
D17*
X514250Y189000D02*
X517750Y189000D01*
X514250Y189000D02*
X514250Y209000D01*
X517750Y209000D01*
X517750Y189000D01*
X521250Y187000D02*
X531750Y187000D01*
D13*
X538169Y188554D02*
X543824Y188554D01*
X538169Y188554D02*
X536755Y189968D01*
X536755Y192796D01*
X538169Y194210D01*
X543824Y194210D01*
X545238Y192796D01*
X545238Y189968D01*
X543824Y188554D01*
X542410Y191382D02*
X545238Y194210D01*
X538169Y197762D02*
X536755Y199176D01*
X536755Y202004D01*
X538169Y203417D01*
X539583Y203417D01*
X540996Y202004D01*
X540996Y200590D01*
X540996Y202004D02*
X542410Y203417D01*
X543824Y203417D01*
X545238Y202004D01*
X545238Y199176D01*
X543824Y197762D01*
M02*
