M48
;GenerationSoftware,Autodesk,EAGLE,9.6.2*%
;CreationDate,2025-07-03T11:20:45Z*%
FMAT,2
ICI,OFF
METRIC,TZ,000.000
T3C0.350
T2C1.016
T1C1.400
%
G90
M71
T1
X3500Y19100
X11900Y19000
X7800Y19000
T2
X5715Y2540
X3175Y2540
X10795Y2540
X8255Y2540
T3
X4445Y8255
X7800Y14400
X9000Y14400
X10200Y14400
X12700Y2540
X1905Y12065
X11300Y14400
X6600Y12800
X5600Y12800
X4500Y10800
X1805Y11065
X1705Y9965
X5715Y7855
X8700Y7900
M30