G04 EAGLE Gerber RS-274X export*
G75*
%MOMM*%
%FSLAX34Y34*%
%LPD*%
%IN*%
%IPPOS*%
%AMOC8*
5,1,8,0,0,1.08239X$1,22.5*%
G01*
%ADD10C,0.000000*%
%ADD11C,0.130000*%
%ADD12C,0.203200*%
%ADD13C,0.152400*%
%ADD14C,0.254000*%


D10*
X0Y-12000D02*
X908000Y-12000D01*
X908000Y813000D01*
X0Y814000D01*
X0Y-12000D01*
D11*
X0Y-17000D02*
X0Y-89331D01*
X908000Y-89331D02*
X908000Y-17000D01*
X907350Y-69831D02*
X650Y-69831D01*
X26000Y-66638D01*
X26000Y-73023D01*
X650Y-69831D01*
X26000Y-68531D01*
X26000Y-71131D02*
X650Y-69831D01*
X26000Y-67231D01*
X26000Y-72431D02*
X650Y-69831D01*
X882000Y-66638D02*
X907350Y-69831D01*
X882000Y-66638D02*
X882000Y-73023D01*
X907350Y-69831D01*
X882000Y-68531D01*
X882000Y-71131D02*
X907350Y-69831D01*
X882000Y-67231D01*
X882000Y-72431D02*
X907350Y-69831D01*
D12*
X434035Y-64340D02*
X432255Y-62560D01*
X434035Y-64340D02*
X437594Y-64340D01*
X439373Y-62560D01*
X439373Y-55442D01*
X437594Y-53662D01*
X434035Y-53662D01*
X432255Y-55442D01*
X432255Y-57221D01*
X434035Y-59001D01*
X439373Y-59001D01*
X443949Y-62560D02*
X443949Y-55442D01*
X445729Y-53662D01*
X449288Y-53662D01*
X451067Y-55442D01*
X451067Y-62560D01*
X449288Y-64340D01*
X445729Y-64340D01*
X443949Y-62560D01*
X451067Y-55442D01*
X455643Y-62560D02*
X455643Y-64340D01*
X455643Y-62560D02*
X457422Y-62560D01*
X457422Y-64340D01*
X455643Y-64340D01*
X461490Y-55442D02*
X463269Y-53662D01*
X466829Y-53662D01*
X468608Y-55442D01*
X468608Y-57221D01*
X466829Y-59001D01*
X468608Y-60781D01*
X468608Y-62560D01*
X466829Y-64340D01*
X463269Y-64340D01*
X461490Y-62560D01*
X461490Y-60781D01*
X463269Y-59001D01*
X461490Y-57221D01*
X461490Y-55442D01*
X463269Y-59001D02*
X466829Y-59001D01*
X473184Y-62560D02*
X473184Y-55442D01*
X474963Y-53662D01*
X478522Y-53662D01*
X480302Y-55442D01*
X480302Y-62560D01*
X478522Y-64340D01*
X474963Y-64340D01*
X473184Y-62560D01*
X480302Y-55442D01*
D11*
X-5000Y-12000D02*
X-108500Y-12000D01*
X-108500Y814000D02*
X-5000Y814000D01*
X-89000Y813350D02*
X-89000Y-11350D01*
X-92192Y14000D01*
X-85808Y14000D01*
X-89000Y-11350D01*
X-90300Y14000D01*
X-87700Y14000D02*
X-89000Y-11350D01*
X-91600Y14000D01*
X-86400Y14000D02*
X-89000Y-11350D01*
X-92192Y788000D02*
X-89000Y813350D01*
X-92192Y788000D02*
X-85808Y788000D01*
X-89000Y813350D01*
X-90300Y788000D01*
X-87700Y788000D02*
X-89000Y813350D01*
X-91600Y788000D01*
X-86400Y788000D02*
X-89000Y813350D01*
D13*
X-111777Y372653D02*
X-109065Y369941D01*
X-111777Y372653D02*
X-111777Y378076D01*
X-109065Y380788D01*
X-106354Y380788D01*
X-103642Y378076D01*
X-100930Y380788D01*
X-98219Y380788D01*
X-95507Y378076D01*
X-95507Y372653D01*
X-98219Y369941D01*
X-100930Y369941D01*
X-103642Y372653D01*
X-106354Y369941D01*
X-109065Y369941D01*
X-103642Y372653D02*
X-103642Y378076D01*
X-95507Y386313D02*
X-95507Y397159D01*
X-95507Y386313D02*
X-106354Y397159D01*
X-109065Y397159D01*
X-111777Y394448D01*
X-111777Y389024D01*
X-109065Y386313D01*
X-98219Y402684D02*
X-95507Y402684D01*
X-98219Y402684D02*
X-98219Y405396D01*
X-95507Y405396D01*
X-95507Y402684D01*
X-109065Y416293D02*
X-111777Y421717D01*
X-109065Y416293D02*
X-103642Y410870D01*
X-98219Y410870D01*
X-95507Y413582D01*
X-95507Y419005D01*
X-98219Y421717D01*
X-100930Y421717D01*
X-103642Y419005D01*
X-103642Y410870D01*
X-98219Y427242D02*
X-109065Y427242D01*
X-111777Y429953D01*
X-111777Y435377D01*
X-109065Y438088D01*
X-98219Y438088D01*
X-95507Y435377D01*
X-95507Y429953D01*
X-98219Y427242D01*
X-109065Y438088D01*
D10*
X858950Y437150D02*
X858952Y437291D01*
X858958Y437432D01*
X858968Y437572D01*
X858982Y437712D01*
X859000Y437852D01*
X859021Y437991D01*
X859047Y438130D01*
X859076Y438268D01*
X859110Y438404D01*
X859147Y438540D01*
X859188Y438675D01*
X859233Y438809D01*
X859282Y438941D01*
X859334Y439072D01*
X859390Y439201D01*
X859450Y439328D01*
X859513Y439454D01*
X859579Y439578D01*
X859650Y439701D01*
X859723Y439821D01*
X859800Y439939D01*
X859880Y440055D01*
X859964Y440168D01*
X860050Y440279D01*
X860140Y440388D01*
X860233Y440494D01*
X860328Y440597D01*
X860427Y440698D01*
X860528Y440796D01*
X860632Y440891D01*
X860739Y440983D01*
X860848Y441072D01*
X860960Y441157D01*
X861074Y441240D01*
X861190Y441320D01*
X861309Y441396D01*
X861430Y441468D01*
X861552Y441538D01*
X861677Y441603D01*
X861803Y441666D01*
X861931Y441724D01*
X862061Y441779D01*
X862192Y441831D01*
X862325Y441878D01*
X862459Y441922D01*
X862594Y441963D01*
X862730Y441999D01*
X862867Y442031D01*
X863005Y442060D01*
X863143Y442085D01*
X863283Y442105D01*
X863423Y442122D01*
X863563Y442135D01*
X863704Y442144D01*
X863844Y442149D01*
X863985Y442150D01*
X864126Y442147D01*
X864267Y442140D01*
X864407Y442129D01*
X864547Y442114D01*
X864687Y442095D01*
X864826Y442073D01*
X864964Y442046D01*
X865102Y442016D01*
X865238Y441981D01*
X865374Y441943D01*
X865508Y441901D01*
X865642Y441855D01*
X865774Y441806D01*
X865904Y441752D01*
X866033Y441695D01*
X866160Y441635D01*
X866286Y441571D01*
X866409Y441503D01*
X866531Y441432D01*
X866651Y441358D01*
X866768Y441280D01*
X866883Y441199D01*
X866996Y441115D01*
X867107Y441028D01*
X867215Y440937D01*
X867320Y440844D01*
X867423Y440747D01*
X867523Y440648D01*
X867620Y440546D01*
X867714Y440441D01*
X867805Y440334D01*
X867893Y440224D01*
X867978Y440112D01*
X868060Y439997D01*
X868139Y439880D01*
X868214Y439761D01*
X868286Y439640D01*
X868354Y439517D01*
X868419Y439392D01*
X868481Y439265D01*
X868538Y439136D01*
X868593Y439006D01*
X868643Y438875D01*
X868690Y438742D01*
X868733Y438608D01*
X868772Y438472D01*
X868807Y438336D01*
X868839Y438199D01*
X868866Y438061D01*
X868890Y437922D01*
X868910Y437782D01*
X868926Y437642D01*
X868938Y437502D01*
X868946Y437361D01*
X868950Y437220D01*
X868950Y437080D01*
X868946Y436939D01*
X868938Y436798D01*
X868926Y436658D01*
X868910Y436518D01*
X868890Y436378D01*
X868866Y436239D01*
X868839Y436101D01*
X868807Y435964D01*
X868772Y435828D01*
X868733Y435692D01*
X868690Y435558D01*
X868643Y435425D01*
X868593Y435294D01*
X868538Y435164D01*
X868481Y435035D01*
X868419Y434908D01*
X868354Y434783D01*
X868286Y434660D01*
X868214Y434539D01*
X868139Y434420D01*
X868060Y434303D01*
X867978Y434188D01*
X867893Y434076D01*
X867805Y433966D01*
X867714Y433859D01*
X867620Y433754D01*
X867523Y433652D01*
X867423Y433553D01*
X867320Y433456D01*
X867215Y433363D01*
X867107Y433272D01*
X866996Y433185D01*
X866883Y433101D01*
X866768Y433020D01*
X866651Y432942D01*
X866531Y432868D01*
X866409Y432797D01*
X866286Y432729D01*
X866160Y432665D01*
X866033Y432605D01*
X865904Y432548D01*
X865774Y432494D01*
X865642Y432445D01*
X865508Y432399D01*
X865374Y432357D01*
X865238Y432319D01*
X865102Y432284D01*
X864964Y432254D01*
X864826Y432227D01*
X864687Y432205D01*
X864547Y432186D01*
X864407Y432171D01*
X864267Y432160D01*
X864126Y432153D01*
X863985Y432150D01*
X863844Y432151D01*
X863704Y432156D01*
X863563Y432165D01*
X863423Y432178D01*
X863283Y432195D01*
X863143Y432215D01*
X863005Y432240D01*
X862867Y432269D01*
X862730Y432301D01*
X862594Y432337D01*
X862459Y432378D01*
X862325Y432422D01*
X862192Y432469D01*
X862061Y432521D01*
X861931Y432576D01*
X861803Y432634D01*
X861677Y432697D01*
X861552Y432762D01*
X861430Y432832D01*
X861309Y432904D01*
X861190Y432980D01*
X861074Y433060D01*
X860960Y433143D01*
X860848Y433228D01*
X860739Y433317D01*
X860632Y433409D01*
X860528Y433504D01*
X860427Y433602D01*
X860328Y433703D01*
X860233Y433806D01*
X860140Y433912D01*
X860050Y434021D01*
X859964Y434132D01*
X859880Y434245D01*
X859800Y434361D01*
X859723Y434479D01*
X859650Y434599D01*
X859579Y434722D01*
X859513Y434846D01*
X859450Y434972D01*
X859390Y435099D01*
X859334Y435228D01*
X859282Y435359D01*
X859233Y435491D01*
X859188Y435625D01*
X859147Y435760D01*
X859110Y435896D01*
X859076Y436032D01*
X859047Y436170D01*
X859021Y436309D01*
X859000Y436448D01*
X858982Y436588D01*
X858968Y436728D01*
X858958Y436868D01*
X858952Y437009D01*
X858950Y437150D01*
X858950Y517150D02*
X858952Y517291D01*
X858958Y517432D01*
X858968Y517572D01*
X858982Y517712D01*
X859000Y517852D01*
X859021Y517991D01*
X859047Y518130D01*
X859076Y518268D01*
X859110Y518404D01*
X859147Y518540D01*
X859188Y518675D01*
X859233Y518809D01*
X859282Y518941D01*
X859334Y519072D01*
X859390Y519201D01*
X859450Y519328D01*
X859513Y519454D01*
X859579Y519578D01*
X859650Y519701D01*
X859723Y519821D01*
X859800Y519939D01*
X859880Y520055D01*
X859964Y520168D01*
X860050Y520279D01*
X860140Y520388D01*
X860233Y520494D01*
X860328Y520597D01*
X860427Y520698D01*
X860528Y520796D01*
X860632Y520891D01*
X860739Y520983D01*
X860848Y521072D01*
X860960Y521157D01*
X861074Y521240D01*
X861190Y521320D01*
X861309Y521396D01*
X861430Y521468D01*
X861552Y521538D01*
X861677Y521603D01*
X861803Y521666D01*
X861931Y521724D01*
X862061Y521779D01*
X862192Y521831D01*
X862325Y521878D01*
X862459Y521922D01*
X862594Y521963D01*
X862730Y521999D01*
X862867Y522031D01*
X863005Y522060D01*
X863143Y522085D01*
X863283Y522105D01*
X863423Y522122D01*
X863563Y522135D01*
X863704Y522144D01*
X863844Y522149D01*
X863985Y522150D01*
X864126Y522147D01*
X864267Y522140D01*
X864407Y522129D01*
X864547Y522114D01*
X864687Y522095D01*
X864826Y522073D01*
X864964Y522046D01*
X865102Y522016D01*
X865238Y521981D01*
X865374Y521943D01*
X865508Y521901D01*
X865642Y521855D01*
X865774Y521806D01*
X865904Y521752D01*
X866033Y521695D01*
X866160Y521635D01*
X866286Y521571D01*
X866409Y521503D01*
X866531Y521432D01*
X866651Y521358D01*
X866768Y521280D01*
X866883Y521199D01*
X866996Y521115D01*
X867107Y521028D01*
X867215Y520937D01*
X867320Y520844D01*
X867423Y520747D01*
X867523Y520648D01*
X867620Y520546D01*
X867714Y520441D01*
X867805Y520334D01*
X867893Y520224D01*
X867978Y520112D01*
X868060Y519997D01*
X868139Y519880D01*
X868214Y519761D01*
X868286Y519640D01*
X868354Y519517D01*
X868419Y519392D01*
X868481Y519265D01*
X868538Y519136D01*
X868593Y519006D01*
X868643Y518875D01*
X868690Y518742D01*
X868733Y518608D01*
X868772Y518472D01*
X868807Y518336D01*
X868839Y518199D01*
X868866Y518061D01*
X868890Y517922D01*
X868910Y517782D01*
X868926Y517642D01*
X868938Y517502D01*
X868946Y517361D01*
X868950Y517220D01*
X868950Y517080D01*
X868946Y516939D01*
X868938Y516798D01*
X868926Y516658D01*
X868910Y516518D01*
X868890Y516378D01*
X868866Y516239D01*
X868839Y516101D01*
X868807Y515964D01*
X868772Y515828D01*
X868733Y515692D01*
X868690Y515558D01*
X868643Y515425D01*
X868593Y515294D01*
X868538Y515164D01*
X868481Y515035D01*
X868419Y514908D01*
X868354Y514783D01*
X868286Y514660D01*
X868214Y514539D01*
X868139Y514420D01*
X868060Y514303D01*
X867978Y514188D01*
X867893Y514076D01*
X867805Y513966D01*
X867714Y513859D01*
X867620Y513754D01*
X867523Y513652D01*
X867423Y513553D01*
X867320Y513456D01*
X867215Y513363D01*
X867107Y513272D01*
X866996Y513185D01*
X866883Y513101D01*
X866768Y513020D01*
X866651Y512942D01*
X866531Y512868D01*
X866409Y512797D01*
X866286Y512729D01*
X866160Y512665D01*
X866033Y512605D01*
X865904Y512548D01*
X865774Y512494D01*
X865642Y512445D01*
X865508Y512399D01*
X865374Y512357D01*
X865238Y512319D01*
X865102Y512284D01*
X864964Y512254D01*
X864826Y512227D01*
X864687Y512205D01*
X864547Y512186D01*
X864407Y512171D01*
X864267Y512160D01*
X864126Y512153D01*
X863985Y512150D01*
X863844Y512151D01*
X863704Y512156D01*
X863563Y512165D01*
X863423Y512178D01*
X863283Y512195D01*
X863143Y512215D01*
X863005Y512240D01*
X862867Y512269D01*
X862730Y512301D01*
X862594Y512337D01*
X862459Y512378D01*
X862325Y512422D01*
X862192Y512469D01*
X862061Y512521D01*
X861931Y512576D01*
X861803Y512634D01*
X861677Y512697D01*
X861552Y512762D01*
X861430Y512832D01*
X861309Y512904D01*
X861190Y512980D01*
X861074Y513060D01*
X860960Y513143D01*
X860848Y513228D01*
X860739Y513317D01*
X860632Y513409D01*
X860528Y513504D01*
X860427Y513602D01*
X860328Y513703D01*
X860233Y513806D01*
X860140Y513912D01*
X860050Y514021D01*
X859964Y514132D01*
X859880Y514245D01*
X859800Y514361D01*
X859723Y514479D01*
X859650Y514599D01*
X859579Y514722D01*
X859513Y514846D01*
X859450Y514972D01*
X859390Y515099D01*
X859334Y515228D01*
X859282Y515359D01*
X859233Y515491D01*
X859188Y515625D01*
X859147Y515760D01*
X859110Y515896D01*
X859076Y516032D01*
X859047Y516170D01*
X859021Y516309D01*
X859000Y516448D01*
X858982Y516588D01*
X858968Y516728D01*
X858958Y516868D01*
X858952Y517009D01*
X858950Y517150D01*
X61275Y442925D02*
X61277Y443066D01*
X61283Y443207D01*
X61293Y443347D01*
X61307Y443487D01*
X61325Y443627D01*
X61346Y443766D01*
X61372Y443905D01*
X61401Y444043D01*
X61435Y444179D01*
X61472Y444315D01*
X61513Y444450D01*
X61558Y444584D01*
X61607Y444716D01*
X61659Y444847D01*
X61715Y444976D01*
X61775Y445103D01*
X61838Y445229D01*
X61904Y445353D01*
X61975Y445476D01*
X62048Y445596D01*
X62125Y445714D01*
X62205Y445830D01*
X62289Y445943D01*
X62375Y446054D01*
X62465Y446163D01*
X62558Y446269D01*
X62653Y446372D01*
X62752Y446473D01*
X62853Y446571D01*
X62957Y446666D01*
X63064Y446758D01*
X63173Y446847D01*
X63285Y446932D01*
X63399Y447015D01*
X63515Y447095D01*
X63634Y447171D01*
X63755Y447243D01*
X63877Y447313D01*
X64002Y447378D01*
X64128Y447441D01*
X64256Y447499D01*
X64386Y447554D01*
X64517Y447606D01*
X64650Y447653D01*
X64784Y447697D01*
X64919Y447738D01*
X65055Y447774D01*
X65192Y447806D01*
X65330Y447835D01*
X65468Y447860D01*
X65608Y447880D01*
X65748Y447897D01*
X65888Y447910D01*
X66029Y447919D01*
X66169Y447924D01*
X66310Y447925D01*
X66451Y447922D01*
X66592Y447915D01*
X66732Y447904D01*
X66872Y447889D01*
X67012Y447870D01*
X67151Y447848D01*
X67289Y447821D01*
X67427Y447791D01*
X67563Y447756D01*
X67699Y447718D01*
X67833Y447676D01*
X67967Y447630D01*
X68099Y447581D01*
X68229Y447527D01*
X68358Y447470D01*
X68485Y447410D01*
X68611Y447346D01*
X68734Y447278D01*
X68856Y447207D01*
X68976Y447133D01*
X69093Y447055D01*
X69208Y446974D01*
X69321Y446890D01*
X69432Y446803D01*
X69540Y446712D01*
X69645Y446619D01*
X69748Y446522D01*
X69848Y446423D01*
X69945Y446321D01*
X70039Y446216D01*
X70130Y446109D01*
X70218Y445999D01*
X70303Y445887D01*
X70385Y445772D01*
X70464Y445655D01*
X70539Y445536D01*
X70611Y445415D01*
X70679Y445292D01*
X70744Y445167D01*
X70806Y445040D01*
X70863Y444911D01*
X70918Y444781D01*
X70968Y444650D01*
X71015Y444517D01*
X71058Y444383D01*
X71097Y444247D01*
X71132Y444111D01*
X71164Y443974D01*
X71191Y443836D01*
X71215Y443697D01*
X71235Y443557D01*
X71251Y443417D01*
X71263Y443277D01*
X71271Y443136D01*
X71275Y442995D01*
X71275Y442855D01*
X71271Y442714D01*
X71263Y442573D01*
X71251Y442433D01*
X71235Y442293D01*
X71215Y442153D01*
X71191Y442014D01*
X71164Y441876D01*
X71132Y441739D01*
X71097Y441603D01*
X71058Y441467D01*
X71015Y441333D01*
X70968Y441200D01*
X70918Y441069D01*
X70863Y440939D01*
X70806Y440810D01*
X70744Y440683D01*
X70679Y440558D01*
X70611Y440435D01*
X70539Y440314D01*
X70464Y440195D01*
X70385Y440078D01*
X70303Y439963D01*
X70218Y439851D01*
X70130Y439741D01*
X70039Y439634D01*
X69945Y439529D01*
X69848Y439427D01*
X69748Y439328D01*
X69645Y439231D01*
X69540Y439138D01*
X69432Y439047D01*
X69321Y438960D01*
X69208Y438876D01*
X69093Y438795D01*
X68976Y438717D01*
X68856Y438643D01*
X68734Y438572D01*
X68611Y438504D01*
X68485Y438440D01*
X68358Y438380D01*
X68229Y438323D01*
X68099Y438269D01*
X67967Y438220D01*
X67833Y438174D01*
X67699Y438132D01*
X67563Y438094D01*
X67427Y438059D01*
X67289Y438029D01*
X67151Y438002D01*
X67012Y437980D01*
X66872Y437961D01*
X66732Y437946D01*
X66592Y437935D01*
X66451Y437928D01*
X66310Y437925D01*
X66169Y437926D01*
X66029Y437931D01*
X65888Y437940D01*
X65748Y437953D01*
X65608Y437970D01*
X65468Y437990D01*
X65330Y438015D01*
X65192Y438044D01*
X65055Y438076D01*
X64919Y438112D01*
X64784Y438153D01*
X64650Y438197D01*
X64517Y438244D01*
X64386Y438296D01*
X64256Y438351D01*
X64128Y438409D01*
X64002Y438472D01*
X63877Y438537D01*
X63755Y438607D01*
X63634Y438679D01*
X63515Y438755D01*
X63399Y438835D01*
X63285Y438918D01*
X63173Y439003D01*
X63064Y439092D01*
X62957Y439184D01*
X62853Y439279D01*
X62752Y439377D01*
X62653Y439478D01*
X62558Y439581D01*
X62465Y439687D01*
X62375Y439796D01*
X62289Y439907D01*
X62205Y440020D01*
X62125Y440136D01*
X62048Y440254D01*
X61975Y440374D01*
X61904Y440497D01*
X61838Y440621D01*
X61775Y440747D01*
X61715Y440874D01*
X61659Y441003D01*
X61607Y441134D01*
X61558Y441266D01*
X61513Y441400D01*
X61472Y441535D01*
X61435Y441671D01*
X61401Y441807D01*
X61372Y441945D01*
X61346Y442084D01*
X61325Y442223D01*
X61307Y442363D01*
X61293Y442503D01*
X61283Y442643D01*
X61277Y442784D01*
X61275Y442925D01*
X61275Y398925D02*
X61277Y399066D01*
X61283Y399207D01*
X61293Y399347D01*
X61307Y399487D01*
X61325Y399627D01*
X61346Y399766D01*
X61372Y399905D01*
X61401Y400043D01*
X61435Y400179D01*
X61472Y400315D01*
X61513Y400450D01*
X61558Y400584D01*
X61607Y400716D01*
X61659Y400847D01*
X61715Y400976D01*
X61775Y401103D01*
X61838Y401229D01*
X61904Y401353D01*
X61975Y401476D01*
X62048Y401596D01*
X62125Y401714D01*
X62205Y401830D01*
X62289Y401943D01*
X62375Y402054D01*
X62465Y402163D01*
X62558Y402269D01*
X62653Y402372D01*
X62752Y402473D01*
X62853Y402571D01*
X62957Y402666D01*
X63064Y402758D01*
X63173Y402847D01*
X63285Y402932D01*
X63399Y403015D01*
X63515Y403095D01*
X63634Y403171D01*
X63755Y403243D01*
X63877Y403313D01*
X64002Y403378D01*
X64128Y403441D01*
X64256Y403499D01*
X64386Y403554D01*
X64517Y403606D01*
X64650Y403653D01*
X64784Y403697D01*
X64919Y403738D01*
X65055Y403774D01*
X65192Y403806D01*
X65330Y403835D01*
X65468Y403860D01*
X65608Y403880D01*
X65748Y403897D01*
X65888Y403910D01*
X66029Y403919D01*
X66169Y403924D01*
X66310Y403925D01*
X66451Y403922D01*
X66592Y403915D01*
X66732Y403904D01*
X66872Y403889D01*
X67012Y403870D01*
X67151Y403848D01*
X67289Y403821D01*
X67427Y403791D01*
X67563Y403756D01*
X67699Y403718D01*
X67833Y403676D01*
X67967Y403630D01*
X68099Y403581D01*
X68229Y403527D01*
X68358Y403470D01*
X68485Y403410D01*
X68611Y403346D01*
X68734Y403278D01*
X68856Y403207D01*
X68976Y403133D01*
X69093Y403055D01*
X69208Y402974D01*
X69321Y402890D01*
X69432Y402803D01*
X69540Y402712D01*
X69645Y402619D01*
X69748Y402522D01*
X69848Y402423D01*
X69945Y402321D01*
X70039Y402216D01*
X70130Y402109D01*
X70218Y401999D01*
X70303Y401887D01*
X70385Y401772D01*
X70464Y401655D01*
X70539Y401536D01*
X70611Y401415D01*
X70679Y401292D01*
X70744Y401167D01*
X70806Y401040D01*
X70863Y400911D01*
X70918Y400781D01*
X70968Y400650D01*
X71015Y400517D01*
X71058Y400383D01*
X71097Y400247D01*
X71132Y400111D01*
X71164Y399974D01*
X71191Y399836D01*
X71215Y399697D01*
X71235Y399557D01*
X71251Y399417D01*
X71263Y399277D01*
X71271Y399136D01*
X71275Y398995D01*
X71275Y398855D01*
X71271Y398714D01*
X71263Y398573D01*
X71251Y398433D01*
X71235Y398293D01*
X71215Y398153D01*
X71191Y398014D01*
X71164Y397876D01*
X71132Y397739D01*
X71097Y397603D01*
X71058Y397467D01*
X71015Y397333D01*
X70968Y397200D01*
X70918Y397069D01*
X70863Y396939D01*
X70806Y396810D01*
X70744Y396683D01*
X70679Y396558D01*
X70611Y396435D01*
X70539Y396314D01*
X70464Y396195D01*
X70385Y396078D01*
X70303Y395963D01*
X70218Y395851D01*
X70130Y395741D01*
X70039Y395634D01*
X69945Y395529D01*
X69848Y395427D01*
X69748Y395328D01*
X69645Y395231D01*
X69540Y395138D01*
X69432Y395047D01*
X69321Y394960D01*
X69208Y394876D01*
X69093Y394795D01*
X68976Y394717D01*
X68856Y394643D01*
X68734Y394572D01*
X68611Y394504D01*
X68485Y394440D01*
X68358Y394380D01*
X68229Y394323D01*
X68099Y394269D01*
X67967Y394220D01*
X67833Y394174D01*
X67699Y394132D01*
X67563Y394094D01*
X67427Y394059D01*
X67289Y394029D01*
X67151Y394002D01*
X67012Y393980D01*
X66872Y393961D01*
X66732Y393946D01*
X66592Y393935D01*
X66451Y393928D01*
X66310Y393925D01*
X66169Y393926D01*
X66029Y393931D01*
X65888Y393940D01*
X65748Y393953D01*
X65608Y393970D01*
X65468Y393990D01*
X65330Y394015D01*
X65192Y394044D01*
X65055Y394076D01*
X64919Y394112D01*
X64784Y394153D01*
X64650Y394197D01*
X64517Y394244D01*
X64386Y394296D01*
X64256Y394351D01*
X64128Y394409D01*
X64002Y394472D01*
X63877Y394537D01*
X63755Y394607D01*
X63634Y394679D01*
X63515Y394755D01*
X63399Y394835D01*
X63285Y394918D01*
X63173Y395003D01*
X63064Y395092D01*
X62957Y395184D01*
X62853Y395279D01*
X62752Y395377D01*
X62653Y395478D01*
X62558Y395581D01*
X62465Y395687D01*
X62375Y395796D01*
X62289Y395907D01*
X62205Y396020D01*
X62125Y396136D01*
X62048Y396254D01*
X61975Y396374D01*
X61904Y396497D01*
X61838Y396621D01*
X61775Y396747D01*
X61715Y396874D01*
X61659Y397003D01*
X61607Y397134D01*
X61558Y397266D01*
X61513Y397400D01*
X61472Y397535D01*
X61435Y397671D01*
X61401Y397807D01*
X61372Y397945D01*
X61346Y398084D01*
X61325Y398223D01*
X61307Y398363D01*
X61293Y398503D01*
X61283Y398643D01*
X61277Y398784D01*
X61275Y398925D01*
D14*
X0Y-12000D02*
X908000Y-12000D01*
X908000Y813000D01*
X0Y814000D01*
X0Y-12000D01*
X864231Y442150D02*
X864789Y442087D01*
X865336Y441962D01*
X865866Y441777D01*
X866372Y441533D01*
X866848Y441234D01*
X867287Y440884D01*
X867684Y440487D01*
X868034Y440048D01*
X868333Y439572D01*
X868577Y439066D01*
X868762Y438536D01*
X868887Y437989D01*
X868950Y437431D01*
X868950Y436869D01*
X868887Y436311D01*
X868762Y435764D01*
X868577Y435234D01*
X868333Y434728D01*
X868034Y434252D01*
X867684Y433813D01*
X867287Y433416D01*
X866848Y433066D01*
X866372Y432767D01*
X865866Y432523D01*
X865336Y432338D01*
X864789Y432213D01*
X864231Y432150D01*
X863669Y432150D01*
X863111Y432213D01*
X862564Y432338D01*
X862034Y432523D01*
X861528Y432767D01*
X861052Y433066D01*
X860613Y433416D01*
X860216Y433813D01*
X859866Y434252D01*
X859567Y434728D01*
X859323Y435234D01*
X859138Y435764D01*
X859013Y436311D01*
X858950Y436869D01*
X858950Y437431D01*
X859013Y437989D01*
X859138Y438536D01*
X859323Y439066D01*
X859567Y439572D01*
X859866Y440048D01*
X860216Y440487D01*
X860613Y440884D01*
X861052Y441234D01*
X861528Y441533D01*
X862034Y441777D01*
X862564Y441962D01*
X863111Y442087D01*
X863669Y442150D01*
X864231Y442150D01*
X864231Y522150D02*
X864789Y522087D01*
X865336Y521962D01*
X865866Y521777D01*
X866372Y521533D01*
X866848Y521234D01*
X867287Y520884D01*
X867684Y520487D01*
X868034Y520048D01*
X868333Y519572D01*
X868577Y519066D01*
X868762Y518536D01*
X868887Y517989D01*
X868950Y517431D01*
X868950Y516869D01*
X868887Y516311D01*
X868762Y515764D01*
X868577Y515234D01*
X868333Y514728D01*
X868034Y514252D01*
X867684Y513813D01*
X867287Y513416D01*
X866848Y513066D01*
X866372Y512767D01*
X865866Y512523D01*
X865336Y512338D01*
X864789Y512213D01*
X864231Y512150D01*
X863669Y512150D01*
X863111Y512213D01*
X862564Y512338D01*
X862034Y512523D01*
X861528Y512767D01*
X861052Y513066D01*
X860613Y513416D01*
X860216Y513813D01*
X859866Y514252D01*
X859567Y514728D01*
X859323Y515234D01*
X859138Y515764D01*
X859013Y516311D01*
X858950Y516869D01*
X858950Y517431D01*
X859013Y517989D01*
X859138Y518536D01*
X859323Y519066D01*
X859567Y519572D01*
X859866Y520048D01*
X860216Y520487D01*
X860613Y520884D01*
X861052Y521234D01*
X861528Y521533D01*
X862034Y521777D01*
X862564Y521962D01*
X863111Y522087D01*
X863669Y522150D01*
X864231Y522150D01*
X65994Y437925D02*
X65436Y437988D01*
X64889Y438113D01*
X64359Y438298D01*
X63853Y438542D01*
X63377Y438841D01*
X62938Y439191D01*
X62541Y439588D01*
X62191Y440027D01*
X61892Y440503D01*
X61648Y441009D01*
X61463Y441539D01*
X61338Y442086D01*
X61275Y442644D01*
X61275Y443206D01*
X61338Y443764D01*
X61463Y444311D01*
X61648Y444841D01*
X61892Y445347D01*
X62191Y445823D01*
X62541Y446262D01*
X62938Y446659D01*
X63377Y447009D01*
X63853Y447308D01*
X64359Y447552D01*
X64889Y447737D01*
X65436Y447862D01*
X65994Y447925D01*
X66556Y447925D01*
X67114Y447862D01*
X67661Y447737D01*
X68191Y447552D01*
X68697Y447308D01*
X69173Y447009D01*
X69612Y446659D01*
X70009Y446262D01*
X70359Y445823D01*
X70658Y445347D01*
X70902Y444841D01*
X71087Y444311D01*
X71212Y443764D01*
X71275Y443206D01*
X71275Y442644D01*
X71212Y442086D01*
X71087Y441539D01*
X70902Y441009D01*
X70658Y440503D01*
X70359Y440027D01*
X70009Y439588D01*
X69612Y439191D01*
X69173Y438841D01*
X68697Y438542D01*
X68191Y438298D01*
X67661Y438113D01*
X67114Y437988D01*
X66556Y437925D01*
X65994Y437925D01*
X65994Y393925D02*
X65436Y393988D01*
X64889Y394113D01*
X64359Y394298D01*
X63853Y394542D01*
X63377Y394841D01*
X62938Y395191D01*
X62541Y395588D01*
X62191Y396027D01*
X61892Y396503D01*
X61648Y397009D01*
X61463Y397539D01*
X61338Y398086D01*
X61275Y398644D01*
X61275Y399206D01*
X61338Y399764D01*
X61463Y400311D01*
X61648Y400841D01*
X61892Y401347D01*
X62191Y401823D01*
X62541Y402262D01*
X62938Y402659D01*
X63377Y403009D01*
X63853Y403308D01*
X64359Y403552D01*
X64889Y403737D01*
X65436Y403862D01*
X65994Y403925D01*
X66556Y403925D01*
X67114Y403862D01*
X67661Y403737D01*
X68191Y403552D01*
X68697Y403308D01*
X69173Y403009D01*
X69612Y402659D01*
X70009Y402262D01*
X70359Y401823D01*
X70658Y401347D01*
X70902Y400841D01*
X71087Y400311D01*
X71212Y399764D01*
X71275Y399206D01*
X71275Y398644D01*
X71212Y398086D01*
X71087Y397539D01*
X70902Y397009D01*
X70658Y396503D01*
X70359Y396027D01*
X70009Y395588D01*
X69612Y395191D01*
X69173Y394841D01*
X68697Y394542D01*
X68191Y394298D01*
X67661Y394113D01*
X67114Y393988D01*
X66556Y393925D01*
X65994Y393925D01*
M02*
